<svg viewBox="0 0 303.641 37.6808" fill="none" xmlns="http://www.w3.org/2000/svg">
<g id="text80">
<path id="Vector" d="M295.003 36.7211L286.72 14.9511H286.568L286.77 36.7211H279.547V0.95974L288.437 0.95974L296.67 23.0328H296.822L296.67 0.95974L303.641 0.95974V36.7211H295.003Z" fill="var(--fill-0, #E54225)"/>
<path id="Vector_2" d="M256.906 36.7211V0.95974L274.181 0.95974V8.0817H264.634V15.1026H273.423V21.77H264.634V29.4981H274.787V36.7211H256.906Z" fill="var(--fill-0, #E54225)"/>
<path id="Vector_3" d="M248.424 9.54646C247.817 8.83932 247.11 8.30054 246.302 7.93013C245.494 7.52605 244.652 7.32401 243.777 7.32401C242.867 7.32401 242.042 7.61023 241.302 8.18269C240.594 8.75514 240.241 9.698 240.241 11.0113C240.241 12.1225 240.611 12.998 241.352 13.6378C242.093 14.2439 243.187 14.9174 244.635 15.6582C245.443 16.0623 246.285 16.5506 247.161 17.123C248.07 17.6618 248.895 18.3353 249.636 19.1434C250.377 19.9516 250.983 20.9281 251.454 22.073C251.959 23.1843 252.212 24.5144 252.212 26.0634C252.212 27.9828 251.909 29.6833 251.303 31.1649C250.697 32.6129 249.872 33.8251 248.828 34.8017C247.817 35.7445 246.639 36.4517 245.292 36.9231C243.945 37.4282 242.548 37.6808 241.1 37.6808C238.944 37.6808 236.975 37.2767 235.19 36.4685C233.439 35.6603 232.025 34.7175 230.947 33.6399L235.089 27.5787C235.863 28.3868 236.756 29.0435 237.766 29.5486C238.776 30.02 239.803 30.2557 240.847 30.2557C241.824 30.2557 242.649 29.9358 243.322 29.296C243.995 28.6562 244.332 27.7639 244.332 26.619C244.332 25.4404 243.928 24.5144 243.12 23.8409C242.312 23.1338 241.133 22.3929 239.584 21.6184C238.608 21.147 237.682 20.6251 236.806 20.0526C235.964 19.4802 235.207 18.7899 234.533 17.9817C233.893 17.1735 233.388 16.2307 233.018 15.1531C232.647 14.0756 232.462 12.796 232.462 11.3143C232.462 9.32759 232.782 7.62707 233.422 6.21278C234.095 4.76481 234.954 3.58624 235.998 2.67705C237.076 1.76786 238.254 1.09439 239.534 0.656636C240.847 0.218879 242.16 0 243.474 0C245.427 0 247.178 0.3199 248.727 0.9597C250.276 1.5995 251.572 2.47501 252.616 3.58624L248.424 9.54646Z" fill="var(--fill-0, #E54225)"/>
<path id="Vector_4" d="M225.141 9.54646C224.535 8.83932 223.828 8.30054 223.02 7.93013C222.212 7.52605 221.37 7.32401 220.495 7.32401C219.585 7.32401 218.76 7.61023 218.02 8.18269C217.312 8.75514 216.959 9.698 216.959 11.0113C216.959 12.1225 217.329 12.998 218.07 13.6378C218.811 14.2439 219.905 14.9174 221.353 15.6582C222.161 16.0623 223.003 16.5506 223.879 17.123C224.788 17.6618 225.613 18.3353 226.354 19.1434C227.095 19.9516 227.701 20.9281 228.172 22.073C228.677 23.1843 228.93 24.5144 228.93 26.0634C228.93 27.9828 228.627 29.6833 228.021 31.1649C227.414 32.6129 226.589 33.8251 225.546 34.8017C224.535 35.7445 223.357 36.4517 222.01 36.9231C220.663 37.4282 219.265 37.6808 217.817 37.6808C215.662 37.6808 213.692 37.2767 211.908 36.4685C210.157 35.6603 208.742 34.7175 207.665 33.6399L211.807 27.5787C212.581 28.3868 213.474 29.0435 214.484 29.5486C215.494 30.02 216.521 30.2557 217.565 30.2557C218.541 30.2557 219.366 29.9358 220.04 29.296C220.713 28.6562 221.05 27.7639 221.05 26.619C221.05 25.4404 220.646 24.5144 219.838 23.8409C219.03 23.1338 217.851 22.3929 216.302 21.6184C215.326 21.147 214.4 20.6251 213.524 20.0526C212.682 19.4802 211.925 18.7899 211.251 17.9817C210.611 17.1735 210.106 16.2307 209.736 15.1531C209.365 14.0756 209.18 12.796 209.18 11.3143C209.18 9.32759 209.5 7.62707 210.14 6.21278C210.813 4.76481 211.672 3.58624 212.716 2.67705C213.793 1.76786 214.972 1.09439 216.252 0.656636C217.565 0.218879 218.878 0 220.191 0C222.145 0 223.896 0.3199 225.445 0.9597C226.994 1.5995 228.29 2.47501 229.334 3.58624L225.141 9.54646Z" fill="var(--fill-0, #E54225)"/>
<path id="Vector_5" d="M204.581 23.4874C204.581 25.4741 204.345 27.3262 203.874 29.0435C203.436 30.7609 202.729 32.2593 201.752 33.5389C200.776 34.8185 199.513 35.8287 197.964 36.5696C196.415 37.3104 194.546 37.6808 192.357 37.6808C190.169 37.6808 188.317 37.3104 186.801 36.5696C185.286 35.8287 184.04 34.8185 183.064 33.5389C182.121 32.2593 181.43 30.7609 180.993 29.0435C180.589 27.3262 180.387 25.4741 180.387 23.4874V0.95974L188.519 0.95974V22.7802C188.519 23.7904 188.569 24.7333 188.67 25.6088C188.805 26.4843 189.024 27.242 189.327 27.8818C189.63 28.4879 190.034 28.9762 190.539 29.3466C191.044 29.717 191.701 29.9022 192.509 29.9022C193.317 29.9022 193.974 29.717 194.479 29.3466C194.984 28.9762 195.388 28.4879 195.691 27.8818C195.994 27.242 196.196 26.4843 196.297 25.6088C196.432 24.7333 196.499 23.7904 196.499 22.7802V0.95974L204.581 0.95974V23.4874Z" fill="var(--fill-0, #E54225)"/>
<path id="Vector_6" d="M168.787 36.7211L161.16 20.1032H161.009V36.7211H152.876V0.95974L161.009 0.95974V15.8603H161.16L168.535 0.95974L177.576 0.95974L168.383 17.3251L178.132 36.7211H168.787Z" fill="var(--fill-0, #E54225)"/>
<path id="Vector_7" d="M147.342 34.5996C146.197 35.4751 144.816 36.1823 143.2 36.7211C141.584 37.2598 139.681 37.5292 137.492 37.5292C135.236 37.5292 133.216 37.0746 131.431 36.1654C129.68 35.2563 128.182 33.9935 126.936 32.3772C125.724 30.7272 124.781 28.7572 124.107 26.4674C123.467 24.1776 123.148 21.6353 123.148 18.8404C123.148 16.0455 123.467 13.5031 124.107 11.2133C124.781 8.88983 125.724 6.90309 126.936 5.25308C128.148 3.5694 129.596 2.27297 131.28 1.36378C132.997 0.454593 134.9 0 136.987 0C139.412 0 141.432 0.42092 143.049 1.26276C144.699 2.07093 145.995 3.09797 146.938 4.34389L142.544 10.2536C141.331 8.56993 139.681 7.72809 137.593 7.72809C136.482 7.72809 135.523 8.03115 134.714 8.63728C133.906 9.20973 133.233 10.0011 132.694 11.0113C132.155 12.0215 131.751 13.2 131.482 14.547C131.246 15.8939 131.128 17.3251 131.128 18.8404C131.128 20.3557 131.246 21.7868 131.482 23.1338C131.717 24.4807 132.088 25.6593 132.593 26.6695C133.132 27.6797 133.788 28.4879 134.563 29.094C135.371 29.7001 136.331 30.0032 137.442 30.0032C138.654 30.0032 139.597 29.7506 140.271 29.2455V22.5781H136.432V15.5572H147.342V34.5996Z" fill="var(--fill-0, #E54225)"/>
<path id="Vector_8" d="M109.634 36.7211L101.35 14.9511H101.199L101.401 36.7211H94.1778V0.95974L103.068 0.95974L111.301 23.0328H111.452L111.301 0.95974L118.271 0.95974V36.7211H109.634Z" fill="var(--fill-0, #E54225)"/>
<path id="Vector_9" d="M79.6759 36.7211V0.95974L87.808 0.95974V36.7211H79.6759Z" fill="var(--fill-0, #E54225)"/>
<path id="Vector_10" d="M67.3 36.7211L62.5016 22.4772H60.1276V36.7211H52.349V0.95974L63.8148 0.95974C67.2832 0.95974 69.9771 1.86893 71.8965 3.6873C73.8159 5.472 74.7756 8.14905 74.7756 11.7185C74.7756 13.0317 74.6241 14.2103 74.321 15.2542C74.0179 16.2981 73.6138 17.1904 73.1087 17.9312C72.6373 18.672 72.0985 19.2782 71.4924 19.7496C70.8863 20.221 70.297 20.5578 69.7245 20.7598L75.8363 36.7211H67.3ZM66.7949 12.173C66.7949 11.2639 66.6602 10.523 66.3909 9.95059C66.1551 9.37814 65.8352 8.92354 65.4312 8.58681C65.0271 8.25007 64.5725 8.03119 64.0674 7.93017C63.5959 7.79548 63.1245 7.72813 62.6531 7.72813H60.1276V16.7695H62.5016C63.6465 16.7695 64.6398 16.4159 65.4817 15.7088C66.3572 14.968 66.7949 13.7894 66.7949 12.173Z" fill="var(--fill-0, #E54225)"/>
<path id="Vector_11" d="M48.0322 12.173C48.0322 14.1598 47.7292 15.8771 47.123 17.3251C46.5169 18.7731 45.7088 19.9685 44.6985 20.9113C43.6883 21.8542 42.5434 22.5614 41.2638 23.0328C39.9842 23.4705 38.6878 23.6894 37.3745 23.6894H33.8893V36.7211H25.9592V0.95974L37.0715 0.95974C38.3511 0.95974 39.6307 1.14494 40.9103 1.51535C42.2235 1.88576 43.4021 2.50872 44.446 3.38424C45.5235 4.22608 46.3822 5.37098 47.022 6.81894C47.6955 8.26691 48.0322 10.0516 48.0322 12.173ZM40.4557 12.3246C40.4557 10.7082 40.0684 9.5465 39.2939 8.83936C38.5194 8.13221 37.5766 7.77864 36.4654 7.77864H33.8893V17.1231H36.4654C37.5766 17.1231 38.5194 16.719 39.2939 15.9108C40.0684 15.069 40.4557 13.8736 40.4557 12.3246Z" fill="var(--fill-0, #E54225)"/>
<path id="Vector_12" d="M17.4766 9.54649C16.8705 8.83935 16.1633 8.30057 15.3552 7.93016C14.547 7.52608 13.7052 7.32404 12.8296 7.32404C11.9205 7.32404 11.0954 7.61026 10.3546 8.18271C9.64749 8.75516 9.29391 9.69802 9.29391 11.0113C9.29391 12.1225 9.66432 12.998 10.4051 13.6378C11.146 14.244 12.2404 14.9174 13.6883 15.6583C14.4965 16.0623 15.3383 16.5506 16.2138 17.1231C17.123 17.6618 17.948 18.3353 18.6888 19.1435C19.4297 19.9516 20.0358 20.9282 20.5072 22.0731C21.0123 23.1843 21.2649 24.5144 21.2649 26.0634C21.2649 27.9828 20.9618 29.6833 20.3557 31.1649C19.7496 32.6129 18.9246 33.8252 17.8807 34.8017C16.8705 35.7446 15.6919 36.4517 14.345 36.9231C12.998 37.4282 11.6006 37.6808 10.1526 37.6808C7.99748 37.6808 6.02757 37.2767 4.24287 36.4685C2.49185 35.6604 1.07756 34.7175 0 33.64L4.14185 27.5787C4.91634 28.3869 5.80869 29.0435 6.8189 29.5486C7.82911 30.02 8.85616 30.2558 9.90004 30.2558C10.8766 30.2558 11.7016 29.9359 12.375 29.2961C13.0485 28.6563 13.3853 27.7639 13.3853 26.619C13.3853 25.4404 12.9812 24.5144 12.173 23.8409C11.3648 23.1338 10.1863 22.393 8.63728 21.6185C7.66074 21.147 6.73472 20.6251 5.8592 20.0527C5.01737 19.4802 4.25971 18.7899 3.58624 17.9817C2.94644 17.1736 2.44134 16.2307 2.07093 15.1531C1.70052 14.0756 1.51531 12.796 1.51531 11.3144C1.51531 9.32762 1.83521 7.6271 2.47501 6.21281C3.14848 4.76484 4.00716 3.58627 5.05104 2.67708C6.12859 1.76789 7.30717 1.09442 8.58677 0.656665C9.90004 0.218908 11.2133 2.89948e-05 12.5266 2.89948e-05C14.4796 2.89948e-05 16.2307 0.319929 17.7797 0.959729C19.3286 1.59953 20.6251 2.47504 21.669 3.58627L17.4766 9.54649Z" fill="var(--fill-0, #E54225)"/>
</g>
</svg>
