<svg viewBox="0 0 541.914 35.9407" fill="none" xmlns="http://www.w3.org/2000/svg">
<g id="text80">
<path id="Vector" d="M533.675 35.0253L525.774 14.2607H525.63L525.822 35.0253H518.933V0.915408L527.412 0.915408L535.265 21.9691H535.41L535.265 0.915408H541.914V35.0253H533.675Z" fill="var(--fill-0, #12BDD6)"/>
<path id="Vector_2" d="M497.338 35.0253V0.915408L513.814 0.915408V7.70849H504.709V14.4052H513.092V20.7647H504.709V28.1359H514.392V35.0253H497.338Z" fill="var(--fill-0, #12BDD6)"/>
<path id="Vector_3" d="M476.965 35.0253V0.915408H484.77V27.895H493.876V35.0253H476.965Z" fill="var(--fill-0, #12BDD6)"/>
<path id="Vector_4" d="M456.593 35.0253V0.915408H464.398V27.895H473.504V35.0253H456.593Z" fill="var(--fill-0, #12BDD6)"/>
<path id="Vector_5" d="M434.998 35.0253V0.915408L451.475 0.915408V7.70849H442.369V14.4052H450.752V20.7647H442.369V28.1359H452.053V35.0253H434.998Z" fill="var(--fill-0, #12BDD6)"/>
<path id="Vector_6" d="M430.881 11.6109C430.881 13.5059 430.592 15.1439 430.013 16.525C429.435 17.9061 428.664 19.0463 427.701 19.9457C426.737 20.845 425.645 21.5195 424.425 21.9691C423.204 22.3867 421.968 22.5954 420.715 22.5954H417.391V35.0253H409.827V0.915408L420.426 0.915408C421.647 0.915408 422.867 1.09206 424.088 1.44536C425.34 1.79867 426.464 2.39286 427.46 3.22794C428.488 4.03091 429.307 5.12294 429.917 6.50404C430.559 7.88514 430.881 9.58742 430.881 11.6109ZM423.654 11.7554C423.654 10.2137 423.285 9.10564 422.546 8.43115C421.807 7.75666 420.908 7.41942 419.848 7.41942H417.391V16.3323H419.848C420.908 16.3323 421.807 15.9469 422.546 15.1761C423.285 14.3731 423.654 13.2329 423.654 11.7554Z" fill="var(--fill-0, #12BDD6)"/>
<path id="Vector_7" d="M401.736 9.10564C401.158 8.43115 400.483 7.91725 399.713 7.56394C398.942 7.17852 398.139 6.98581 397.304 6.98581C396.436 6.98581 395.65 7.25882 394.943 7.80484C394.268 8.35085 393.931 9.25017 393.931 10.5028C393.931 11.5627 394.285 12.3978 394.991 13.008C395.698 13.5862 396.742 14.2286 398.123 14.9352C398.894 15.3206 399.697 15.7863 400.532 16.3323C401.399 16.8462 402.186 17.4886 402.892 18.2594C403.599 19.0303 404.177 19.9617 404.627 21.0538C405.109 22.1137 405.349 23.3823 405.349 24.8598C405.349 26.6906 405.06 28.3125 404.482 29.7258C403.904 31.1069 403.117 32.2631 402.121 33.1946C401.158 34.0939 400.034 34.7684 398.749 35.218C397.464 35.6998 396.131 35.9407 394.75 35.9407C392.695 35.9407 390.816 35.5553 389.113 34.7844C387.443 34.0136 386.094 33.1143 385.067 32.0865L389.017 26.3051C389.756 27.076 390.607 27.7023 391.571 28.1841C392.534 28.6337 393.514 28.8586 394.509 28.8586C395.441 28.8586 396.228 28.5534 396.87 27.9432C397.512 27.3329 397.834 26.4818 397.834 25.3898C397.834 24.2656 397.448 23.3823 396.677 22.74C395.907 22.0655 394.782 21.3589 393.305 20.6201C392.373 20.1705 391.49 19.6727 390.655 19.1266C389.852 18.5806 389.13 17.9222 388.487 17.1513C387.877 16.3805 387.395 15.4812 387.042 14.4534C386.688 13.4256 386.512 12.2051 386.512 10.7919C386.512 8.89687 386.817 7.27488 387.427 5.9259C388.07 4.5448 388.889 3.42065 389.884 2.55345C390.912 1.68624 392.036 1.04387 393.257 0.626331C394.509 0.208789 395.762 1.87394e-05 397.015 1.87394e-05C398.877 1.87394e-05 400.548 0.305146 402.025 0.9154C403.503 1.52565 404.739 2.36074 405.735 3.42065L401.736 9.10564Z" fill="var(--fill-0, #12BDD6)"/>
<path id="Vector_8" d="M356.38 35.0253V0.915408L372.856 0.915408V7.70849H363.751V14.4052H372.134V20.7647H363.751V28.1359H373.435V35.0253H356.38Z" fill="var(--fill-0, #12BDD6)"/>
<path id="Vector_9" d="M342.631 35.0253V20.7647H334.681V35.0253H327.021V0.915408H334.681V13.8753H342.631V0.915408H350.291V35.0253H342.631Z" fill="var(--fill-0, #12BDD6)"/>
<path id="Vector_10" d="M323.662 31.3156C322.731 32.6325 321.51 33.7406 320.001 34.6399C318.491 35.5071 316.564 35.9407 314.219 35.9407C312.228 35.9407 310.413 35.5071 308.775 34.6399C307.169 33.7406 305.788 32.504 304.632 30.9302C303.476 29.3243 302.577 27.4293 301.934 25.2452C301.292 23.029 300.971 20.6041 300.971 17.9704C300.971 15.3045 301.292 12.8635 301.934 10.6473C302.577 8.43115 303.476 6.53615 304.632 4.96234C305.788 3.38853 307.169 2.16802 308.775 1.30082C310.413 0.433619 312.228 1.87394e-05 314.219 1.87394e-05C316.5 1.87394e-05 318.395 0.41756 319.904 1.25264C321.446 2.05561 322.683 3.06734 323.614 4.28785L319.471 9.87648C318.893 9.10564 318.234 8.49539 317.496 8.04572C316.789 7.59606 315.89 7.37123 314.798 7.37123C313.77 7.37123 312.871 7.64424 312.1 8.19026C311.361 8.73627 310.719 9.49106 310.173 10.4546C309.659 11.3861 309.273 12.5102 309.016 13.8271C308.759 15.1118 308.631 16.4929 308.631 17.9704C308.631 19.4478 308.759 20.8289 309.016 22.1137C309.273 23.3984 309.659 24.5226 310.173 25.4861C310.719 26.4497 311.377 27.2045 312.148 27.7505C312.919 28.2965 313.818 28.5695 314.846 28.5695C315.874 28.5695 316.773 28.3126 317.544 27.7987C318.315 27.2848 318.925 26.6745 319.374 25.9679L323.662 31.3156Z" fill="var(--fill-0, #12BDD6)"/>
<path id="Vector_11" d="M294.277 9.10564C293.699 8.43115 293.024 7.91725 292.253 7.56394C291.483 7.17852 290.68 6.98581 289.844 6.98581C288.977 6.98581 288.19 7.25882 287.484 7.80484C286.809 8.35085 286.472 9.25017 286.472 10.5028C286.472 11.5627 286.825 12.3978 287.532 13.008C288.239 13.5862 289.282 14.2286 290.663 14.9352C291.434 15.3206 292.237 15.7863 293.072 16.3323C293.94 16.8462 294.726 17.4886 295.433 18.2594C296.14 19.0303 296.718 19.9617 297.167 21.0538C297.649 22.1137 297.89 23.3823 297.89 24.8598C297.89 26.6906 297.601 28.3125 297.023 29.7258C296.445 31.1069 295.658 32.2631 294.662 33.1946C293.699 34.0939 292.575 34.7684 291.29 35.218C290.005 35.6998 288.672 35.9407 287.291 35.9407C285.235 35.9407 283.357 35.5553 281.654 34.7844C279.984 34.0136 278.635 33.1143 277.607 32.0865L281.558 26.3051C282.297 27.076 283.148 27.7023 284.111 28.1841C285.075 28.6337 286.054 28.8586 287.05 28.8586C287.982 28.8586 288.768 28.5534 289.411 27.9432C290.053 27.3329 290.374 26.4818 290.374 25.3898C290.374 24.2656 289.989 23.3823 289.218 22.74C288.447 22.0655 287.323 21.3589 285.846 20.6201C284.914 20.1705 284.031 19.6727 283.196 19.1266C282.393 18.5806 281.67 17.9222 281.028 17.1513C280.418 16.3805 279.936 15.4812 279.583 14.4534C279.229 13.4256 279.053 12.2051 279.053 10.7919C279.053 8.89687 279.358 7.27488 279.968 5.9259C280.61 4.5448 281.429 3.42065 282.425 2.55345C283.453 1.68624 284.577 1.04387 285.798 0.626331C287.05 0.208789 288.303 1.87394e-05 289.555 1.87394e-05C291.418 1.87394e-05 293.088 0.305146 294.566 0.9154C296.043 1.52565 297.28 2.36074 298.276 3.42065L294.277 9.10564Z" fill="var(--fill-0, #12BDD6)"/>
<path id="Vector_12" d="M275.495 18.0667C275.495 20.6362 275.206 22.9648 274.628 25.0525C274.082 27.1402 273.231 28.9228 272.074 30.4003C270.918 31.8777 269.441 33.0179 267.642 33.8209C265.875 34.6239 263.772 35.0253 261.331 35.0253H251.743V0.915408L261.331 0.915408C263.772 0.915408 265.875 1.31689 267.642 2.11985C269.441 2.92282 270.918 4.07909 272.074 5.58866C273.231 7.06612 274.082 8.86476 274.628 10.9846C275.206 13.0723 275.495 15.433 275.495 18.0667ZM267.738 18.0667C267.738 14.63 267.144 12.0445 265.956 10.3101C264.799 8.54357 263.29 7.66031 261.427 7.66031H259.548V28.2804H261.427C263.29 28.2804 264.799 27.4132 265.956 25.6788C267.144 23.9123 267.738 21.3749 267.738 18.0667Z" fill="var(--fill-0, #12BDD6)"/>
<path id="Vector_13" d="M237.457 35.0253L229.556 14.2607H229.411L229.604 35.0253H222.714V0.915408L231.194 0.915408L239.047 21.9691H239.191L239.047 0.915408H245.695V35.0253H237.457Z" fill="var(--fill-0, #12BDD6)"/>
<path id="Vector_14" d="M211.683 35.0253L210.286 28.8104H202.626L201.228 35.0253H193.52L201.807 0.915408H211.49L219.729 35.0253H211.683ZM206.576 8.3348H206.384L203.493 22.8363H209.322L206.576 8.3348Z" fill="var(--fill-0, #12BDD6)"/>
<path id="Vector_15" d="M176.183 35.0253V0.915408H183.988V27.895H193.093V35.0253H176.183Z" fill="var(--fill-0, #12BDD6)"/>
<path id="Vector_16" d="M155.811 35.0253V0.915408H163.616V27.895H172.721V35.0253H155.811Z" fill="var(--fill-0, #12BDD6)"/>
<path id="Vector_17" d="M151.123 17.874C151.123 20.572 150.818 23.0451 150.208 25.2934C149.597 27.5096 148.73 29.4046 147.606 30.9784C146.482 32.5522 145.101 33.7727 143.463 34.6399C141.857 35.5071 140.042 35.9407 138.019 35.9407C135.995 35.9407 134.164 35.5071 132.526 34.6399C130.92 33.7727 129.555 32.5522 128.431 30.9784C127.307 29.4046 126.44 27.5096 125.83 25.2934C125.219 23.0451 124.914 20.572 124.914 17.874C124.914 15.176 125.203 12.735 125.781 10.551C126.392 8.33479 127.259 6.45585 128.383 4.91416C129.507 3.34035 130.872 2.1359 132.478 1.30082C134.116 0.433619 135.963 1.87394e-05 138.019 1.87394e-05C140.042 1.87394e-05 141.857 0.433619 143.463 1.30082C145.101 2.1359 146.482 3.34035 147.606 4.91416C148.73 6.45585 149.597 8.33479 150.208 10.551C150.818 12.735 151.123 15.176 151.123 17.874ZM143.222 17.874C143.222 16.3966 143.109 15.0315 142.885 13.7789C142.66 12.4941 142.323 11.3861 141.873 10.4546C141.455 9.52318 140.925 8.80051 140.283 8.28661C139.641 7.7406 138.886 7.46759 138.019 7.46759C137.151 7.46759 136.381 7.7406 135.706 8.28661C135.064 8.80051 134.518 9.52318 134.068 10.4546C133.651 11.3861 133.329 12.4941 133.104 13.7789C132.912 15.0315 132.815 16.3966 132.815 17.874C132.815 19.3515 132.912 20.7326 133.104 22.0173C133.329 23.302 133.651 24.4101 134.068 25.3416C134.518 26.273 135.064 27.0117 135.706 27.5578C136.381 28.1038 137.151 28.3768 138.019 28.3768C138.886 28.3768 139.641 28.1038 140.283 27.5578C140.925 27.0117 141.455 26.273 141.873 25.3416C142.323 24.4101 142.66 23.302 142.885 22.0173C143.109 20.7326 143.222 19.3515 143.222 17.874Z" fill="var(--fill-0, #12BDD6)"/>
<path id="Vector_18" d="M112.563 35.0253V20.7647H104.613V35.0253H96.953V0.915408H104.613V13.8753H112.563V0.915408H120.223V35.0253H112.563Z" fill="var(--fill-0, #12BDD6)"/>
<path id="Vector_19" d="M82.6423 18.0667C82.6423 20.6362 82.3533 22.9648 81.7751 25.0525C81.2291 27.1402 80.378 28.9228 79.2217 30.4003C78.0654 31.8777 76.588 33.0179 74.7893 33.8209C73.0228 34.6239 70.919 35.0253 68.478 35.0253H58.8906V0.915408L68.478 0.915408C70.919 0.915408 73.0228 1.31689 74.7893 2.11985C76.588 2.92282 78.0654 4.07909 79.2217 5.58866C80.378 7.06612 81.2291 8.86476 81.7751 10.9846C82.3533 13.0723 82.6423 15.433 82.6423 18.0667ZM74.8857 18.0667C74.8857 14.63 74.2915 12.0445 73.1031 10.3101C71.9468 8.54357 70.4373 7.66031 68.5744 7.66031H66.6955V28.2804H68.5744C70.4373 28.2804 71.9468 27.4132 73.1031 25.6788C74.2915 23.9123 74.8857 21.3749 74.8857 18.0667Z" fill="var(--fill-0, #12BDD6)"/>
<path id="Vector_20" d="M53.3958 22.4027C53.3958 24.2977 53.171 26.0643 52.7213 27.7023C52.3038 29.3404 51.6293 30.7696 50.6978 31.9901C49.7664 33.2106 48.562 34.1742 47.0845 34.8808C45.607 35.5874 43.8245 35.9407 41.7368 35.9407C39.6491 35.9407 37.8825 35.5874 36.4372 34.8808C34.9919 34.1742 33.8035 33.2106 32.872 31.9901C31.9727 30.7696 31.3143 29.3404 30.8967 27.7023C30.5113 26.0643 30.3186 24.2977 30.3186 22.4027V0.915408H38.0752V21.7282C38.0752 22.6918 38.1234 23.5911 38.2198 24.4262C38.3482 25.2613 38.557 25.984 38.8461 26.5942C39.1352 27.1724 39.5206 27.6381 40.0024 27.9914C40.4841 28.3447 41.1104 28.5213 41.8813 28.5213C42.6521 28.5213 43.2785 28.3447 43.7602 27.9914C44.242 27.6381 44.6274 27.1724 44.9165 26.5942C45.2056 25.984 45.3983 25.2613 45.4946 24.4262C45.6231 23.5911 45.6873 22.6918 45.6873 21.7282V0.915408H53.3958V22.4027Z" fill="var(--fill-0, #12BDD6)"/>
<path id="Vector_21" d="M26.2088 17.874C26.2088 20.572 25.9036 23.0451 25.2934 25.2934C24.6831 27.5096 23.8159 29.4046 22.6918 30.9784C21.5676 32.5522 20.1865 33.7727 18.5485 34.6399C16.9426 35.5071 15.1279 35.9407 13.1044 35.9407C11.0809 35.9407 9.25015 35.5071 7.6121 34.6399C6.00617 33.7727 4.64114 32.5522 3.51698 30.9784C2.39283 29.4046 1.52563 27.5096 0.915379 25.2934C0.305126 23.0451 0 20.572 0 17.874C0 15.176 0.289067 12.735 0.867202 10.551C1.47745 8.33477 2.34466 6.45584 3.46881 4.91415C4.59296 3.34033 5.958 2.13589 7.56393 1.3008C9.20197 0.4336 11.0488 0 13.1044 0C15.1279 0 16.9426 0.4336 18.5485 1.3008C20.1865 2.13589 21.5676 3.34033 22.6918 4.91415C23.8159 6.45584 24.6831 8.33477 25.2934 10.551C25.9036 12.735 26.2088 15.176 26.2088 17.874ZM18.3076 17.874C18.3076 16.3965 18.1952 15.0315 17.9703 13.7789C17.7455 12.4941 17.4083 11.386 16.9586 10.4546C16.5411 9.52316 16.0111 8.80049 15.3687 8.2866C14.7264 7.74058 13.9716 7.46757 13.1044 7.46757C12.2372 7.46757 11.4663 7.74058 10.7918 8.2866C10.1495 8.80049 9.60346 9.52316 9.1538 10.4546C8.73625 11.386 8.41507 12.4941 8.19024 13.7789C7.99753 15.0315 7.90117 16.3965 7.90117 17.874C7.90117 19.3514 7.99753 20.7325 8.19024 22.0173C8.41507 23.302 8.73625 24.4101 9.1538 25.3416C9.60346 26.273 10.1495 27.0117 10.7918 27.5577C11.4663 28.1038 12.2372 28.3768 13.1044 28.3768C13.9716 28.3768 14.7264 28.1038 15.3687 27.5577C16.0111 27.0117 16.5411 26.273 16.9586 25.3416C17.4083 24.4101 17.7455 23.302 17.9703 22.0173C18.1952 20.7325 18.3076 19.3514 18.3076 17.874Z" fill="var(--fill-0, #12BDD6)"/>
</g>
</svg>
