<svg viewBox="0 0 216.507 37.6879" fill="none" xmlns="http://www.w3.org/2000/svg">
<g id="text80">
<path id="Vector" d="M207.969 36.7279L203.17 22.4813H200.795V36.7279H193.015V0.959812L204.483 0.959812C207.952 0.959812 210.647 1.86917 212.567 3.68788C214.486 5.47292 215.446 8.15048 215.446 11.7205C215.446 13.0341 215.295 14.2129 214.991 15.2569C214.688 16.301 214.284 17.1935 213.779 17.9345C213.307 18.6755 212.769 19.2817 212.162 19.7532C211.556 20.2247 210.967 20.5615 210.394 20.7636L216.507 36.7279H207.969ZM207.464 12.1752C207.464 11.2659 207.329 10.5249 207.06 9.95235C206.824 9.37979 206.504 8.92511 206.1 8.58831C205.696 8.25151 205.241 8.0326 204.736 7.93156C204.264 7.79684 203.793 7.72948 203.321 7.72948H200.795V16.7725H203.17C204.315 16.7725 205.308 16.4189 206.15 15.7116C207.026 14.9707 207.464 13.7919 207.464 12.1752Z" fill="var(--fill-0, #384FA2)"/>
<path id="Vector_2" d="M181.448 36.7279L179.983 30.2108H171.95L170.485 36.7279H162.402L171.091 0.959812H181.246L189.885 36.7279H181.448ZM176.093 8.73987H175.891L172.859 23.9464H178.972L176.093 8.73987Z" fill="var(--fill-0, #384FA2)"/>
<path id="Vector_3" d="M160.586 26.5229C160.586 28.4426 160.266 30.0593 159.626 31.3728C159.02 32.6526 158.211 33.6967 157.201 34.505C156.19 35.2797 155.045 35.8522 153.766 36.2227C152.519 36.5595 151.256 36.7279 149.977 36.7279H138.104V0.959812L148.815 0.959812C149.926 0.959812 151.105 1.07769 152.351 1.31345C153.597 1.54921 154.725 2.00389 155.736 2.67749C156.78 3.31741 157.639 4.2436 158.312 5.45608C159.02 6.66856 159.373 8.23468 159.373 10.1544C159.373 12.2763 158.935 13.9771 158.06 15.2569C157.218 16.5031 156.174 17.4125 154.927 17.985V18.0861C155.601 18.2545 156.275 18.5576 156.948 18.9954C157.622 19.4333 158.228 20.0058 158.767 20.7131C159.306 21.3867 159.744 22.2118 160.081 23.1886C160.417 24.1653 160.586 25.2767 160.586 26.5229ZM152.25 11.4679C152.25 10.0871 151.863 9.11035 151.088 8.53779C150.313 7.96524 149.404 7.67896 148.36 7.67896H145.632V15.4085H148.41C149.387 15.4085 150.263 15.1054 151.037 14.4991C151.846 13.8929 152.25 12.8825 152.25 11.4679ZM152.907 25.7651C152.907 24.9568 152.772 24.2832 152.503 23.7443C152.267 23.1717 151.93 22.717 151.492 22.3802C151.088 22.0098 150.616 21.7403 150.078 21.5719C149.572 21.4035 149.067 21.3193 148.562 21.3193H145.632V30.0087H148.663C149.842 30.0087 150.835 29.6551 151.644 28.9478C152.486 28.2406 152.907 27.1796 152.907 25.7651Z" fill="var(--fill-0, #384FA2)"/>
<path id="Vector_4" d="M125.305 36.7279L117.676 20.1069H117.525V36.7279H109.391V0.959812L117.525 0.959812V15.8632H117.676L125.052 0.959812L134.095 0.959812L124.901 17.3283L134.651 36.7279H125.305Z" fill="var(--fill-0, #384FA2)"/>
<path id="Vector_5" d="M105.869 32.8379C104.892 34.2188 103.612 35.3808 102.029 36.3238C100.446 37.2332 98.4256 37.6878 95.9669 37.6878C93.8788 37.6878 91.9759 37.2332 90.2582 36.3238C88.5742 35.3808 87.1259 34.0841 85.9135 32.4338C84.701 30.7498 83.7579 28.7627 83.0843 26.4724C82.4108 24.1485 82.074 21.6057 82.074 18.8439C82.074 16.0485 82.4108 13.4888 83.0843 11.1649C83.7579 8.84098 84.701 6.85387 85.9135 5.20355C87.1259 3.55323 88.5742 2.2734 90.2582 1.36404C91.9759 0.45468 93.8788 0 95.9669 0C98.3582 0 100.345 0.437839 101.928 1.31352C103.545 2.15552 104.842 3.21643 105.818 4.49627L101.474 10.3566C100.867 9.54826 100.177 8.90834 99.4023 8.43683C98.6613 7.96531 97.7183 7.72955 96.5732 7.72955C95.4954 7.72955 94.5524 8.01583 93.744 8.58838C92.9694 9.16094 92.2958 9.95242 91.7233 10.9628C91.1844 11.9395 90.7802 13.1183 90.5108 14.4992C90.2413 15.8464 90.1066 17.2946 90.1066 18.8439C90.1066 20.3932 90.2413 21.8414 90.5108 23.1886C90.7802 24.5358 91.1844 25.7146 91.7233 26.725C92.2958 27.7354 92.9863 28.5269 93.7946 29.0995C94.6029 29.672 95.5459 29.9583 96.6237 29.9583C97.7014 29.9583 98.6445 29.6889 99.4528 29.15C100.261 28.6111 100.901 27.9712 101.373 27.2302L105.869 32.8379Z" fill="var(--fill-0, #384FA2)"/>
<path id="Vector_6" d="M72.2675 36.7279L70.8024 30.2108H62.7698L61.3047 36.7279H53.2215L61.9109 0.959812H72.0654L80.7043 36.7279H72.2675ZM66.9124 8.73987H66.7103L63.6791 23.9464H69.792L66.9124 8.73987Z" fill="var(--fill-0, #384FA2)"/>
<path id="Vector_7" d="M41.4232 36.7279L33.1379 14.9538H32.9864L33.1884 36.7279H25.9641V0.959812L34.8556 0.959812L43.0903 23.037H43.2419L43.0903 0.959812L50.0621 0.959812V36.7279H41.4232Z" fill="var(--fill-0, #384FA2)"/>
<path id="Vector_8" d="M17.4799 9.54827C16.8736 8.84099 16.1664 8.30211 15.358 7.93163C14.5497 7.52747 13.7077 7.32539 12.8321 7.32539C11.9227 7.32539 11.0975 7.61167 10.3566 8.18423C9.6493 8.75679 9.29566 9.69983 9.29566 11.0133C9.29566 12.1248 9.66614 13.0005 10.4071 13.6404C11.1481 14.2466 12.2427 14.9202 13.6909 15.6612C14.4992 16.0653 15.3412 16.5537 16.2169 17.1263C17.1262 17.6651 17.9514 18.3387 18.6924 19.147C19.4333 19.9554 20.0396 20.9321 20.5111 22.0772C21.0163 23.1886 21.2689 24.519 21.2689 26.0683C21.2689 27.988 20.9658 29.6889 20.3595 31.1708C19.7533 32.619 18.9281 33.8315 17.884 34.8082C16.8736 35.7513 15.6948 36.4585 14.3476 36.9301C13.0005 37.4353 11.6027 37.6879 10.1545 37.6879C7.99898 37.6879 6.02871 37.2837 4.24367 36.4754C2.49231 35.6671 1.07776 34.724 0 33.6463L4.14263 27.5839C4.91727 28.3922 5.80979 29.049 6.82019 29.5541C7.83058 30.0257 8.85782 30.2614 9.9019 30.2614C10.8786 30.2614 11.7038 29.9415 12.3774 29.3015C13.051 28.6616 13.3878 27.7691 13.3878 26.624C13.3878 25.4452 12.9836 24.519 12.1753 23.8454C11.367 23.1381 10.1882 22.3972 8.6389 21.6225C7.66218 21.151 6.73599 20.629 5.86031 20.0564C5.01831 19.4838 4.26051 18.7934 3.58691 17.9851C2.94699 17.1768 2.44179 16.2337 2.07132 15.156C1.70084 14.0782 1.5156 12.7984 1.5156 11.3165C1.5156 9.32935 1.83556 7.62851 2.47547 6.21396C3.14907 4.76572 4.00791 3.58692 5.05199 2.67756C6.12975 1.7682 7.30854 1.0946 8.58838 0.656765C9.9019 0.218926 11.2154 6.22785e-06 12.5289 6.22785e-06C14.4824 6.22785e-06 16.2337 0.319966 17.783 0.959887C19.3323 1.59981 20.629 2.47548 21.673 3.58692L17.4799 9.54827Z" fill="var(--fill-0, #384FA2)"/>
</g>
</svg>
