<svg viewBox="0 0 657.517 88.3645" fill="none" xmlns="http://www.w3.org/2000/svg">
<g id="text80">
<path id="Vector" d="M654.143 50.5301C654.126 50.9992 653.784 51.4854 653.12 51.9888C652.516 52.4358 651.921 52.6483 651.335 52.6263C651.1 52.6175 650.896 52.5805 650.722 52.5152C650.258 52.3804 649.794 52.2162 649.332 52.0227C648.93 51.7728 648.498 51.5511 648.036 51.3576C647.747 51.2294 647.313 51.0663 646.733 50.8684C646.154 50.6706 645.717 50.5661 645.424 50.5551C644.721 50.5287 644.069 50.6804 643.47 51.0101C642.87 51.3399 642.56 51.7979 642.538 52.3841C642.531 52.56 642.553 52.7663 642.602 53.003C642.652 53.2397 642.79 53.4797 643.016 53.723C643.296 54.0858 643.722 54.454 644.295 54.8278C644.87 55.1429 645.416 55.4569 645.933 55.7699C646.278 55.959 646.708 56.2393 647.222 56.6108C647.798 56.926 648.372 57.2704 648.945 57.6442C649.518 58.0179 650.033 58.3602 650.491 58.6709C650.949 58.9816 651.265 59.1696 651.439 59.2348C651.721 59.539 651.917 59.7812 652.028 59.9614C652.199 60.0853 652.509 60.4492 652.956 61.053C653.069 61.1747 653.151 61.3245 653.203 61.5026C653.316 61.6243 653.429 61.7459 653.542 61.8676C654.273 62.7169 654.933 63.8865 655.523 65.3764C656.115 66.8076 656.36 68.9009 656.256 71.6563C656.131 74.9979 655.224 78.0461 653.535 80.8007C652.281 82.9258 650.28 84.6412 647.53 85.947C644.839 87.255 641.237 87.8243 636.722 87.6548C635.491 87.6086 634.437 87.5397 633.56 87.4481C632.741 87.3586 631.983 87.2421 631.283 87.0984C630.584 86.9548 629.916 86.7829 629.277 86.5828C628.698 86.3849 628.032 86.1251 627.281 85.8034C626.645 85.5447 626.156 85.2915 625.813 85.0438C625.47 84.7961 625.217 84.4931 625.054 84.1347C624.95 83.7785 624.879 83.3356 624.84 82.8057C624.86 82.2781 624.886 81.5746 624.919 80.6952C624.928 80.4607 624.943 80.0503 624.965 79.4641C624.987 78.8778 624.981 78.2612 624.947 77.6141C624.971 76.9692 624.994 76.3536 625.016 75.7674C625.04 75.1225 625.057 74.6828 625.066 74.4483C625.121 72.9827 625.509 72.0285 626.23 71.586C627.01 71.1456 627.751 70.9386 628.455 70.965C628.806 70.9782 629.097 71.0478 629.327 71.1739C629.56 71.2413 629.993 71.4337 630.627 71.751C630.972 71.9401 631.637 72.1999 632.623 72.5304C633.611 72.8023 634.632 72.9581 635.687 72.9977C636.86 73.0417 637.893 72.9043 638.785 72.5856C639.678 72.2669 640.142 71.6385 640.177 70.7005C640.19 70.3487 640.087 69.9633 639.868 69.5441C639.71 69.0685 639.317 68.5841 638.69 68.0909C638.575 68.0278 638.46 67.9648 638.345 67.9018C638.29 67.7823 638.12 67.6292 637.833 67.4423C637.549 67.1968 637.12 66.8871 636.547 66.5134C636.033 66.1418 635.261 65.5845 634.232 64.8414C632.917 63.9114 632.059 63.3214 631.657 63.0715C631.258 62.763 630.859 62.4252 630.462 62.058C628.767 60.2919 627.656 58.6063 627.129 57.0014C626.603 55.3965 626.382 53.4509 626.468 51.1645C626.505 50.1679 626.631 49.1746 626.844 48.1845C627.057 47.1945 627.417 46.21 627.924 45.2309C628.428 44.3105 628.992 43.363 629.615 42.3884C630.298 41.416 631.181 40.5685 632.265 39.846C633.409 39.067 634.87 38.4761 636.646 38.0731C638.425 37.6115 640.692 37.4324 643.447 37.5358C644.444 37.5732 645.731 37.6802 647.31 37.8569C648.89 37.975 650.206 38.1124 651.257 38.2693C652.015 38.4151 652.767 38.7075 653.514 39.1465C654.319 39.5877 654.701 40.3652 654.659 41.4791C654.65 41.7136 654.612 41.947 654.545 42.1793C654.536 42.4138 654.497 42.6765 654.427 42.9675C654.357 43.2584 654.316 43.5797 654.303 43.9315C654.29 44.2832 654.276 44.635 654.263 44.9868C654.257 45.1626 654.246 45.4558 654.23 45.8661C654.273 46.2787 654.286 46.7195 654.269 47.1885C654.253 47.5989 654.238 48.0093 654.222 48.4196C654.266 48.8322 654.284 49.1264 654.277 49.3023L654.143 50.5301Z" fill="var(--fill-0, #E54B25)"/>
<path id="Vector_2" d="M602.341 54.5739C602.517 54.5805 602.838 54.6219 603.305 54.6981C603.774 54.7158 604.242 54.7627 604.709 54.8389C605.234 54.9173 605.701 54.9936 606.109 55.0676C606.52 55.083 606.783 55.0929 606.901 55.0973C607.545 55.1215 607.993 54.9328 608.243 54.5312C608.551 54.1319 608.712 53.7563 608.725 53.4046C608.754 52.6424 608.629 52.0507 608.352 51.6293C608.133 51.2101 607.821 50.9049 607.417 50.7136C607.016 50.4637 606.552 50.2995 606.027 50.2211C605.56 50.1449 605.092 50.0979 604.623 50.0803C604.389 50.0715 603.891 50.0235 603.131 49.9363C602.372 49.8491 601.845 49.7999 601.552 49.7889C599.91 49.7273 598.197 50.0153 596.412 50.6527C595.105 51.0733 594.273 51.3357 593.917 51.4397C593.619 51.546 593.324 51.5936 593.031 51.5826C592.444 51.5606 591.867 51.3041 591.298 50.813C590.788 50.3242 590.56 49.3763 590.612 47.9693C590.621 47.7348 590.641 47.2072 590.672 46.3864C590.764 45.5093 590.815 44.9241 590.826 44.631C590.837 44.3379 590.83 43.7505 590.804 42.8689C590.781 41.9287 590.774 41.312 590.785 41.0189C590.805 40.4913 590.939 40.056 591.187 39.7131C591.434 39.3701 591.738 39.088 592.099 38.8667C592.46 38.6454 592.817 38.512 593.171 38.4666C593.527 38.3625 593.823 38.2856 594.06 38.2358C594.946 38.0929 595.92 37.9534 596.982 37.8171C598.046 37.6222 599.109 37.4566 600.171 37.3203C601.291 37.1863 602.381 37.0804 603.441 37.0028C604.559 36.9273 605.558 36.9061 606.437 36.9391C608.079 37.0008 609.627 37.2056 611.082 37.5538C612.595 37.9041 613.958 38.3369 615.172 38.8521C616.446 39.3109 617.54 39.8803 618.454 40.5604C619.37 41.1819 620.081 41.7956 620.586 42.4017C621.146 43.1272 621.579 44.1121 621.885 45.3565C622.192 46.5422 622.295 48.4834 622.194 51.1802C622.185 51.4147 622.141 51.824 622.06 52.408C622.04 52.9357 622.018 53.5219 621.994 54.1668C621.972 54.753 621.921 55.3382 621.84 55.9223C621.818 56.5085 621.803 56.9189 621.794 57.1534C621.787 57.3293 621.775 57.6517 621.758 58.1207C621.801 58.5333 621.813 59.0034 621.793 59.531C621.773 60.0586 621.754 60.557 621.737 61.026C621.778 61.4972 621.795 61.8207 621.788 61.9966C621.779 62.2311 621.729 62.7869 621.638 63.6641C621.607 64.4849 621.586 65.0418 621.575 65.3349C621.566 65.5694 621.551 65.9798 621.529 66.5661C621.509 67.0937 621.487 67.6799 621.463 68.3248C621.499 68.9133 621.507 69.5006 621.485 70.0869C621.463 70.6731 621.447 71.0835 621.438 71.318C621.43 71.5525 621.384 71.9911 621.301 72.6338C621.277 73.2787 621.221 73.9811 621.134 74.741C621.105 75.5031 621.048 76.2348 620.963 76.9362C620.939 77.581 620.923 78.0207 620.914 78.2552C620.907 78.4311 620.894 78.7829 620.874 79.3105C620.913 79.8403 620.921 80.3983 620.899 80.9846C620.936 81.5731 620.944 82.1311 620.925 82.6587C620.963 83.1886 620.98 83.5414 620.973 83.7173C620.936 84.7139 620.617 85.3771 620.018 85.7068C619.479 85.9802 618.975 86.108 618.506 86.0904C618.33 86.0838 618.037 86.0728 617.627 86.0574C617.275 86.0442 616.865 86.0288 616.396 86.0112C615.988 85.9372 615.578 85.8925 615.168 85.8771C614.758 85.8617 614.464 85.8507 614.289 85.8441C614.113 85.8375 613.789 85.8547 613.318 85.8957C612.907 85.8803 612.467 85.8931 611.995 85.9341C611.526 85.9165 611.056 85.9282 610.585 85.9692C610.175 85.9538 609.882 85.9428 609.706 85.9362C609.413 85.9252 609.152 85.8274 608.924 85.6427C608.696 85.458 608.527 85.2755 608.416 85.0953C608.304 84.9736 608.25 84.8249 608.257 84.649C608.264 84.4731 608.211 84.3243 608.098 84.2027C607.989 83.9638 607.818 83.8399 607.583 83.8311C607.466 83.8267 607.316 83.9092 607.134 84.0784C606.953 84.1891 606.802 84.3008 606.681 84.4137C606.136 84.8629 605.506 85.2208 604.791 85.4876C604.079 85.6957 603.398 85.8462 602.749 85.9393C602.1 86.0323 601.482 86.0678 600.896 86.0458C600.366 86.0847 599.925 86.0975 599.573 86.0843C599.046 86.0645 598.402 86.0109 597.642 85.9237C596.938 85.8973 596.181 85.7514 595.369 85.4861C594.557 85.2208 593.69 84.8361 592.77 84.3318C591.911 83.7712 591.059 83.0054 590.214 82.0344C589.427 81.1242 588.786 80.2195 588.291 79.3203C587.798 78.3625 587.422 77.4384 587.162 76.548C586.961 75.6598 586.817 74.8032 586.73 73.978C586.702 73.155 586.702 72.3918 586.728 71.6883C586.831 68.9329 586.999 66.8257 587.23 65.3667C587.521 63.8512 587.98 62.5769 588.606 61.5436C589.106 60.7405 589.784 59.8853 590.64 58.9781C591.496 58.0709 592.522 57.3169 593.719 56.716C594.972 56.1759 596.015 55.7455 596.849 55.4245C597.742 55.1058 598.483 54.8988 599.074 54.8035C599.726 54.6519 600.257 54.5837 600.667 54.5991C601.079 54.5559 601.491 54.542 601.901 54.5574L602.341 54.5739ZM605.111 65.2453C604.349 65.2167 603.484 65.5659 602.518 66.2928C601.612 66.9633 601.118 68.3831 601.037 70.5522C601.006 71.373 601.097 72.0809 601.309 72.6759C601.524 73.2124 601.801 73.6631 602.139 74.028C602.478 74.393 602.82 74.67 603.165 74.8591C603.571 74.9917 603.92 75.0636 604.213 75.0746C605.503 75.123 606.459 74.6892 607.08 73.7732C607.704 72.7986 608.044 71.5491 608.102 70.0248C608.143 68.911 607.948 67.8469 607.517 66.8327C607.085 65.8184 606.283 65.2893 605.111 65.2453Z" fill="var(--fill-0, #E54B25)"/>
<path id="Vector_3" d="M569.821 25.8779C569.834 25.5261 569.849 25.1451 569.864 24.7347C569.94 24.2679 570.073 23.8619 570.262 23.5168C570.512 23.1152 570.846 22.8049 571.266 22.5858C571.687 22.308 572.308 22.1846 573.129 22.2154C573.363 22.2242 573.743 22.2678 574.269 22.3462C574.796 22.366 575.353 22.387 575.94 22.409C576.584 22.4332 577.17 22.4845 577.695 22.5629C578.281 22.5849 578.692 22.6003 578.926 22.6091C579.161 22.6179 579.601 22.6051 580.248 22.5707C580.954 22.5385 581.424 22.5268 581.659 22.5356C582.186 22.5554 582.709 22.7217 583.225 23.0347C583.798 23.4084 584.137 23.7734 584.241 24.1295C584.345 24.4857 584.416 24.9287 584.455 25.4585L584.386 27.3052L584.336 28.6243C584.328 28.8588 584.349 29.0651 584.401 29.2432C584.368 30.1225 584.159 30.9953 583.774 31.8615C583.448 32.7299 582.582 33.1377 581.175 33.0848L574.404 32.8307C574.286 32.8263 573.992 32.8446 573.521 32.8856C573.052 32.868 572.729 32.8559 572.554 32.8493C571.733 32.8185 571.039 32.5283 570.473 31.9786C569.965 31.4312 569.732 30.6005 569.774 29.4867C569.778 29.3694 569.787 29.1349 569.8 28.7832C569.813 28.4314 569.797 28.0786 569.752 27.7246C569.767 27.3142 569.78 26.9625 569.791 26.6693C569.805 26.3176 569.815 26.0538 569.821 25.8779ZM580.089 36.2143C581.437 36.2649 582.457 36.45 583.15 36.7695C583.842 37.0891 584.156 38.1282 584.09 39.887C584.077 40.2387 584.034 40.5894 583.962 40.9389C583.949 41.2907 583.936 41.6424 583.923 41.9942C583.842 42.5782 583.792 43.1341 583.772 43.6617C583.752 44.1893 583.731 44.7463 583.709 45.3325L583.438 52.5434C583.427 52.8366 583.409 53.3349 583.382 54.0384C583.358 54.6833 583.302 55.3857 583.215 56.1456C583.187 56.9077 583.159 57.6406 583.133 58.3441C583.108 58.9889 583.091 59.4579 583.08 59.7511C583.064 60.1614 583.049 60.5718 583.034 60.9822C583.02 61.334 583.035 61.7161 583.079 62.1287C583.122 62.5413 583.136 62.9528 583.12 63.3631C583.166 63.7171 583.18 64.1286 583.162 64.5976C583.156 64.7734 583.109 65.2413 583.021 66.0013C582.995 66.7048 582.976 67.2031 582.965 67.4962L582.764 72.8604C582.751 73.2122 582.728 73.8278 582.695 74.7071C582.662 75.5865 582.596 76.5527 582.498 77.6058C582.46 78.6024 582.424 79.5698 582.389 80.5078C582.356 81.3871 582.333 82.0027 582.32 82.3545C582.28 83.4097 582.048 84.1055 581.625 84.4419C581.203 84.7196 580.201 84.8287 578.618 84.7693C578.442 84.7627 578.149 84.7517 577.739 84.7363C577.329 84.7209 576.889 84.7044 576.42 84.6868C575.953 84.6106 575.514 84.5648 575.104 84.5494C574.694 84.534 574.401 84.5229 574.225 84.5163C574.107 84.5119 573.843 84.5314 573.43 84.5746C573.078 84.5614 572.697 84.5471 572.287 84.5317C571.876 84.5163 571.494 84.5313 571.14 84.5767C570.789 84.5635 570.525 84.5536 570.349 84.547C568.942 84.4942 568.136 84.053 567.933 83.2234C567.731 82.3352 567.654 81.2756 567.7 80.0445C567.709 79.81 567.723 79.4289 567.743 78.9013C567.823 78.3172 567.876 77.7027 567.9 77.0579C567.926 76.3544 567.951 75.7095 567.973 75.1232C568.053 74.5392 568.098 74.1299 568.107 73.8954C568.116 73.6609 568.132 73.2212 568.156 72.5763C568.181 71.9314 568.177 71.2562 568.144 70.5504C568.173 69.7883 568.199 69.0848 568.224 68.4399C568.25 67.7364 568.269 67.2381 568.28 66.945C568.293 66.5932 568.316 65.9777 568.349 65.0983C568.382 64.2189 568.417 63.2809 568.455 62.2843C568.551 61.2898 568.616 60.3236 568.651 59.3856C568.687 58.4476 568.711 57.8027 568.724 57.451C568.735 57.1578 568.727 56.5998 568.699 55.7768C568.73 54.9561 568.762 54.106 568.795 53.2266C568.83 52.2886 568.833 51.4082 568.806 50.5852C568.836 49.7644 568.858 49.1782 568.872 48.8264C568.878 48.6506 568.89 48.3281 568.908 47.8591C568.986 47.3337 569.036 46.8072 569.055 46.2795C569.077 45.6933 569.097 45.1657 569.115 44.6967C569.193 44.1712 569.236 43.8206 569.242 43.6447C569.253 43.3516 569.245 42.7935 569.217 41.9706C569.189 41.1476 569.18 40.6189 569.189 40.3844C569.239 39.036 569.364 38.0427 569.565 37.4044C569.767 36.7075 570.37 36.2898 571.373 36.1513C571.61 36.1015 572.109 36.0909 572.871 36.1195C573.694 36.0917 574.575 36.0954 575.513 36.1306C576.511 36.1094 577.421 36.1142 578.242 36.145C579.121 36.178 579.737 36.2011 580.089 36.2143Z" fill="var(--fill-0, #E54B25)"/>
<path id="Vector_4" d="M529.332 32.3718C529.365 31.4924 529.369 30.6119 529.343 29.7304C529.376 28.851 529.409 27.9716 529.442 27.0922C529.447 26.975 529.461 26.5939 529.485 25.949C529.57 25.2477 529.658 24.4878 529.747 23.6692C529.845 22.6162 530.137 21.8933 530.621 21.5005C531.108 21.0491 531.673 20.8355 532.318 20.8597C532.494 20.8663 532.815 20.9077 533.282 20.984C533.81 21.0038 534.337 21.0236 534.865 21.0434C535.451 21.0654 535.978 21.1145 536.445 21.1907C536.972 21.2105 537.324 21.2237 537.5 21.2303C537.676 21.2369 537.94 21.2468 538.291 21.26C538.645 21.2146 539.028 21.1996 539.438 21.215C539.907 21.2326 540.317 21.248 540.669 21.2612C541.023 21.2158 541.288 21.1964 541.464 21.203C541.757 21.214 542.106 21.2858 542.512 21.4185C542.921 21.4925 543.29 21.8292 543.619 22.4287C543.784 22.7284 543.861 23.0249 543.85 23.318C543.898 23.6133 543.9 24.3472 543.856 25.5197C543.847 25.7542 543.857 26.2537 543.887 27.018C543.92 27.7237 543.931 28.1938 543.922 28.4283C543.914 28.6628 543.835 29.1882 543.687 30.0046C543.6 30.7645 543.551 31.291 543.54 31.5842C543.535 31.7014 543.528 31.9066 543.517 32.1997C543.564 32.4951 543.586 32.7014 543.582 32.8186C543.577 32.9359 543.538 33.1986 543.464 33.6067C543.449 34.0171 543.439 34.2809 543.434 34.3982C543.43 34.5154 543.447 34.839 543.486 35.3688C543.583 35.9008 543.867 36.1756 544.336 36.1933C544.57 36.2021 544.806 36.1815 545.042 36.1317C545.281 36.0233 545.669 35.8617 546.205 35.647C546.861 35.3781 547.752 35.118 548.876 34.8667C550.001 34.6153 551.179 34.5128 552.411 34.559C554.228 34.6272 555.825 35.0981 557.201 35.9717C558.638 36.7888 559.829 37.8903 560.776 39.2761C561.78 40.6641 562.51 42.3353 562.965 44.2897C563.422 46.1855 563.61 48.218 563.529 50.3872C563.487 51.501 563.409 52.7897 563.295 54.2531C563.24 55.7188 563.192 57.0085 563.15 58.1224C563.144 58.2983 563.101 58.6489 563.023 59.1744C563.005 59.6434 562.985 60.171 562.963 60.7573C562.941 61.3435 562.891 61.8994 562.813 62.4248C562.795 62.8938 562.782 63.2455 562.773 63.48C562.762 63.7732 562.743 64.2715 562.717 64.975C562.751 65.6221 562.782 66.3571 562.81 67.18C562.84 67.9444 562.841 68.7076 562.812 69.4697C562.845 70.1754 562.855 70.6749 562.844 70.968C562.838 71.1439 562.796 71.4652 562.72 71.932C562.702 72.401 562.684 72.8993 562.664 73.4269C562.644 73.9546 562.595 74.4811 562.516 75.0065C562.499 75.4755 562.487 75.798 562.48 75.9738C562.474 76.1497 562.463 76.4429 562.447 76.8532C562.493 77.2072 562.506 77.6187 562.489 78.0877C562.471 78.5567 562.455 78.9964 562.439 79.4067C562.483 79.8193 562.501 80.1135 562.494 80.2894C562.486 80.5239 562.444 80.8453 562.37 81.2534C562.355 81.6638 562.25 82.1002 562.057 82.5626C561.924 82.9686 561.675 83.3408 561.31 83.6794C561.006 83.9615 560.561 84.0916 559.975 84.0696C559.799 84.063 559.506 84.052 559.095 84.0366C558.687 83.9625 558.219 83.9156 557.692 83.8958C557.223 83.8782 556.754 83.8606 556.285 83.843C555.818 83.7668 555.497 83.7254 555.321 83.7187C555.203 83.7143 554.94 83.7044 554.529 83.689C554.177 83.6758 553.766 83.6897 553.295 83.7308C552.884 83.7154 552.474 83.7 552.064 83.6846C551.712 83.6714 551.448 83.6614 551.272 83.6548C549.689 83.5954 548.644 83.292 548.136 82.7446C547.689 82.1407 547.494 81.0767 547.551 79.5524C547.558 79.3765 547.568 79.1127 547.581 78.761C547.655 78.3528 547.729 77.9446 547.803 77.5364C547.879 77.0696 547.924 76.6603 547.937 76.3086C548.011 75.9004 548.052 75.6084 548.058 75.4325C548.063 75.3153 548.042 75.0797 547.997 74.7257C548.01 74.374 548.024 73.9929 548.04 73.5825C548.055 73.1721 548.04 72.79 547.995 72.436C548.008 72.0843 548.018 71.8205 548.024 71.6446C548.029 71.5273 548.039 71.2635 548.054 70.8531C548.07 70.4428 548.085 70.0324 548.1 69.622C548.177 69.1552 548.222 68.7166 548.238 68.3062C548.253 67.8959 548.264 67.6027 548.271 67.4268C548.277 67.251 548.261 66.8981 548.222 66.3683C548.242 65.8407 548.263 65.2837 548.285 64.6975C548.309 64.0526 548.302 63.4652 548.263 62.9354C548.283 62.4078 548.297 62.0267 548.306 61.7922C548.315 61.5577 548.33 61.1473 548.352 60.5611C548.435 59.9184 548.518 59.2757 548.601 58.633C548.686 57.9317 548.739 57.288 548.761 56.7017C548.844 56.059 548.89 55.6204 548.899 55.3859C548.98 53.2168 548.773 51.7119 548.276 50.8714C547.838 50.033 547.12 49.5951 546.123 49.5577C545.713 49.5423 545.39 49.5595 545.153 49.6094C544.975 49.6614 544.825 49.7438 544.703 49.8567C544.584 49.9109 544.309 50.1941 543.879 50.7063C543.51 51.1621 543.273 51.9752 543.171 53.1455C543.169 53.2041 543.125 53.5841 543.04 54.2854C543.014 54.9889 542.955 55.7792 542.863 56.6564C542.83 57.5358 542.799 58.3566 542.771 59.1187C542.742 59.8808 542.724 60.3498 542.718 60.5257C542.711 60.7016 542.698 61.0533 542.678 61.581C542.717 62.1108 542.724 62.6981 542.7 63.343C542.678 63.9293 542.656 64.5155 542.634 65.1018C542.673 65.6316 542.688 66.0138 542.679 66.2483C542.668 66.5414 542.62 67.0386 542.535 67.7399C542.509 68.4434 542.48 69.2056 542.449 70.0263C542.421 70.7884 542.363 71.5495 542.275 72.3094C542.249 73.0129 542.23 73.5112 542.219 73.8043L542.084 77.4098C542.077 77.5857 542.09 78.0265 542.122 78.7322C542.155 79.4379 542.166 79.908 542.158 80.1425C542.116 81.2564 541.88 82.0694 541.449 82.5817C541.143 82.9224 540.813 83.1155 540.459 83.1609C540.105 83.2063 539.576 83.2158 538.873 83.1894C538.169 83.163 537.466 83.1366 536.762 83.1102C536.061 83.0252 535.359 82.9695 534.655 82.9431C534.303 82.9299 533.952 82.9167 533.6 82.9034C533.248 82.8902 532.895 82.9063 532.541 82.9518C532.365 82.9452 531.983 82.9602 531.395 82.9968C530.806 83.0334 530.395 83.0473 530.16 83.0385C529.457 83.0121 528.934 82.8751 528.591 82.6274C528.248 82.3797 527.995 82.0766 527.832 81.7183C527.67 81.3599 527.566 81.0038 527.52 80.6498C527.533 80.2981 527.544 80.0049 527.553 79.7704C527.56 79.5946 527.571 79.3014 527.586 78.891C527.662 78.4242 527.709 77.9563 527.727 77.4873C527.745 77.0183 527.761 76.5786 527.776 76.1683C527.853 75.7015 527.894 75.3801 527.901 75.2043C527.91 74.9697 527.924 74.5887 527.944 74.0611C527.966 73.4748 527.959 72.8581 527.925 72.2111C527.951 71.5076 527.976 70.8627 527.998 70.2764C528.02 69.6902 528.035 69.2798 528.044 69.0453C528.053 68.8108 528.068 68.4004 528.09 67.8142C528.173 67.1715 528.227 66.4984 528.254 65.7949C528.28 65.0914 528.304 64.4465 528.327 63.8602C528.409 63.2176 528.456 62.7497 528.467 62.4565C528.478 62.1634 528.469 61.6347 528.439 60.8703C528.467 60.1082 528.469 59.2864 528.443 58.4048C528.476 57.5254 528.478 56.7035 528.448 55.9392C528.479 55.1185 528.501 54.5322 528.514 54.1805C528.523 53.946 528.539 53.5063 528.563 52.8614C528.648 52.1601 528.705 51.4284 528.734 50.6662C528.762 49.9041 528.789 49.2006 528.813 48.5557C528.898 47.8544 528.946 47.3572 528.957 47.0641L529.026 45.2174C529.035 44.9829 529.083 44.4857 529.17 43.7257C529.258 42.9658 529.307 42.4393 529.318 42.1461C529.327 41.9116 529.313 41.5002 529.276 40.9117C529.298 40.3254 529.292 39.7088 529.257 39.0617C529.225 38.356 529.191 37.7089 529.154 37.1205C529.176 36.5342 529.193 36.0945 529.204 35.8014L529.332 32.3718Z" fill="var(--fill-0, #E54B25)"/>
<path id="Vector_5" d="M502.457 41.0499C502.521 39.3497 502.651 38.2391 502.847 37.7181C503.042 37.1971 503.436 36.8596 504.029 36.7058C504.268 36.5973 504.504 36.5768 504.736 36.6442C504.971 36.653 505.236 36.6336 505.531 36.586C505.653 36.4732 505.773 36.3896 505.893 36.3354C506.073 36.2247 506.224 36.113 506.345 36.0001C506.467 35.8873 506.532 35.7136 506.541 35.4791C506.552 35.186 506.576 34.5411 506.614 33.5445C506.623 33.31 506.61 32.8692 506.575 32.2221C506.602 31.5186 506.599 30.814 506.567 30.1083C506.593 29.4048 506.587 28.7881 506.548 28.2583C506.57 27.672 506.583 27.3203 506.588 27.203C506.627 26.1478 506.89 25.3945 507.377 24.9431C507.864 24.4917 508.136 24.2671 508.195 24.2693C508.494 24.1044 508.82 24.0285 509.172 24.0418C509.585 23.9985 510.552 24.0348 512.074 24.1507L517.086 24.3388C518.083 24.3762 518.958 24.5265 519.711 24.7896C520.467 24.9941 520.823 25.6826 520.779 26.8551C520.77 27.0896 520.724 27.5282 520.641 28.1709C520.617 28.8157 520.591 29.5192 520.562 30.2814C520.536 30.9849 520.48 31.6873 520.395 32.3886C520.371 33.0335 520.353 33.5025 520.342 33.7956C520.289 35.2026 520.343 36.1146 520.504 36.5316C520.723 36.9508 521.416 37.241 522.584 37.4022C523.635 37.5591 524.266 37.9644 524.476 38.6181C524.689 39.2131 524.778 39.9503 524.745 40.8297L524.442 48.92C524.424 49.389 524.2 49.8796 523.77 50.3919C523.342 50.8455 523.097 51.1005 523.037 51.1569C522.739 51.2631 522.473 51.3119 522.239 51.3031C522.006 51.2356 521.741 51.255 521.444 51.3613C520.729 51.628 520.3 52.1109 520.157 52.81C520.013 53.5091 519.926 54.2691 519.895 55.0898C519.88 55.5002 519.852 56.233 519.812 57.2883C519.773 58.3435 519.73 59.4867 519.684 60.7178C519.698 61.8926 519.686 63.0075 519.646 64.0628C519.667 65.0616 519.673 65.7076 519.662 66.0007C519.737 67.119 519.912 67.9182 520.188 68.3982C520.466 68.8196 520.926 69.0717 521.569 69.1545C522.561 69.3091 523.135 69.6536 523.291 70.1878C523.449 70.6634 523.521 71.1064 523.505 71.5168C523.496 71.7513 523.479 72.2203 523.452 72.9238C523.428 73.5687 523.402 74.2722 523.373 75.0343C523.403 75.7986 523.405 76.5326 523.379 77.2361C523.354 77.881 523.337 78.35 523.326 78.6431C523.282 79.8156 523.072 80.7177 522.696 81.3494C522.379 81.9832 521.749 82.3412 520.806 82.4232C520.57 82.4731 520.362 82.524 520.184 82.576C520.008 82.5694 519.744 82.5595 519.393 82.5463C519.1 82.5353 518.689 82.5199 518.162 82.5001C517.693 82.4825 517.048 82.4583 516.227 82.4275C516.051 82.4209 515.581 82.4326 514.817 82.4626C514.055 82.434 513.556 82.4153 513.322 82.4065C512.442 82.3735 511.537 82.2514 510.606 82.0403C509.733 81.8315 508.895 81.4771 508.092 80.9773C507.347 80.4797 506.696 79.8388 506.138 79.0547C505.583 78.2119 505.212 77.1413 505.026 75.8427C504.922 75.4865 504.846 75.1608 504.799 74.8655C504.81 74.5723 504.797 74.1316 504.76 73.5431C504.782 72.9568 504.811 72.1947 504.846 71.2567C504.883 70.2601 504.932 68.9703 504.991 67.3874C504.979 66.1541 504.966 64.9208 504.954 63.6874C505.002 62.3977 505.051 61.1079 505.099 59.8182C505.106 59.6423 505.118 59.3198 505.135 58.8508C505.155 58.3232 505.175 57.7956 505.195 57.268C505.276 56.6839 505.326 56.1281 505.346 55.6004C505.365 55.0728 505.379 54.7211 505.385 54.5452C505.431 53.314 505.379 52.3727 505.227 51.7213C505.134 51.072 504.621 50.6711 503.687 50.5186C503.337 50.4468 503.017 50.3761 502.726 50.3065C502.496 50.1804 502.299 49.9675 502.134 49.6678C502.08 49.5483 502.055 49.43 502.059 49.3127C502.063 49.1955 502.105 48.8741 502.183 48.3487L502.457 41.0499Z" fill="var(--fill-0, #E54B25)"/>
<path id="Vector_6" d="M478.583 40.1537C478.647 38.4536 478.777 37.343 478.973 36.822C479.168 36.301 479.563 35.9635 480.156 35.8096C480.394 35.7012 480.63 35.6807 480.862 35.7481C481.097 35.7569 481.362 35.7375 481.657 35.6899C481.779 35.577 481.899 35.4935 482.019 35.4393C482.199 35.3286 482.35 35.2169 482.472 35.104C482.593 34.9912 482.658 34.8175 482.667 34.583C482.678 34.2899 482.702 33.645 482.74 32.6484C482.749 32.4139 482.736 31.9731 482.701 31.326C482.728 30.6225 482.725 29.9179 482.693 29.2122C482.719 28.5087 482.713 27.892 482.674 27.3622C482.696 26.7759 482.709 26.4242 482.714 26.3069C482.753 25.2517 483.016 24.4983 483.503 24.0469C483.99 23.5955 484.262 23.3709 484.321 23.3731C484.621 23.2083 484.946 23.1324 485.298 23.1456C485.711 23.1024 486.678 23.1387 488.2 23.2546L493.213 23.4427C494.209 23.4801 495.084 23.6304 495.838 23.8935C496.593 24.098 496.949 24.7865 496.905 25.959C496.896 26.1935 496.85 26.6321 496.767 27.2747C496.743 27.9196 496.717 28.6231 496.688 29.3853C496.662 30.0888 496.606 30.7912 496.521 31.4925C496.497 32.1373 496.479 32.6064 496.468 32.8995C496.415 34.3065 496.469 35.2185 496.63 35.6355C496.849 36.0546 497.542 36.3449 498.71 36.5061C499.761 36.663 500.392 37.0683 500.602 37.7219C500.815 38.317 500.904 39.0542 500.871 39.9336L500.568 48.0239C500.55 48.4929 500.326 48.9835 499.896 49.4957C499.468 49.9493 499.224 50.2043 499.163 50.2608C498.865 50.367 498.599 50.4157 498.365 50.4069C498.132 50.3395 497.868 50.3589 497.57 50.4652C496.856 50.7319 496.426 51.2148 496.283 51.9139C496.139 52.613 496.052 53.3729 496.021 54.1937C496.006 54.6041 495.978 55.3369 495.939 56.3921C495.899 57.4474 495.856 58.5906 495.81 59.8217C495.824 60.9964 495.812 62.1114 495.772 63.1667C495.794 64.1655 495.799 64.8115 495.788 65.1046C495.863 66.2229 496.039 67.022 496.314 67.5021C496.592 67.9234 497.052 68.1755 497.695 68.2584C498.687 68.413 499.261 68.7575 499.417 69.2917C499.575 69.7673 499.647 70.2103 499.631 70.6207C499.623 70.8552 499.605 71.3242 499.579 72.0277C499.554 72.6726 499.528 73.3761 499.499 74.1382C499.529 74.9025 499.531 75.6364 499.505 76.34C499.481 76.9848 499.463 77.4538 499.452 77.747C499.408 78.9195 499.198 79.8216 498.822 80.4532C498.505 81.0871 497.875 81.4451 496.933 81.5271C496.696 81.5769 496.488 81.6279 496.31 81.6799C496.134 81.6733 495.871 81.6634 495.519 81.6502C495.226 81.6392 494.815 81.6238 494.288 81.604C493.819 81.5864 493.174 81.5622 492.353 81.5314C492.177 81.5247 491.707 81.5365 490.943 81.5665C490.181 81.5379 489.682 81.5192 489.448 81.5104C488.568 81.4774 487.663 81.3553 486.732 81.1442C485.859 80.9353 485.021 80.581 484.218 80.0812C483.473 79.5836 482.822 78.9427 482.265 78.1586C481.709 77.3158 481.338 76.2451 481.152 74.9466C481.048 74.5904 480.972 74.2647 480.925 73.9694C480.936 73.6762 480.923 73.2354 480.886 72.647C480.908 72.0607 480.937 71.2986 480.972 70.3606C481.01 69.364 481.058 68.0742 481.117 66.4913C481.105 65.258 481.093 64.0247 481.08 62.7913C481.129 61.5016 481.177 60.2118 481.225 58.922C481.232 58.7462 481.244 58.4237 481.262 57.9547C481.281 57.4271 481.301 56.8995 481.321 56.3718C481.402 55.7878 481.452 55.2319 481.472 54.7043C481.492 54.1767 481.505 53.8249 481.511 53.6491C481.558 52.4179 481.505 51.4766 481.353 50.8251C481.26 50.1759 480.747 49.775 479.813 49.6225C479.464 49.5507 479.143 49.48 478.852 49.4103C478.622 49.2843 478.425 49.0714 478.26 48.7717C478.206 48.6522 478.181 48.5339 478.185 48.4166C478.19 48.2994 478.231 47.978 478.31 47.4526L478.583 40.1537Z" fill="var(--fill-0, #E54B25)"/>
<path id="Vector_7" d="M455.835 49.0747C456.011 49.0813 456.332 49.1227 456.799 49.1989C457.268 49.2165 457.736 49.2635 458.202 49.3397C458.728 49.4181 459.195 49.4944 459.603 49.5684C460.013 49.5838 460.277 49.5937 460.394 49.5981C461.039 49.6223 461.487 49.4336 461.737 49.032C462.045 48.6327 462.206 48.2571 462.219 47.9053C462.248 47.1432 462.123 46.5515 461.845 46.1301C461.626 45.7109 461.315 45.4057 460.911 45.2144C460.51 44.9645 460.046 44.8003 459.521 44.7219C459.054 44.6457 458.586 44.5987 458.117 44.5811C457.882 44.5723 457.385 44.5243 456.625 44.4371C455.865 44.3498 455.339 44.3007 455.046 44.2897C453.404 44.2281 451.691 44.516 449.906 45.1535C448.598 45.5741 447.767 45.8364 447.41 45.9405C447.113 46.0467 446.818 46.0944 446.524 46.0834C445.938 46.0614 445.361 45.8049 444.792 45.3138C444.282 44.825 444.053 43.8771 444.106 42.4701C444.115 42.2356 444.135 41.708 444.166 40.8872C444.257 40.0101 444.309 39.4249 444.32 39.1318C444.331 38.8386 444.323 38.2513 444.298 37.3697C444.274 36.4295 444.268 35.8128 444.279 35.5197C444.299 34.9921 444.433 34.5568 444.68 34.2138C444.928 33.8709 445.232 33.5888 445.593 33.3675C445.953 33.1462 446.311 33.0128 446.664 32.9674C447.021 32.8633 447.317 32.7864 447.554 32.7366C448.44 32.5937 449.414 32.4541 450.476 32.3179C451.54 32.123 452.603 31.9574 453.664 31.8211C454.785 31.6871 455.875 31.5812 456.935 31.5036C458.053 31.4281 459.052 31.4069 459.931 31.4399C461.573 31.5015 463.121 31.7064 464.575 32.0546C466.089 32.4049 467.452 32.8377 468.665 33.3529C469.94 33.8117 471.034 34.3811 471.948 35.0612C472.864 35.6827 473.575 36.2964 474.08 36.9025C474.64 37.628 475.073 38.6129 475.378 39.8573C475.686 41.043 475.789 42.9842 475.688 45.681C475.679 45.9155 475.635 46.3248 475.554 46.9088C475.534 47.4364 475.512 48.0227 475.488 48.6676C475.466 49.2538 475.415 49.839 475.334 50.423C475.312 51.0093 475.297 51.4197 475.288 51.6542C475.281 51.8301 475.269 52.1525 475.251 52.6215C475.295 53.0341 475.306 53.5042 475.287 54.0318C475.267 54.5594 475.248 55.0577 475.23 55.5268C475.271 55.998 475.289 56.3215 475.282 56.4974C475.273 56.7319 475.223 57.2877 475.131 58.1649C475.101 58.9857 475.08 59.5426 475.069 59.8357C475.06 60.0702 475.044 60.4806 475.022 61.0669C475.003 61.5945 474.981 62.1807 474.956 62.8256C474.993 63.4141 475 64.0014 474.978 64.5877C474.956 65.1739 474.941 65.5843 474.932 65.8188C474.923 66.0533 474.878 66.4919 474.795 67.1346C474.77 67.7795 474.715 68.4819 474.628 69.2418C474.599 70.0039 474.542 70.7356 474.457 71.4369C474.433 72.0818 474.416 72.5215 474.408 72.756C474.401 72.9319 474.388 73.2836 474.368 73.8113C474.407 74.3411 474.415 74.8991 474.393 75.4854C474.43 76.0738 474.438 76.6319 474.418 77.1595C474.457 77.6894 474.473 78.0422 474.467 78.2181C474.429 79.2147 474.111 79.8779 473.511 80.2076C472.973 80.481 472.469 80.6088 472 80.5912C471.824 80.5846 471.531 80.5736 471.121 80.5582C470.769 80.545 470.358 80.5296 469.889 80.512C469.481 80.438 469.072 80.3933 468.662 80.3779C468.251 80.3625 467.958 80.3514 467.782 80.3448C467.606 80.3382 467.283 80.3555 466.812 80.3965C466.401 80.3811 465.96 80.3939 465.489 80.4349C465.02 80.4173 464.55 80.429 464.079 80.47C463.669 80.4546 463.375 80.4436 463.2 80.437C462.906 80.426 462.646 80.3282 462.418 80.1435C462.19 79.9588 462.021 79.7763 461.91 79.5961C461.797 79.4744 461.744 79.3256 461.751 79.1498C461.757 78.9739 461.704 78.8251 461.591 78.7035C461.483 78.4646 461.312 78.3407 461.077 78.3319C460.96 78.3275 460.81 78.41 460.627 78.5792C460.447 78.6899 460.296 78.8016 460.175 78.9145C459.629 79.3637 458.999 79.7216 458.285 79.9884C457.573 80.1965 456.892 80.347 456.243 80.4401C455.593 80.5331 454.976 80.5686 454.389 80.5466C453.859 80.5854 453.419 80.5983 453.067 80.5851C452.539 80.5652 451.895 80.5117 451.136 80.4245C450.432 80.3981 449.674 80.2522 448.862 79.9869C448.05 79.7216 447.184 79.3369 446.264 78.8326C445.404 78.272 444.552 77.5062 443.708 76.5352C442.92 75.625 442.279 74.7203 441.785 73.8211C441.292 72.8633 440.916 71.9392 440.656 71.0488C440.454 70.1606 440.31 69.304 440.224 68.4788C440.196 67.6558 440.195 66.8926 440.222 66.1891C440.325 63.4337 440.492 61.3265 440.723 59.8675C441.015 58.352 441.474 57.0777 442.1 56.0444C442.599 55.2413 443.277 54.3861 444.133 53.4789C444.989 52.5717 446.016 51.8176 447.212 51.2168C448.465 50.6767 449.509 50.2462 450.343 49.9253C451.236 49.6066 451.977 49.3996 452.568 49.3043C453.219 49.1526 453.75 49.0845 454.161 49.0999C454.573 49.0567 454.985 49.0428 455.395 49.0582L455.835 49.0747ZM458.604 59.7461C457.842 59.7175 456.978 60.0666 456.011 60.7936C455.106 61.4641 454.612 62.8839 454.53 65.053C454.5 65.8738 454.591 66.5817 454.803 67.1767C455.018 67.7132 455.294 68.1639 455.633 68.5288C455.971 68.8938 456.313 69.1708 456.658 69.3599C457.064 69.4925 457.414 69.5644 457.707 69.5754C458.997 69.6238 459.952 69.19 460.574 68.274C461.198 67.2993 461.538 66.0499 461.595 64.5256C461.637 63.4118 461.442 62.3477 461.011 61.3335C460.579 60.3192 459.777 59.7901 458.604 59.7461Z" fill="var(--fill-0, #E54B25)"/>
<path id="Vector_8" d="M400.925 67.9724C400.883 69.0862 400.849 69.9949 400.822 70.6984C400.796 71.4019 400.799 72.1065 400.831 72.8122C400.818 73.164 400.805 73.5158 400.791 73.8675C400.837 74.2215 400.853 74.5743 400.84 74.9261C400.811 75.6882 400.637 76.4155 400.318 77.108C400 77.7419 399.138 78.0324 397.731 77.9796C397.614 77.9752 397.35 77.9653 396.94 77.9499C396.588 77.9367 396.207 77.9224 395.796 77.907C395.388 77.833 394.979 77.7882 394.569 77.7728C394.217 77.7596 393.953 77.7497 393.777 77.7431C392.429 77.6925 391.52 77.6584 391.051 77.6408C390.641 77.6254 390.288 77.6415 389.993 77.6891C389.287 77.7214 388.817 77.7331 388.582 77.7243C388.406 77.7177 388.23 77.7111 388.055 77.7045C387.351 77.678 386.653 77.5051 385.961 77.1855C385.268 76.866 384.947 76.0321 384.998 74.6837C385.004 74.5078 385.015 74.2147 385.031 73.8043C385.107 73.3375 385.154 72.8696 385.172 72.4006C385.25 71.8751 385.298 71.3779 385.316 70.9089C385.392 70.4421 385.433 70.1208 385.44 69.9449C385.523 69.3022 385.579 68.5705 385.61 67.7498C385.643 66.8704 385.673 66.0789 385.699 65.3754C385.715 64.9651 385.713 64.2311 385.694 63.1737C385.736 62.0598 385.75 60.8862 385.738 59.6529C385.784 58.4217 385.798 57.2774 385.779 56.22C385.821 55.1061 385.85 54.3146 385.868 53.8456C385.883 53.4353 385.912 52.6731 385.954 51.5593C386.054 50.4476 386.128 49.2762 386.174 48.045C386.281 46.7575 386.355 45.5568 386.397 44.4429C386.5 43.2726 386.56 42.4529 386.577 41.9839C386.591 41.6322 386.587 40.9569 386.565 39.958C386.603 38.9614 386.642 37.9061 386.684 36.7923C386.728 35.6198 386.74 34.5341 386.718 33.5352C386.758 32.48 386.787 31.7179 386.804 31.2489C386.811 31.073 386.823 30.7505 386.841 30.2815C386.919 29.7561 386.968 29.2296 386.988 28.702C387.01 28.1157 387.031 27.5588 387.051 27.0311C387.129 26.5057 387.173 26.1257 387.181 25.8912C387.214 25.0119 387.189 24.1303 387.105 23.2465C387.02 22.3627 386.995 21.4811 387.028 20.6018C386.978 20.365 386.966 19.8949 386.993 19.1914C387.021 18.4293 387.039 17.9603 387.045 17.7844C387.07 17.1396 387.206 16.6456 387.453 16.3027C387.701 15.9597 387.974 15.7351 388.271 15.6289C388.629 15.4662 388.985 15.3915 389.336 15.4047C389.69 15.3593 390.014 15.3421 390.307 15.3531C390.541 15.3619 390.98 15.4077 391.623 15.4905C392.268 15.5147 392.971 15.5411 393.733 15.5697C394.495 15.5983 395.198 15.6541 395.84 15.7369C396.544 15.7633 397.042 15.782 397.335 15.793C397.511 15.7996 397.981 15.7879 398.746 15.7579C399.51 15.7279 400.009 15.7172 400.244 15.726C401.241 15.7635 401.963 16.0548 402.413 16.6C402.923 17.0888 403.388 17.9869 403.809 19.2943C404.125 20.2455 404.499 21.2282 404.931 22.2424C405.362 23.2567 405.96 24.5413 406.723 26.0964C406.992 26.7523 407.293 27.3506 407.625 27.8915C407.957 28.4323 408.287 29.0318 408.614 29.6898C408.998 30.4087 409.323 31.1254 409.59 31.84C409.911 32.6739 410.287 33.598 410.719 34.6122C411.211 35.5701 411.663 36.0567 412.073 36.0721C412.425 36.0853 412.79 35.7467 413.168 35.0564C413.546 34.3661 413.799 33.8766 413.928 33.5879C414.054 33.3578 414.273 32.9844 414.586 32.4678C414.901 31.8925 415.217 31.288 415.535 30.6541C415.852 30.0202 416.168 29.4157 416.483 28.8404C416.799 28.2652 417.019 27.8625 417.145 27.6324C417.586 26.827 417.969 26.0195 418.293 25.2097C418.619 24.3413 418.973 23.5034 419.356 22.6958L421.058 19.5895C421.375 18.9556 421.69 18.3803 422.003 17.8637C422.377 17.2907 422.831 16.9261 423.365 16.77C423.424 16.7722 423.6 16.7788 423.893 16.7898C424.188 16.7422 424.512 16.725 424.863 16.7382C425.217 16.6928 425.541 16.6756 425.834 16.6866C426.129 16.639 426.306 16.6163 426.365 16.6185C426.541 16.6251 426.834 16.6361 427.244 16.6515C427.655 16.6669 428.093 16.7127 428.56 16.7889C429.029 16.8065 429.468 16.8523 429.876 16.9264C430.286 16.9418 430.579 16.9528 430.755 16.9594C430.814 16.9616 431.078 16.9715 431.547 16.9891C432.016 17.0067 432.485 17.0243 432.954 17.0419C433.483 17.0031 433.954 16.9914 434.364 17.0068C434.776 16.9635 435.012 16.943 435.071 16.9452C435.247 16.9518 435.393 16.9573 435.51 16.9617C435.688 16.9097 435.865 16.887 436.041 16.8936C436.51 16.9112 436.943 17.1036 437.341 17.4707C437.796 17.8401 438.009 18.4352 437.978 19.2559C437.967 19.549 437.918 20.0756 437.831 20.8355C437.804 21.539 437.756 22.0362 437.687 22.3271C437.514 23.7884 437.376 25.1335 437.271 26.3624C437.166 27.5913 437.112 28.2644 437.107 28.3817C437.098 28.6162 437.083 29.0265 437.061 29.6128C437.041 30.1404 437.019 30.7267 436.995 31.3716C437.029 32.0186 437.036 32.6353 437.014 33.2216C436.992 33.8078 436.976 34.2182 436.967 34.4527C436.948 34.9803 436.881 35.9759 436.767 37.4393C436.714 38.8463 436.657 40.3706 436.596 42.0121C436.536 43.595 436.45 45.1181 436.336 46.5815C436.281 48.0472 436.242 49.0731 436.22 49.6594C436.207 50.0111 436.184 50.6267 436.151 51.5061C436.177 52.3877 436.171 53.3268 436.133 54.3234C436.096 55.32 436.06 56.2874 436.024 57.2254C436.05 58.1069 436.056 58.7236 436.043 59.0754C436.03 59.4271 435.976 60.0709 435.883 61.0067C435.847 61.9447 435.78 62.9695 435.679 64.0812C435.639 65.1365 435.572 66.1613 435.476 67.1558C435.438 68.1524 435.412 68.8559 435.396 69.2663C435.388 69.5008 435.372 69.9112 435.35 70.4974C435.387 71.0859 435.422 71.7036 435.457 72.3507C435.491 72.9978 435.496 73.6438 435.472 74.2886C435.509 74.8771 435.523 75.2886 435.514 75.5231C435.47 76.6956 435.347 77.6303 435.144 78.3272C434.942 79.0241 434.313 79.3527 433.258 79.3131C432.965 79.3021 432.701 79.2922 432.467 79.2834C432.232 79.2746 431.999 79.2365 431.766 79.1691C430.948 79.0796 430.128 79.0195 429.307 78.9887C428.489 78.8993 427.669 78.8392 426.848 78.8084C426.379 78.7908 425.881 78.7721 425.354 78.7522C424.885 78.7346 424.414 78.7464 423.943 78.7874C423.648 78.835 423.354 78.8533 423.061 78.8423C422.826 78.8335 422.562 78.8236 422.269 78.8126C421.741 78.7928 421.332 78.7481 421.041 78.6784C420.753 78.5502 420.465 78.3926 420.178 78.2057C419.723 77.8364 419.413 77.4725 419.251 77.1142C419.147 76.758 419.106 76.2868 419.128 75.7006C419.139 75.4074 419.147 75.1729 419.154 74.9971C419.163 74.7626 419.241 74.2371 419.389 73.4208C419.524 72.9562 419.6 72.4894 419.618 72.0204C419.638 71.4927 419.657 70.9944 419.674 70.5254L419.842 66.0406C419.856 65.6888 419.84 65.336 419.794 64.982C419.807 64.6303 419.822 64.2492 419.837 63.8388C419.841 63.7216 419.849 63.5164 419.86 63.2233C419.932 62.8737 420.004 62.5242 420.076 62.1746C420.15 61.7664 420.192 61.4158 420.203 61.1227C420.275 60.7731 420.314 60.5104 420.321 60.3345C420.327 60.1586 420.31 59.8351 420.269 59.3639C420.289 58.8363 420.279 58.3075 420.241 57.7777C420.263 57.1915 420.254 56.6334 420.215 56.1036C420.235 55.576 420.25 55.1949 420.258 54.9604C420.265 54.7845 420.28 54.3741 420.305 53.7293C420.39 53.028 420.437 52.5601 420.445 52.3255C420.45 52.2083 420.428 52.002 420.38 51.7067C420.394 51.3549 420.402 51.1204 420.407 51.0032C420.427 50.4755 420.319 50.2073 420.085 50.1985C419.85 50.1897 419.578 50.4143 419.267 50.8723C419.08 51.1588 418.923 51.4465 418.794 51.7352C418.666 52.0239 418.405 52.7186 418.012 53.8193C417.883 54.108 417.661 54.5693 417.343 55.2032C417.084 55.8393 416.765 56.5318 416.385 57.2807C416.065 57.9732 415.746 58.6657 415.426 59.3582C415.109 59.9921 414.886 60.4534 414.758 60.7421C414.314 61.6061 413.876 62.3235 413.444 62.8944C413.07 63.4674 412.532 63.7407 411.828 63.7143C411.007 63.6835 410.453 63.604 410.164 63.4757C409.877 63.2889 409.567 62.9543 409.233 62.4721C409.122 62.2918 408.93 61.9324 408.657 61.3938C408.386 60.7965 408.085 60.1981 407.756 59.5987C407.428 58.9406 407.128 58.3422 406.854 57.8036C406.581 57.265 406.361 56.8751 406.194 56.634C406.029 56.3343 405.863 56.0639 405.696 55.8228C405.529 55.5817 405.392 55.3123 405.286 55.0148C405.175 54.8345 404.984 54.4458 404.713 53.8485C404.503 53.1948 404.234 52.5389 403.906 51.8809C403.637 51.225 403.337 50.6266 403.005 50.0858C402.732 49.5472 402.507 49.2745 402.331 49.2679C402.155 49.2613 402.032 49.4328 401.96 49.7824C401.949 50.0755 401.939 50.3393 401.93 50.5738C401.919 50.8669 401.871 51.3642 401.786 52.0655C401.76 52.769 401.702 53.53 401.612 54.3486C401.584 55.1107 401.526 55.8717 401.438 56.6316C401.412 57.3351 401.393 57.8335 401.382 58.1266C401.36 58.7128 401.338 59.2991 401.316 59.8853C401.355 60.4152 401.362 61.0025 401.338 61.6474C401.26 62.1728 401.212 62.6701 401.194 63.1391C401.179 63.5494 401.135 63.9294 401.063 64.279C401.052 64.5721 401.045 64.7773 401.04 64.8945L400.925 67.9724Z" fill="var(--fill-0, #E54B25)"/>
<path id="Vector_9" d="M349.71 31.8819C349.827 31.8863 349.945 31.8614 350.065 31.8072C350.245 31.6966 350.52 31.4133 350.889 30.9575C351.945 29.4121 352.951 28.4224 353.907 27.9886C354.921 27.557 355.926 27.3599 356.923 27.3974C357.627 27.4238 358.204 27.6803 358.655 28.1669C359.109 28.5949 359.324 29.1313 359.3 29.7762C359.293 29.952 359.249 30.332 359.169 30.9161C359.09 31.4415 359.048 31.7921 359.041 31.968L358.945 34.5182C358.917 35.2804 358.859 36.0414 358.772 36.8013C358.745 37.5048 358.719 38.2083 358.692 38.9118C358.686 39.0877 358.676 39.3515 358.663 39.7033C358.708 40.0572 358.722 40.4687 358.704 40.9377C358.689 41.3481 358.675 41.7291 358.662 42.0809C358.707 42.4349 358.726 42.6998 358.72 42.8756C358.711 43.1101 358.671 43.4022 358.599 43.7517C358.586 44.1035 358.514 44.453 358.383 44.8004C358.253 45.1477 358.007 45.4321 357.647 45.6534C357.345 45.8769 356.93 45.9787 356.402 45.9589C356.227 45.9523 355.817 45.9076 355.175 45.8247C354.534 45.6833 354.097 45.6082 353.862 45.5994C353.51 45.5861 353.098 45.6294 352.624 45.729C352.151 45.8287 351.672 46.0749 351.188 46.4676C350.041 47.3052 349.363 48.1604 349.154 49.0332C348.945 49.906 348.829 50.6648 348.804 51.3097L348.494 59.5758C348.488 59.7517 348.447 60.0437 348.373 60.4519C348.358 60.8623 348.34 61.3313 348.32 61.8589C348.303 62.3279 348.257 62.7665 348.183 63.1747C348.168 63.5851 348.157 63.8782 348.15 64.0541C348.141 64.2886 348.098 64.6685 348.019 65.194C347.999 65.7216 347.978 66.2785 347.956 66.8648C347.934 67.451 347.913 68.008 347.894 68.5356C347.874 69.0633 347.86 69.4443 347.851 69.6788C347.84 69.9719 347.829 70.2651 347.818 70.5582C347.809 70.7927 347.828 71.0576 347.876 71.3529C347.869 71.5288 347.883 71.9403 347.918 72.5874C347.952 73.2345 347.966 73.6459 347.959 73.8218C347.929 74.6426 347.671 75.2493 347.187 75.6421C346.761 76.0371 346.02 76.2148 344.965 76.1751C344.789 76.1685 344.437 76.1553 343.91 76.1355C343.441 76.1179 342.914 76.0688 342.33 75.9882C341.744 75.9662 341.187 75.9453 340.659 75.9255C340.19 75.9079 339.868 75.8958 339.692 75.8892C339.164 75.8694 338.637 75.8495 338.109 75.8297C337.64 75.8121 337.17 75.8238 336.699 75.8649C336.225 75.9645 335.842 76.0088 335.549 75.9978C334.787 75.9692 334.207 75.7713 333.81 75.4042C333.472 75.0392 333.249 74.708 333.143 74.4105C333.089 74.291 333.065 74.1434 333.071 73.9675C333.08 73.733 333.097 73.2933 333.121 72.6484C333.132 72.3553 333.182 71.7994 333.272 70.9809C333.422 70.1059 333.503 69.5218 333.514 69.2287C333.549 68.2907 333.56 67.205 333.548 65.9717C333.535 64.7384 333.547 63.6527 333.582 62.7147C333.617 61.7767 333.645 61.0439 333.664 60.5162C333.686 59.93 333.703 59.4903 333.714 59.1972C333.727 58.8454 333.736 58.6109 333.74 58.4937C333.806 58.32 333.84 58.1745 333.845 58.0573C333.851 57.8814 333.862 57.5883 333.878 57.1779C333.954 56.7111 334.002 56.2139 334.022 55.6863C334.042 55.1586 334.059 54.6896 334.075 54.2792C334.151 53.8124 334.192 53.4911 334.199 53.3152C334.212 52.9635 334.205 52.3761 334.177 51.5532C334.208 50.7324 334.211 49.8519 334.188 48.9117C334.223 47.9737 334.227 47.0932 334.199 46.2703C334.23 45.4495 334.252 44.8633 334.265 44.5115C334.292 43.808 334.318 43.1045 334.344 42.401C334.371 41.6975 334.427 40.9951 334.512 40.2938C334.605 39.358 334.662 38.6263 334.682 38.0986C334.702 37.571 334.717 37.1606 334.728 36.8675C334.735 36.6916 334.748 36.3399 334.768 35.8122C334.788 35.2846 334.778 34.7559 334.739 34.2261C334.761 33.6398 334.782 33.0829 334.802 32.5552C334.822 32.0276 334.835 31.6759 334.842 31.5C334.881 30.4447 334.907 29.7705 334.918 29.4774C334.989 29.1279 335.089 28.8087 335.218 28.52C335.659 27.7146 336.116 27.2621 336.59 27.1625C337.122 27.065 337.505 27.0207 337.739 27.0295C338.15 27.0449 338.53 27.0886 338.879 27.1604C339.231 27.1736 339.582 27.2161 339.931 27.2879C340.398 27.3642 340.837 27.41 341.247 27.4254C341.657 27.4408 342.097 27.4573 342.566 27.4749C343.211 27.4991 343.827 27.5222 344.413 27.5442C344.999 27.5662 345.616 27.56 346.263 27.5256C346.499 27.4758 346.882 27.4608 347.409 27.4806C348.992 27.54 349.759 28.2146 349.711 29.5043C349.707 29.6216 349.666 29.9136 349.59 30.3804C349.516 30.7886 349.477 31.0513 349.472 31.1685C349.468 31.2858 349.462 31.4324 349.456 31.6082C349.508 31.7863 349.593 31.8775 349.71 31.8819Z" fill="var(--fill-0, #E54B25)"/>
<path id="Vector_10" d="M309.157 43.569C309.333 43.5756 309.654 43.617 310.121 43.6933C310.59 43.7109 311.058 43.7578 311.525 43.834C312.05 43.9124 312.517 43.9887 312.925 44.0627C313.335 44.0781 313.599 44.088 313.716 44.0924C314.361 44.1166 314.809 43.9279 315.059 43.5264C315.367 43.127 315.528 42.7514 315.541 42.3997C315.57 41.6375 315.445 41.0458 315.167 40.6244C314.948 40.2052 314.637 39.9 314.233 39.7087C313.832 39.4588 313.368 39.2946 312.843 39.2162C312.376 39.14 311.908 39.0931 311.439 39.0755C311.204 39.0667 310.707 39.0186 309.947 38.9314C309.187 38.8442 308.661 38.7951 308.368 38.7841C306.726 38.7224 305.013 39.0104 303.228 39.6479C301.92 40.0685 301.089 40.3308 300.732 40.4348C300.435 40.5411 300.14 40.5887 299.846 40.5777C299.26 40.5557 298.683 40.2992 298.114 39.8082C297.604 39.3194 297.375 38.3714 297.428 36.9644C297.437 36.7299 297.457 36.2023 297.488 35.3816C297.579 34.5044 297.631 33.9192 297.642 33.6261C297.653 33.333 297.645 32.7456 297.62 31.864C297.596 30.9238 297.59 30.3072 297.601 30.014C297.621 29.4864 297.755 29.0511 298.002 28.7082C298.25 28.3652 298.554 28.0831 298.915 27.8618C299.275 27.6405 299.633 27.5071 299.987 27.4617C300.343 27.3577 300.639 27.2807 300.876 27.2309C301.762 27.088 302.736 26.9485 303.798 26.8122C304.862 26.6173 305.925 26.4517 306.986 26.3155C308.107 26.1814 309.197 26.0755 310.257 25.9979C311.375 25.9225 312.374 25.9012 313.253 25.9343C314.895 25.9959 316.443 26.2008 317.897 26.5489C319.411 26.8992 320.774 27.332 321.988 27.8472C323.262 28.306 324.356 28.8755 325.27 29.5555C326.186 30.177 326.897 30.7908 327.402 31.3968C327.962 32.1223 328.395 33.1073 328.7 34.3516C329.008 35.5373 329.111 37.4785 329.01 40.1753C329.001 40.4098 328.957 40.8191 328.876 41.4031C328.856 41.9308 328.834 42.517 328.81 43.1619C328.788 43.7482 328.737 44.3333 328.656 44.9174C328.634 45.5036 328.619 45.914 328.61 46.1485C328.603 46.3244 328.591 46.6468 328.573 47.1158C328.617 47.5284 328.628 47.9985 328.609 48.5261C328.589 49.0538 328.57 49.5521 328.552 50.0211C328.593 50.4923 328.611 50.8158 328.604 50.9917C328.595 51.2262 328.545 51.782 328.453 52.6592C328.423 53.48 328.402 54.0369 328.391 54.33C328.382 54.5645 328.366 54.9749 328.344 55.5612C328.325 56.0888 328.303 56.6751 328.278 57.3199C328.315 57.9084 328.322 58.4957 328.3 59.082C328.278 59.6682 328.263 60.0786 328.254 60.3131C328.245 60.5476 328.2 60.9862 328.117 61.6289C328.093 62.2738 328.037 62.9762 327.95 63.7361C327.921 64.4982 327.864 65.23 327.779 65.9313C327.755 66.5761 327.738 67.0158 327.73 67.2503C327.723 67.4262 327.71 67.778 327.69 68.3056C327.729 68.8354 327.737 69.3935 327.715 69.9797C327.752 70.5682 327.76 71.1262 327.74 71.6538C327.779 72.1837 327.795 72.5365 327.789 72.7124C327.751 73.709 327.433 74.3722 326.833 74.702C326.295 74.9753 325.791 75.1031 325.322 75.0855C325.146 75.0789 324.853 75.0679 324.443 75.0525C324.091 75.0393 323.681 75.0239 323.212 75.0063C322.803 74.9323 322.394 74.8876 321.984 74.8722C321.573 74.8568 321.28 74.8458 321.104 74.8392C320.928 74.8326 320.605 74.8498 320.134 74.8908C319.723 74.8754 319.283 74.8882 318.811 74.9292C318.342 74.9116 317.872 74.9233 317.401 74.9643C316.991 74.9489 316.698 74.9379 316.522 74.9313C316.229 74.9203 315.968 74.8225 315.74 74.6378C315.512 74.4531 315.343 74.2707 315.232 74.0904C315.119 73.9687 315.066 73.82 315.073 73.6441C315.079 73.4682 315.026 73.3194 314.913 73.1978C314.805 72.9589 314.634 72.835 314.399 72.8262C314.282 72.8218 314.132 72.9043 313.949 73.0736C313.769 73.1842 313.618 73.2959 313.497 73.4088C312.951 73.858 312.321 74.216 311.607 74.4827C310.895 74.6908 310.214 74.8413 309.565 74.9344C308.915 75.0274 308.298 75.063 307.711 75.0409C307.181 75.0798 306.741 75.0926 306.389 75.0794C305.861 75.0596 305.218 75.006 304.458 74.9188C303.754 74.8924 302.996 74.7466 302.184 74.4812C301.372 74.2159 300.506 73.8312 299.586 73.327C298.726 72.7663 297.874 72.0005 297.03 71.0295C296.242 70.1193 295.601 69.2146 295.107 68.3154C294.614 67.3576 294.238 66.4335 293.978 65.5431C293.776 64.655 293.632 63.7983 293.546 62.9731C293.518 62.1502 293.517 61.3869 293.544 60.6834C293.647 57.928 293.814 55.8208 294.045 54.3618C294.337 52.8463 294.796 51.572 295.422 50.5387C295.922 49.7356 296.599 48.8804 297.455 47.9732C298.311 47.066 299.338 46.312 300.534 45.7111C301.788 45.1711 302.831 44.7406 303.665 44.4196C304.558 44.1009 305.299 43.8939 305.89 43.7986C306.541 43.647 307.072 43.5788 307.483 43.5942C307.895 43.551 308.307 43.5371 308.717 43.5525L309.157 43.569ZM311.926 54.2404C311.164 54.2118 310.3 54.561 309.333 55.2879C308.428 55.9584 307.934 57.3782 307.853 59.5473C307.822 60.3681 307.913 61.076 308.125 61.6711C308.34 62.2075 308.616 62.6582 308.955 63.0231C309.293 63.3881 309.635 63.6651 309.98 63.8542C310.386 63.9868 310.736 64.0587 311.029 64.0697C312.319 64.1181 313.275 63.6843 313.896 62.7683C314.52 61.7937 314.86 60.5442 314.917 59.02C314.959 57.9061 314.764 56.842 314.333 55.8278C313.901 54.8136 313.099 54.2844 311.926 54.2404Z" fill="var(--fill-0, #E54B25)"/>
<path id="Vector_11" d="M270.77 42.1282C270.946 42.1348 271.267 42.1762 271.734 42.2524C272.203 42.27 272.671 42.3169 273.138 42.3932C273.663 42.4716 274.13 42.5478 274.538 42.6218C274.948 42.6373 275.212 42.6472 275.329 42.6516C275.974 42.6758 276.422 42.4871 276.672 42.0855C276.98 41.6861 277.141 41.3106 277.154 40.9588C277.183 40.1967 277.058 39.6049 276.78 39.1835C276.561 38.7644 276.25 38.4591 275.846 38.2679C275.445 38.018 274.981 37.8538 274.456 37.7754C273.989 37.6991 273.521 37.6522 273.052 37.6346C272.817 37.6258 272.32 37.5778 271.56 37.4905C270.8 37.4033 270.274 37.3542 269.981 37.3432C268.339 37.2816 266.626 37.5695 264.841 38.207C263.533 38.6276 262.702 38.8899 262.345 38.994C262.048 39.1002 261.753 39.1478 261.459 39.1368C260.873 39.1148 260.296 38.8583 259.727 38.3673C259.217 37.8785 258.988 36.9306 259.041 35.5236C259.05 35.2891 259.07 34.7615 259.101 33.9407C259.192 33.0635 259.244 32.4784 259.255 32.1852C259.266 31.8921 259.258 31.3048 259.233 30.4232C259.209 29.483 259.203 28.8663 259.214 28.5732C259.234 28.0455 259.368 27.6103 259.615 27.2673C259.863 26.9244 260.167 26.6422 260.528 26.4209C260.888 26.1996 261.246 26.0663 261.599 26.0209C261.956 25.9168 262.252 25.8399 262.489 25.7901C263.375 25.6472 264.349 25.5076 265.411 25.3713C266.475 25.1765 267.538 25.0109 268.599 24.8746C269.72 24.7405 270.81 24.6347 271.87 24.557C272.988 24.4816 273.987 24.4604 274.866 24.4934C276.508 24.555 278.056 24.7599 279.51 25.108C281.024 25.4584 282.387 25.8912 283.601 26.4064C284.875 26.8652 285.969 27.4346 286.883 28.1147C287.799 28.7361 288.51 29.3499 289.015 29.956C289.575 30.6815 290.008 31.6664 290.313 32.9107C290.621 34.0964 290.724 36.0377 290.623 38.7345C290.614 38.969 290.57 39.3782 290.489 39.9623C290.469 40.4899 290.447 41.0762 290.423 41.721C290.401 42.3073 290.35 42.8925 290.269 43.4765C290.247 44.0628 290.232 44.4731 290.223 44.7076C290.216 44.8835 290.204 45.206 290.186 45.675C290.23 46.0875 290.241 46.5576 290.222 47.0853C290.202 47.6129 290.183 48.1112 290.165 48.5802C290.206 49.0514 290.224 49.375 290.217 49.5508C290.208 49.7853 290.158 50.3412 290.066 51.2184C290.036 52.0391 290.015 52.5961 290.004 52.8892C289.995 53.1237 289.979 53.5341 289.957 54.1203C289.938 54.6479 289.916 55.2342 289.891 55.8791C289.928 56.4675 289.935 57.0549 289.913 57.6411C289.891 58.2274 289.876 58.6378 289.867 58.8723C289.858 59.1068 289.813 59.5454 289.73 60.188C289.705 60.8329 289.65 61.5353 289.563 62.2953C289.534 63.0574 289.477 63.7891 289.392 64.4904C289.368 65.1353 289.351 65.575 289.343 65.8095C289.336 65.9854 289.323 66.3371 289.303 66.8647C289.342 67.3946 289.35 67.9526 289.328 68.5389C289.365 69.1273 289.373 69.6854 289.353 70.213C289.392 70.7428 289.408 71.0957 289.402 71.2715C289.364 72.2682 289.046 72.9314 288.446 73.2611C287.908 73.5344 287.404 73.6623 286.935 73.6447C286.759 73.6381 286.466 73.6271 286.056 73.6117C285.704 73.5985 285.293 73.5831 284.824 73.5655C284.416 73.4914 284.007 73.4467 283.597 73.4313C283.186 73.4159 282.893 73.4049 282.717 73.3983C282.541 73.3917 282.218 73.4089 281.747 73.4499C281.336 73.4345 280.895 73.4473 280.424 73.4884C279.955 73.4708 279.485 73.4825 279.014 73.5235C278.604 73.5081 278.31 73.4971 278.135 73.4905C277.841 73.4795 277.581 73.3816 277.353 73.197C277.125 73.0123 276.956 72.8298 276.845 72.6495C276.732 72.5279 276.679 72.3791 276.686 72.2032C276.692 72.0274 276.639 71.8786 276.526 71.7569C276.418 71.518 276.247 71.3942 276.012 71.3854C275.895 71.381 275.745 71.4634 275.562 71.6327C275.382 71.7433 275.231 71.8551 275.11 71.9679C274.564 72.4171 273.934 72.7751 273.22 73.0418C272.508 73.2499 271.827 73.4005 271.178 73.4935C270.528 73.5866 269.911 73.6221 269.324 73.6001C268.794 73.6389 268.354 73.6517 268.002 73.6385C267.474 73.6187 266.83 73.5652 266.071 73.478C265.367 73.4516 264.609 73.3057 263.797 73.0404C262.985 72.7751 262.119 72.3903 261.199 71.8861C260.339 71.3255 259.487 70.5596 258.643 69.5886C257.855 68.6784 257.214 67.7738 256.72 66.8746C256.227 65.9168 255.851 64.9927 255.591 64.1023C255.389 63.2141 255.245 62.3574 255.159 61.5323C255.131 60.7093 255.13 59.9461 255.157 59.2426C255.26 56.4872 255.427 54.38 255.658 52.9209C255.95 51.4055 256.409 50.1311 257.035 49.0979C257.535 48.2947 258.212 47.4395 259.068 46.5323C259.924 45.6251 260.951 44.8711 262.147 44.2703C263.4 43.7302 264.444 43.2997 265.278 42.9788C266.171 42.66 266.912 42.453 267.503 42.3578C268.154 42.2061 268.685 42.138 269.096 42.1534C269.508 42.1102 269.92 42.0963 270.33 42.1117L270.77 42.1282ZM273.539 52.7996C272.777 52.771 271.913 53.1201 270.946 53.847C270.041 54.5175 269.547 55.9373 269.466 58.1065C269.435 58.9272 269.526 59.6351 269.738 60.2302C269.953 60.7666 270.229 61.2173 270.568 61.5823C270.906 61.9472 271.248 62.2243 271.593 62.4133C271.999 62.546 272.349 62.6178 272.642 62.6288C273.932 62.6772 274.887 62.2434 275.509 61.3274C276.133 60.3528 276.473 59.1034 276.53 57.5791C276.572 56.4652 276.377 55.4012 275.946 54.3869C275.514 53.3727 274.712 52.8436 273.539 52.7996Z" fill="var(--fill-0, #E54B25)"/>
<path id="Vector_12" d="M246.824 10.2315C246.941 10.2359 247.176 10.2447 247.527 10.2579C247.879 10.2712 248.231 10.2844 248.583 10.2976C248.995 10.2543 249.377 10.2393 249.729 10.2525C250.081 10.2657 250.345 10.2756 250.521 10.2822C251.224 10.3086 251.831 10.5663 252.341 11.0551C252.851 11.5439 253.091 12.1986 253.06 13.0194L253.023 13.9867C252.871 14.9203 252.75 15.7964 252.661 16.615C252.573 17.3749 252.51 18.2825 252.47 19.3377C252.459 19.6309 252.441 20.1292 252.414 20.8327C252.39 21.4776 252.364 22.1811 252.335 22.9432C252.365 23.7075 252.367 24.4415 252.34 25.145C252.314 25.8485 252.295 26.3468 252.284 26.6399C252.276 26.8744 252.226 27.4009 252.137 28.2195C252.106 29.0402 252.085 29.5972 252.074 29.8903C252.057 30.3593 252.027 31.1508 251.985 32.2646C251.943 33.3785 251.898 34.5803 251.85 35.8701C251.801 37.1599 251.755 38.391 251.711 39.5635C251.669 40.6774 251.64 41.4688 251.622 41.9378C251.609 42.2896 251.585 42.9345 251.549 43.8725C251.575 44.754 251.568 45.7225 251.528 46.7777C251.55 47.7766 251.543 48.745 251.507 49.683C251.531 50.6232 251.535 51.2985 251.519 51.7089L251.335 56.6334C251.302 57.5128 251.233 58.5669 251.128 59.7959C251.082 61.027 251.042 62.0823 251.009 62.9616C251 63.1961 250.985 63.6065 250.963 64.1928C251.002 64.7226 251.009 65.31 250.985 65.9548C251.021 66.5433 251.029 67.1306 251.007 67.7169C251.045 68.2467 251.061 68.6289 251.052 68.8634C251.012 69.9186 250.864 70.735 250.608 71.3124C250.41 71.8921 249.956 72.2567 249.246 72.4061C249.126 72.4604 248.773 72.4765 248.187 72.4545C247.601 72.4325 247.19 72.4171 246.956 72.4082C246.78 72.4016 246.487 72.3906 246.076 72.3752C245.668 72.3012 245.23 72.2554 244.761 72.2378C244.292 72.2202 243.823 72.2026 243.354 72.185C242.946 72.111 242.653 72.0706 242.478 72.064C242.184 72.053 241.597 72.0603 240.716 72.086C239.834 72.1116 239.247 72.1189 238.953 72.1079C237.781 72.0639 237.001 71.741 236.612 71.1394C236.285 70.4813 236.13 69.9177 236.147 69.4487C236.156 69.2142 236.174 68.7452 236.2 68.0417C236.287 67.2818 236.346 66.4915 236.377 65.6707C236.408 64.85 236.438 64.0585 236.466 63.2964C236.553 62.5365 236.603 62.0099 236.614 61.7168C236.662 60.427 236.68 59.1655 236.668 57.9322C236.716 56.6424 236.764 55.3526 236.813 54.0629C236.822 53.8284 236.836 53.4473 236.856 52.9197C236.878 52.3334 236.901 51.7179 236.925 51.073C237.01 50.3717 237.064 49.7279 237.086 49.1416C237.108 48.5554 237.123 48.145 237.132 47.9105C237.143 47.6174 237.134 47.0593 237.107 46.2364C237.137 45.4156 237.14 44.5645 237.114 43.6829C237.15 42.7449 237.153 41.8644 237.125 41.0414C237.158 40.1621 237.182 39.5465 237.195 39.1947C237.204 38.9602 237.218 38.5792 237.238 38.0515C237.26 37.4653 237.283 36.8497 237.307 36.2048C237.392 35.5035 237.446 34.8598 237.468 34.2735C237.49 33.6873 237.505 33.2769 237.514 33.0424C237.523 32.8079 237.537 32.4268 237.557 31.8992C237.579 31.3129 237.571 30.7256 237.535 30.1371C237.559 29.4922 237.582 28.8767 237.604 28.2904C237.626 27.7042 237.642 27.2938 237.65 27.0593C237.661 26.7662 237.681 26.2385 237.71 25.4764C237.797 24.7165 237.856 23.9261 237.887 23.1054C237.978 22.2282 238.039 21.4085 238.067 20.6464C238.154 19.8865 238.205 19.3306 238.218 18.9789C238.231 18.6271 238.249 18.1581 238.271 17.5719C238.293 16.9856 238.26 16.2799 238.174 15.4548C238.133 14.9836 238.115 14.6893 238.119 14.5721C238.126 14.3962 238.132 14.2203 238.139 14.0445C238.203 12.3443 238.45 11.2381 238.88 10.7259C239.31 10.2137 240.317 9.98728 241.899 10.0467L246.824 10.2315Z" fill="var(--fill-0, #E54B25)"/>
<path id="Vector_13" d="M231.177 68.1174C231.14 69.114 230.76 69.8336 230.039 70.2762C229.379 70.6624 228.841 70.9064 228.427 71.0082C227.597 71.2119 226.418 71.3438 224.889 71.4038C223.419 71.4661 221.95 71.499 220.483 71.5026C219.071 71.5671 217.808 71.5784 216.695 71.5366C215.578 71.5534 214.991 71.5607 214.933 71.5585C212.881 71.4815 211.098 71.2678 209.585 70.9174C208.132 70.5107 206.943 70.1431 206.016 69.8148C205.204 69.5495 204.625 69.3223 204.28 69.1332C203.937 68.8855 203.454 68.4564 202.831 67.846C201.865 66.9878 201.099 66.2839 200.533 65.7343C199.966 65.1846 199.487 64.6676 199.094 64.1832C198.76 63.701 198.455 63.2199 198.18 62.7399C197.963 62.2621 197.75 61.667 197.542 60.9547C197.23 59.8862 196.969 59.0252 196.758 58.3715C196.609 57.6614 196.485 57.0403 196.388 56.5083C196.293 55.9176 196.227 55.3281 196.19 54.7396C196.214 54.0948 196.215 53.3022 196.191 52.362C196.198 52.1861 196.181 51.8626 196.14 51.3914C196.157 50.9224 196.147 50.423 196.108 49.8931C196.071 49.3047 196.032 48.7749 195.991 48.3036C196.011 47.776 196.024 47.4243 196.031 47.2484C196.055 46.6035 196.109 45.9597 196.192 45.3171C196.277 44.6158 196.331 43.9427 196.355 43.2978C196.523 41.9538 196.634 40.5783 196.687 39.1713C196.742 37.7057 196.942 36.2748 197.288 34.8788C197.499 33.9474 197.795 33.1073 198.175 32.3583C198.616 31.553 199.024 30.8638 199.398 30.2907C199.773 29.659 200.116 29.1435 200.424 28.7442C200.733 28.3448 200.948 28.0887 201.07 27.9758C201.989 26.9536 203.018 26.1116 204.158 25.4499C205.357 24.7904 206.609 24.2797 207.915 23.9177C209.222 23.4971 210.524 23.2231 211.82 23.0956C213.119 22.9095 214.354 22.8385 215.527 22.8825C219.22 23.0211 222.074 23.6273 224.089 24.7009C226.164 25.7182 227.85 26.9263 229.148 28.3253C229.317 28.5077 229.624 28.9302 230.069 29.5927C230.573 30.2574 231.067 31.1566 231.553 32.2903C232.041 33.3653 232.462 34.6727 232.815 36.2124C233.17 37.6934 233.312 39.4012 233.239 41.3359C233.208 42.1566 233.148 42.9763 233.059 43.7948C232.971 44.5548 232.912 45.3451 232.882 46.1659L232.806 48.1884C232.786 48.7161 232.768 49.1851 232.753 49.5955C232.74 49.9472 232.668 50.2968 232.537 50.6441C232.477 50.7005 232.323 50.8709 232.078 51.1552C231.891 51.4418 231.646 51.7261 231.341 52.0082C231.037 52.2903 230.675 52.5703 230.253 52.848C229.834 53.0671 229.419 53.1689 229.009 53.1535C228.833 53.1469 228.394 53.1011 227.693 53.0161C226.992 52.931 226.524 52.8841 226.289 52.8753C226.113 52.8687 225.878 52.8892 225.582 52.9368C225.348 52.928 224.937 52.942 224.348 52.9786C223.76 53.0152 223.025 53.0463 222.143 53.0719C221.322 53.0411 220.589 53.0136 219.945 52.9894C219.651 52.9784 219.329 52.9663 218.977 52.9531C218.684 52.9421 218.363 52.9007 218.013 52.8288C217.896 52.8244 217.691 52.8167 217.398 52.8057C217.107 52.7361 216.785 52.6947 216.434 52.6815C216.084 52.6097 215.733 52.5672 215.382 52.554C215.091 52.4843 214.916 52.4484 214.857 52.4462C213.157 52.3824 212.155 52.4915 211.851 52.7737C211.547 53.0558 211.379 53.6072 211.349 54.428C211.331 54.897 211.313 55.366 211.296 55.835C211.339 56.2476 211.501 56.6352 211.78 56.998C212.219 57.8364 212.756 58.3849 213.392 58.6436C214.03 58.8437 214.756 59.0471 215.571 59.2537C216.035 59.3886 216.558 59.5257 217.14 59.6649C217.783 59.7478 218.163 59.7914 218.28 59.7958L218.456 59.8024C219.511 59.842 220.834 59.8036 222.423 59.6871C224.015 59.512 225.288 59.2076 226.244 58.7738C226.9 58.5048 227.346 58.3455 227.583 58.2957C227.82 58.2458 228.172 58.2297 228.641 58.2473C229.345 58.2737 229.867 58.4401 230.208 58.7464C230.609 58.9963 230.89 59.3298 231.051 59.7468C231.214 60.1051 231.286 60.5188 231.269 60.9878C231.31 61.459 231.322 61.8998 231.307 62.3102C231.256 63.6585 231.22 64.6259 231.198 65.2121C231.176 65.7984 231.188 66.2685 231.233 66.6224L231.177 68.1174ZM219.056 39.1303C219.126 37.2543 218.796 35.8916 218.064 35.0423C217.333 34.1929 216.557 33.7528 215.736 33.722C215.502 33.7132 215.296 33.7348 215.117 33.7868C215 33.7824 214.763 33.8323 214.407 33.9363C214.11 34.0426 213.782 34.177 213.424 34.3397C213.126 34.4459 212.821 34.7574 212.508 35.274C212.503 35.3912 212.404 35.6811 212.211 36.1435C212.076 36.6081 211.939 37.1313 211.8 37.7132C211.661 38.295 211.522 38.8475 211.385 39.3708C211.248 39.894 211.176 40.2436 211.17 40.4194C211.128 41.5333 211.278 42.2434 211.618 42.5497C211.961 42.7975 212.367 42.9301 212.836 42.9477C213.071 42.9565 213.54 42.9741 214.243 43.0005C215.008 42.9705 215.536 42.961 215.829 42.972C215.947 42.9764 216.18 43.0145 216.53 43.0863C216.881 43.0995 217.116 43.1083 217.233 43.1128C217.702 43.1304 218.089 42.9981 218.393 42.716C218.756 42.436 218.947 42.0323 218.967 41.5046L219.056 39.1303Z" fill="var(--fill-0, #E54B25)"/>
<path id="Vector_14" d="M157.485 18.4142C157.518 17.5348 157.521 16.6544 157.496 15.7728C157.529 14.8934 157.562 14.014 157.595 13.1346C157.599 13.0174 157.614 12.6363 157.638 11.9914C157.723 11.2901 157.81 10.5302 157.9 9.71166C157.998 8.6586 158.289 7.93569 158.773 7.54291C159.26 7.09151 159.826 6.87792 160.471 6.90213C160.647 6.90873 160.968 6.95014 161.435 7.02637C161.962 7.04618 162.49 7.06598 163.018 7.08579C163.604 7.10779 164.13 7.15691 164.597 7.23314C165.125 7.25294 165.477 7.26614 165.652 7.27275C165.828 7.27935 166.092 7.28925 166.444 7.30245C166.798 7.25703 167.18 7.24203 167.59 7.25743C168.059 7.27503 168.47 7.29044 168.822 7.30364C169.175 7.25822 169.44 7.23881 169.616 7.24541C169.909 7.25641 170.259 7.32824 170.665 7.46089C171.073 7.53492 171.442 7.87167 171.772 8.47113C171.937 8.77086 172.014 9.06728 172.003 9.36041C172.05 9.65574 172.052 10.3897 172.008 11.5622C171.999 11.7967 172.01 12.2961 172.04 13.0604C172.072 13.7661 172.084 14.2362 172.075 14.4707C172.066 14.7052 171.988 15.2306 171.84 16.047C171.752 16.8069 171.703 17.3335 171.692 17.6266C171.688 17.7438 171.68 17.949 171.669 18.2422C171.717 18.5375 171.738 18.7438 171.734 18.861C171.73 18.9783 171.69 19.241 171.616 19.6492C171.601 20.0595 171.591 20.3234 171.587 20.4406C171.582 20.5579 171.6 20.8814 171.638 21.4112C171.736 21.9433 172.019 22.2181 172.488 22.2357C172.723 22.2445 172.958 22.224 173.195 22.1741C173.434 22.0657 173.821 21.9041 174.358 21.6894C175.014 21.4205 175.904 21.1604 177.029 20.9091C178.154 20.6578 179.332 20.5552 180.563 20.6014C182.38 20.6696 183.977 21.1405 185.353 22.0141C186.79 22.8312 187.982 23.9327 188.928 25.3185C189.933 26.7065 190.662 28.3777 191.117 30.3321C191.575 32.228 191.763 34.2604 191.681 36.4296C191.639 37.5435 191.562 38.8321 191.448 40.2956C191.393 41.7612 191.345 43.051 191.303 44.1648C191.296 44.3407 191.254 44.6914 191.175 45.2168C191.158 45.6858 191.138 46.2134 191.116 46.7997C191.094 47.3859 191.044 47.9418 190.965 48.4672C190.947 48.9362 190.934 49.288 190.925 49.5225C190.914 49.8156 190.896 50.3139 190.869 51.0174C190.904 51.6645 190.935 52.3995 190.963 53.2225C190.993 53.9868 190.993 54.75 190.965 55.5121C190.997 56.2179 191.008 56.7173 190.997 57.0104C190.99 57.1863 190.949 57.5076 190.872 57.9744C190.855 58.4434 190.836 58.9417 190.816 59.4694C190.797 59.997 190.747 60.5235 190.669 61.049C190.651 61.518 190.639 61.8404 190.633 62.0163C190.626 62.1921 190.615 62.4853 190.6 62.8957C190.645 63.2496 190.659 63.6611 190.641 64.1301C190.624 64.5991 190.607 65.0388 190.592 65.4491C190.635 65.8617 190.653 66.156 190.647 66.3318C190.638 66.5663 190.597 66.8877 190.523 67.2959C190.507 67.7062 190.403 68.1426 190.209 68.605C190.077 69.011 189.828 69.3833 189.463 69.7218C189.159 70.0039 188.713 70.134 188.127 70.112C187.951 70.1054 187.658 70.0944 187.248 70.079C186.84 70.005 186.372 69.958 185.844 69.9382C185.375 69.9206 184.906 69.903 184.437 69.8854C183.97 69.8092 183.649 69.7678 183.473 69.7612C183.356 69.7568 183.092 69.7469 182.682 69.7315C182.33 69.7183 181.918 69.7322 181.447 69.7732C181.037 69.7578 180.626 69.7424 180.216 69.727C179.864 69.7138 179.601 69.7039 179.425 69.6973C177.842 69.6379 176.796 69.3344 176.289 68.787C175.842 68.1831 175.647 67.1191 175.704 65.5948C175.711 65.4189 175.72 65.1551 175.734 64.8034C175.808 64.3952 175.882 63.987 175.956 63.5788C176.032 63.112 176.077 62.7028 176.09 62.351C176.164 61.9428 176.204 61.6508 176.211 61.4749C176.215 61.3577 176.195 61.1221 176.149 60.7681C176.162 60.4164 176.177 60.0353 176.192 59.6249C176.208 59.2146 176.193 58.8324 176.147 58.4784C176.16 58.1267 176.17 57.8629 176.177 57.687C176.181 57.5697 176.191 57.3059 176.207 56.8956C176.222 56.4852 176.237 56.0748 176.253 55.6644C176.329 55.1976 176.375 54.759 176.39 54.3486C176.406 53.9383 176.417 53.6451 176.423 53.4693C176.43 53.2934 176.414 52.9405 176.375 52.4107C176.395 51.8831 176.416 51.3261 176.438 50.7399C176.462 50.095 176.455 49.5077 176.416 48.9778C176.436 48.4502 176.45 48.0691 176.459 47.8346C176.467 47.6001 176.483 47.1897 176.505 46.6035C176.588 45.9608 176.67 45.3181 176.753 44.6755C176.838 43.9742 176.892 43.3304 176.914 42.7441C176.997 42.1014 177.043 41.6628 177.051 41.4283C177.133 39.2592 176.925 37.7544 176.428 36.9138C175.99 36.0754 175.273 35.6376 174.276 35.6001C173.866 35.5847 173.542 35.602 173.305 35.6518C173.127 35.7038 172.977 35.7862 172.856 35.8991C172.736 35.9533 172.461 36.2365 172.031 36.7488C171.662 37.2046 171.426 38.0176 171.323 39.1879C171.321 39.2465 171.278 39.6265 171.192 40.3278C171.166 41.0313 171.107 41.8217 171.015 42.6988C170.982 43.5782 170.952 44.399 170.923 45.1611C170.894 45.9232 170.877 46.3922 170.87 46.5681C170.864 46.744 170.85 47.0957 170.831 47.6234C170.869 48.1532 170.877 48.7406 170.852 49.3854C170.83 49.9717 170.808 50.5579 170.786 51.1442C170.825 51.674 170.84 52.0562 170.832 52.2907C170.821 52.5838 170.772 53.081 170.687 53.7823C170.661 54.4858 170.632 55.248 170.602 56.0687C170.573 56.8309 170.515 57.5919 170.428 58.3518C170.401 59.0553 170.383 59.5536 170.372 59.8468L170.236 63.4522C170.23 63.6281 170.243 64.0689 170.275 64.7746C170.307 65.4803 170.319 65.9504 170.31 66.1849C170.268 67.2988 170.032 68.1119 169.602 68.6241C169.296 68.9648 168.966 69.1579 168.612 69.2033C168.258 69.2488 167.729 69.2583 167.025 69.2319C166.322 69.2054 165.618 69.179 164.915 69.1526C164.214 69.0676 163.511 69.0119 162.808 68.9855C162.456 68.9723 162.104 68.9591 161.752 68.9459C161.401 68.9327 161.048 68.9488 160.694 68.9942C160.518 68.9876 160.136 69.0026 159.547 69.0392C158.959 69.0758 158.547 69.0898 158.313 69.0809C157.609 69.0545 157.086 68.9175 156.743 68.6698C156.4 68.4221 156.147 68.119 155.985 67.7607C155.822 67.4023 155.718 67.0462 155.673 66.6922C155.686 66.3405 155.697 66.0474 155.706 65.8129C155.712 65.637 155.723 65.3438 155.739 64.9335C155.815 64.4667 155.862 63.9988 155.879 63.5298C155.897 63.0608 155.914 62.6211 155.929 62.2107C156.005 61.7439 156.047 61.4225 156.053 61.2467C156.062 61.0122 156.076 60.6311 156.096 60.1035C156.118 59.5172 156.112 58.9006 156.077 58.2535C156.104 57.55 156.128 56.9051 156.15 56.3188C156.172 55.7326 156.187 55.3222 156.196 55.0877C156.205 54.8532 156.22 54.4428 156.242 53.8566C156.325 53.2139 156.38 52.5408 156.406 51.8373C156.433 51.1338 156.457 50.4889 156.479 49.9027C156.562 49.26 156.609 48.7921 156.62 48.499C156.631 48.2058 156.621 47.6771 156.591 46.9128C156.62 46.1506 156.621 45.3288 156.596 44.4472C156.629 43.5678 156.63 42.746 156.6 41.9816C156.631 41.1609 156.653 40.5746 156.666 40.2229C156.675 39.9884 156.691 39.5487 156.716 38.9038C156.801 38.2025 156.858 37.4708 156.886 36.7086C156.915 35.9465 156.941 35.243 156.965 34.5981C157.05 33.8968 157.098 33.3996 157.109 33.1065L157.179 31.2598C157.188 31.0253 157.236 30.5281 157.323 29.7681C157.41 29.0082 157.459 28.4817 157.47 28.1886C157.479 27.9541 157.465 27.5426 157.428 26.9541C157.45 26.3679 157.444 25.7512 157.41 25.1041C157.378 24.3984 157.343 23.7513 157.307 23.1629C157.329 22.5766 157.345 22.1369 157.356 21.8438L157.485 18.4142Z" fill="var(--fill-0, #E54B25)"/>
<path id="Vector_15" d="M127.975 48.0402C127.981 47.8643 128.002 47.3074 128.038 46.3694C128.131 45.4335 128.199 44.4087 128.241 43.2948C128.344 42.1245 128.414 41.041 128.451 40.0444C128.549 38.9914 128.604 38.3183 128.615 38.0251C128.852 36.3902 129.269 34.674 129.865 32.8764C130.522 31.0224 131.103 29.6059 131.61 28.6268C133.003 25.9199 135.082 23.7083 137.847 21.9921C140.673 20.2195 143.962 19.4037 147.714 19.5445C149.472 19.6105 150.845 19.8088 151.83 20.1393C152.818 20.4112 153.283 21.3093 153.226 22.8336C153.219 23.0095 153.179 23.3015 153.105 23.7097C153.09 24.12 153.072 24.589 153.052 25.1167C153.035 25.5857 152.988 26.0536 152.912 26.5204C152.896 26.9308 152.885 27.2239 152.879 27.3998C152.874 27.517 152.865 27.7515 152.852 28.1033C152.841 28.3964 152.828 28.7481 152.813 29.1585C152.858 29.5125 152.874 29.8653 152.861 30.2171C152.85 30.5102 152.841 30.7447 152.834 30.9206L152.768 32.6794C152.716 34.0864 152.274 34.8917 151.445 35.0954C150.615 35.2991 149.702 35.3822 148.706 35.3448C147.357 35.2942 146.349 35.5793 145.679 36.1999C145.069 36.8228 144.605 37.4512 144.288 38.085C144.099 38.4302 143.938 38.8058 143.805 39.2117C143.733 39.5613 143.627 40.0563 143.485 40.6968C143.405 41.2808 143.316 42.0701 143.22 43.0645C143.185 44.0025 143.139 45.2337 143.082 46.7579C143.038 47.9304 143.146 48.9619 143.406 49.8522C143.724 50.7448 144.107 51.4931 144.554 52.0969C145.004 52.6421 145.486 53.0712 146.003 53.3842C146.578 53.6993 147.129 53.8961 147.654 53.9745C148.062 54.0485 148.442 54.0921 148.794 54.1053C149.207 54.0621 149.587 54.1057 149.934 54.2362C150.398 54.3711 150.8 54.621 151.139 54.9859C151.536 55.3531 151.722 55.8591 151.698 56.504C151.689 56.7385 151.682 56.9437 151.675 57.1195C151.668 57.2954 151.628 57.5874 151.554 57.9956C151.536 58.4646 151.492 58.8739 151.42 59.2234C151.409 59.5166 151.395 59.8976 151.377 60.3666C151.362 60.777 151.341 61.334 151.314 62.0375C151.29 62.6823 151.258 63.5324 151.219 64.5877C151.214 64.7049 151.202 65.0274 151.182 65.555C151.221 66.0848 151.237 66.4377 151.231 66.6135C151.204 67.3171 150.979 67.837 150.556 68.1733C150.132 68.5097 149.83 68.7332 149.65 68.8438C149.47 68.9545 149.202 69.0325 148.848 69.0779C148.492 69.182 147.787 69.2142 146.731 69.1746C145.676 69.135 144.71 69.0694 143.833 68.9777C143.073 68.8905 142.313 68.8033 141.553 68.716C140.849 68.6896 140.324 68.6112 139.977 68.4807C137.187 67.7302 135.028 66.5924 133.5 65.0674C132.031 63.5446 130.761 61.4127 129.689 58.672C129.366 57.8966 129.07 57.181 128.801 56.5251C128.593 55.8128 128.415 55.0723 128.268 54.3036C128.123 53.4762 128.011 52.562 127.931 51.561C127.91 50.5622 127.924 49.3886 127.975 48.0402Z" fill="var(--fill-0, #E54B25)"/>
<path id="Vector_16" d="M87.9944 40.9916C88.0318 39.9949 88.0681 39.0276 88.1033 38.0896C88.1972 37.1538 88.3507 36.1909 88.564 35.2009C88.6336 34.9099 88.7088 34.4724 88.7894 33.8884C88.9287 33.3065 89.069 32.6954 89.2105 32.0549C89.4127 31.358 89.5835 30.7186 89.7228 30.1368C89.862 29.5549 89.9958 29.1196 90.124 28.8309C90.1915 28.5986 90.3252 28.1633 90.5253 27.525C90.784 26.8889 91.134 26.1682 91.5751 25.3629C92.0163 24.5575 92.5455 23.7555 93.1625 22.9567C93.8404 22.1015 94.6322 21.3387 95.538 20.6682C96.6849 19.8306 97.8241 19.1983 98.9556 18.7711C100.089 18.2853 101.159 17.9438 102.164 17.7467C103.17 17.5496 104.083 17.4665 104.904 17.4973C105.785 17.4717 106.548 17.471 107.193 17.4952C107.897 17.5216 108.716 17.5817 109.652 17.6755C110.588 17.7694 111.578 17.9826 112.622 18.3154C113.727 18.5917 114.826 19.0439 115.918 19.6719C117.068 20.3022 118.152 21.1355 119.17 22.1717C119.452 22.4758 119.957 23.1112 120.684 24.0778C121.472 24.988 122.134 26.099 122.672 27.4107C123.158 28.5444 123.527 29.6737 123.778 30.7986C124.031 31.8649 124.194 33.0158 124.265 34.2513C124.394 35.489 124.431 36.87 124.373 38.3943C124.377 39.8621 124.344 41.534 124.273 43.4101C124.227 44.6412 124.12 45.9288 123.952 47.2727C123.786 48.5581 123.595 49.7544 123.377 50.8617C123.218 51.9712 123.036 52.9037 122.832 53.6592C122.686 54.4169 122.612 54.8251 122.61 54.8837C122.201 56.3948 121.584 57.9568 120.761 59.5697C119.995 61.1848 118.943 62.6423 117.602 63.9423C116.262 65.2423 114.608 66.2956 112.64 67.1024C110.675 67.8505 108.314 68.1729 105.559 68.0695C103.097 67.977 100.82 67.6274 98.7296 67.0206C96.6367 66.4723 94.7699 65.3749 93.1292 63.7282C92.6756 63.3002 92.1406 62.693 91.5244 61.9067C90.9103 61.0617 90.3321 60.042 89.7899 58.8475C89.3085 57.5965 88.8652 56.1122 88.46 54.3945C88.0548 52.6767 87.8354 50.7018 87.8018 48.4696C87.815 48.1178 87.7978 47.7943 87.7501 47.499C87.7611 47.2059 87.7755 46.8248 87.7931 46.3558C87.8129 45.8282 87.8382 45.154 87.869 44.3332C87.8998 43.5125 87.9416 42.3986 87.9944 40.9916ZM109.701 37.4913C109.714 37.1395 109.674 36.639 109.581 35.9897C109.547 35.3427 109.424 34.6923 109.214 34.0386C109.006 33.3263 108.676 32.7268 108.225 32.2402C107.832 31.7558 107.284 31.5004 106.58 31.474C105.994 31.452 105.488 31.6385 105.062 32.0335C104.639 32.3698 104.272 32.767 103.961 33.225C103.709 33.6852 103.515 34.1476 103.381 34.6122C103.246 35.0768 103.146 35.3959 103.08 35.5696C102.802 36.7333 102.616 37.7831 102.522 38.7189C102.489 39.5983 102.473 40.8012 102.474 42.3276C102.463 42.6208 102.411 43.2352 102.317 44.171C102.282 45.109 102.259 45.7246 102.248 46.0177C102.173 48.011 102.343 49.7493 102.757 51.2325C103.173 52.6571 104.055 53.3947 105.404 53.4453C106.166 53.4739 106.881 53.1779 107.55 52.5572C108.222 51.8779 108.669 50.8967 108.894 49.6136C108.972 49.0881 109.049 48.592 109.126 48.1252C109.202 47.6584 109.255 47.0146 109.286 46.1939C109.376 45.3753 109.446 44.2918 109.496 42.9435C109.547 41.5951 109.615 39.7777 109.701 37.4913Z" fill="var(--fill-0, #E54B25)"/>
<path id="Vector_17" d="M47.7181 39.4798C47.7555 38.4832 47.7918 37.5158 47.827 36.5778C47.9208 35.642 48.0744 34.6791 48.2877 33.6891C48.3573 33.3981 48.4324 32.9607 48.5131 32.3766C48.6523 31.7948 48.7927 31.1836 48.9341 30.5431C49.1364 29.8462 49.3072 29.2068 49.4465 28.625C49.5857 28.0431 49.7195 27.6078 49.8477 27.3191C49.9151 27.0868 50.0489 26.6515 50.249 26.0132C50.5077 25.3772 50.8576 24.6564 51.2988 23.8511C51.74 23.0457 52.2691 22.2437 52.8862 21.4449C53.5641 20.5898 54.3559 19.8269 55.2617 19.1564C56.4086 18.3189 57.5478 17.6865 58.6793 17.2593C59.813 16.7735 60.8825 16.432 61.888 16.2349C62.8934 16.0378 63.8065 15.9547 64.6272 15.9855C65.5088 15.9599 66.2721 15.9592 66.9169 15.9834C67.6204 16.0098 68.4401 16.0699 69.3759 16.1637C70.3117 16.2576 71.3017 16.4709 72.346 16.8036C73.4511 17.0799 74.5495 17.5321 75.6414 18.1602C76.7919 18.7904 77.8761 19.6237 78.8939 20.6599C79.1761 20.964 79.6806 21.5994 80.4075 22.566C81.1953 23.4762 81.8581 24.5872 82.3959 25.899C82.8817 27.0327 83.2503 28.1619 83.5016 29.2868C83.7551 30.3531 83.9174 31.504 83.9884 32.7395C84.1181 33.9773 84.1543 35.3582 84.0971 36.8825C84.1007 38.3503 84.0673 40.0223 83.9969 41.8983C83.9507 43.1294 83.8436 44.417 83.6758 45.761C83.5101 47.0463 83.3184 48.2426 83.1008 49.3499C82.9417 50.4594 82.7599 51.3919 82.5554 52.1474C82.4096 52.9052 82.3356 53.3133 82.3334 53.372C81.9244 54.883 81.308 56.445 80.4843 58.0579C79.7192 59.673 78.6664 61.1305 77.3261 62.4305C75.9857 63.7305 74.3317 64.7838 72.364 65.5906C70.3986 66.3387 68.0382 66.6611 65.2828 66.5577C62.8205 66.4653 60.544 66.1156 58.4533 65.5088C56.3604 64.9606 54.4936 63.8631 52.8529 62.2164C52.3993 61.7884 51.8643 61.1812 51.2481 60.3949C50.634 59.5499 50.0558 58.5302 49.5136 57.3357C49.0322 56.0848 48.5889 54.6004 48.1837 52.8827C47.7785 51.1649 47.5591 49.19 47.5254 46.9578C47.5387 46.6061 47.5214 46.2825 47.4738 45.9872C47.4848 45.6941 47.4991 45.313 47.5167 44.844C47.5365 44.3164 47.5618 43.6422 47.5927 42.8214C47.6235 42.0007 47.6653 40.8868 47.7181 39.4798ZM69.4246 35.9795C69.4379 35.6278 69.3979 35.1272 69.3049 34.478C69.2705 33.8309 69.1481 33.1805 68.9378 32.5268C68.7297 31.8145 68.4 31.2151 67.9486 30.7285C67.5558 30.244 67.0077 29.9886 66.3042 29.9622C65.7179 29.9402 65.2119 30.1267 64.7861 30.5217C64.3625 30.858 63.9954 31.2552 63.6846 31.7132C63.4325 32.1734 63.2391 32.6358 63.1042 33.1004C62.9693 33.565 62.8693 33.8842 62.8041 34.0578C62.5256 35.2215 62.3394 36.2713 62.2456 37.2071C62.2125 38.0865 62.1967 39.2894 62.1982 40.8159C62.1872 41.109 62.1347 41.7235 62.0409 42.6593C62.0057 43.5973 61.9826 44.2128 61.9716 44.506C61.8968 46.4992 62.0664 48.2375 62.4803 49.7207C62.8965 51.1453 63.7788 51.8829 65.1272 51.9336C65.8893 51.9622 66.6049 51.6661 67.274 51.0455C67.9453 50.3662 68.3931 49.3849 68.6174 48.1018C68.6958 47.5763 68.7731 47.0802 68.8494 46.6134C68.9256 46.1466 68.9791 45.5028 69.0099 44.6821C69.0994 43.8635 69.1694 42.7801 69.22 41.4317C69.2706 40.0833 69.3388 38.2659 69.4246 35.9795Z" fill="var(--fill-0, #E54B25)"/>
<path id="Vector_18" d="M1.18833 32.1853C1.23234 31.0128 1.30016 29.988 1.39179 29.1108C1.54205 28.2358 1.69121 27.3902 1.83927 26.5738C1.9111 26.2243 1.98293 25.8747 2.05475 25.5252C2.12878 25.117 2.20171 24.7381 2.27354 24.3886C2.4172 23.6895 2.53044 23.0186 2.61327 22.3759C2.69831 21.6746 2.81155 21.0037 2.95301 20.3632C3.16189 19.4904 3.49133 18.5341 3.94131 17.4943C4.3913 16.4544 4.8695 15.445 5.37591 14.4659C5.88233 13.4869 6.35503 12.624 6.79401 11.8773C7.29382 11.0742 7.66758 10.5011 7.91528 10.1582C8.71482 9.19014 9.81189 8.11586 11.2065 6.93535C12.6619 5.6984 14.0781 4.72417 15.4551 4.01265C16.8929 3.24471 18.5293 2.66034 20.3643 2.25955C22.1993 1.85877 23.9713 1.57304 25.6802 1.40235C27.4478 1.23386 29.0068 1.14562 30.3574 1.1376C31.708 1.12959 32.6471 1.13548 33.1748 1.15529C33.4093 1.16409 33.8478 1.20991 34.4905 1.29274C35.1354 1.31695 35.8096 1.34225 36.5131 1.36866C37.2166 1.39507 37.8897 1.44969 38.5324 1.53252C39.1773 1.55672 39.6463 1.57433 39.9394 1.58533C40.7601 1.61614 41.4244 1.90526 41.9323 2.45269C42.5009 2.9437 42.7676 3.6582 42.7324 4.59621C42.7258 4.77209 42.6822 5.15206 42.6016 5.73611C42.5796 6.32236 42.5642 6.73274 42.5554 6.96724L42.3243 13.1229C42.3001 13.7678 42.2781 14.354 42.2583 14.8817C42.2385 15.4093 42.1644 15.8175 42.0362 16.1062C41.7775 16.7423 41.2876 17.2816 40.5665 17.7242C39.9062 18.1104 39.2829 18.2925 38.6967 18.2705C38.2277 18.2529 37.7913 18.1484 37.3875 17.9571C37.1574 17.8311 36.9273 17.705 36.6972 17.579C36.4671 17.4529 36.2077 17.3258 35.919 17.1975C35.4587 16.9454 34.9648 16.8095 34.4372 16.7896C33.9118 16.7112 33.4146 16.6632 32.9456 16.6456C32.4766 16.628 32.0369 16.6115 31.6265 16.5961C31.2769 16.5242 30.8677 16.4795 30.3987 16.4619C28.8744 16.4047 27.5498 16.5018 26.4249 16.7531C25.3609 16.948 24.439 17.2656 23.6593 17.706C22.9381 18.1486 22.3321 18.6542 21.8411 19.2229C21.3501 19.7915 20.9166 20.3917 20.5406 21.0234C20.2211 21.7159 19.995 22.2651 19.8623 22.6711C19.7297 23.0771 19.5838 23.8348 19.4248 24.9443C19.3529 25.2938 19.2811 25.6434 19.2093 25.9929C19.1375 26.3425 19.0656 26.692 18.9938 27.0416C18.7263 27.9122 18.5174 28.7849 18.3671 29.6599C18.2169 30.5349 18.1164 31.6466 18.0658 32.995C18.0592 33.1708 18.0482 33.464 18.0328 33.8744C18.0174 34.2847 18.0009 34.7244 17.9833 35.1934C18.0243 35.6646 18.0371 36.1054 18.0217 36.5158C18.0063 36.9262 17.9953 37.2193 17.9887 37.3952C17.9711 37.8642 17.9535 38.3332 17.9359 38.8022C17.9791 39.2148 18.1341 39.7783 18.4008 40.4928C18.6111 41.1465 18.8225 41.7709 19.035 42.3659C19.3061 42.9632 19.5762 43.5897 19.8451 44.2456C20.0576 44.8407 20.269 45.4651 20.4793 46.1187C20.7504 46.716 21.1106 47.2872 21.5597 47.8325C22.0111 48.3191 22.582 48.7515 23.2723 49.1296C24.0234 49.4514 24.9266 49.632 25.9819 49.6716C26.2164 49.6804 26.5095 49.6914 26.8613 49.7046C27.2152 49.6592 27.5703 49.5845 27.9264 49.4804C28.2826 49.3764 28.5823 49.2115 28.8256 48.9858C29.0711 48.7015 29.2038 48.2955 29.2236 47.7679C29.2324 47.5334 29.2196 47.0926 29.1851 46.4455C29.1507 45.7984 29.1368 45.387 29.1434 45.2111C29.1544 44.918 29.2046 44.3621 29.2941 43.5436C29.3835 42.725 29.4337 42.1692 29.4447 41.876C29.4887 40.7035 29.1374 39.8978 28.3906 39.4588C27.7025 39.022 27.1533 38.7959 26.7429 38.7805C26.6257 38.7761 26.3597 38.8248 25.9449 38.9267C25.5323 38.9699 25.2674 38.9893 25.1501 38.9849C24.9743 38.9783 24.5705 38.787 23.9388 38.4111C23.3071 38.0351 23.0078 37.4074 23.0408 36.5281C23.0452 36.4108 23.065 35.8832 23.1002 34.9452C23.1963 33.9508 23.2652 32.8966 23.307 31.7827C23.4096 30.6124 23.4786 29.5583 23.5138 28.6202C23.6076 27.6844 23.6556 27.1872 23.6578 27.1286C23.8081 26.2536 24.2449 25.5655 24.9682 25.0643C25.6915 24.5631 26.5808 24.3323 27.636 24.3719C27.8119 24.3785 28.1039 24.4188 28.5121 24.4928C28.9811 24.5104 29.4501 24.528 29.9191 24.5456C30.4467 24.5654 30.9146 24.6124 31.3228 24.6864C31.7918 24.704 32.1143 24.7161 32.2901 24.7227C32.5833 24.7337 32.9643 24.748 33.4333 24.7656C33.961 24.7854 34.4886 24.8052 35.0162 24.825C35.6047 24.7884 36.1334 24.7789 36.6024 24.7965C37.13 24.8163 37.5111 24.8306 37.7456 24.8394C37.9237 24.7874 38.3362 24.7442 38.9833 24.7097C39.6304 24.6753 40.0419 24.6614 40.2178 24.668C40.8626 24.6922 41.4152 24.8304 41.8754 25.0825C42.913 25.5911 43.5066 26.2005 43.6561 26.9106C43.8077 27.562 43.9052 28.0941 43.9484 28.5066C43.9418 28.6825 43.9297 29.005 43.9121 29.474C43.8945 29.943 43.8465 30.4402 43.768 30.9656C43.7482 31.4932 43.7295 31.9916 43.7119 32.4606C43.6943 32.9296 43.6822 33.252 43.6756 33.4279C43.669 33.6038 43.6569 33.9262 43.6393 34.3952C43.6239 34.8056 43.6063 35.2746 43.5865 35.8022C43.5667 36.3298 43.548 36.8282 43.5304 37.2972C43.515 37.7075 43.504 38.0007 43.4974 38.1765C43.4908 38.3524 43.4472 38.7324 43.3665 39.3164C43.3467 39.8441 43.3247 40.4303 43.3005 41.0752C43.2785 41.6614 43.2283 42.2173 43.1499 42.7427C43.13 43.2703 43.1157 43.6514 43.1069 43.8859C43.0981 44.1204 43.0816 44.5601 43.0574 45.205C43.0941 45.7934 43.0992 46.4394 43.0728 47.1429C43.0463 47.8464 43.021 48.5206 42.9968 49.1655C43.0335 49.754 43.0474 50.1654 43.0386 50.3999C43.0298 50.6344 43.0133 51.0741 42.9891 51.719C42.9648 52.3639 42.9091 53.0663 42.8219 53.8262C42.7955 54.5297 42.7691 55.2332 42.7427 55.9367C42.7185 56.5816 42.702 57.0213 42.6932 57.2558L42.6007 59.7181C42.5677 60.5974 42.423 61.3259 42.1665 61.9033C41.9686 62.483 41.4189 63.0494 40.5176 63.6027C39.8573 63.9888 38.9658 64.2783 37.8431 64.471C36.7791 64.6659 35.6586 64.7999 34.4817 64.8732C33.3634 64.9486 32.2473 64.9654 31.1334 64.9236C30.076 64.9426 29.2541 64.9411 28.6678 64.9191C28.6678 64.9191 28.404 64.9092 27.8764 64.8894C27.3488 64.8696 26.7343 64.8172 26.033 64.7321C25.3881 64.7079 24.7726 64.6848 24.1863 64.6628C23.6587 64.643 23.3362 64.6309 23.219 64.6265C21.7556 64.5129 20.3269 64.2538 18.9331 63.8492C17.5979 63.4469 16.2661 62.9566 14.9375 62.3783C13.724 61.8631 12.7156 61.3556 11.9125 60.8558C11.1093 60.356 10.3952 59.8301 9.77013 59.2783C9.20368 58.7287 8.66874 58.1215 8.16532 57.4568C7.72052 56.7943 7.2204 56.0417 6.66495 55.199C6.38503 54.8362 6.13442 54.4746 5.91312 54.114C5.69182 53.7534 5.44231 53.3625 5.16459 52.9411C4.55492 51.9789 3.95185 50.8408 3.35538 49.5268C2.81754 48.2151 2.42516 46.9381 2.17825 45.696C2.02218 45.1618 1.87601 44.3637 1.73974 43.3018C1.60347 42.24 1.47051 41.0902 1.34084 39.8525C1.27201 38.5583 1.20427 37.2348 1.13763 35.882C1.12962 34.5315 1.14651 33.2992 1.18833 32.1853Z" fill="var(--fill-0, #E54B25)"/>
</g>
</svg>
