<svg viewBox="0 0 586.831 112.897" fill="none" xmlns="http://www.w3.org/2000/svg">
<g id="text80">
<path id="Vector" d="M536.017 28.6436C535.888 25.1107 535.954 22.2866 536.213 20.1714C536.557 18.0531 537.04 16.2667 537.66 14.8121C538.506 12.5913 539.695 10.5685 541.229 8.74372C542.76 6.83481 544.6 5.33575 546.751 4.24654C549.565 2.88041 552.269 1.98153 554.865 1.5499C557.46 1.11827 559.851 0.86255 562.038 0.782738C564.646 0.687579 567.003 0.643685 569.109 0.65106C571.296 0.571249 573.152 0.671951 574.679 0.953167C576.289 1.23131 577.529 1.73357 578.398 2.45993C579.267 3.18629 579.726 4.2224 579.775 5.56828C579.778 5.6524 579.753 6.11658 579.699 6.96082C579.727 7.71787 579.759 8.6011 579.796 9.61051C579.833 10.6199 579.826 11.5888 579.776 12.5172C579.809 13.4425 579.832 14.0733 579.845 14.4098C579.857 14.7463 579.883 15.4613 579.923 16.5548C580.047 17.6453 580.117 18.4008 580.132 18.8214C580.144 19.1578 580.119 19.622 580.056 20.2139C579.991 20.7217 579.799 21.2341 579.481 21.751C579.163 22.268 578.675 22.7491 578.017 23.1942C577.441 23.5522 576.606 23.7511 575.512 23.791L574.629 23.8233C573.782 23.6857 572.933 23.5061 572.082 23.2845C571.316 23.0597 570.466 22.8381 569.531 22.6195C568.597 22.4009 567.751 22.3054 566.994 22.3331C566.234 22.2766 565.601 22.2575 565.097 22.276C564.676 22.2913 564.173 22.3518 563.587 22.4574C562.998 22.4789 562.374 22.6701 561.713 23.0312C561.133 23.305 560.646 23.7861 560.25 24.4743C559.85 25.0785 559.671 25.9274 559.711 27.0209C559.772 28.7032 560.374 30.1974 561.517 31.5034C562.74 32.7222 564.743 34.5021 567.523 36.8433C568.221 37.4917 569.006 38.2211 569.878 39.0316C570.834 39.839 571.659 40.5248 572.353 41.0891C572.789 41.4943 573.181 41.8591 573.53 42.1832C573.96 42.4202 574.393 42.7414 574.829 43.1466C577.005 45.0887 578.799 46.9184 580.209 48.6357C581.62 50.3531 582.734 52.0391 583.552 53.6938C584.368 55.2645 584.932 56.8863 585.246 58.5595C585.56 60.2326 585.754 62.0786 585.827 64.0974C585.935 67.0415 585.872 69.9497 585.64 72.8219C585.492 75.6911 584.622 78.3762 583.028 80.8769C582.077 82.512 580.949 83.9009 579.643 85.0435C578.421 86.1831 577.193 87.1544 575.959 87.9575C574.725 88.7606 573.568 89.3924 572.49 89.8529C571.412 90.3134 570.54 90.64 569.873 90.8328C569.041 91.1159 567.997 91.3645 566.741 91.5788C565.57 91.79 564.355 91.9607 563.096 92.0909C561.84 92.3052 560.582 92.4353 559.32 92.4814C558.061 92.6115 556.927 92.695 555.918 92.7319C554.572 92.781 553.055 92.7521 551.366 92.6453C549.765 92.6195 548.203 92.508 546.679 92.3109C545.156 92.1138 543.757 91.8701 542.483 91.5797C541.209 91.2892 540.227 90.9039 539.535 90.4238C538.414 89.7066 537.759 89.0567 537.569 88.4741C537.379 87.8914 537.272 87.2636 537.247 86.5906C537.238 86.3383 537.22 85.8336 537.192 85.0765C537.249 84.3164 537.262 83.5157 537.231 82.6746C537.284 81.8303 537.297 81.0297 537.27 80.2726C537.326 79.5125 537.348 78.9642 537.336 78.6277C537.33 78.4595 537.275 78.1245 537.173 77.6229C537.151 77.0341 537.13 76.4453 537.108 75.8564C537.087 75.2676 537.025 74.7224 536.922 74.2208C536.901 73.6319 536.886 73.2114 536.876 72.959C536.864 72.6225 536.846 72.1178 536.821 71.4449C536.881 70.7689 537.026 70.1319 537.257 69.5338C537.572 68.9327 538.016 68.4111 538.589 67.9691C539.16 67.4429 540.034 67.1583 541.211 67.1153C542.305 67.0754 543.191 67.1273 543.87 67.271C544.634 67.4116 545.406 67.8045 546.188 68.4499C546.62 68.771 547.011 69.0936 547.36 69.4178C547.709 69.742 548.098 70.0226 548.528 70.2596C549.132 70.6587 549.985 70.9645 551.088 71.1769C552.188 71.3053 553.369 71.3464 554.63 71.3004C556.397 71.2359 558.068 70.8801 559.645 70.2329C561.222 69.5858 561.975 68.2949 561.904 66.3602C561.88 65.6872 561.774 65.1015 561.588 64.6029C561.398 64.0202 560.953 63.3627 560.252 62.6302C559.636 61.8946 558.719 61.0015 557.501 59.951C556.28 58.8163 554.669 57.359 552.667 55.579C552.492 55.4169 552.102 55.0943 551.494 54.611C550.968 54.0406 550.4 53.4718 549.79 52.9044C549.179 52.3371 548.571 51.8118 547.963 51.3286C547.437 50.7582 547.045 50.3935 546.786 50.2345C545.136 48.8628 543.742 47.6081 542.606 46.4704C541.554 45.3295 540.489 43.8523 539.412 42.0385C537.887 39.4831 536.964 37.2847 536.644 35.4433C536.321 33.5178 536.112 31.2512 536.017 28.6436Z" fill="var(--fill-0, #00B289)"/>
<path id="Vector_2" d="M479.213 57.7541C479.161 56.3241 479.11 54.9362 479.061 53.5903C479.096 52.2414 479.214 50.8473 479.414 49.4081C479.483 48.9844 479.544 48.3505 479.597 47.5062C479.735 46.6589 479.871 45.7696 480.005 44.8381C480.221 43.8195 480.397 42.8866 480.535 42.0392C480.672 41.1919 480.818 40.5549 480.97 40.1282C481.042 39.7886 481.188 39.1516 481.406 38.2171C481.709 37.2795 482.133 36.2112 482.679 35.0121C483.225 33.8129 483.897 32.6092 484.695 31.4009C485.574 30.1053 486.626 28.9299 487.851 27.8744C489.403 26.5543 490.966 25.5286 492.54 24.7974C494.111 23.982 495.605 23.38 497.022 22.9913C498.44 22.6027 499.738 22.3869 500.916 22.3439C502.174 22.2137 503.266 22.1318 504.192 22.098C505.201 22.0612 506.38 22.0602 507.729 22.0952C509.078 22.1302 510.517 22.3304 512.047 22.6957C513.657 22.9739 515.277 23.5044 516.906 24.2872C518.619 25.067 520.258 26.1443 521.825 27.519C522.261 27.9243 523.05 28.7799 524.193 30.0858C525.416 31.3046 526.483 32.824 527.391 34.6438C528.207 36.2144 528.854 37.7912 529.333 39.3741C529.809 40.8728 530.163 42.5024 530.396 44.2627C530.712 46.02 530.911 47.9921 530.99 50.1792C531.151 52.279 531.281 54.6748 531.379 57.3666C531.444 59.1331 531.427 60.9867 531.329 62.9275C531.229 64.7843 531.081 66.5163 530.887 68.1238C530.777 69.7281 530.616 71.0817 530.404 72.1844C530.275 73.2841 530.213 73.876 530.216 73.9601C529.791 76.1656 529.075 78.4659 528.067 80.8611C527.144 83.2532 525.792 85.4504 524.012 87.4526C522.232 89.4549 519.977 91.1375 517.247 92.5006C514.514 93.7795 511.171 94.4911 507.218 94.6354C503.685 94.7643 500.39 94.5055 497.334 93.8589C494.282 93.2965 491.494 91.9242 488.972 89.7421C488.277 89.1778 487.448 88.3658 486.482 87.306C485.514 86.1622 484.579 84.7644 483.676 83.1128C482.855 81.3739 482.063 79.2971 481.301 76.8822C480.539 74.4674 480.016 71.6648 479.731 68.4745C479.712 67.9698 479.653 67.5087 479.554 67.0912C479.538 66.6706 479.519 66.1238 479.494 65.4509C479.466 64.6938 479.431 63.7265 479.388 62.5488C479.345 61.3712 479.287 59.7729 479.213 57.7541ZM509.901 50.4434C509.882 49.9387 509.772 49.2268 509.57 48.3076C509.452 47.3854 509.208 46.4678 508.838 45.5548C508.465 44.5576 507.929 43.7349 507.232 43.0865C506.618 42.4351 505.807 42.1277 504.797 42.1646C503.956 42.1953 503.252 42.5158 502.685 43.1261C502.114 43.6523 501.631 44.2595 501.235 44.9478C500.923 45.633 500.695 46.3152 500.552 46.9942C500.408 47.6733 500.299 48.1406 500.224 48.396C499.949 50.0906 499.794 51.6124 499.759 52.9614C499.805 54.2231 499.91 55.946 500.074 58.13C500.089 58.5506 500.079 59.4353 500.044 60.7843C500.093 62.1301 500.125 63.0134 500.141 63.434C500.245 66.294 500.672 68.7631 501.422 70.8415C502.168 72.8358 503.509 73.7976 505.444 73.727C506.537 73.6871 507.53 73.1876 508.421 72.2286C509.31 71.1854 509.847 69.7339 510.031 67.8741C510.088 67.114 510.146 66.3959 510.205 65.7199C510.265 65.0439 510.273 64.1171 510.23 62.9394C510.271 61.7587 510.257 60.201 510.186 58.2663C510.115 56.3316 510.02 53.724 509.901 50.4434Z" fill="var(--fill-0, #00B289)"/>
<path id="Vector_3" d="M427.521 7.08141C427.942 7.06606 428.699 7.03844 429.792 6.99853C430.886 6.95862 432.064 6.91565 433.325 6.8696C434.584 6.73944 435.76 6.65441 436.854 6.6145C437.947 6.5746 438.746 6.54544 439.251 6.52702C439.84 6.50553 440.522 6.73333 441.297 7.2104C442.154 7.60029 442.655 8.63488 442.801 10.3142C442.943 11.9093 443.033 13.2116 443.069 14.221C443.187 15.1432 443.302 15.9813 443.414 16.7353C443.523 17.4052 443.589 18.0766 443.614 18.7495C443.719 19.3353 443.872 20.0457 444.071 20.8807C444.375 22.3015 444.586 23.473 444.704 24.3952C444.906 25.3144 445.065 26.193 445.179 27.0311C445.291 27.7851 445.364 28.6247 445.398 29.55C445.512 30.3881 445.638 31.5206 445.774 32.9476C445.823 34.2934 445.912 35.5537 446.039 36.7282C446.163 37.8187 446.288 38.9512 446.415 40.1258C446.623 41.2132 446.835 42.3847 447.049 43.6403C447.347 44.8928 447.652 46.3136 447.963 47.9027C447.969 48.0709 448.035 48.7423 448.162 49.9169C448.371 51.0042 448.541 52.2194 448.674 53.5622C448.892 54.9019 449.066 56.2011 449.196 57.4598C449.41 58.7154 449.567 59.552 449.666 59.9695C449.878 61.141 450.119 61.9745 450.389 62.47C450.741 62.8783 451.001 63.0794 451.169 63.0733C451.338 63.0671 451.501 62.9348 451.66 62.6763C451.816 62.3337 451.932 62.0347 452.007 61.7793C452.078 61.4397 452.175 60.636 452.298 59.3681C452.417 58.0161 452.492 56.6236 452.524 55.1905C452.637 53.6702 452.713 52.2777 452.751 51.0129C452.789 49.748 452.803 48.9894 452.794 48.7371C452.935 47.9739 453.033 47.2122 453.09 46.4521C453.227 45.6048 453.365 44.7575 453.502 43.9102C453.849 41.876 453.986 39.8495 453.912 37.8307C453.923 35.8088 453.935 33.829 453.948 31.8912C453.983 30.5423 454.02 29.2354 454.058 27.9705C454.177 26.6185 454.336 25.2229 454.537 23.7837C454.602 23.2759 454.668 22.7682 454.734 22.2604C454.799 21.7526 454.907 21.2433 455.057 20.7325C455.123 20.2247 455.181 19.5066 455.231 18.5783C455.278 17.5658 455.326 16.5533 455.373 15.5408C455.42 14.5284 455.469 13.5579 455.519 12.6296C455.567 11.6171 455.581 10.8585 455.563 10.3538C455.547 9.93321 455.534 9.55469 455.521 9.21822C455.59 8.79456 455.701 8.36937 455.854 7.94264C455.854 7.94264 455.975 7.81186 456.218 7.55031C456.462 7.28874 456.705 7.02718 456.948 6.76562C457.275 6.50099 457.604 6.27842 457.934 6.0979C458.262 5.83327 458.551 5.69636 458.804 5.68715C459.224 5.6718 459.562 5.70158 459.818 5.77649C459.902 5.77342 460.24 5.8032 460.832 5.86582C461.421 5.84434 462.051 5.82131 462.724 5.79676C463.481 5.76913 464.24 5.78356 465 5.84005C465.841 5.80935 466.598 5.78172 467.271 5.75717C467.524 5.74796 467.902 5.73415 468.407 5.71573C468.996 5.69424 469.627 5.67122 470.3 5.64666C470.969 5.53799 471.599 5.47291 472.188 5.45142C472.776 5.42993 473.197 5.41458 473.449 5.40537C473.618 5.39923 474.08 5.38235 474.837 5.35472C475.675 5.23991 476.221 5.1779 476.473 5.16869C478.576 5.09195 479.663 6.02093 479.733 7.95563C479.739 8.12386 479.714 8.58804 479.658 9.34816C479.682 10.0211 479.59 10.951 479.381 12.1379C479.237 12.8169 479.053 13.5396 478.828 14.3059C478.687 15.0691 478.545 15.7902 478.401 16.4693C478.186 17.4879 477.984 18.885 477.796 20.6607C477.605 22.3523 477.494 23.9146 477.462 25.3476C477.477 25.7682 477.451 26.1904 477.382 26.614C477.397 27.0346 477.413 27.4552 477.428 27.8758C477.368 28.5518 477.265 29.1873 477.118 29.7822C477.056 30.3741 476.993 30.966 476.931 31.5579C476.946 31.9785 476.961 32.3991 476.977 32.8197C476.989 33.1561 476.961 33.5362 476.892 33.9598C476.773 35.3119 476.57 36.6669 476.282 38.0251C476.076 39.2961 475.827 40.5686 475.537 41.8426C475.184 43.7086 474.914 45.5293 474.726 47.305C474.622 49.0776 474.434 50.8533 474.162 52.632L473.261 59.1085C473.13 60.124 472.998 61.1396 472.867 62.1551C472.82 63.1676 472.73 64.1816 472.599 65.1971C472.208 68.3279 471.686 71.3371 471.033 74.2247C470.743 75.4987 470.487 76.561 470.265 77.4113C470.128 78.2587 469.947 79.0654 469.722 79.8317C469.581 80.5949 469.444 81.4422 469.309 82.3736C469.172 83.221 469.001 84.3222 468.798 85.6772C468.401 88.6398 467.893 90.8904 467.276 92.429C466.655 93.8836 465.209 94.6523 462.938 94.7352C462.181 94.7628 460.751 94.815 458.648 94.8917C456.629 94.9654 454.442 95.0452 452.087 95.1312C449.815 95.2141 447.586 95.2954 445.399 95.3752C443.296 95.452 441.824 95.5057 440.983 95.5364C439.469 95.5916 438.447 95.292 437.918 94.6375C437.47 93.8958 436.913 92.4842 436.247 90.4027C435.868 89.2374 435.481 87.8617 435.086 86.2758C434.691 84.6898 434.296 83.1039 433.902 81.5179C433.504 79.8478 433.153 78.3024 432.848 76.8816C432.54 75.3767 432.284 74.1226 432.079 73.1194C431.976 72.6177 431.778 71.7827 431.482 70.6143C431.187 69.4458 430.846 68.1948 430.461 66.8612C430.156 65.4404 429.855 64.1038 429.556 62.8512C429.258 61.5987 429.058 60.7216 428.955 60.2199C428.856 59.8024 428.708 59.2182 428.512 58.4673C428.316 57.7164 428.119 56.9234 427.92 56.0884C427.802 55.1661 427.645 54.3296 427.449 53.5787C427.337 52.8247 427.232 52.2389 427.132 51.8214C427.03 51.3198 426.927 50.8181 426.825 50.3165C426.803 49.7277 426.741 49.1824 426.639 48.6808C426.542 48.3474 426.446 48.014 426.35 47.6806C426.337 47.3441 426.283 47.0092 426.187 46.6758C425.59 44.1707 425.094 42.1252 424.699 40.5392C424.304 38.9533 423.961 37.6181 423.669 36.5338C423.457 35.3623 423.249 34.2749 423.044 33.2717C422.839 32.2684 422.626 31.0548 422.406 29.631C422.08 27.6214 421.71 25.5712 421.297 23.4806C420.884 21.3899 420.483 19.6357 420.094 18.218C419.796 16.9655 419.591 15.9622 419.479 15.2082C419.28 14.3732 419.159 13.3668 419.116 12.1892C419.107 11.9369 419.135 11.5568 419.201 11.049C419.179 10.4602 419.244 9.91037 419.393 9.39952C419.624 8.80149 419.942 8.28451 420.348 7.84857C420.753 7.41264 421.376 7.17932 422.217 7.14863C422.638 7.13328 422.976 7.16306 423.231 7.23796L427.521 7.08141Z" fill="var(--fill-0, #00B289)"/>
<path id="Vector_4" d="M366.339 63.263C366.66 62.8301 367.1 62.1824 367.658 61.3197C368.213 60.3729 368.416 59.0178 368.268 57.2544C368.262 57.0862 368.21 56.8354 368.114 56.502C368.099 56.0814 368.088 55.787 368.082 55.6188C368.051 54.7776 368.276 54.0113 368.756 53.32C369.32 52.6255 370.191 52.2568 371.369 52.2139C371.621 52.2046 371.833 52.239 372.004 52.317C372.257 52.3078 372.509 52.2986 372.761 52.2894C373.693 52.4239 374.705 52.4711 375.799 52.4312C376.976 52.3883 377.607 52.3652 377.691 52.3622C377.944 52.3529 378.531 52.2894 379.453 52.1715C380.46 52.0506 381.089 51.9855 381.341 51.9763C381.93 51.9548 382.611 52.1405 383.383 52.5335C384.24 52.9234 384.689 53.7071 384.732 54.8848C384.754 55.4736 384.683 56.9923 384.52 59.4409C384.356 61.8896 383.908 64.6013 383.174 67.5761C382.509 70.1272 381.863 72.0459 381.236 73.3323C380.606 74.5345 379.934 75.7382 379.22 76.9435C378.899 77.3763 378.462 78.1082 377.91 79.1391C377.44 80.0828 377.212 80.765 377.227 81.1856C377.239 81.522 377.337 81.8975 377.521 82.3119C377.786 82.6392 378.498 83.7082 379.659 85.5188C381.091 87.825 382.347 89.927 383.427 91.8249C384.591 93.7197 385.184 94.9615 385.206 95.5503C385.236 96.3915 384.92 96.9505 384.256 97.2274C383.592 97.5043 382.924 97.6551 382.251 97.6796C381.999 97.6888 381.536 97.7057 380.863 97.7303C380.187 97.6707 379.428 97.6563 378.587 97.687C377.827 97.6305 377.069 97.6161 376.312 97.6437C375.636 97.5841 375.171 97.559 374.919 97.5682C373.994 97.6019 373.112 97.6762 372.274 97.791C371.433 97.8217 370.55 97.854 369.624 97.8877C369.456 97.8939 368.995 97.9528 368.241 98.0646C367.568 98.0891 367.189 98.1029 367.105 98.106C366.853 98.1152 366.641 98.0808 366.47 98.0028C366.299 97.9249 366.082 97.7643 365.821 97.5212C365.559 97.278 365.209 96.9118 364.77 96.4224C364.415 95.93 363.884 95.2334 363.177 94.3327C361.282 95.4968 359.009 96.6747 356.357 97.8665C353.705 99.0583 350.487 99.7232 346.702 99.8613C343 99.9964 340.124 99.6381 338.071 98.7865C336.103 97.9318 334.559 97.188 333.441 96.5549C330.682 94.8026 328.683 93.1067 327.444 91.4673C326.286 89.7408 325.344 88.1748 324.619 86.7693C324.074 85.6942 323.575 84.7017 323.121 83.7918C322.666 82.8818 322.252 81.9283 321.879 80.9312C321.59 79.931 321.34 78.8451 321.128 77.6736C321.001 76.499 320.907 75.0706 320.846 73.3882C320.781 71.6218 320.765 70.022 320.797 68.5889C320.913 67.1528 321.074 65.7992 321.28 64.5283C321.571 63.2542 321.989 62.0177 322.535 60.8185C323.078 59.5353 323.789 58.2459 324.668 56.9504C325.307 56.0005 326.193 54.8732 327.324 53.5685C328.456 52.2637 329.717 51.0385 331.107 49.8928C331.434 49.6282 331.761 49.3635 332.088 49.0989C332.416 48.8343 332.743 48.5697 333.07 48.305C333.722 47.6916 334.291 47.1234 334.777 46.6003C335.26 45.993 335.489 45.3529 335.465 44.68C335.453 44.3435 335.311 43.9276 335.04 43.4321C334.766 42.8524 334.494 42.3149 334.223 41.8194C334.133 41.6542 333.907 41.2413 333.546 40.5807C333.185 39.92 332.818 39.0911 332.445 38.094C332.068 37.0127 331.688 35.8053 331.302 34.4717C331 33.135 330.822 31.7097 330.767 30.1955C330.742 29.5226 330.752 28.6378 330.796 27.5412C330.837 26.3605 331.003 25.1331 331.294 23.8591C331.581 22.5009 331.993 21.0961 332.53 19.6447C333.15 18.1901 333.942 16.8135 334.906 15.5149C336.518 13.5188 338.69 11.8813 341.423 10.6024C344.153 9.23932 346.737 8.51328 349.177 8.42426C350.943 8.3598 352.756 8.41998 354.616 8.60479C356.473 8.7055 358.516 9.30476 360.746 10.4026C361.777 10.9546 362.858 11.7153 363.988 12.6848C365.115 13.5702 366.168 14.711 367.145 16.1072C368.12 17.4194 368.935 18.99 369.591 20.8191C370.245 22.564 370.613 24.5721 370.696 26.8433C370.711 27.2639 370.696 28.0225 370.652 29.119C370.605 30.1315 370.48 31.3153 370.277 32.6704C370.073 34.0255 369.748 35.5113 369.302 37.128C368.937 38.6575 368.36 40.1525 367.571 41.6132C365.993 44.5346 363.907 47.3903 361.313 50.1803C360.269 51.5661 359.754 52.4692 359.77 52.8898C359.776 53.0581 359.871 53.3494 360.054 53.7639C360.322 54.1752 360.548 54.5881 360.731 55.0026C361.176 55.6602 361.801 56.606 362.604 57.8402C363.491 59.0712 364.736 60.8788 366.339 63.263ZM350.456 36.5523C351.188 35.8517 352.078 34.8506 353.126 33.549C354.257 32.2442 354.788 30.6245 354.717 28.6898C354.662 27.1757 354.12 26.1847 353.093 25.7168C352.146 25.1618 351.42 24.8935 350.915 24.9119C350.074 24.9426 349.29 25.3923 348.564 26.2611C347.838 27.1299 347.501 28.2793 347.553 29.7093C347.593 30.8028 347.891 32.0554 348.448 33.467C349.002 34.7944 349.671 35.8229 350.456 36.5523ZM344.781 64.5551C344.124 65.0002 343.633 65.3972 343.309 65.7459C342.907 66.266 342.472 67.0399 342.004 68.0677C341.533 69.0114 341.322 70.1562 341.371 71.5021C341.389 72.0068 341.5 72.7187 341.702 73.6379C341.904 74.557 342.274 75.4701 342.812 76.3769C343.432 77.1966 344.259 77.9245 345.293 78.5606C346.411 79.1936 347.853 79.4779 349.619 79.4135C350.461 79.3828 351.506 79.1762 352.755 78.7936C352.665 78.6285 352.576 78.5054 352.489 78.4243C352.483 78.2561 352.435 78.0894 352.345 77.9242C352.17 77.7621 351.861 77.3523 351.415 76.6947C351.051 75.9499 350.78 75.4544 350.603 75.2082C349.616 73.5596 348.852 72.2398 348.311 71.2489C347.769 70.2579 347.319 69.4741 346.961 68.8976C346.688 68.3179 346.46 67.863 346.28 67.5326C346.099 67.2023 345.962 66.9125 345.869 66.6632C345.508 66.0026 345.282 65.5897 345.192 65.4245C345.099 65.1752 344.962 64.8854 344.781 64.5551Z" fill="var(--fill-0, #00B289)"/>
<path id="Vector_5" d="M281.943 96.1601C281.995 97.5901 281.528 98.6599 280.544 99.3697C279.64 99.9923 278.896 100.398 278.314 100.588C277.148 100.968 275.475 101.281 273.294 101.529C271.198 101.774 269.099 101.977 266.999 102.138C264.987 102.38 263.181 102.53 261.583 102.589C259.988 102.731 259.148 102.804 259.064 102.807C256.12 102.914 253.547 102.798 251.344 102.457C249.223 102.029 247.482 101.629 246.12 101.258C244.931 100.964 244.079 100.7 243.565 100.466C243.048 100.148 242.311 99.5857 241.355 98.7783C239.882 97.6528 238.711 96.7269 237.843 96.0006C236.974 95.2742 236.233 94.5853 235.619 93.9339C235.09 93.2793 234.603 92.6233 234.158 91.9657C233.797 91.305 233.43 90.4761 233.056 89.479C232.496 87.9833 232.031 86.779 231.661 85.8659C231.372 84.8657 231.129 83.9902 230.933 83.2393C230.734 82.4042 230.578 81.5677 230.463 80.7296C230.429 79.8043 230.345 78.6702 230.212 77.3274C230.203 77.0751 230.144 76.614 230.035 75.9441C230.011 75.2711 229.943 74.5577 229.831 73.8037C229.716 72.9656 229.604 72.2116 229.496 71.5417C229.468 70.7847 229.45 70.28 229.441 70.0276C229.407 69.1023 229.415 68.1755 229.465 67.2471C229.513 66.2347 229.519 65.2658 229.486 64.3405C229.583 62.3997 229.595 60.4198 229.522 58.401C229.445 56.2981 229.58 54.2295 229.927 52.1954C230.13 50.8403 230.464 49.6068 230.929 48.4948C231.475 47.2957 231.985 46.2663 232.459 45.4067C232.93 44.463 233.365 43.6891 233.764 43.0849C234.163 42.4807 234.443 42.0915 234.606 41.9171C235.812 40.3569 237.196 39.043 238.757 37.9753C240.403 36.9045 242.14 36.0409 243.969 35.3845C245.795 34.6441 247.629 34.1139 249.47 33.794C251.309 33.39 253.069 33.1573 254.751 33.0959C260.051 32.9025 264.199 33.4671 267.195 34.7897C270.272 36.025 272.814 37.5748 274.819 39.4389C275.08 39.682 275.565 40.2539 276.271 41.1547C277.062 42.0523 277.865 43.2865 278.681 44.8571C279.493 46.3436 280.233 48.1696 280.902 50.3351C281.568 52.4166 281.951 54.8452 282.052 57.6211C282.095 58.7988 282.096 59.9779 282.055 61.1587C282.011 62.2552 282.01 63.3924 282.053 64.57L282.159 67.4721C282.187 68.2291 282.211 68.9021 282.233 69.4909C282.251 69.9956 282.185 70.5034 282.036 71.0142C281.955 71.1014 281.753 71.3614 281.432 71.7943C281.195 72.2241 280.874 72.6569 280.469 73.0929C280.064 73.5288 279.574 73.9678 279.001 74.4099C278.424 74.7678 277.842 74.9576 277.253 74.9791C277.001 74.9883 276.368 74.9692 275.356 74.9219C274.343 74.8747 273.669 74.8572 273.332 74.8694C273.08 74.8786 272.745 74.933 272.327 75.0325C271.991 75.0447 271.404 75.1083 270.566 75.2231C269.727 75.3379 268.679 75.4604 267.42 75.5906C266.243 75.6335 265.191 75.6719 264.266 75.7057C263.845 75.721 263.383 75.7379 262.878 75.7563C262.457 75.7717 261.993 75.7465 261.485 75.6808C261.317 75.6869 261.023 75.6977 260.602 75.713C260.179 75.6443 259.714 75.6191 259.21 75.6375C258.702 75.5718 258.196 75.5482 257.691 75.5666C257.267 75.4978 257.013 75.465 256.929 75.468C254.49 75.557 253.068 75.8195 252.662 76.2555C252.257 76.6914 252.076 77.4982 252.119 78.6758C252.144 79.3488 252.168 80.0217 252.193 80.6946C252.298 81.2804 252.571 81.818 253.01 82.3073C253.725 83.4604 254.552 84.1883 255.49 84.491C256.424 84.7096 257.485 84.9236 258.672 85.1329C259.351 85.2766 260.114 85.4172 260.961 85.5548C261.89 85.6051 262.438 85.6272 262.606 85.6211L262.859 85.6119C264.373 85.5566 266.261 85.3614 268.523 85.0261C270.782 84.6068 272.572 84.0361 273.893 83.314C274.803 82.8597 275.425 82.5843 275.758 82.4879C276.091 82.3915 276.595 82.331 277.268 82.3065C278.277 82.2696 279.042 82.4523 279.562 82.8545C280.163 83.1695 280.6 83.6168 280.874 84.1964C281.145 84.6919 281.293 85.2761 281.317 85.949C281.426 86.6189 281.491 87.2482 281.512 87.837C281.583 89.7717 281.634 91.1597 281.664 92.0009C281.695 92.842 281.762 93.5134 281.864 94.0151L281.943 96.1601ZM261.524 55.9697C261.426 53.278 260.809 51.3632 259.672 50.2255C258.536 49.0877 257.379 48.5404 256.201 48.5833C255.864 48.5956 255.572 48.6484 255.322 48.7417C255.154 48.7479 254.821 48.8443 254.322 49.0309C253.908 49.2145 253.453 49.4417 252.957 49.7125C252.543 49.896 252.139 50.374 251.746 51.1464C251.752 51.3147 251.641 51.7399 251.414 52.422C251.27 53.1011 251.129 53.8643 250.992 54.7116C250.854 55.5589 250.715 56.3642 250.575 57.1274C250.434 57.8906 250.368 58.3983 250.377 58.6507C250.436 60.2489 250.725 61.2491 251.245 61.6513C251.762 61.9693 252.357 62.1161 253.03 62.0915C253.366 62.0792 254.039 62.0547 255.049 62.0178C256.139 61.8938 256.895 61.8241 257.315 61.8088C257.484 61.8027 257.822 61.8324 258.329 61.8981C258.834 61.8797 259.17 61.8674 259.339 61.8613C260.012 61.8367 260.551 61.6065 260.956 61.1706C261.445 60.7315 261.676 60.1335 261.649 59.3765L261.524 55.9697Z" fill="var(--fill-0, #00B289)"/>
<path id="Vector_6" d="M178.014 16.1865C178.435 16.1712 179.15 16.1451 180.159 16.1083C181.25 15.9842 182.384 15.9007 183.561 15.8578C184.82 15.7276 185.996 15.6426 187.09 15.6027C188.18 15.4786 188.936 15.4089 189.356 15.3936C192.048 15.2954 194.747 15.4074 197.454 15.7298C200.158 15.968 202.714 16.7592 205.122 18.1032C205.467 18.3433 206.159 18.8234 207.196 19.5437C208.314 20.1767 209.57 21.1416 210.965 22.4383C212.357 23.651 213.76 25.158 215.173 26.9595C216.587 28.761 217.841 30.8209 218.937 33.1394C219.945 35.3768 220.749 37.7901 221.349 40.3793C222.033 42.9655 222.589 45.5142 223.017 48.0254C223.443 50.4525 223.738 52.7581 223.901 54.9421C224.062 57.0419 224.166 58.7227 224.212 59.9845C224.261 61.3304 224.246 63.2261 224.167 65.6716C224.087 68.1172 223.689 71.0376 222.97 74.433C221.968 79.2707 220.367 83.8775 218.168 88.2534C216.116 92.0344 213.907 94.9788 211.542 97.0866C209.176 99.1945 206.792 100.798 204.389 101.896C201.984 102.91 199.608 103.587 197.262 103.925C194.997 104.176 192.897 104.337 190.962 104.408C190.71 104.417 190.247 104.434 189.574 104.458C188.982 104.396 188.308 104.378 187.551 104.406C186.875 104.346 186.2 104.329 185.527 104.353C184.851 104.294 184.387 104.268 184.135 104.278C183.798 104.29 183.169 104.355 182.247 104.473C181.324 104.591 180.36 104.71 179.354 104.831C178.344 104.868 177.379 104.945 176.456 105.063C175.534 105.181 174.905 105.246 174.568 105.258C173.643 105.292 172.718 105.326 171.792 105.36C170.864 105.309 170.015 105.13 169.246 104.821C168.474 104.428 167.821 103.862 167.289 103.124C166.838 102.298 166.586 101.17 166.534 99.7399C166.518 99.3193 166.503 98.8987 166.488 98.4781C166.553 97.9703 166.578 97.5062 166.563 97.0856C166.629 96.5778 166.61 96.0731 166.508 95.5715C166.486 94.9826 166.508 94.4343 166.574 93.9266C166.565 93.6742 166.55 93.2536 166.528 92.6648C166.591 92.0729 166.61 91.4405 166.585 90.7676C166.645 90.0915 166.664 89.4591 166.642 88.8703C166.702 88.1943 166.727 87.7301 166.718 87.4778C166.675 86.3001 166.59 85.124 166.463 83.9494C166.336 82.7749 166.251 81.5988 166.208 80.4211C166.09 79.4989 165.967 78.4505 165.84 77.2759C165.794 76.0142 165.706 74.7539 165.576 73.4953C165.53 72.2335 165.488 71.0979 165.452 70.0885C165.412 68.995 165.382 68.1959 165.364 67.6912C165.352 67.3547 165.332 66.8079 165.304 66.0509C165.358 65.2066 165.367 64.3219 165.334 63.3966C165.297 62.3872 165.263 61.4619 165.232 60.6207C165.286 59.7765 165.306 59.1861 165.294 58.8496C165.279 58.429 165.208 57.6315 165.08 56.4569C165.037 55.2793 164.949 54.019 164.816 52.6762C164.767 51.3303 164.679 50.0701 164.552 48.8955C164.506 47.6338 164.474 46.7505 164.455 46.2458C164.44 45.8253 164.412 45.0682 164.372 43.9747C164.413 42.794 164.411 41.5727 164.365 40.311C164.319 39.0492 164.276 37.8716 164.236 36.778C164.277 35.5973 164.288 34.7546 164.27 34.2499C164.258 33.9134 164.191 33.242 164.07 32.2357C164.033 31.2263 163.953 30.1764 163.829 29.0859C163.789 27.9924 163.709 26.9424 163.588 25.9361C163.551 24.9267 163.525 24.2117 163.509 23.7911C163.488 23.2023 163.462 22.4873 163.431 21.6461C163.484 20.8019 163.666 19.9951 163.974 19.2257C164.367 18.4533 164.891 17.8025 165.546 17.2733C166.284 16.7409 167.369 16.4487 168.799 16.3965C169.135 16.3842 169.724 16.3627 170.565 16.332C171.49 16.2983 172.417 16.3065 173.346 16.3569C174.355 16.3201 175.28 16.2863 176.121 16.2556C176.963 16.2249 177.593 16.2019 178.014 16.1865ZM190.653 37.0775C189.559 37.1174 188.727 37.4004 188.157 37.9266C187.583 38.3687 187.183 38.9308 186.955 39.6129C186.727 40.2951 186.584 40.9742 186.524 41.6502C186.549 42.3231 186.568 42.8699 186.584 43.2905C186.608 43.9634 186.633 44.6363 186.657 45.3093C186.763 45.895 186.828 46.5244 186.853 47.1973C186.98 48.3719 187.074 49.8003 187.135 51.4827C187.278 53.0778 187.38 54.7166 187.441 56.3989C187.454 56.7354 187.475 57.3242 187.506 58.1654C187.533 58.9225 187.523 59.8072 187.476 60.8197C187.51 61.745 187.542 62.6282 187.573 63.4694C187.604 64.3106 187.625 64.8994 187.637 65.2359C187.647 65.4882 187.662 65.9088 187.683 66.4976C187.789 67.0834 187.854 67.7127 187.879 68.3857C187.987 69.0555 188.052 69.6849 188.074 70.2737C188.18 70.8595 188.237 71.2785 188.246 71.5309C188.252 71.6991 188.265 72.0356 188.283 72.5403C188.301 73.045 188.279 73.5933 188.217 74.1852C188.238 74.774 188.258 75.3207 188.276 75.8255C188.295 76.3302 188.309 76.7087 188.318 76.961C188.358 78.0546 188.389 78.8957 188.41 79.4846C188.516 80.0703 188.663 80.6545 188.853 81.2372C189.329 82.736 190.076 83.5931 191.095 83.8086C192.113 84.0241 192.749 84.1273 193.001 84.1181C193.085 84.115 193.378 84.0622 193.88 83.9597C194.466 83.8541 195.087 83.5787 195.745 83.1336C196.399 82.6043 197.046 81.8647 197.685 80.9149C198.321 79.8809 198.732 78.434 198.917 76.5743C199.224 73.4466 199.471 70.9949 199.659 69.2192C199.847 67.4435 199.965 66.0495 200.012 65.037C200.143 64.0214 200.2 63.2613 200.181 62.7566C200.163 62.2519 200.141 61.6631 200.117 60.9901C200.065 59.5601 199.97 58.1317 199.834 56.7048C199.698 55.2778 199.519 53.8524 199.299 52.4286C199.172 51.254 198.95 49.7881 198.633 48.0309C198.313 46.1895 197.83 44.4804 197.183 42.9037C196.617 41.2397 195.807 39.8374 194.755 38.6966C193.703 37.5558 192.335 37.0161 190.653 37.0775Z" fill="var(--fill-0, #00B289)"/>
<path id="Vector_7" d="M105.737 71.3832C105.685 69.9533 105.634 68.5653 105.585 67.2194C105.62 65.8705 105.738 64.4764 105.938 63.0372C106.007 62.6136 106.068 61.9796 106.121 61.1354C106.259 60.2881 106.395 59.3987 106.529 58.4673C106.745 57.4486 106.921 56.5157 107.059 55.6684C107.196 54.821 107.341 54.184 107.494 53.7573C107.566 53.4178 107.711 52.7807 107.93 51.8462C108.233 50.9087 108.657 49.8403 109.203 48.6412C109.749 47.4421 110.421 46.2383 111.219 45.03C112.098 43.7345 113.15 42.559 114.375 41.5035C115.927 40.1834 117.49 39.1578 119.064 38.4265C120.635 37.6111 122.129 37.0091 123.546 36.6204C124.964 36.2318 126.262 36.016 127.439 35.973C128.698 35.8428 129.79 35.7609 130.715 35.7271C131.725 35.6903 132.904 35.6894 134.253 35.7244C135.602 35.7594 137.041 35.9595 138.571 36.3249C140.181 36.603 141.801 37.1335 143.43 37.9164C145.143 38.6961 146.782 39.7734 148.349 41.1481C148.785 41.5534 149.574 42.409 150.717 43.715C151.94 44.9337 153.006 46.4531 153.915 48.273C154.731 49.8436 155.378 51.4203 155.857 53.0032C156.332 54.5019 156.687 56.1315 156.919 57.8918C157.236 59.6491 157.435 61.6212 157.514 63.8083C157.675 65.9081 157.805 68.304 157.903 70.9957C157.967 72.7622 157.951 74.6158 157.853 76.5567C157.753 78.4134 157.605 80.1455 157.411 81.7529C157.301 83.3573 157.14 84.7108 156.928 85.8136C156.799 86.9132 156.737 87.5051 156.74 87.5892C156.315 89.7947 155.599 92.095 154.591 94.4902C153.668 96.8823 152.316 99.0795 150.536 101.082C148.756 103.084 146.501 104.767 143.771 106.13C141.038 107.409 137.695 108.12 133.742 108.265C130.209 108.393 126.914 108.135 123.858 107.488C120.806 106.926 118.018 105.553 115.496 103.371C114.801 102.807 113.972 101.995 113.006 100.935C112.038 99.7913 111.103 98.3935 110.2 96.7419C109.379 95.003 108.587 92.9262 107.825 90.5114C107.063 88.0965 106.539 85.2939 106.255 82.1036C106.236 81.5989 106.177 81.1378 106.078 80.7203C106.062 80.2997 106.042 79.7529 106.018 79.08C105.99 78.3229 105.955 77.3556 105.912 76.1779C105.869 75.0003 105.811 73.4021 105.737 71.3832ZM136.425 64.0725C136.406 63.5678 136.296 62.8559 136.094 61.9367C135.976 61.0145 135.732 60.0969 135.362 59.1839C134.988 58.1868 134.453 57.364 133.756 56.7156C133.142 56.0642 132.331 55.7569 131.321 55.7937C130.48 55.8244 129.776 56.1449 129.209 56.7552C128.638 57.2814 128.155 57.8886 127.759 58.5769C127.447 59.2621 127.219 59.9443 127.076 60.6234C126.932 61.3024 126.823 61.7697 126.748 62.0251C126.473 63.7197 126.318 65.2415 126.283 66.5905C126.329 67.8522 126.434 69.5751 126.598 71.7591C126.613 72.1797 126.603 73.0644 126.568 74.4134C126.617 75.7593 126.649 76.6425 126.665 77.0631C126.769 79.9231 127.196 82.3923 127.946 84.4706C128.692 86.4649 130.033 87.4267 131.968 87.3561C133.061 87.3162 134.054 86.8167 134.945 85.8577C135.834 84.8145 136.37 83.363 136.555 81.5032C136.612 80.7431 136.67 80.025 136.729 79.349C136.789 78.673 136.797 77.7462 136.754 76.5685C136.795 75.3878 136.781 73.8301 136.71 71.8954C136.639 69.9607 136.544 67.3531 136.425 64.0725Z" fill="var(--fill-0, #00B289)"/>
<path id="Vector_8" d="M58.3406 25.7339C58.3222 25.2292 58.3007 24.6404 58.2761 23.9674C58.3357 23.2914 58.4824 22.6965 58.7163 22.1826C58.9472 21.5845 59.3494 21.0645 59.9229 20.6224C60.4963 20.1803 61.3298 19.9393 62.4234 19.8994C62.6757 19.8902 63.0978 19.9169 63.6897 19.9796C64.2785 19.9581 64.911 19.9771 65.587 20.0367C66.344 20.009 67.0606 20.025 67.7366 20.0846C68.4095 20.06 68.8721 20.0431 69.1245 20.0339C69.7974 20.0094 70.3863 19.9879 70.891 19.9695C71.4767 19.8638 72.064 19.8003 72.6528 19.7788C73.3227 19.6701 73.91 19.6066 74.4147 19.5882C75.0035 19.5667 75.5923 19.5452 76.1811 19.5237C76.6858 19.5053 77.2341 19.5274 77.826 19.59C78.4149 19.5685 78.9662 19.6748 79.4801 19.9087C79.991 20.0585 80.4239 20.3796 80.7787 20.8721C81.1336 21.3645 81.328 22.0733 81.3617 22.9986C81.3771 23.4192 81.3488 23.7993 81.277 24.1388C81.2862 24.3912 81.2985 24.7276 81.3138 25.1482C81.2543 25.8242 81.2008 26.6685 81.1536 27.681C81.1032 28.6093 81.0559 29.6218 81.0117 30.7184C81.0516 31.8119 81.0495 32.907 81.0052 34.0036C81.0421 35.013 81.0759 35.9383 81.1065 36.7794C81.1188 37.1159 81.1403 37.7047 81.171 38.5459C81.2828 39.2999 81.357 40.1816 81.3939 41.191C81.4277 42.1163 81.4599 42.9995 81.4906 43.8407C81.6054 44.6788 81.6689 45.2661 81.6812 45.6026C81.6904 45.8549 81.6653 46.3191 81.6057 46.9951C81.6302 47.668 81.6579 48.4251 81.6886 49.2663C81.7162 50.0233 81.7018 50.7819 81.6453 51.542C81.6698 52.215 81.6867 52.6776 81.6959 52.93C81.7051 53.1823 81.722 53.645 81.7466 54.3179C81.8522 54.9037 81.9188 55.5751 81.9464 56.3321C82.0582 57.0861 82.1263 57.7996 82.1509 58.4725C82.2596 59.1424 82.3185 59.6035 82.3277 59.8558C82.3369 60.1082 82.3087 60.4883 82.243 60.996C82.2583 61.4166 82.2829 62.0896 82.3166 63.0149C82.2694 64.0273 82.2687 65.1644 82.3148 66.4262C82.3578 67.6039 82.3992 68.7394 82.4391 69.833C82.4483 70.0853 82.4637 70.5059 82.4852 71.0947C82.5877 71.5964 82.6512 72.1836 82.6758 72.8566C82.7004 73.5295 82.7234 74.1604 82.7449 74.7492C82.8505 75.335 82.9079 75.754 82.9171 76.0064C82.9232 76.1746 82.9011 76.7229 82.8508 77.6513C82.8845 78.5766 82.906 79.1654 82.9152 79.4177C82.9766 81.1001 83.4119 82.6424 84.2212 84.0448C85.0304 85.4472 86.5332 86.2346 88.7294 86.4072C88.9818 86.398 89.3618 86.4262 89.8696 86.4919C90.3743 86.4735 90.879 86.4551 91.3837 86.4367C91.9725 86.4152 92.5193 86.3952 93.024 86.3768C93.6128 86.3553 94.0755 86.3384 94.412 86.3261C94.7484 86.3139 95.4619 86.2457 96.5523 86.1217C97.6428 85.9977 98.3983 85.928 98.8189 85.9126C100.081 85.8666 101.056 86.0416 101.744 86.4376C102.429 86.7495 102.957 87.362 103.327 88.275C103.694 89.1039 103.906 90.2754 103.961 91.7895C104.097 93.2164 104.205 95.0234 104.285 97.2105C104.294 97.4628 104.269 97.927 104.209 98.603C104.231 99.1918 104.255 99.8648 104.283 100.622C104.311 101.379 104.295 102.095 104.235 102.771C104.26 103.444 104.277 103.907 104.286 104.159C104.323 105.169 104.142 105.976 103.742 106.58C103.34 107.1 102.89 107.453 102.391 107.64C102.145 107.817 101.855 107.954 101.522 108.051C101.27 108.06 100.807 108.077 100.134 108.101C99.7134 108.117 98.8286 108.107 97.4797 108.072C96.2149 108.034 95.3722 108.022 94.9516 108.038C94.6992 108.047 94.2786 108.062 93.6898 108.084C93.1851 108.102 92.6384 108.122 92.0495 108.144C91.4607 108.165 90.8719 108.187 90.2831 108.208C89.7784 108.226 89.3998 108.24 89.1475 108.249C88.5587 108.271 87.5072 108.309 85.9931 108.365C84.479 108.42 82.8807 108.478 81.1984 108.54C79.516 108.601 77.8758 108.661 76.2775 108.719C74.7634 108.774 73.7119 108.813 73.1231 108.834C72.8708 108.843 72.4097 108.902 71.7398 109.011C71.0668 109.036 70.3098 109.063 69.4686 109.094C68.7116 109.122 67.956 109.191 67.2021 109.303C66.5291 109.328 66.0665 109.344 65.8141 109.354C63.8794 109.424 62.5587 109.009 61.852 108.108C61.1422 107.124 60.7705 106.168 60.7367 105.243C60.7244 104.907 60.6983 104.192 60.6584 103.098C60.6996 101.918 60.714 101.159 60.7017 100.822C60.6434 99.2242 60.6271 97.6245 60.6529 96.0232C60.6787 94.4219 60.6625 92.8221 60.6041 91.2239C60.6011 91.1397 60.5344 90.4683 60.4043 89.2096C60.3582 87.9479 60.2655 86.5615 60.1262 85.0504C60.0678 83.4522 59.969 81.8976 59.8296 80.3865C59.7744 78.8724 59.7375 77.863 59.7191 77.3583C59.7099 77.106 59.6915 76.6013 59.6639 75.8442C59.7203 75.0841 59.7348 74.3255 59.7071 73.5684C59.7606 72.7242 59.8155 71.922 59.872 71.1619C59.9285 70.4017 59.9506 69.8535 59.9383 69.517C60.004 69.0092 60.0292 68.545 60.0139 68.1244C59.9954 67.6197 59.977 67.115 59.9586 66.6103C59.9494 66.358 59.8889 65.8548 59.7772 65.1008C59.7465 64.2596 59.7158 63.4185 59.6851 62.5773C59.6513 61.652 59.5786 60.8124 59.4668 60.0584C59.4392 59.3013 59.4192 58.7546 59.407 58.4181C59.3978 58.1657 59.3824 57.7452 59.3609 57.1563C59.3394 56.5675 59.3164 55.9366 59.2918 55.2637C59.3483 54.5036 59.3658 53.8291 59.3444 53.2403C59.3229 52.6514 59.3075 52.2309 59.2983 51.9785C59.2553 50.8009 59.1718 49.6668 59.0478 48.5764C59.0048 47.3987 58.9619 46.2211 58.9189 45.0434C58.9066 44.707 58.8851 44.1181 58.8544 43.277C58.9048 42.3486 58.9115 41.3797 58.8747 40.3703C58.8379 39.3609 58.8041 38.4356 58.7734 37.5944C58.8237 36.6661 58.8412 35.9916 58.8259 35.571C58.7645 33.8887 58.6626 32.2499 58.5201 30.6548C58.4618 29.0565 58.402 27.4162 58.3406 25.7339Z" fill="var(--fill-0, #00B289)"/>
<path id="Vector_9" d="M1.86399 48.1363C1.73507 44.6034 1.80047 41.7793 2.06019 39.6641C2.40404 37.5458 2.88634 35.7594 3.50709 34.3048C4.35257 32.084 5.5422 30.0612 7.07596 28.2364C8.60666 26.3275 10.4471 24.8284 12.5973 23.7392C15.4113 22.3731 18.1159 21.4742 20.7113 21.0426C23.3066 20.611 25.6979 20.3552 27.8849 20.2754C30.4925 20.1803 32.8494 20.1364 34.9554 20.1437C37.1424 20.0639 38.9991 20.1646 40.5255 20.4459C42.136 20.724 43.3757 21.2263 44.2445 21.9526C45.1133 22.679 45.5723 23.7151 45.6214 25.061C45.6244 25.1451 45.5993 25.6093 45.5458 26.4535C45.5735 27.2106 45.6057 28.0938 45.6425 29.1032C45.6794 30.1126 45.6726 31.0815 45.6223 32.0099C45.656 32.9351 45.679 33.566 45.6913 33.9025C45.7036 34.239 45.7297 34.954 45.7696 36.0475C45.8936 37.138 45.9633 37.8935 45.9787 38.3141C45.9909 38.6505 45.9658 39.1147 45.9031 39.7066C45.8374 40.2144 45.6456 40.7267 45.3275 41.2437C45.0095 41.7607 44.5216 42.2418 43.864 42.6869C43.2875 43.0449 42.4525 43.2438 41.3589 43.2837L40.4757 43.3159C39.6284 43.1784 38.7795 42.9988 37.9292 42.7772C37.1629 42.5524 36.3125 42.3308 35.378 42.1122C34.4435 41.8936 33.5977 41.7981 32.8407 41.8258C32.0806 41.7693 31.4481 41.7502 30.9434 41.7686C30.5229 41.784 30.0197 41.8445 29.4339 41.9501C28.8451 41.9716 28.2204 42.1628 27.5597 42.5238C26.9801 42.7977 26.4923 43.2788 26.0962 43.967C25.6971 44.5712 25.5176 45.4201 25.5575 46.5136C25.6188 48.1959 26.2209 49.6901 27.3635 50.9961C28.5872 52.2148 30.5894 53.9948 33.3702 56.336C34.0677 56.9844 34.8524 57.7138 35.7243 58.5243C36.6802 59.3317 37.5054 60.0175 38.1999 60.5818C38.6358 60.987 39.0281 61.3517 39.3769 61.6759C39.8067 61.9129 40.2396 62.2341 40.6755 62.6393C42.8521 64.5814 44.6456 66.4111 46.0559 68.1284C47.4663 69.8458 48.5807 71.5318 49.3991 73.1865C50.2145 74.7571 50.779 76.379 51.0928 78.0521C51.4065 79.7253 51.6002 81.5713 51.6739 83.5901C51.7814 86.5342 51.719 89.4424 51.4869 92.3146C51.3389 95.1838 50.4683 97.8688 48.875 100.37C47.9239 102.005 46.7953 103.394 45.4894 104.536C44.2675 105.676 43.0395 106.647 41.8054 107.45C40.5713 108.253 39.4151 108.885 38.3369 109.346C37.2587 109.806 36.3863 110.133 35.7195 110.326C34.8875 110.609 33.8437 110.857 32.5881 111.072C31.4166 111.283 30.2015 111.453 28.9428 111.584C27.6872 111.798 26.4285 111.928 25.1667 111.974C23.908 112.104 22.774 112.188 21.7646 112.225C20.4187 112.274 18.9015 112.245 17.213 112.138C15.6117 112.112 14.0494 112.001 12.5261 111.804C11.0028 111.607 9.60409 111.363 8.33005 111.072C7.05601 110.782 6.07331 110.397 5.38196 109.916C4.2608 109.199 3.60537 108.549 3.41565 107.967C3.22592 107.384 3.11878 106.756 3.09423 106.083C3.08502 105.831 3.0666 105.326 3.03897 104.569C3.09546 103.809 3.10836 103.008 3.07766 102.167C3.13108 101.323 3.14398 100.522 3.11635 99.7653C3.17284 99.0052 3.19495 98.4569 3.18267 98.1204C3.17653 97.9522 3.12219 97.6172 3.01966 97.1156C2.99817 96.5268 2.97668 95.938 2.95519 95.3491C2.93371 94.7603 2.8717 94.2151 2.76916 93.7134C2.74767 93.1246 2.73232 92.704 2.72312 92.4517C2.71084 92.1152 2.69242 91.6105 2.66786 90.9376C2.72742 90.2616 2.87263 89.6245 3.1035 89.0265C3.41848 88.4254 3.86271 87.9038 4.43618 87.4618C5.00658 86.9356 5.88061 86.651 7.05825 86.608C8.15177 86.5681 9.03808 86.62 9.71715 86.7637C10.4803 86.9043 11.2528 87.2972 12.0344 87.9425C12.4672 88.2637 12.858 88.5863 13.2068 88.9105C13.5555 89.2347 13.9448 89.5153 14.3746 89.7523C14.9788 90.1514 15.8322 90.4572 16.935 90.6696C18.0346 90.7979 19.2153 90.8391 20.4771 90.7931C22.2436 90.7286 23.9152 90.3728 25.4919 89.7256C27.0687 89.0785 27.8217 87.7876 27.7511 85.8529C27.7266 85.1799 27.621 84.5942 27.4343 84.0956C27.2446 83.5129 26.7994 82.8553 26.0989 82.1228C25.4824 81.3873 24.5654 80.4942 23.3479 79.4437C22.1273 78.309 20.5158 76.8517 18.5136 75.0717C18.3392 74.9096 17.9484 74.5869 17.3412 74.1037C16.815 73.5333 16.2467 72.9645 15.6364 72.3971C15.0261 71.8298 14.4173 71.3045 13.8101 70.8213C13.2839 70.2509 12.8916 69.8862 12.6331 69.7272C10.9827 68.3555 9.58921 67.1008 8.45271 65.963C7.40032 64.8222 6.33566 63.345 5.25872 61.5312C3.73357 58.9758 2.81105 56.7773 2.49116 54.936C2.16821 53.0105 1.95915 50.7439 1.86399 48.1363Z" fill="var(--fill-0, #00B289)"/>
</g>
</svg>
