<svg viewBox="0 0 513.743 106.338" fill="none" xmlns="http://www.w3.org/2000/svg">
<g id="text80">
<path id="Vector" d="M510.338 99.5053C510.296 100.936 509.76 101.972 508.731 102.616C507.788 103.177 507.019 103.534 506.425 103.684C505.237 103.986 503.547 104.189 501.355 104.292C499.246 104.399 497.139 104.463 495.033 104.485C493.009 104.593 491.198 104.624 489.599 104.577C487.998 104.614 487.155 104.631 487.071 104.628C484.126 104.541 481.566 104.255 479.391 103.77C477.303 103.203 475.592 102.689 474.258 102.229C473.09 101.857 472.257 101.538 471.76 101.271C471.265 100.919 470.567 100.309 469.667 99.4404C468.271 98.2203 467.164 97.2191 466.345 96.4371C465.526 95.655 464.832 94.9187 464.263 94.2282C463.778 93.5402 463.335 92.8534 462.934 92.1679C462.618 91.4848 462.306 90.6335 461.999 89.614C461.539 88.0846 461.154 86.8522 460.845 85.9167C460.623 84.8996 460.438 84.01 460.293 83.2478C460.149 82.4014 460.048 81.5563 459.988 80.7125C460.016 79.787 460.007 78.6499 459.963 77.3012C459.97 77.0488 459.942 76.5848 459.878 75.9092C459.898 75.2361 459.877 74.5197 459.815 73.76C459.756 72.9162 459.694 72.1564 459.63 71.4809C459.652 70.7236 459.667 70.2188 459.674 69.9664C459.702 69.0409 459.771 68.1166 459.883 67.1936C459.997 66.1865 460.067 65.2202 460.095 64.2946C460.32 62.3645 460.463 60.3898 460.522 58.3705C460.584 56.2671 460.856 54.2119 461.336 52.2051C461.628 50.8663 462.043 49.6576 462.58 48.5787C463.204 47.4182 463.78 46.4247 464.31 45.5983C464.842 44.6877 465.327 43.9441 465.766 43.3676C466.204 42.7911 466.509 42.4211 466.683 42.2578C467.989 40.7807 469.457 39.5609 471.085 38.5985C472.798 37.6386 474.588 36.8915 476.457 36.3572C478.328 35.7388 480.192 35.3307 482.051 35.133C483.912 34.8512 485.684 34.7351 487.366 34.7848C492.667 34.9414 496.769 35.7784 499.671 37.2957C502.66 38.7314 505.094 40.4454 506.972 42.4377C507.217 42.6976 507.662 43.3002 508.308 44.2456C509.038 45.1935 509.758 46.4779 510.468 48.0989C511.18 49.6357 511.798 51.5066 512.323 53.7116C512.85 55.8324 513.072 58.281 512.99 61.0576C512.955 62.2355 512.878 63.4121 512.759 64.5876C512.643 65.6789 512.567 66.8135 512.532 67.9914L512.447 70.8941C512.424 71.6513 512.404 72.3244 512.387 72.9134C512.372 73.4182 512.273 73.9205 512.09 74.4204C512.003 74.502 511.785 74.7482 511.436 75.1589C511.172 75.5722 510.823 75.9829 510.39 76.3912C509.956 76.7994 509.439 77.2052 508.838 77.6085C508.239 77.9276 507.645 78.0785 507.056 78.0611C506.804 78.0536 506.174 77.9929 505.167 77.8789C504.16 77.765 503.488 77.703 503.151 77.6931C502.899 77.6856 502.561 77.7177 502.138 77.7894C501.801 77.7795 501.211 77.8042 500.367 77.8634C499.523 77.9227 498.469 77.9758 497.205 78.0226C496.027 77.9878 494.975 77.9568 494.049 77.9294C493.629 77.917 493.166 77.9033 492.661 77.8884C492.241 77.876 491.779 77.8202 491.277 77.7212C491.108 77.7162 490.814 77.7075 490.393 77.6951C489.975 77.5985 489.514 77.5428 489.009 77.5278C488.506 77.4288 488.003 77.3718 487.498 77.3569C487.08 77.2603 486.829 77.2108 486.744 77.2083C484.305 77.1362 482.868 77.3043 482.435 77.7126C482.002 78.1208 481.768 78.9139 481.733 80.0918C481.713 80.7649 481.693 81.438 481.673 82.1111C481.74 82.7025 481.976 83.2569 482.382 83.7741C483.02 84.9719 483.797 85.7528 484.713 86.1167C485.631 86.3964 486.675 86.6799 487.846 86.9671C488.514 87.1553 489.266 87.3459 490.102 87.5391C491.025 87.6505 491.571 87.7088 491.739 87.7137L491.992 87.7212C493.506 87.7659 495.403 87.6957 497.682 87.5104C499.964 87.241 501.788 86.7896 503.154 86.1563C504.092 85.7629 504.73 85.5292 505.069 85.455C505.408 85.3808 505.914 85.3536 506.587 85.3735C507.597 85.4033 508.348 85.6361 508.84 86.0717C509.419 86.4256 509.826 86.9008 510.061 87.4972C510.299 88.0095 510.408 88.6022 510.388 89.2753C510.452 89.9508 510.475 90.5831 510.458 91.1721C510.401 93.1072 510.36 94.4955 510.335 95.3368C510.31 96.1782 510.332 96.8525 510.402 97.3598L510.338 99.5053ZM492.616 58.0556C492.695 55.3632 492.205 53.4119 491.146 52.2017C490.088 50.9914 488.969 50.3689 487.791 50.3341C487.455 50.3242 487.159 50.3575 486.904 50.4342C486.736 50.4293 486.397 50.5034 485.887 50.6568C485.461 50.8126 484.992 51.0093 484.48 51.2468C484.054 51.4027 483.62 51.853 483.177 52.5978C483.172 52.766 483.033 53.183 482.761 53.8486C482.573 54.5168 482.382 55.269 482.189 56.1054C481.996 56.9418 481.804 57.7361 481.613 58.4884C481.423 59.2406 481.324 59.743 481.316 59.9954C481.269 61.594 481.492 62.6111 481.984 63.0467C482.479 63.3981 483.063 63.5838 483.736 63.6037C484.072 63.6136 484.746 63.6335 485.755 63.6634C486.851 63.6115 487.61 63.5919 488.031 63.6043C488.199 63.6093 488.534 63.6613 489.037 63.7603C489.541 63.7752 489.878 63.7852 490.046 63.7901C490.719 63.81 491.272 63.6159 491.705 63.2076C492.223 62.8018 492.493 62.2203 492.515 61.4631L492.616 58.0556Z" fill="var(--fill-0, #E54B25)"/>
<path id="Vector_2" d="M407.428 85.4752C407.44 85.0545 407.422 84.254 407.373 83.0736C407.41 81.8116 407.406 80.5062 407.362 79.1575C407.404 77.7272 407.401 76.4218 407.351 75.2414C407.389 73.9794 407.415 73.096 407.43 72.5911C407.437 72.3387 407.452 71.8339 407.474 71.0767C407.581 70.3219 407.645 69.566 407.668 68.8087C407.777 67.9698 407.842 67.1718 407.865 66.4146C407.971 65.6598 408.03 65.1142 408.04 64.7776L408.177 60.108C408.245 57.8363 408.31 55.6067 408.375 53.4192C408.442 51.1475 408.466 48.9166 408.447 46.7266C408.457 46.39 408.473 45.8432 408.495 45.0859C408.52 44.2446 408.503 43.4019 408.443 42.5581C408.471 41.6326 408.497 40.7492 408.522 39.9078C408.547 39.0664 408.564 38.4775 408.574 38.1409C408.586 37.7202 408.596 37.3837 408.604 37.1313C408.611 36.8789 408.715 36.2083 408.916 35.1195C409.027 34.1964 409.098 33.2301 409.128 32.2205C409.158 31.2108 409.181 30.4115 409.199 29.8226C409.219 29.1495 409.238 28.4764 409.258 27.8033C409.278 27.1302 409.256 26.4559 409.192 25.7803C409.073 24.0926 408.991 22.6165 408.944 21.3519C408.981 20.0899 409.008 19.1644 409.026 18.5754L409.123 15.2941C409.321 14.2894 409.636 13.583 410.069 13.1747C410.587 12.769 411.14 12.5748 411.729 12.5922L419.932 12.8346C420.185 12.842 420.647 12.8557 421.32 12.8756C421.996 12.8113 422.756 12.7496 423.599 12.6903C424.357 12.7127 425.072 12.7338 425.745 12.7537C426.505 12.6919 427.011 12.6648 427.263 12.6722C428.189 12.6996 428.978 13.0597 429.631 13.7527C430.287 14.3615 430.595 15.3391 430.555 16.6853C430.55 16.8535 430.503 17.0206 430.414 17.1863C430.409 17.3546 430.404 17.5229 430.399 17.6912C430.283 18.7824 430.166 19.8737 430.05 20.965C429.933 22.0563 429.86 23.1068 429.83 24.1164C429.818 24.5371 429.794 25.3364 429.759 26.5143C429.811 27.6106 429.819 28.7897 429.781 30.0518C429.744 31.3138 429.708 32.5338 429.673 33.7117C429.722 34.8921 429.74 35.7347 429.725 36.2396C429.717 36.492 429.704 36.9547 429.684 37.6278C429.666 38.2168 429.604 38.8886 429.498 39.6434C429.478 40.3165 429.458 40.9895 429.438 41.6626C429.421 42.2516 429.408 42.6723 429.401 42.9247C429.369 44.0185 429.341 44.944 429.319 45.7012C429.381 46.4609 429.442 47.2206 429.504 47.9803C429.489 48.4852 429.56 48.9504 429.716 49.3761C429.871 49.8017 430.16 50.0208 430.58 50.0332C431.085 50.0481 431.47 49.8489 431.735 49.4357C432 49.0225 432.22 48.6922 432.396 48.4447C432.574 48.1132 432.805 47.4042 433.09 46.3179C433.461 45.1499 433.736 44.4001 433.914 44.0686C434.006 43.8186 434.143 43.4438 434.327 42.9439C434.596 42.3624 434.824 41.7797 435.01 41.1957C435.282 40.5301 435.511 39.9052 435.697 39.3213C435.967 38.7398 436.147 38.3241 436.239 38.0741C436.422 37.5743 436.521 37.0719 436.536 36.5671C436.551 36.0623 436.651 35.5179 436.837 34.9339C437.117 34.0159 437.557 33.3552 438.159 32.9519C438.763 32.4645 439.695 32.2394 440.958 32.2767C441.378 32.2892 442.176 32.3548 443.352 32.4738C444.527 32.5927 445.325 32.6584 445.746 32.6708C446.167 32.6833 446.545 32.6945 446.882 32.7044C447.218 32.7143 447.556 32.6822 447.895 32.608L453.953 32.787C455.72 32.8392 456.758 33.333 457.067 34.2685C457.463 35.1223 457.656 35.7175 457.646 36.054C457.641 36.2223 457.544 36.6405 457.356 37.3086C457.173 37.8085 456.94 38.5595 456.658 39.5616C456.378 40.4797 456.054 41.4806 455.685 42.5645C455.319 43.5642 454.951 44.6059 454.582 45.6898C454.3 46.6919 454.023 47.5258 453.75 48.1915C453.387 49.107 453.021 50.0647 452.655 51.0644C452.291 51.9799 451.927 52.8955 451.563 53.811C451.383 54.2268 451.108 54.9765 450.739 56.0604C450.373 57.06 449.96 58.1847 449.502 59.4343C449.131 60.6023 448.719 61.727 448.266 62.8083C447.897 63.8921 447.622 64.6419 447.442 65.0576C447.085 65.7208 446.902 66.2206 446.892 66.5572C446.887 66.7254 447.076 67.4468 447.46 68.7213C447.845 69.9116 448.238 70.8916 448.636 71.6613C449.111 72.6858 449.463 73.5805 449.693 74.3452C450.01 75.0282 450.324 75.7954 450.636 76.6467C450.95 77.4138 451.301 78.3505 451.69 79.4567C452.078 80.5629 452.583 82.0094 453.204 83.7962C453.827 85.4988 454.487 87.3709 455.185 89.4126C455.969 91.3726 456.558 92.8216 456.951 93.7595C457.812 95.9744 458.395 97.6337 458.699 98.7374C459.09 99.7595 459.277 100.565 459.259 101.154C459.229 102.164 458.874 102.785 458.194 103.017C457.513 103.25 456.836 103.356 456.163 103.336C455.827 103.326 455.197 103.265 454.274 103.154C453.432 103.129 452.507 103.102 451.497 103.072C450.488 103.042 449.52 103.014 448.595 102.986C447.672 102.875 447.042 102.814 446.705 102.804C446.453 102.797 446.032 102.784 445.443 102.767C444.938 102.752 444.348 102.777 443.673 102.841C442.999 102.821 442.368 102.802 441.779 102.785C441.191 102.767 440.77 102.755 440.517 102.748C438.582 102.69 437.289 102.273 436.639 101.496C435.99 100.635 435.556 99.6536 435.336 98.5524C435.185 97.9585 434.991 97.4054 434.754 96.8931C434.603 96.2991 434.452 95.7052 434.301 95.1113C433.989 94.26 433.757 93.5794 433.603 93.0696C433.453 92.4757 433.299 91.9659 433.143 91.5403C432.99 91.0305 432.795 90.5194 432.557 90.0072C432.406 89.4132 432.217 88.6919 431.989 87.843C431.834 87.4174 431.563 86.6094 431.177 85.419C430.793 84.1446 430.524 83.2945 430.368 82.8688C430.294 82.5298 430.14 82.02 429.908 81.3395C429.678 80.5748 429.395 80.1875 429.058 80.1775C428.89 80.1725 428.715 80.3779 428.535 80.7936C428.356 81.1252 428.167 81.8354 427.966 82.9242C427.947 83.5973 427.93 84.1442 427.918 84.5649C427.906 84.9855 427.92 85.9123 427.962 87.3451C427.957 87.5134 427.946 87.892 427.929 88.4809C427.914 88.9858 427.897 89.5327 427.88 90.1216C427.863 90.7106 427.845 91.2995 427.828 91.8885C427.813 92.3933 427.802 92.7719 427.794 93.0243C427.787 93.2767 427.776 93.6553 427.761 94.1602C427.83 94.6675 427.855 95.2577 427.835 95.9308C427.817 96.5197 427.801 97.0666 427.786 97.5714C427.855 98.0787 427.886 98.4586 427.879 98.711C427.866 99.1317 427.719 99.8431 427.437 100.845C427.157 101.763 426.344 102.202 424.998 102.163C424.661 102.153 424.072 102.135 423.231 102.11C422.392 102.001 421.468 101.932 420.458 101.902C419.533 101.875 418.607 101.848 417.682 101.82C416.843 101.711 416.255 101.652 415.919 101.642C415.666 101.634 415.202 101.663 414.527 101.727C413.938 101.71 413.265 101.69 412.507 101.667C411.75 101.645 411.034 101.666 410.358 101.73C409.685 101.71 409.222 101.697 408.97 101.689C408.381 101.672 407.8 101.402 407.225 100.88C406.738 100.276 406.514 99.3008 406.554 97.9546C406.566 97.5339 406.578 97.1553 406.588 96.8188C406.6 96.3981 406.711 95.4751 406.922 94.0497C407.125 92.8768 407.244 91.7013 407.279 90.5234C407.316 89.2614 407.353 87.9993 407.391 86.7373L407.428 85.4752Z" fill="var(--fill-0, #E54B25)"/>
<path id="Vector_3" d="M380.591 16.8511C380.606 16.3462 380.622 15.7994 380.639 15.2104C380.743 14.5398 380.929 13.9558 381.196 13.4585C381.55 12.8794 382.027 12.4304 382.625 12.1112C383.227 11.7079 384.116 11.5237 385.294 11.5585C385.631 11.5684 386.177 11.6267 386.931 11.7332C387.689 11.7556 388.488 11.7792 389.329 11.804C390.255 11.8314 391.095 11.8983 391.85 12.0048C392.691 12.0297 393.28 12.0471 393.616 12.057C393.953 12.067 394.585 12.0435 395.513 11.9867C396.525 11.9324 397.2 11.9103 397.536 11.9202C398.293 11.9426 399.045 12.1753 399.789 12.6183C400.616 13.148 401.106 13.6678 401.259 14.1776C401.412 14.6873 401.52 15.3221 401.582 16.0818L401.503 18.7321L401.447 20.6252C401.437 20.9617 401.471 21.2575 401.548 21.5124C401.51 22.7744 401.221 24.029 400.678 25.2761C400.22 26.5257 398.982 27.1207 396.963 27.0611L387.245 26.7739C387.077 26.769 386.655 26.7986 385.979 26.8629C385.306 26.843 384.843 26.8293 384.591 26.8218C383.413 26.787 382.414 26.3786 381.595 25.5965C380.861 24.8169 380.517 23.6278 380.564 22.0292C380.569 21.8609 380.579 21.5244 380.594 21.0196C380.609 20.5147 380.582 20.0087 380.512 19.5014C380.53 18.9124 380.545 18.4076 380.557 17.9869C380.572 17.4821 380.583 17.1035 380.591 16.8511ZM395.44 31.5634C397.375 31.6206 398.841 31.8744 399.839 32.325C400.836 32.7755 401.297 34.2628 401.223 36.7869C401.208 37.2917 401.151 37.7953 401.052 38.2976C401.037 38.8024 401.022 39.3073 401.007 39.8121C400.898 40.651 400.832 41.449 400.81 42.2062C400.787 42.9635 400.764 43.7628 400.739 44.6041L400.433 54.9529C400.421 55.3736 400.4 56.0888 400.37 57.0984C400.342 58.0239 400.271 59.0323 400.154 60.1236C400.122 61.2174 400.091 62.2691 400.061 63.2787C400.033 64.2042 400.014 64.8773 400.001 65.298C399.984 65.887 399.966 66.4759 399.949 67.0649C399.934 67.5697 399.96 68.1178 400.027 68.7093C400.093 69.3007 400.118 69.8909 400.101 70.4799C400.17 70.9872 400.195 71.5774 400.175 72.2505C400.167 72.5029 400.105 73.1747 399.989 74.266C399.959 75.2757 399.938 75.9908 399.925 76.4115L399.698 84.11C399.683 84.6148 399.657 85.4983 399.62 86.7603C399.582 88.0224 399.499 89.4094 399.37 90.9213C399.328 92.3517 399.287 93.7399 399.247 95.0861C399.21 96.3481 399.184 97.2316 399.169 97.7364C399.124 99.2509 398.8 100.252 398.196 100.739C397.595 101.143 396.158 101.311 393.887 101.243C393.634 101.236 393.213 101.224 392.624 101.206C392.036 101.189 391.404 101.17 390.731 101.15C390.061 101.046 389.431 100.986 388.842 100.968C388.253 100.951 387.832 100.938 387.58 100.931C387.412 100.926 387.032 100.957 386.44 101.023C385.936 101.009 385.389 100.992 384.8 100.975C384.211 100.958 383.663 100.983 383.155 101.053C382.651 101.038 382.272 101.027 382.02 101.019C380 100.959 378.84 100.336 378.538 99.1479C378.239 97.8759 378.115 96.3564 378.167 94.5896C378.177 94.253 378.194 93.7061 378.216 92.9489C378.325 92.11 378.393 91.2278 378.42 90.3023C378.45 89.2927 378.478 88.3672 378.502 87.5258C378.611 86.687 378.671 86.0992 378.681 85.7627C378.691 85.4261 378.709 84.7951 378.737 83.8696C378.764 82.9441 378.751 81.9753 378.696 80.9632C378.729 79.8694 378.759 78.8598 378.786 77.9343C378.816 76.9246 378.837 76.2095 378.849 75.7888C378.864 75.2839 378.89 74.4005 378.928 73.1385C378.965 71.8764 379.005 70.5302 379.047 69.0999C379.173 67.6721 379.256 66.2851 379.296 64.9389C379.336 63.5927 379.363 62.6672 379.378 62.1624C379.391 61.7417 379.372 60.9411 379.323 59.7607C379.358 58.5828 379.394 57.3629 379.431 56.1008C379.471 54.7546 379.466 53.4913 379.417 52.3109C379.451 51.133 379.476 50.2916 379.491 49.7868C379.499 49.5344 379.512 49.0717 379.532 48.3986C379.639 47.6438 379.703 46.8878 379.726 46.1306C379.75 45.2892 379.773 44.532 379.793 43.8589C379.899 43.1042 379.956 42.6006 379.964 42.3482C379.976 41.9275 379.958 41.127 379.908 39.9466C379.859 38.7662 379.839 38.0077 379.849 37.6711C379.906 35.736 380.075 34.3094 380.355 33.3914C380.637 32.3892 381.497 31.783 382.935 31.5729C383.274 31.4987 383.99 31.4778 385.084 31.5101C386.264 31.4607 387.528 31.4559 388.874 31.4957C390.307 31.4538 391.612 31.4503 392.79 31.4851C394.052 31.5224 394.935 31.5485 395.44 31.5634Z" fill="var(--fill-0, #E54B25)"/>
<path id="Vector_4" d="M320.172 84.5392C320.125 86.1378 320.086 87.4419 320.056 88.4516C320.026 89.4612 320.039 90.4721 320.093 91.4842C320.078 91.989 320.063 92.4939 320.048 92.9987C320.117 93.506 320.145 94.012 320.13 94.5169C320.097 95.6106 319.856 96.6561 319.405 97.6533C318.957 98.5664 317.724 98.9931 315.704 98.9335C315.536 98.9285 315.158 98.9173 314.569 98.8999C314.064 98.885 313.517 98.8688 312.928 98.8514C312.341 98.7499 311.754 98.6904 311.165 98.673C310.66 98.6581 310.281 98.6469 310.029 98.6395C308.094 98.5823 306.79 98.5437 306.117 98.5239C305.528 98.5065 305.022 98.5336 304.598 98.6053C303.586 98.6596 302.912 98.6818 302.575 98.6719C302.323 98.6644 302.071 98.6569 301.818 98.6495C300.809 98.6196 299.805 98.3795 298.808 97.929C297.811 97.4784 297.341 96.2856 297.398 94.3505C297.405 94.0981 297.418 93.6774 297.435 93.0884C297.539 92.4178 297.601 91.746 297.621 91.0729C297.728 90.3181 297.791 89.6042 297.811 88.9311C297.915 88.2605 297.97 87.799 297.978 87.5466C298.089 86.6236 298.162 85.5731 298.197 84.3952C298.235 83.1331 298.268 81.9973 298.298 80.9877C298.315 80.3987 298.304 79.3458 298.265 77.8288C298.312 76.2302 298.32 74.5462 298.288 72.7769C298.34 71.01 298.347 69.3681 298.307 67.8512C298.354 66.2526 298.388 65.1167 298.408 64.4436C298.425 63.8547 298.458 62.7609 298.505 61.1623C298.636 59.5662 298.728 57.8847 298.78 56.1178C298.919 54.2693 299.012 52.5458 299.059 50.9472C299.193 49.2669 299.27 48.0902 299.29 47.4171C299.305 46.9123 299.291 45.9435 299.249 44.5107C299.292 43.0804 299.336 41.5659 299.384 39.9673C299.433 38.2846 299.437 36.7268 299.395 35.294C299.44 33.7796 299.472 32.6858 299.492 32.0127C299.5 31.7603 299.514 31.2975 299.533 30.6244C299.64 29.8697 299.704 29.1137 299.727 28.3565C299.752 27.5151 299.775 26.7158 299.798 25.9586C299.904 25.2038 299.962 24.6582 299.972 24.3216C300.01 23.0596 299.963 21.7951 299.832 20.528C299.701 19.261 299.654 17.9965 299.691 16.7344C299.617 16.3954 299.595 15.7211 299.625 14.7114C299.657 13.6176 299.677 12.9446 299.684 12.6921C299.712 11.7666 299.901 11.0565 300.253 10.5616C300.604 10.0667 300.993 9.74134 301.418 9.5855C301.93 9.34801 302.439 9.23672 302.944 9.25164C303.451 9.18241 303.915 9.15401 304.336 9.16644C304.672 9.17638 305.302 9.2371 306.225 9.34859C307.151 9.37593 308.16 9.40576 309.254 9.43808C310.348 9.4704 311.356 9.5423 312.279 9.65378C313.289 9.68361 314.004 9.70474 314.425 9.71717C314.677 9.72463 315.351 9.70245 316.448 9.65063C317.544 9.59881 318.26 9.57787 318.597 9.58781C320.027 9.63007 321.068 10.0398 321.719 10.8169C322.456 11.5123 323.134 12.7955 323.752 14.6664C324.217 16.0275 324.765 17.4332 325.396 18.8834C326.027 20.3336 326.899 22.1699 328.012 24.3922C328.405 25.3302 328.843 26.1852 329.326 26.9574C329.808 27.7295 330.288 28.5858 330.766 29.5262C331.325 30.5532 331.8 31.5778 332.191 32.5999C332.661 33.7927 333.211 35.1142 333.842 36.5644C334.559 37.933 335.213 38.626 335.802 38.6434C336.306 38.6583 336.826 38.1684 337.361 37.1737C337.895 36.1789 338.253 35.4737 338.434 35.058C338.612 34.7264 338.923 34.1882 339.366 33.4434C339.811 32.6145 340.258 31.7435 340.706 30.8304C341.154 29.9173 341.601 29.0463 342.046 28.2174C342.492 27.3885 342.804 26.8082 342.982 26.4766C343.606 25.3161 344.145 24.1531 344.601 22.9877C345.059 21.738 345.558 20.5317 346.097 19.3687L348.503 14.8925C348.951 13.9794 349.397 13.1505 349.84 12.4057C350.37 11.5792 351.017 11.051 351.781 10.8209C351.866 10.8234 352.118 10.8309 352.539 10.8433C352.962 10.7716 353.426 10.7432 353.931 10.7581C354.438 10.6889 354.902 10.6605 355.323 10.6729C355.746 10.6012 355.999 10.5666 356.084 10.5691C356.336 10.5766 356.757 10.589 357.346 10.6064C357.935 10.6238 358.564 10.6845 359.235 10.7885C359.908 10.8084 360.538 10.8691 361.124 10.9707C361.713 10.9881 362.134 11.0005 362.386 11.008C362.47 11.0104 362.849 11.0216 363.522 11.0415C364.195 11.0614 364.868 11.0813 365.541 11.1012C366.301 11.0394 366.976 11.0172 367.564 11.0346C368.156 10.9679 368.494 10.9358 368.578 10.9383C368.83 10.9457 369.041 10.9519 369.209 10.9569C369.464 10.8802 369.717 10.8456 369.97 10.8531C370.643 10.873 371.267 11.144 371.841 11.6662C372.499 12.1909 372.81 13.0423 372.776 14.2202C372.763 14.6409 372.699 15.3968 372.582 16.4881C372.552 17.4978 372.489 18.2117 372.393 18.6299C372.162 20.7283 371.979 22.6597 371.843 24.4241C371.706 26.1885 371.636 27.1548 371.631 27.3231C371.621 27.6597 371.603 28.2486 371.578 29.09C371.556 29.8472 371.531 30.6886 371.504 31.6141C371.561 32.5421 371.577 33.4267 371.552 34.2681C371.527 35.1095 371.509 35.6984 371.499 36.035C371.477 36.7922 371.393 38.2213 371.246 40.3222C371.187 42.3415 371.122 44.5291 371.053 46.8849C370.985 49.1566 370.879 51.3429 370.732 53.4438C370.67 55.5472 370.627 57.0196 370.602 57.861C370.587 58.3658 370.561 59.2492 370.524 60.5113C370.57 61.7758 370.573 63.1232 370.531 64.5536C370.488 65.9839 370.447 67.3721 370.407 68.7183C370.454 69.9829 370.47 70.8675 370.455 71.3724C370.44 71.8772 370.371 72.8014 370.247 74.1451C370.207 75.4913 370.122 76.9625 369.99 78.5586C369.946 80.073 369.86 81.5442 369.734 82.972C369.691 84.4024 369.662 85.412 369.644 86.001C369.634 86.3375 369.617 86.9265 369.592 87.7678C369.651 88.6117 369.709 89.4976 369.766 90.4256C369.823 91.3536 369.838 92.2803 369.81 93.2058C369.87 94.0497 369.894 94.6399 369.884 94.9764C369.835 96.6591 369.669 98.0016 369.386 99.0038C369.104 100.006 368.206 100.485 366.691 100.44C366.271 100.428 365.892 100.416 365.555 100.406C365.219 100.396 364.884 100.344 364.549 100.25C363.374 100.131 362.197 100.055 361.02 100.02C359.844 99.9008 358.667 99.8239 357.49 99.7891C356.816 99.7692 356.101 99.7481 355.344 99.7257C354.671 99.7058 353.997 99.728 353.321 99.7923C352.898 99.864 352.476 99.8936 352.055 99.8812C351.719 99.8712 351.34 99.8601 350.919 99.8476C350.162 99.8253 349.574 99.7658 349.156 99.6692C348.741 99.4885 348.326 99.2657 347.913 99.0009C347.255 98.4762 346.807 97.9577 346.569 97.4454C346.416 96.9356 346.352 96.2601 346.377 95.4187C346.389 94.998 346.399 94.6615 346.406 94.409C346.416 94.0725 346.523 93.3178 346.726 92.1448C346.914 91.4767 347.018 90.8061 347.038 90.133C347.06 89.3758 347.082 88.6606 347.101 87.9875L347.292 81.551C347.306 81.0462 347.279 80.5402 347.21 80.0329C347.225 79.528 347.241 78.9812 347.259 78.3922C347.264 78.2239 347.272 77.9294 347.285 77.5088C347.384 77.0064 347.483 76.5041 347.582 76.0018C347.683 75.4153 347.74 74.9117 347.753 74.491C347.852 73.9887 347.905 73.6113 347.913 73.3589C347.92 73.1065 347.892 72.6425 347.827 71.9669C347.85 71.2097 347.83 70.4512 347.768 69.6915C347.793 68.8502 347.775 68.0496 347.713 67.2899C347.735 66.5327 347.751 65.9858 347.761 65.6492C347.769 65.3968 347.786 64.8079 347.814 63.8824C347.928 62.8752 347.99 62.2034 348 61.8668C348.004 61.6985 347.971 61.4028 347.899 60.9796C347.914 60.4748 347.924 60.1383 347.929 59.97C347.952 59.2128 347.795 58.8292 347.458 58.8192C347.121 58.8093 346.733 59.1347 346.292 59.7953C346.027 60.2086 345.805 60.623 345.624 61.0387C345.443 61.4544 345.077 62.4541 344.525 64.0378C344.344 64.4535 344.03 65.1179 343.582 66.031C343.218 66.9466 342.767 67.9438 342.23 69.0226C341.78 70.0198 341.329 71.017 340.879 72.0143C340.431 72.9273 340.116 73.5917 339.936 74.0074C339.309 75.2521 338.689 76.2864 338.075 77.1103C337.546 77.9368 336.776 78.3351 335.766 78.3053C334.589 78.2705 333.792 78.1627 333.376 77.982C332.963 77.7172 332.514 77.2408 332.029 76.5527C331.868 76.2954 331.588 75.7818 331.19 75.0122C330.794 74.1584 330.356 73.3034 329.876 72.4471C329.399 71.5067 328.961 70.6516 328.563 69.882C328.164 69.1123 327.844 68.5555 327.602 68.2115C327.362 67.7833 327.12 67.3972 326.878 67.0532C326.635 66.7092 326.436 66.3244 326.28 65.8987C326.12 65.6414 325.841 65.0858 325.446 64.232C325.136 63.2965 324.743 62.3586 324.266 61.4182C323.872 60.4803 323.434 59.6252 322.952 58.8531C322.554 58.0834 322.228 57.6948 321.976 57.6874C321.723 57.6799 321.548 57.9274 321.449 58.4297C321.436 58.8504 321.425 59.229 321.415 59.5656C321.403 59.9862 321.339 60.7002 321.225 61.7073C321.196 62.7169 321.121 63.8095 321.002 64.9849C320.97 66.0787 320.896 67.1712 320.779 68.2625C320.749 69.2721 320.728 69.9873 320.716 70.408C320.691 71.2494 320.666 72.0907 320.641 72.9321C320.703 73.6918 320.72 74.5344 320.693 75.4599C320.586 76.2147 320.523 76.9286 320.503 77.6017C320.486 78.1906 320.428 78.7363 320.328 79.2386C320.316 79.6593 320.307 79.9538 320.302 80.122L320.172 84.5392Z" fill="var(--fill-0, #E54B25)"/>
<path id="Vector_5" d="M222.526 67.7594C222.533 67.507 222.557 66.7077 222.597 65.3616C222.721 64.0179 222.806 62.5467 222.853 60.9481C222.987 59.2679 223.075 57.7126 223.118 56.2823C223.246 54.7703 223.317 53.804 223.329 53.3833C223.651 51.0349 224.23 48.5678 225.064 45.9819C225.985 43.3144 226.803 41.2754 227.518 39.865C229.486 35.9653 232.444 32.7685 236.391 30.2746C240.425 27.6991 245.134 26.4908 250.519 26.6499C253.043 26.7245 255.014 26.9933 256.432 27.4562C257.853 27.835 258.53 29.1182 258.466 31.3058C258.458 31.5582 258.404 31.9776 258.302 32.5641C258.285 33.153 258.265 33.8261 258.243 34.5834C258.223 35.2565 258.161 35.9283 258.057 36.5989C258.039 37.1879 258.027 37.6086 258.02 37.861C258.015 38.0292 258.005 38.3658 257.99 38.8706C257.977 39.2913 257.962 39.7961 257.945 40.3851C258.014 40.8924 258.041 41.3984 258.026 41.9033C258.014 42.3239 258.004 42.6605 257.997 42.9129L257.922 45.437C257.862 47.4563 257.239 48.6168 256.051 48.9185C254.863 49.2203 253.554 49.35 252.123 49.3077C250.188 49.2506 248.744 49.6711 247.791 50.5692C246.923 51.4699 246.264 52.3767 245.816 53.2898C245.549 53.7872 245.322 54.3278 245.137 54.9118C245.038 55.4141 244.89 56.1256 244.695 57.0461C244.586 57.885 244.468 59.0183 244.342 60.4462C244.302 61.7924 244.25 63.5592 244.185 65.7468C244.135 67.4295 244.302 68.9081 244.686 70.1826C245.153 71.4596 245.711 72.5287 246.359 73.3899C247.01 74.1671 247.708 74.7771 248.453 75.2202C249.281 75.6657 250.073 75.9418 250.828 76.0483C251.415 76.1498 251.96 76.208 252.465 76.223C253.056 76.1562 253.602 76.2144 254.102 76.3976C254.77 76.5858 255.349 76.9397 255.839 77.4595C256.413 77.9817 256.686 78.7056 256.659 79.6311C256.649 79.9676 256.64 80.2621 256.633 80.5145C256.625 80.7669 256.571 81.1864 256.469 81.7728C256.45 82.4459 256.39 83.0336 256.291 83.536C256.279 83.9566 256.262 84.5035 256.243 85.1766C256.225 85.7656 256.202 86.5649 256.172 87.5745C256.144 88.5 256.108 89.72 256.064 91.2345C256.059 91.4027 256.045 91.8655 256.023 92.6227C256.084 93.3824 256.111 93.8885 256.104 94.1409C256.074 95.1505 255.757 95.8991 255.153 96.3865C254.55 96.8739 254.119 97.198 253.862 97.3588C253.604 97.5197 253.222 97.6347 252.715 97.7039C252.205 97.8573 251.193 97.9116 249.678 97.8668C248.164 97.8221 246.777 97.739 245.517 97.6176C244.426 97.5011 243.335 97.3846 242.243 97.2682C241.234 97.2384 240.479 97.1318 239.979 96.9487C235.968 95.9038 232.857 94.2961 230.648 92.1256C228.522 89.9576 226.676 86.9135 225.107 82.9935C224.635 81.8848 224.202 80.8615 223.808 79.9236C223.502 78.904 223.238 77.8436 223.018 76.7424C222.801 75.557 222.629 74.2467 222.503 72.8114C222.461 71.3786 222.469 69.6946 222.526 67.7594Z" fill="var(--fill-0, #E54B25)"/>
<path id="Vector_6" d="M196.336 11.4069C196.351 10.9021 196.367 10.3552 196.385 9.76626C196.489 9.09565 196.674 8.51166 196.942 8.0143C197.296 7.43529 197.772 6.98621 198.371 6.66706C198.972 6.26378 199.862 6.07954 201.04 6.11435C201.377 6.12429 201.922 6.18252 202.677 6.28903C203.434 6.31141 204.233 6.33502 205.075 6.35988C206 6.38723 206.84 6.45416 207.595 6.56066C208.437 6.58552 209.025 6.60293 209.362 6.61287C209.699 6.62281 210.331 6.59939 211.259 6.5426C212.271 6.48829 212.945 6.46611 213.282 6.47605C214.039 6.49843 214.79 6.73114 215.535 7.1742C216.361 7.70388 216.851 8.22362 217.005 8.73341C217.158 9.2432 217.266 9.87795 217.327 10.6377L217.249 13.288L217.193 15.181C217.183 15.5176 217.216 15.8133 217.293 16.0682C217.256 17.3303 216.966 18.5848 216.424 19.832C215.966 21.0816 214.727 21.6766 212.708 21.6169L202.99 21.3298C202.822 21.3248 202.4 21.3545 201.725 21.4187C201.052 21.3988 200.589 21.3851 200.336 21.3777C199.158 21.3429 198.16 20.9344 197.341 20.1524C196.606 19.3727 196.262 18.1836 196.31 16.5851C196.315 16.4168 196.324 16.0802 196.339 15.5754C196.354 15.0706 196.327 14.5645 196.258 14.0572C196.275 13.4683 196.29 12.9634 196.303 12.5428C196.318 12.0379 196.329 11.6593 196.336 11.4069ZM211.186 26.1193C213.121 26.1765 214.587 26.4303 215.584 26.8808C216.581 27.3313 217.043 28.8186 216.968 31.3427C216.953 31.8475 216.896 32.3511 216.797 32.8535C216.782 33.3583 216.767 33.8631 216.752 34.3679C216.643 35.2068 216.578 36.0049 216.555 36.7621C216.533 37.5193 216.509 38.3186 216.485 39.16L216.179 49.5088C216.166 49.9295 216.145 50.6446 216.115 51.6543C216.088 52.5798 216.016 53.5882 215.9 54.6795C215.867 55.7732 215.836 56.8249 215.806 57.8346C215.779 58.7601 215.759 59.4332 215.747 59.8539C215.729 60.4428 215.712 61.0318 215.695 61.6207C215.68 62.1256 215.706 62.6737 215.772 63.2651C215.839 63.8566 215.864 64.4468 215.846 65.0357C215.916 65.543 215.94 66.1332 215.92 66.8063C215.913 67.0587 215.851 67.7306 215.734 68.8219C215.705 69.8315 215.683 70.5467 215.671 70.9673L215.444 78.6659C215.429 79.1707 215.403 80.0541 215.365 81.3162C215.328 82.5782 215.245 83.9652 215.116 85.4772C215.074 86.9075 215.033 88.2958 214.993 89.642C214.956 90.904 214.93 91.7874 214.915 92.2923C214.87 93.8067 214.546 94.8077 213.942 95.2951C213.34 95.6984 211.904 95.8664 209.632 95.7993C209.38 95.7919 208.959 95.7794 208.37 95.762C207.781 95.7446 207.15 95.726 206.477 95.7061C205.806 95.6021 205.177 95.5414 204.588 95.524C203.999 95.5066 203.578 95.4941 203.326 95.4867C203.157 95.4817 202.777 95.5126 202.186 95.5793C201.681 95.5644 201.134 95.5482 200.545 95.5308C199.956 95.5134 199.408 95.5393 198.901 95.6086C198.396 95.5936 198.018 95.5825 197.765 95.575C195.746 95.5153 194.585 94.8916 194.284 93.7037C193.984 92.4317 193.861 90.9123 193.913 89.1454C193.923 88.8089 193.939 88.262 193.962 87.5048C194.07 86.6659 194.139 85.7837 194.166 84.8582C194.196 83.8485 194.223 82.9231 194.248 82.0817C194.357 81.2428 194.417 80.6551 194.426 80.3185C194.436 79.982 194.455 79.351 194.482 78.4255C194.51 77.5 194.496 76.5311 194.442 75.519C194.474 74.4252 194.504 73.4156 194.531 72.4901C194.561 71.4805 194.582 70.7653 194.595 70.3446C194.61 69.8398 194.636 68.9564 194.673 67.6943C194.71 66.4323 194.75 65.0861 194.792 63.6558C194.919 62.2279 195.002 60.8409 195.042 59.4947C195.081 58.1485 195.109 57.223 195.124 56.7182C195.136 56.2975 195.118 55.497 195.068 54.3166C195.103 53.1387 195.139 51.9187 195.177 50.6567C195.216 49.3105 195.212 48.0472 195.162 46.8668C195.197 45.6889 195.222 44.8475 195.237 44.3427C195.244 44.0903 195.258 43.6275 195.278 42.9544C195.384 42.1997 195.449 41.4437 195.471 40.6865C195.496 39.8451 195.518 39.0879 195.538 38.4148C195.645 37.66 195.702 37.1565 195.709 36.904C195.722 36.4834 195.703 35.6828 195.654 34.5024C195.605 33.322 195.585 32.5635 195.595 32.227C195.652 30.2919 195.82 28.8653 196.1 27.9472C196.382 26.945 197.242 26.3389 198.68 26.1287C199.019 26.0545 199.736 26.0336 200.829 26.0659C202.01 26.0166 203.273 26.0118 204.619 26.0516C206.052 26.0097 207.357 26.0062 208.535 26.041C209.797 26.0783 210.681 26.1044 211.186 26.1193Z" fill="var(--fill-0, #E54B25)"/>
<path id="Vector_7" d="M136.1 53.5848C136.147 51.9862 136.28 50.3481 136.498 48.6703C136.8 46.995 137.098 45.446 137.393 44.0231C137.772 42.6027 138.101 41.4335 138.381 40.5154C138.663 39.5133 138.85 38.8872 138.942 38.6373C139.216 37.8875 139.756 36.7245 140.56 35.1483C141.452 33.4904 142.637 31.8413 144.117 30.2008C145.684 28.4787 147.538 27.0176 149.678 25.8177C151.906 24.5362 154.492 23.9389 157.436 24.0259C158.783 24.0657 160.124 24.2738 161.46 24.6501C162.883 24.9448 164.17 25.5722 165.32 26.5325C165.976 27.1414 166.385 27.5324 166.549 27.7057C166.714 27.7948 166.881 27.8418 167.05 27.8468C167.386 27.8567 167.563 27.5672 167.581 26.9783C167.685 26.3077 167.827 25.7645 168.008 25.3488C168.188 24.9331 168.7 24.7377 169.541 24.7625C169.793 24.77 170.213 24.8245 170.799 24.926C171.472 24.9459 172.145 24.9658 172.818 24.9857C173.573 25.0922 174.286 25.1975 174.957 25.3015C175.63 25.3214 176.092 25.3351 176.345 25.3425C177.439 25.3748 178.364 25.4022 179.121 25.4245C179.881 25.3628 180.599 25.2998 181.274 25.2355C181.613 25.1613 181.951 25.1292 182.288 25.1392C182.624 25.1491 182.961 25.159 183.297 25.169C185.653 25.2386 187.031 25.6162 187.432 26.3017C187.92 26.9055 188.14 28.0068 188.092 29.6054C188.085 29.8578 188.029 30.3193 187.925 30.9899C187.908 31.5789 187.888 32.2519 187.866 33.0092C187.843 33.7664 187.78 34.4803 187.676 35.1509C187.656 35.824 187.642 36.2868 187.635 36.5392C187.625 36.8757 187.605 37.5488 187.575 38.5585C187.632 39.4865 187.644 40.4973 187.612 41.5911C187.582 42.6008 187.552 43.6104 187.522 44.62C187.579 45.548 187.601 46.2224 187.589 46.643C187.574 47.1479 187.505 48.0721 187.381 49.4158C187.343 50.6779 187.26 52.0649 187.132 53.5769C187.005 55.0047 186.88 56.3905 186.756 57.7342C186.716 59.0804 186.689 60.0058 186.674 60.5107C186.672 60.5948 186.657 61.0996 186.629 62.0251C186.686 62.9531 186.696 64.0481 186.659 65.3102C186.705 66.5747 186.708 67.9221 186.665 69.3525C186.71 70.7011 186.717 71.8803 186.687 72.8899C186.732 74.2386 186.734 75.586 186.694 76.9322C186.654 78.2784 186.615 79.6246 186.575 80.9708C186.445 85.3459 185.871 89.1184 184.851 92.2882C183.918 95.3764 182.027 98.0995 179.178 100.457C177.28 102.001 174.758 103.274 171.613 104.276C168.467 105.278 164.034 105.694 158.313 105.525C153.433 105.381 149.446 104.926 146.353 104.161C143.257 103.48 141.337 102.918 140.592 102.475C140.179 102.21 139.85 101.948 139.605 101.688C139.442 101.515 139.285 101.131 139.134 100.537C139.064 100.03 139.045 99.2716 139.075 98.262C139.102 97.3365 139.142 95.9903 139.194 94.2234C139.211 93.6344 139.237 92.751 139.272 91.5731C139.394 90.3135 139.505 89.3905 139.607 88.804C139.891 87.7177 140.377 86.9742 141.062 86.5734C141.832 86.1751 142.595 85.9871 143.352 86.0095C143.521 86.0144 143.856 86.0665 144.358 86.1655C144.863 86.1804 145.45 86.282 146.118 86.4701C146.702 86.6558 147.284 86.8835 147.866 87.1533C148.447 87.4232 149.03 87.6509 149.614 87.8366C150.451 88.0297 151.246 88.1795 152.001 88.286C152.842 88.3109 153.724 88.3791 154.647 88.4906C154.984 88.5005 155.698 88.5637 156.789 88.6801C157.881 88.7966 158.637 88.861 159.057 88.8735C161.245 88.9381 163.071 88.4026 164.536 87.267C166.004 86.0472 166.756 84.8062 166.794 83.5442C166.808 83.0394 166.611 82.6125 166.2 82.2635C165.876 81.8329 165.503 81.6113 165.083 81.5989C164.662 81.5865 164.281 81.6594 163.939 81.8178C163.598 81.9761 163.214 82.1332 162.789 82.289C161.682 82.6774 160.621 82.9829 159.604 83.2054C158.671 83.4305 157.026 83.5082 154.67 83.4386C153.997 83.4187 152.906 83.3023 151.397 83.0893C149.887 82.8762 148.178 82.2784 146.271 81.2957C145.607 80.9393 144.822 80.4529 143.914 79.8366C143.09 79.2228 142.114 78.0571 140.986 76.3396C139.531 74.2756 138.536 72.3093 138.002 70.4409C137.552 68.575 137.154 66.3738 136.808 63.8373C136.669 62.8227 136.526 61.9763 136.377 61.2982C136.316 60.5385 136.253 59.8209 136.188 59.1453C136.127 58.3856 136.066 57.5838 136.007 56.7399C136.032 55.8986 136.063 54.8469 136.1 53.5848ZM166.839 52.0931C166.846 51.8407 166.821 51.2505 166.765 50.3225C166.708 49.3945 166.525 48.4628 166.216 47.5273C165.991 46.5944 165.595 45.7406 165.028 44.9659C164.462 44.1913 163.673 43.7891 162.664 43.7592C162.411 43.7518 161.904 43.821 161.142 43.9669C160.38 44.1128 159.562 44.7202 158.688 45.7891C158.163 46.4473 157.666 47.6115 157.195 49.2818C156.812 50.8705 156.599 52.38 156.556 53.8103C156.534 54.5675 156.583 55.7479 156.704 57.3515C156.825 58.9551 157.001 60.1392 157.231 60.9039C157.463 61.5844 157.862 62.3541 158.426 63.2129C159.074 64.0741 160.24 64.5296 161.922 64.5793C162.848 64.6067 163.611 64.4187 164.213 64.0154C164.817 63.528 165.298 62.9106 165.657 62.1634C166.016 61.4161 166.25 60.623 166.359 59.7841C166.554 58.8636 166.665 57.9826 166.689 57.1413L166.839 52.0931Z" fill="var(--fill-0, #E54B25)"/>
<path id="Vector_8" d="M101.588 48.0178C101.84 48.0252 102.302 48.081 102.973 48.185C103.646 48.2049 104.317 48.2669 104.988 48.3709C105.743 48.4774 106.413 48.5814 107 48.683C107.589 48.7004 107.967 48.7115 108.136 48.7165C109.061 48.7439 109.701 48.468 110.055 47.889C110.493 47.3125 110.719 46.7718 110.734 46.267C110.767 45.1732 110.581 44.3256 110.178 43.7242C109.859 43.1253 109.409 42.691 108.827 42.4212C108.248 42.0672 107.581 41.837 106.826 41.7305C106.156 41.6265 105.484 41.5645 104.811 41.5446C104.474 41.5347 103.76 41.4715 102.669 41.355C101.578 41.2386 100.822 41.1741 100.401 41.1617C98.0453 41.0921 95.5904 41.5248 93.0365 42.4599C91.1656 43.0783 89.9752 43.4642 89.4654 43.6175C89.0398 43.7734 88.6166 43.8451 88.1959 43.8326C87.3546 43.8078 86.5231 43.4464 85.7017 42.7484C84.9643 42.053 84.6255 40.6956 84.6851 38.6763C84.6951 38.3398 84.7175 37.5825 84.7523 36.4046C84.8737 35.1451 84.9406 34.3049 84.9531 33.8843C84.9655 33.4636 84.9483 32.621 84.9014 31.3564C84.8571 30.0078 84.8411 29.1231 84.8535 28.7024C84.8759 27.9452 85.0628 27.3191 85.4143 26.8242C85.7657 26.3294 86.1989 25.9211 86.7136 25.5995C87.2284 25.2778 87.7394 25.0824 88.2467 25.0132C88.7565 24.8598 89.1809 24.7461 89.52 24.6719C90.7895 24.4567 92.1852 24.2454 93.7071 24.0377C95.2315 23.7459 96.7547 23.4962 98.2766 23.2885C99.8826 23.0833 101.445 22.919 102.965 22.7954C104.568 22.6744 106.001 22.6325 107.263 22.6698C109.619 22.7394 111.842 23.0156 113.933 23.4985C116.109 23.9838 118.07 24.5891 119.817 25.3144C121.65 25.958 123.226 26.7625 124.545 27.7278C125.867 28.6089 126.893 29.4814 127.626 30.3451C128.437 31.3796 129.069 32.7878 129.522 34.5695C129.977 36.2672 130.148 39.0511 130.033 42.9214C130.023 43.258 129.964 43.8457 129.855 44.6846C129.832 45.4418 129.808 46.2832 129.78 47.2087C129.755 48.05 129.688 48.8902 129.579 49.729C129.555 50.5704 129.537 51.1594 129.527 51.4959C129.52 51.7483 129.506 52.2111 129.486 52.8842C129.553 53.4756 129.575 54.1499 129.553 54.9072C129.53 55.6644 129.509 56.3796 129.489 57.0527C129.554 57.7282 129.582 58.1922 129.574 58.4446C129.565 58.7812 129.499 59.5792 129.377 60.8388C129.343 62.0167 129.319 62.816 129.307 63.2367C129.297 63.5733 129.279 64.1622 129.254 65.0036C129.232 65.7608 129.207 66.6022 129.18 67.5277C129.239 68.3715 129.256 69.2141 129.231 70.0555C129.207 70.8969 129.189 71.4858 129.179 71.8224C129.169 72.1589 129.109 72.7887 128.997 73.7117C128.97 74.6372 128.898 75.6456 128.781 76.7369C128.749 77.8307 128.676 78.8811 128.562 79.8883C128.535 80.8138 128.516 81.4448 128.506 81.7814C128.499 82.0338 128.484 82.5386 128.461 83.2958C128.523 84.0555 128.542 84.8561 128.517 85.6975C128.576 86.5413 128.594 87.3418 128.572 88.0991C128.634 88.8588 128.661 89.3648 128.653 89.6173C128.611 91.0476 128.162 92.0027 127.306 92.4827C126.536 92.881 125.815 93.0702 125.142 93.0503C124.889 93.0429 124.468 93.0304 123.879 93.013C123.375 92.9981 122.786 92.9807 122.113 92.9608C121.526 92.8593 120.938 92.7998 120.349 92.7824C119.76 92.765 119.34 92.7526 119.087 92.7451C118.835 92.7377 118.371 92.7661 117.695 92.8303C117.106 92.8129 116.474 92.8363 115.799 92.9006C115.126 92.8807 114.451 92.9029 113.776 92.9671C113.187 92.9497 112.766 92.9373 112.514 92.9298C112.093 92.9174 111.718 92.78 111.389 92.5177C111.06 92.2553 110.815 91.9954 110.654 91.7381C110.491 91.5648 110.413 91.352 110.42 91.0996C110.428 90.8472 110.35 90.6343 110.187 90.4611C110.028 90.1196 109.781 89.9438 109.444 89.9339C109.276 89.9289 109.062 90.0489 108.802 90.2939C108.545 90.4547 108.329 90.6167 108.156 90.78C107.379 91.4308 106.479 91.9515 105.457 92.3424C104.438 92.6491 103.463 92.8729 102.532 93.0139C101.602 93.1548 100.716 93.2128 99.8744 93.188C99.1147 93.2497 98.4824 93.2732 97.9776 93.2582C97.2204 93.2359 96.2961 93.1664 95.2048 93.05C94.1952 93.0202 93.1064 92.8196 91.9384 92.4482C90.7705 92.0769 89.5233 91.5348 88.197 90.8219C86.9574 90.0274 85.7264 88.9384 84.5041 87.5549C83.3635 86.2581 82.4332 84.9674 81.7133 83.683C80.9958 82.3144 80.4454 80.9929 80.062 79.7184C79.7627 78.4464 79.5464 77.219 79.4129 76.0361C79.3636 74.8557 79.3538 73.7607 79.3836 72.7511C79.5005 68.7966 79.7162 65.7714 80.0307 63.6755C80.4319 61.4979 81.0756 59.6643 81.9617 58.1747C82.6696 57.0167 83.6324 55.7819 84.8501 54.4706C86.0677 53.1592 87.5316 52.0656 89.2417 51.1898C91.0334 50.4007 92.5257 49.7711 93.7185 49.3011C94.9955 48.8335 96.0572 48.5281 96.9035 48.3846C97.8365 48.1596 98.5974 48.0557 99.1864 48.0731C99.7778 48.0064 100.368 47.9817 100.957 47.9991L101.588 48.0178ZM105.684 63.2966C104.59 63.2643 103.354 63.7751 101.975 64.8291C100.684 65.8015 99.9917 67.8442 99.8997 70.9572C99.8649 72.1352 100.003 73.1498 100.315 74.0011C100.629 74.7683 101.031 75.4117 101.521 75.9315C102.011 76.4512 102.505 76.8447 103.002 77.112C103.586 77.2977 104.088 77.3968 104.509 77.4092C106.36 77.4639 107.726 76.8306 108.607 75.5092C109.491 74.1038 109.965 72.3073 110.03 70.1197C110.077 68.5211 109.785 66.9967 109.154 65.5465C108.523 64.0963 107.367 63.3463 105.684 63.2966Z" fill="var(--fill-0, #E54B25)"/>
<path id="Vector_9" d="M23.0233 75.7594C22.9761 77.358 22.9375 78.6621 22.9077 79.6718C22.8779 80.6814 22.8901 81.6923 22.9444 82.7044C22.9295 83.2092 22.9146 83.7141 22.8997 84.2189C22.9689 84.7262 22.996 85.2323 22.9811 85.7371C22.9488 86.8309 22.7074 87.8763 22.2569 88.8736C21.8088 89.7866 20.5752 90.2133 18.5559 90.1537C18.3876 90.1487 18.009 90.1375 17.4201 90.1201C16.9152 90.1052 16.3684 90.089 15.7794 90.0716C15.1929 89.9701 14.6052 89.9106 14.0163 89.8932C13.5114 89.8783 13.1328 89.8671 12.8804 89.8597C10.9453 89.8025 9.64116 89.764 8.96806 89.7441C8.37911 89.7267 7.87305 89.7538 7.44988 89.8255C6.43775 89.8798 5.76341 89.902 5.42687 89.8921C5.17446 89.8846 4.92205 89.8772 4.66964 89.8697C3.66 89.8399 2.65657 89.5997 1.65936 89.1492C0.662155 88.6987 0.192138 87.5058 0.249315 85.5707C0.256773 85.3183 0.269203 84.8976 0.286604 84.3086C0.390629 83.638 0.452584 82.9662 0.472472 82.2931C0.578982 81.5383 0.642181 80.8244 0.662069 80.1513C0.766093 79.4807 0.821834 79.0192 0.829292 78.7668C0.940774 77.8438 1.01392 76.7933 1.04872 75.6154C1.08601 74.3534 1.11957 73.2175 1.1494 72.2079C1.1668 71.6189 1.15581 70.566 1.11642 69.049C1.16365 67.4504 1.1713 65.7665 1.13937 63.9971C1.19158 62.2302 1.19798 60.5883 1.1586 59.0714C1.20583 57.4728 1.23939 56.3369 1.25928 55.6639C1.27668 55.0749 1.309 53.9811 1.35623 52.3825C1.4876 50.7864 1.57939 49.1049 1.63159 47.338C1.77042 45.4895 1.86345 43.766 1.91068 42.1674C2.04454 40.4871 2.12141 39.3105 2.1413 38.6374C2.15621 38.1325 2.14273 37.1637 2.10086 35.7309C2.14312 34.3006 2.18787 32.7861 2.2351 31.1875C2.28482 29.5048 2.28874 27.947 2.24686 26.5142C2.29161 24.9998 2.32393 23.906 2.34382 23.2329C2.35127 22.9805 2.36495 22.5177 2.38483 21.8446C2.49134 21.0899 2.55579 20.3339 2.57816 19.5767C2.60302 18.7353 2.62664 17.936 2.64901 17.1788C2.75552 16.4241 2.81375 15.8784 2.82369 15.5419C2.86098 14.2798 2.81413 13.0153 2.68315 11.7483C2.55216 10.4812 2.50532 9.2167 2.54261 7.95465C2.46841 7.61562 2.44623 6.94128 2.47606 5.93164C2.50838 4.83786 2.52827 4.16477 2.53573 3.91237C2.56307 2.98686 2.75248 2.27667 3.10394 1.78179C3.4554 1.28692 3.84396 0.96156 4.26961 0.805713C4.78189 0.568222 5.29044 0.456936 5.79526 0.471851C6.30257 0.402627 6.76656 0.374227 7.18724 0.386657C7.52379 0.396601 8.15357 0.457318 9.07659 0.568804C10.0021 0.596149 11.0117 0.625981 12.1055 0.658298C13.1993 0.690615 14.2077 0.762514 15.1307 0.873995C16.1403 0.903827 16.8555 0.924957 17.2762 0.937387C17.5286 0.944845 18.2029 0.922665 19.2992 0.870847C20.3955 0.819024 21.1119 0.798082 21.4484 0.808026C22.8787 0.850287 23.9192 1.25998 24.57 2.0371C25.3073 2.73256 25.9852 4.01574 26.6036 5.88664C27.0686 7.24774 27.6166 8.65339 28.2474 10.1036C28.8782 11.5538 29.7503 13.3901 30.8636 15.6125C31.2569 16.5504 31.6948 17.4054 32.1772 18.1776C32.6597 18.9497 33.1396 19.806 33.6171 20.7464C34.1762 21.7735 34.6512 22.798 35.0421 23.8201C35.5121 25.0129 36.0625 26.3344 36.6934 27.7846C37.4108 29.1532 38.064 29.8462 38.653 29.8636C39.1578 29.8785 39.6775 29.3886 40.2122 28.3939C40.7468 27.3991 41.1045 26.6939 41.2852 26.2782C41.4634 25.9466 41.7741 25.4085 42.2171 24.6637C42.6627 23.8347 43.1094 22.9637 43.5575 22.0506C44.0055 21.1376 44.4523 20.2666 44.8978 19.4376C45.3434 18.6087 45.6553 18.0284 45.8335 17.6969C46.4572 16.5364 46.9969 15.3733 47.4523 14.2079C47.9103 12.9582 48.4091 11.7519 48.9487 10.5889L51.3547 6.11269C51.8027 5.19961 52.2482 4.37068 52.6913 3.62588C53.221 2.79943 53.8682 2.27118 54.6328 2.04115C54.717 2.04364 54.9694 2.05109 55.3901 2.06352C55.8132 1.99182 56.2772 1.96342 56.7821 1.97834C57.2894 1.90911 57.7534 1.88071 58.174 1.89314C58.5972 1.82144 58.8509 1.78683 58.935 1.78932C59.1874 1.79677 59.6081 1.8092 60.197 1.8266C60.786 1.84401 61.4158 1.90472 62.0864 2.00874C62.7595 2.02863 63.3893 2.08935 63.9757 2.19089C64.5647 2.20829 64.9854 2.22072 65.2378 2.22818C65.3219 2.23066 65.7005 2.24185 66.3736 2.26174C67.0467 2.28163 67.7198 2.30151 68.3929 2.3214C69.1526 2.25963 69.827 2.23745 70.4159 2.25485C71.0074 2.18812 71.3452 2.15599 71.4293 2.15848C71.6817 2.16594 71.892 2.17215 72.0603 2.17712C72.3152 2.10045 72.5689 2.06584 72.8213 2.07329C73.4944 2.09318 74.1179 2.36424 74.692 2.88646C75.3501 3.41116 75.6618 4.26247 75.627 5.44038C75.6146 5.86107 75.5502 6.61706 75.4337 7.70834C75.4039 8.71799 75.3407 9.43191 75.2441 9.8501C75.0137 11.9485 74.8303 13.88 74.694 15.6443C74.5576 17.4087 74.487 18.3751 74.482 18.5433C74.472 18.8799 74.4546 19.4688 74.4298 20.3102C74.4074 21.0674 74.3826 21.9088 74.3552 22.8343C74.412 23.7623 74.428 24.647 74.4031 25.4883C74.3783 26.3297 74.3608 26.9187 74.3509 27.2552C74.3285 28.0124 74.2442 29.4415 74.0979 31.5424C74.0383 33.5617 73.9736 35.7493 73.904 38.1051C73.8369 40.3768 73.7302 42.5631 73.5839 44.664C73.5218 46.7674 73.4782 48.2398 73.4534 49.0812C73.4385 49.586 73.4124 50.4695 73.3751 51.7315C73.4219 52.996 73.4242 54.3435 73.382 55.7738C73.3397 57.2041 73.2987 58.5924 73.2589 59.9385C73.3058 61.2031 73.3217 62.0878 73.3068 62.5926C73.2919 63.0974 73.2225 64.0217 73.0986 65.3654C73.0588 66.7116 72.9732 68.1827 72.8418 69.7788C72.7971 71.2933 72.7115 72.7644 72.5851 74.1923C72.5429 75.6226 72.513 76.6322 72.4956 77.2212C72.4857 77.5577 72.4683 78.1467 72.4434 78.988C72.5027 79.8319 72.5607 80.7178 72.6175 81.6458C72.6743 82.5738 72.689 83.5005 72.6617 84.426C72.721 85.2699 72.7456 85.8601 72.7357 86.1966C72.686 87.8794 72.52 89.2218 72.2378 90.224C71.9555 91.2262 71.0572 91.7049 69.5427 91.6602C69.122 91.6477 68.7434 91.6365 68.4069 91.6266C68.0703 91.6167 67.735 91.5646 67.4009 91.4706C66.2255 91.3516 65.0489 91.2748 63.8709 91.2399C62.6955 91.121 61.5188 91.0441 60.3409 91.0093C59.6678 90.9894 58.9527 90.9683 58.1954 90.9459C57.5224 90.926 56.848 90.9482 56.1724 91.0125C55.7493 91.0842 55.3273 91.1138 54.9067 91.1014C54.5701 91.0915 54.1915 91.0803 53.7708 91.0678C53.0136 91.0455 52.4259 90.986 52.0077 90.8894C51.592 90.7087 51.1775 90.4859 50.7643 90.2211C50.1061 89.6964 49.6583 89.1779 49.4208 88.6656C49.2674 88.1558 49.2032 87.4803 49.228 86.6389C49.2404 86.2182 49.2504 85.8817 49.2579 85.6293C49.2678 85.2927 49.3743 84.538 49.5774 83.365C49.7655 82.6969 49.8696 82.0263 49.8895 81.3532C49.9118 80.596 49.933 79.8808 49.9528 79.2077L50.143 72.7713C50.1579 72.2664 50.1308 71.7604 50.0616 71.2531C50.0765 70.7483 50.0926 70.2014 50.11 69.6124C50.115 69.4441 50.1237 69.1497 50.1361 68.729C50.2352 68.2266 50.3342 67.7243 50.4333 67.222C50.5348 66.6355 50.5918 66.1319 50.6042 65.7112C50.7033 65.2089 50.7566 64.8315 50.764 64.5791C50.7715 64.3267 50.7431 63.8627 50.6788 63.1872C50.7012 62.4299 50.6815 61.6715 50.6197 60.9117C50.6446 60.0704 50.6262 59.2698 50.5644 58.5101C50.5868 57.7529 50.6029 57.206 50.6129 56.8694C50.6203 56.617 50.6377 56.0281 50.6651 55.1026C50.779 54.0954 50.841 53.4236 50.8509 53.087C50.8559 52.9188 50.8225 52.623 50.7508 52.1999C50.7658 51.695 50.7757 51.3585 50.7807 51.1902C50.803 50.433 50.646 50.0494 50.3094 50.0395C49.9729 50.0295 49.5843 50.3549 49.1437 51.0155C48.8789 51.4288 48.6561 51.8432 48.4754 52.259C48.2947 52.6747 47.9283 53.6744 47.3763 55.258C47.1956 55.6738 46.8812 56.3381 46.4332 57.2512C46.0693 58.1668 45.6188 59.164 45.0816 60.2428C44.6311 61.2401 44.1806 62.2373 43.7301 63.2345C43.2821 64.1475 42.9677 64.8119 42.787 65.2276C42.1608 66.4723 41.5407 67.5066 40.9269 68.3306C40.3972 69.157 39.6276 69.5553 38.6179 69.5255C37.44 69.4907 36.6432 69.3829 36.2275 69.2022C35.8143 68.9374 35.3652 68.461 34.8803 67.773C34.7194 67.5156 34.4399 67.0021 34.0416 66.2324C33.6457 65.3786 33.2079 64.5236 32.7279 63.6673C32.2504 62.7269 31.8125 61.8718 31.4142 61.1022C31.0159 60.3325 30.6955 59.7757 30.4531 59.4317C30.2131 59.0035 29.9719 58.6175 29.7294 58.2735C29.4869 57.9294 29.2878 57.5446 29.1319 57.119C28.9711 56.8616 28.6928 56.306 28.297 55.4522C27.9878 54.5168 27.5944 53.5788 27.117 52.6384C26.7236 51.7005 26.2857 50.8454 25.8033 50.0733C25.405 49.3036 25.0796 48.9151 24.8272 48.9076C24.5748 48.9001 24.3991 49.1476 24.3 49.6499C24.2876 50.0706 24.2764 50.4492 24.2664 50.7858C24.254 51.2065 24.1908 51.9204 24.0768 52.9275C24.047 53.9372 23.9726 55.0297 23.8537 56.2051C23.8214 57.2989 23.747 58.3914 23.6305 59.4827C23.6007 60.4924 23.5796 61.2075 23.5671 61.6282C23.5423 62.4696 23.5174 63.3109 23.4926 64.1523C23.5543 64.912 23.5715 65.7546 23.5442 66.6801C23.4377 67.4349 23.3745 68.1488 23.3546 68.8219C23.3372 69.4108 23.279 69.9565 23.1799 70.4588C23.1675 70.8795 23.1588 71.174 23.1538 71.3423L23.0233 75.7594Z" fill="var(--fill-0, #E54B25)"/>
</g>
</svg>
