<svg viewBox="0 0 612.593 112.897" fill="none" xmlns="http://www.w3.org/2000/svg">
<g id="Group 12">
<path id="text80" d="M204.897 106.392C203.697 106.416 202.711 106.436 201.94 106.451C201.169 106.467 200.441 106.525 199.758 106.624C199.331 106.718 198.947 106.812 198.606 106.905C198.349 106.91 198.006 106.917 197.577 106.925C197.063 106.936 196.546 106.818 196.027 106.571C195.508 106.324 195.203 106.116 195.114 105.946C195.023 105.691 194.974 105.349 194.965 104.921C194.951 104.235 194.687 103.897 194.173 103.908C194.001 103.911 193.578 104.177 192.903 104.705C192.481 105.057 191.847 105.455 190.998 105.901C190.148 106.261 189.127 106.625 187.934 106.992C187.336 107.089 186.353 107.238 184.985 107.437C183.703 107.634 182.848 107.737 182.419 107.746C182.162 107.751 181.604 107.677 180.743 107.523C179.97 107.453 179.067 107.299 178.033 107.063C176.998 106.741 175.919 106.377 174.796 105.971C173.757 105.478 172.845 104.896 172.06 104.226C170.667 103.14 169.395 101.751 168.247 100.059C167.184 98.3662 166.248 96.5848 165.438 94.715C164.629 92.8453 163.948 90.9729 163.396 89.098C162.929 87.2213 162.595 85.5562 162.395 84.1028C162.293 83.3333 162.186 82.2638 162.073 80.8944C161.957 79.4393 161.841 77.9413 161.725 76.4005C161.693 74.8579 161.663 73.3582 161.634 71.9014C161.602 70.3588 161.578 69.159 161.561 68.3021C161.537 67.1023 161.556 65.9445 161.619 64.8287C161.682 63.7129 161.785 62.4249 161.927 60.9646C161.987 59.6774 162.174 58.3447 162.489 56.9666C162.803 55.5029 163.118 54.1676 163.437 52.9609C163.754 51.6685 164.032 50.5913 164.272 49.7291C164.596 48.7795 164.799 48.2181 164.881 48.045C165.7 46.1423 166.736 44.4067 167.991 42.8382C169.331 41.2679 170.761 39.953 172.283 38.8935C173.891 37.8322 175.546 37.0272 177.25 36.4784C178.952 35.8438 180.574 35.511 182.116 35.4798C183.573 35.4504 185.12 35.6334 186.757 36.029C188.48 36.4229 189.691 36.9557 190.39 37.6274C190.913 38.0455 191.218 38.2965 191.305 38.3805C191.479 38.4627 191.694 38.5012 191.951 38.496C192.379 38.4874 192.591 38.3545 192.586 38.0974C192.666 37.8386 192.703 37.5378 192.696 37.195C192.693 37.0236 192.683 36.5523 192.667 35.781C192.738 35.008 192.771 34.5358 192.767 34.3644C192.743 33.1646 192.669 31.6229 192.545 29.7393C192.507 27.854 192.39 26.3131 192.195 25.1168C192.09 24.1759 191.988 23.3635 191.888 22.6797C191.873 21.9084 191.861 21.3514 191.855 21.0086C191.849 20.7515 191.842 20.4087 191.834 19.9802C191.909 19.4643 192.07 18.9466 192.317 18.4273C192.563 17.9079 192.898 17.4725 193.319 17.121C193.825 16.6821 194.505 16.4112 195.36 16.3082C195.701 16.2155 196.043 16.1658 196.386 16.1588C196.815 16.1502 197.672 16.1329 198.957 16.1069C199.471 16.0965 199.943 16.087 200.371 16.0783C200.885 16.0679 201.399 16.0147 201.911 15.9186C202.338 15.8242 202.722 15.7736 203.065 15.7667C203.408 15.7597 203.794 15.7519 204.222 15.7433C204.651 15.7346 205.08 15.7688 205.51 15.8458C206.024 15.8355 206.496 15.8259 206.924 15.8173C207.181 15.8121 207.738 15.758 208.593 15.655C209.446 15.4662 210.002 15.4121 210.261 15.4926C210.947 15.4788 211.55 15.638 212.071 15.9704C212.334 16.2223 212.602 16.7742 212.876 17.626C213.149 18.392 213.295 19.2464 213.314 20.1891C213.324 20.7033 213.292 21.2183 213.217 21.7342C213.227 22.2484 213.195 22.7635 213.119 23.2794L213.189 26.7501C213.2 27.2643 213.209 27.7357 213.218 28.1641C213.225 28.5069 213.156 29.3228 213.01 30.6117C212.944 31.5561 212.919 32.4568 212.936 33.3138C212.952 34.0851 212.968 34.8992 212.986 35.7562C213.012 37.0416 213.038 38.3271 213.063 39.6125C213.173 40.8106 213.241 42.0523 213.267 43.3378L213.327 46.2943C213.334 46.6371 213.347 47.2799 213.366 48.2225C213.385 49.1652 213.405 50.1507 213.426 51.1791C213.532 52.2057 213.596 53.2332 213.617 54.2616C213.636 55.2043 213.649 55.847 213.656 56.1898C213.685 57.6466 213.672 59.1044 213.615 60.5629C213.643 61.9341 213.672 63.3481 213.701 64.805C213.706 65.0621 213.715 65.4905 213.727 66.0904C213.739 66.6903 213.753 67.3759 213.769 68.1472C213.868 68.831 213.925 69.5157 213.939 70.2013C213.951 70.8012 213.96 71.2297 213.965 71.4868C213.975 72.001 213.951 72.9445 213.893 74.3174C213.921 75.6885 213.908 77.1463 213.853 78.6905C213.799 80.2348 213.742 81.6934 213.684 83.0663C213.712 84.4375 213.731 85.3801 213.742 85.8943C213.747 86.1514 213.764 87.0084 213.794 88.4652C213.823 89.9221 213.855 91.5075 213.89 93.2214C214.01 94.9337 214.086 96.5611 214.117 98.1036C214.232 99.5587 214.293 100.458 214.3 100.8C214.393 101.142 214.446 101.655 214.46 102.34C214.484 103.54 214.245 104.445 213.743 105.055C213.325 105.578 213.032 105.927 212.864 106.102C212.61 106.279 212.313 106.413 211.972 106.506C211.715 106.511 211.458 106.516 211.201 106.521C210.772 106.53 210.301 106.54 209.787 106.55C209.356 106.473 208.926 106.396 208.496 106.319L204.897 106.392ZM187.839 57.7403C186.639 57.7646 185.663 58.2558 184.911 59.2141C184.159 60.1723 183.582 61.3414 183.181 62.7212C182.864 64.0136 182.636 65.4328 182.496 66.9788C182.441 68.5231 182.425 69.8523 182.448 70.9663C182.46 71.5662 182.475 72.3375 182.494 73.2802C182.597 74.1354 182.658 75.0344 182.678 75.977C182.781 76.8323 182.841 77.6884 182.858 78.5453C182.959 79.3149 183.056 79.8702 183.149 80.2113C183.432 81.4915 183.928 82.7246 184.638 83.9105C185.346 85.0107 186.429 85.5461 187.886 85.5167C188.314 85.508 188.91 85.2816 189.672 84.8376C190.521 84.3918 191.185 83.3495 191.667 81.7109C191.665 81.6252 191.744 81.2807 191.903 80.6773C192.146 79.9866 192.344 79.1681 192.496 78.222C192.734 77.2741 192.93 76.3271 193.082 75.381C193.233 74.3491 193.301 73.4904 193.287 72.8048C193.273 72.1193 193.217 71.4774 193.12 70.8792C193.107 70.2794 193.053 69.6804 192.955 69.0822C192.936 68.1395 192.916 67.154 192.895 66.1256C192.872 65.0116 192.769 64.1563 192.586 63.5599C192.118 61.5975 191.445 60.1537 190.569 59.2283C189.692 58.2173 188.781 57.7213 187.839 57.7403Z" fill="var(--fill-0, #00B289)"/>
<path id="Vector" d="M561.78 28.6436C561.651 25.1107 561.716 22.2866 561.976 20.1714C562.32 18.0531 562.802 16.2667 563.423 14.8122C564.268 12.5913 565.458 10.5685 566.992 8.74375C568.522 6.83484 570.363 5.33578 572.513 4.24657C575.327 2.88044 578.032 1.98156 580.627 1.54993C583.222 1.1183 585.613 0.862578 587.801 0.782766C590.408 0.687607 592.765 0.643714 594.871 0.651088C597.058 0.571277 598.915 0.67198 600.441 0.953196C602.052 1.23134 603.291 1.73359 604.16 2.45995C605.029 3.18631 605.488 4.22243 605.537 5.56831C605.54 5.65242 605.515 6.1166 605.461 6.96085C605.489 7.7179 605.521 8.60113 605.558 9.61054C605.595 10.62 605.588 11.5888 605.538 12.5172C605.572 13.4425 605.595 14.0734 605.607 14.4098C605.619 14.7463 605.645 15.4613 605.685 16.5548C605.809 17.6453 605.879 18.4008 605.894 18.8214C605.907 19.1579 605.881 19.622 605.819 20.2139C605.753 20.7217 605.561 21.2341 605.243 21.7511C604.925 22.2681 604.437 22.7491 603.78 23.1943C603.203 23.5522 602.368 23.7511 601.275 23.7911L600.391 23.8233C599.544 23.6858 598.695 23.5062 597.845 23.2845C597.079 23.0598 596.228 22.8381 595.294 22.6195C594.359 22.4009 593.513 22.3055 592.756 22.3331C591.996 22.2766 591.364 22.2576 590.859 22.276C590.438 22.2913 589.935 22.3518 589.35 22.4574C588.761 22.4789 588.136 22.6702 587.475 23.0312C586.896 23.305 586.408 23.7861 586.012 24.4744C585.613 25.0785 585.433 25.9274 585.473 27.0209C585.534 28.7033 586.136 30.1974 587.279 31.5034C588.503 32.7222 590.505 34.5022 593.286 36.8433C593.983 37.4917 594.768 38.2211 595.64 39.0316C596.596 39.839 597.421 40.5249 598.116 41.0891C598.551 41.4944 598.944 41.8591 599.293 42.1833C599.722 42.4203 600.155 42.7414 600.591 43.1466C602.768 45.0887 604.561 46.9184 605.972 48.6358C607.382 50.3531 608.496 52.0392 609.315 53.6939C610.13 55.2645 610.695 56.8863 611.008 58.5595C611.322 60.2326 611.516 62.0786 611.59 64.0974C611.697 67.0415 611.635 69.9497 611.403 72.822C611.255 75.6912 610.384 78.3762 608.791 80.877C607.84 82.512 606.711 83.9009 605.405 85.0435C604.183 86.1831 602.955 87.1544 601.721 87.9575C600.487 88.7606 599.331 89.3924 598.253 89.8529C597.174 90.3134 596.302 90.6401 595.635 90.8329C594.803 91.1159 593.759 91.3646 592.504 91.5789C591.332 91.7901 590.117 91.9607 588.858 92.0909C587.603 92.3052 586.344 92.4353 585.082 92.4814C583.824 92.6116 582.69 92.6951 581.68 92.7319C580.334 92.781 578.817 92.7521 577.129 92.6453C575.527 92.6195 573.965 92.5081 572.442 92.311C570.918 92.1139 569.52 91.8701 568.246 91.5797C566.972 91.2893 565.989 90.904 565.298 90.4238C564.176 89.7067 563.521 89.0568 563.331 88.4741C563.142 87.8914 563.034 87.2636 563.01 86.5906C563.001 86.3383 562.982 85.8336 562.955 85.0765C563.011 84.3164 563.024 83.5158 562.993 82.6746C563.047 81.8303 563.06 81.0297 563.032 80.2726C563.088 79.5125 563.111 78.9642 563.098 78.6277C563.092 78.4595 563.038 78.1246 562.935 77.6229C562.914 77.0341 562.892 76.4453 562.871 75.8565C562.849 75.2676 562.787 74.7224 562.685 74.2208C562.663 73.632 562.648 73.2114 562.639 72.959C562.626 72.6226 562.608 72.1179 562.584 71.4449C562.643 70.7689 562.788 70.1319 563.019 69.5339C563.334 68.9328 563.778 68.4112 564.352 67.9691C564.922 67.4429 565.796 67.1583 566.974 67.1153C568.067 67.0754 568.954 67.1273 569.633 67.271C570.396 67.4116 571.168 67.8046 571.95 68.4499C572.383 68.771 572.774 69.0937 573.122 69.4179C573.471 69.742 573.86 70.0226 574.29 70.2596C574.894 70.6587 575.748 70.9645 576.851 71.177C577.95 71.3053 579.131 71.3464 580.393 71.3004C582.159 71.2359 583.831 70.8801 585.408 70.233C586.984 69.5858 587.737 68.2949 587.667 66.3602C587.642 65.6873 587.537 65.1015 587.35 64.603C587.16 64.0203 586.715 63.3627 586.015 62.6302C585.398 61.8946 584.481 61.0016 583.264 59.951C582.043 58.8163 580.431 57.359 578.429 55.579C578.255 55.4169 577.864 55.0943 577.257 54.6111C576.731 54.0407 576.162 53.4718 575.552 52.9045C574.942 52.3371 574.333 51.8118 573.726 51.3286C573.2 50.7582 572.807 50.3935 572.549 50.2345C570.898 48.8628 569.505 47.6081 568.368 46.4704C567.316 45.3296 566.251 43.8523 565.174 42.0385C563.649 39.4831 562.727 37.2847 562.407 35.4433C562.084 33.5178 561.875 31.2513 561.78 28.6436Z" fill="var(--fill-0, #00B289)"/>
<path id="Vector_2" d="M504.975 57.7541C504.923 56.3241 504.873 54.9362 504.824 53.5903C504.859 52.2414 504.976 50.8473 505.176 49.4081C505.245 48.9844 505.306 48.3505 505.36 47.5062C505.497 46.6589 505.633 45.7696 505.768 44.8381C505.983 43.8195 506.16 42.8866 506.297 42.0392C506.435 41.1919 506.58 40.5549 506.733 40.1282C506.805 39.7886 506.95 39.1516 507.168 38.2171C507.471 37.2796 507.895 36.2112 508.441 35.0121C508.987 33.8129 509.659 32.6092 510.457 31.4009C511.337 30.1053 512.389 28.9299 513.614 27.8744C515.166 26.5543 516.729 25.5286 518.302 24.7974C519.873 23.982 521.367 23.38 522.785 22.9913C524.203 22.6027 525.5 22.3869 526.678 22.3439C527.937 22.2137 529.029 22.1318 529.954 22.098C530.963 22.0612 532.142 22.0602 533.491 22.0952C534.84 22.1302 536.28 22.3304 537.809 22.6957C539.419 22.9739 541.039 23.5044 542.668 24.2872C544.381 25.067 546.021 26.1443 547.587 27.519C548.023 27.9243 548.812 28.7799 549.955 30.0858C551.179 31.3046 552.245 32.824 553.154 34.6438C553.969 36.2144 554.616 37.7912 555.095 39.3741C555.571 40.8728 555.925 42.5024 556.158 44.2627C556.475 46.02 556.673 47.9921 556.753 50.1792C556.914 52.279 557.043 54.6748 557.141 57.3666C557.206 59.1331 557.189 60.9867 557.092 62.9275C556.991 64.7843 556.844 66.5163 556.65 68.1238C556.54 69.7281 556.378 71.0817 556.166 72.1844C556.038 73.2841 555.975 73.876 555.978 73.9601C555.553 76.1656 554.837 78.4659 553.829 80.8611C552.906 83.2532 551.554 85.4504 549.774 87.4526C547.994 89.4549 545.739 91.1375 543.01 92.5006C540.277 93.7795 536.934 94.4911 532.98 94.6354C529.447 94.7643 526.153 94.5055 523.097 93.8589C520.044 93.2965 517.256 91.9242 514.734 89.7421C514.04 89.1778 513.21 88.3658 512.245 87.3061C511.277 86.1622 510.341 84.7644 509.439 83.1128C508.617 81.3739 507.825 79.2971 507.063 76.8822C506.301 74.4674 505.778 71.6648 505.493 68.4745C505.475 67.9698 505.416 67.5087 505.316 67.0912C505.301 66.6706 505.281 66.1238 505.256 65.4509C505.229 64.6938 505.193 63.7265 505.15 62.5488C505.107 61.3712 505.049 59.7729 504.975 57.7541ZM535.663 50.4434C535.645 49.9387 535.534 49.2268 535.332 48.3076C535.214 47.3854 534.97 46.4678 534.6 45.5548C534.227 44.5576 533.691 43.7349 532.994 43.0865C532.381 42.4351 531.569 42.1277 530.56 42.1646C529.719 42.1953 529.014 42.5158 528.447 43.1261C527.877 43.6523 527.393 44.2595 526.997 44.9478C526.685 45.633 526.458 46.3152 526.314 46.9943C526.17 47.6733 526.061 48.1406 525.986 48.396C525.711 50.0906 525.556 51.6124 525.521 52.9614C525.567 54.2231 525.672 55.946 525.836 58.13C525.851 58.5506 525.841 59.4353 525.806 60.7843C525.856 62.1301 525.888 63.0134 525.903 63.434C526.008 66.294 526.435 68.7631 527.184 70.8415C527.931 72.8358 529.272 73.7976 531.206 73.727C532.3 73.6871 533.292 73.1876 534.184 72.2286C535.072 71.1854 535.609 69.7339 535.794 67.8741C535.85 67.114 535.908 66.3959 535.968 65.7199C536.027 65.0439 536.036 64.1171 535.993 62.9394C536.034 61.7587 536.019 60.201 535.948 58.2663C535.878 56.3316 535.783 53.724 535.663 50.4434Z" fill="var(--fill-0, #00B289)"/>
<path id="Vector_3" d="M453.284 7.0814C453.704 7.06605 454.461 7.03842 455.555 6.99852C456.648 6.95861 457.826 6.91564 459.088 6.86959C460.346 6.73943 461.523 6.6544 462.616 6.61449C463.71 6.57459 464.509 6.54542 465.013 6.52701C465.602 6.50552 466.284 6.73331 467.06 7.21039C467.916 7.60028 468.417 8.63486 468.563 10.3141C468.705 11.9093 468.795 13.2116 468.832 14.221C468.95 15.1432 469.065 15.9813 469.176 16.7353C469.285 17.4052 469.352 18.0766 469.376 18.7495C469.482 19.3353 469.634 20.0457 469.833 20.8807C470.137 22.3015 470.349 23.473 470.467 24.3952C470.669 25.3144 470.827 26.193 470.942 27.0311C471.054 27.7851 471.126 28.6247 471.16 29.55C471.275 30.3881 471.4 31.5206 471.537 32.9475C471.586 34.2934 471.674 35.5536 471.801 36.7282C471.925 37.8187 472.051 38.9512 472.178 40.1258C472.386 41.2132 472.597 42.3847 472.811 43.6403C473.11 44.8928 473.414 46.3136 473.725 47.9026C473.731 48.0709 473.798 48.7423 473.925 49.9168C474.133 51.0042 474.304 52.2193 474.437 53.5621C474.654 54.9019 474.828 56.2011 474.958 57.4598C475.172 58.7154 475.329 59.552 475.429 59.9695C475.64 61.141 475.881 61.9745 476.152 62.47C476.504 62.8783 476.764 63.0794 476.932 63.0732C477.1 63.0671 477.264 62.9348 477.423 62.6763C477.579 62.3337 477.694 62.0347 477.769 61.7793C477.841 61.4397 477.938 60.636 478.06 59.3681C478.179 58.0161 478.255 56.6235 478.287 55.1905C478.4 53.6702 478.475 52.2777 478.513 51.0128C478.551 49.748 478.566 48.9894 478.556 48.7371C478.697 47.9739 478.796 47.2122 478.852 46.4521C478.99 45.6048 479.127 44.7575 479.265 43.9102C479.612 41.876 479.748 39.8495 479.675 37.8307C479.685 35.8088 479.697 33.829 479.711 31.8912C479.746 30.5423 479.782 29.2354 479.82 27.9705C479.939 26.6185 480.099 25.2229 480.299 23.7837C480.365 23.2759 480.43 22.7682 480.496 22.2604C480.562 21.7526 480.67 21.2433 480.819 20.7325C480.885 20.2247 480.943 19.5066 480.994 18.5783C481.041 17.5658 481.088 16.5533 481.135 15.5408C481.183 14.5283 481.231 13.5579 481.282 12.6296C481.329 11.6171 481.344 10.8585 481.325 10.3538C481.31 9.9332 481.296 9.55467 481.284 9.21821C481.352 8.79455 481.463 8.36935 481.616 7.94263C481.616 7.94263 481.738 7.81185 481.981 7.55029C482.224 7.28873 482.467 7.02717 482.71 6.7656C483.038 6.50098 483.366 6.2784 483.697 6.09789C484.024 5.83326 484.314 5.69634 484.566 5.68713C484.987 5.67179 485.325 5.70157 485.58 5.77647C485.664 5.7734 486.002 5.80318 486.594 5.86581C487.183 5.84432 487.814 5.8213 488.487 5.79674C489.244 5.76912 490.002 5.78355 490.763 5.84004C491.604 5.80934 492.361 5.78171 493.034 5.75715C493.286 5.74795 493.665 5.73413 494.169 5.71571C494.758 5.69423 495.389 5.6712 496.062 5.64665C496.732 5.53797 497.361 5.47289 497.95 5.45141C498.539 5.42992 498.959 5.41457 499.212 5.40536C499.38 5.39922 499.843 5.38234 500.6 5.35471C501.438 5.2399 501.983 5.17789 502.235 5.16868C504.338 5.09194 505.425 6.02091 505.496 7.95561C505.502 8.12385 505.477 8.58803 505.42 9.34815C505.445 10.0211 505.352 10.951 505.143 12.1378C504.999 12.8169 504.815 13.5396 504.59 14.3059C504.45 15.0691 504.308 15.7902 504.164 16.4693C503.948 17.4879 503.747 18.885 503.559 20.6607C503.368 22.3523 503.256 23.9146 503.224 25.3476C503.24 25.7682 503.213 26.1903 503.144 26.614C503.16 27.0346 503.175 27.4552 503.19 27.8758C503.131 28.5518 503.028 29.1873 502.881 29.7822C502.818 30.3741 502.756 30.966 502.693 31.5579C502.708 31.9785 502.724 32.3991 502.739 32.8196C502.751 33.1561 502.723 33.5362 502.654 33.9598C502.535 35.3118 502.332 36.6669 502.045 38.0251C501.838 39.2961 501.59 40.5686 501.299 41.8426C500.946 43.7085 500.676 45.5293 500.488 47.305C500.384 49.0776 500.196 50.8533 499.924 52.632L499.024 59.1085C498.892 60.124 498.761 61.1395 498.629 62.1551C498.582 63.1676 498.493 64.1816 498.361 65.1971C497.97 68.3279 497.448 71.3371 496.796 74.2247C496.505 75.4987 496.249 76.561 496.028 77.4113C495.89 78.2586 495.709 79.0654 495.484 79.8317C495.344 80.5949 495.206 81.4422 495.072 82.3736C494.934 83.2209 494.764 84.3221 494.56 85.6772C494.163 88.6398 493.656 90.8904 493.038 92.429C492.417 93.8836 490.971 94.6523 488.7 94.7352C487.943 94.7628 486.513 94.815 484.41 94.8917C482.391 94.9654 480.204 95.0452 477.849 95.1312C475.578 95.214 473.349 95.2954 471.162 95.3752C469.059 95.4519 467.587 95.5057 466.745 95.5364C465.231 95.5916 464.21 95.292 463.68 94.6375C463.232 93.8958 462.675 92.4842 462.01 90.4027C461.63 89.2374 461.243 87.8617 460.848 86.2758C460.454 84.6898 460.059 83.1039 459.664 81.5179C459.266 79.8478 458.915 78.3024 458.61 76.8816C458.303 75.3767 458.046 74.1226 457.841 73.1194C457.739 72.6177 457.54 71.7827 457.245 70.6143C456.949 69.4458 456.609 68.1948 456.223 66.8612C455.919 65.4404 455.617 64.1038 455.319 62.8512C455.02 61.5986 454.82 60.7216 454.717 60.2199C454.618 59.8024 454.47 59.2182 454.274 58.4673C454.079 57.7164 453.881 56.9234 453.682 56.0884C453.564 55.1661 453.407 54.3296 453.212 53.5786C453.1 52.8247 452.994 52.2389 452.895 51.8214C452.792 51.3198 452.69 50.8181 452.587 50.3165C452.566 49.7277 452.504 49.1824 452.401 48.6808C452.305 48.3474 452.208 48.014 452.112 47.6806C452.1 47.3441 452.045 47.0092 451.949 46.6758C451.352 44.1707 450.856 42.1252 450.462 40.5392C450.067 38.9533 449.723 37.6181 449.431 36.5338C449.22 35.3623 449.012 34.2749 448.807 33.2717C448.602 32.2684 448.389 31.0548 448.168 29.631C447.842 27.6214 447.473 25.5712 447.06 23.4806C446.646 21.3899 446.245 19.6357 445.857 18.218C445.558 16.9655 445.353 15.9622 445.242 15.2082C445.043 14.3732 444.922 13.3668 444.879 12.1892C444.869 11.9368 444.898 11.5568 444.963 11.049C444.942 10.4602 445.006 9.91035 445.156 9.39951C445.387 8.80148 445.705 8.2845 446.11 7.84856C446.515 7.41263 447.138 7.17931 447.98 7.14861C448.4 7.13327 448.738 7.16304 448.994 7.23795L453.284 7.0814Z" fill="var(--fill-0, #00B289)"/>
<path id="Vector_4" d="M405.101 63.263C405.423 62.8301 405.862 62.1824 406.42 61.3197C406.975 60.3729 407.179 59.0178 407.03 57.2544C407.024 57.0862 406.973 56.8354 406.876 56.502C406.861 56.0814 406.85 55.787 406.844 55.6188C406.813 54.7776 407.038 54.0113 407.518 53.32C408.082 52.6255 408.953 52.2568 410.131 52.2139C410.383 52.2047 410.595 52.239 410.767 52.317C411.019 52.3078 411.271 52.2986 411.524 52.2894C412.455 52.4239 413.467 52.4711 414.561 52.4312C415.739 52.3883 416.37 52.3652 416.454 52.3622C416.706 52.353 417.293 52.2894 418.216 52.1715C419.222 52.0506 419.851 51.9855 420.104 51.9763C420.692 51.9548 421.373 52.1405 422.145 52.5335C423.002 52.9234 423.452 53.7072 423.495 54.8848C423.516 55.4736 423.445 56.9923 423.282 59.441C423.119 61.8896 422.67 64.6013 421.936 67.5761C421.271 70.1272 420.625 72.046 419.998 73.3323C419.369 74.5345 418.696 75.7382 417.982 76.9435C417.661 77.3763 417.225 78.1082 416.673 79.1391C416.202 80.0828 415.974 80.765 415.989 81.1856C416.002 81.522 416.1 81.8975 416.283 82.3119C416.548 82.6392 417.261 83.7082 418.422 85.5188C419.854 87.825 421.109 89.927 422.189 91.8249C423.354 93.7197 423.946 94.9615 423.968 95.5503C423.999 96.3915 423.682 96.9505 423.018 97.2274C422.355 97.5043 421.686 97.6551 421.013 97.6796C420.761 97.6888 420.298 97.7057 419.625 97.7303C418.949 97.6707 418.191 97.6563 417.35 97.687C416.589 97.6305 415.831 97.6161 415.074 97.6437C414.398 97.5841 413.934 97.559 413.681 97.5682C412.756 97.6019 411.874 97.6762 411.036 97.791C410.195 97.8217 409.312 97.854 408.387 97.8877C408.218 97.8939 407.757 97.9528 407.003 98.0646C406.33 98.0891 405.952 98.1029 405.868 98.106C405.615 98.1152 405.403 98.0808 405.232 98.0028C405.061 97.9249 404.844 97.7643 404.583 97.5212C404.321 97.278 403.971 96.9118 403.532 96.4224C403.177 95.93 402.646 95.2334 401.94 94.3327C400.045 95.4968 397.771 96.6747 395.12 97.8665C392.468 99.0583 389.249 99.7232 385.464 99.8613C381.763 99.9964 378.886 99.6381 376.833 98.7865C374.865 97.9318 373.322 97.188 372.203 96.5549C369.444 94.8026 367.445 93.1067 366.206 91.4673C365.048 89.7408 364.106 88.1748 363.381 86.7693C362.837 85.6942 362.337 84.7017 361.883 83.7918C361.429 82.8818 361.015 81.9283 360.641 80.9312C360.352 79.931 360.102 78.8451 359.891 77.6736C359.764 76.499 359.669 75.0706 359.608 73.3882C359.544 71.6218 359.527 70.022 359.559 68.5889C359.675 67.1528 359.836 65.7993 360.043 64.5283C360.333 63.2542 360.751 62.0177 361.297 60.8185C361.84 59.5353 362.551 58.2459 363.43 56.9504C364.069 56.0005 364.955 54.8732 366.086 53.5685C367.218 52.2637 368.479 51.0385 369.869 49.8928C370.196 49.6282 370.523 49.3636 370.851 49.0989C371.178 48.8343 371.505 48.5697 371.832 48.305C372.484 47.6917 373.053 47.1234 373.539 46.6003C374.022 45.993 374.252 45.3529 374.227 44.68C374.215 44.3435 374.073 43.9276 373.803 43.4321C373.529 42.8525 373.256 42.3149 372.986 41.8194C372.895 41.6542 372.67 41.2413 372.309 40.5807C371.948 39.92 371.58 39.0911 371.207 38.094C370.831 37.0127 370.45 35.8053 370.064 34.4717C369.763 33.135 369.584 31.7097 369.529 30.1955C369.505 29.5226 369.514 28.6378 369.559 27.5412C369.6 26.3605 369.766 25.1332 370.056 23.8591C370.343 22.501 370.755 21.0961 371.292 19.6447C371.913 18.1901 372.705 16.8135 373.668 15.5149C375.28 13.5188 377.452 11.8813 380.185 10.6024C382.915 9.23932 385.5 8.51328 387.939 8.42426C389.705 8.3598 391.519 8.41998 393.378 8.6048C395.235 8.7055 397.278 9.30477 399.508 10.4026C400.539 10.9546 401.62 11.7153 402.75 12.6848C403.878 13.5702 404.93 14.711 405.907 16.1073C406.882 17.4194 407.697 18.99 408.354 20.8191C409.007 22.564 409.375 24.5721 409.458 26.8433C409.473 27.2639 409.459 28.0225 409.415 29.119C409.367 30.1315 409.242 31.3153 409.039 32.6704C408.836 34.0255 408.511 35.5114 408.064 37.128C407.699 38.6575 407.122 40.1525 406.333 41.6132C404.755 44.5346 402.669 47.3903 400.076 50.1803C399.031 51.5661 398.517 52.4692 398.532 52.8898C398.538 53.0581 398.633 53.3494 398.817 53.7639C399.084 54.1752 399.31 54.5881 399.494 55.0026C399.939 55.6602 400.563 56.606 401.366 57.8402C402.253 59.0712 403.498 60.8789 405.101 63.263ZM389.218 36.5523C389.951 35.8517 390.841 34.8506 391.888 33.549C393.02 32.2442 393.55 30.6245 393.48 28.6898C393.424 27.1757 392.883 26.1847 391.855 25.7168C390.908 25.1618 390.182 24.8935 389.678 24.9119C388.837 24.9426 388.053 25.3923 387.326 26.2611C386.6 27.1299 386.263 28.2793 386.315 29.7093C386.355 30.8028 386.653 32.0554 387.21 33.467C387.764 34.7944 388.433 35.8229 389.218 36.5523ZM383.544 64.5551C382.886 65.0002 382.395 65.3972 382.071 65.7459C381.669 66.266 381.234 67.0399 380.766 68.0677C380.295 69.0114 380.084 70.1562 380.133 71.5021C380.152 72.0068 380.262 72.7187 380.464 73.6379C380.666 74.557 381.036 75.4701 381.575 76.3769C382.194 77.1966 383.021 77.9245 384.055 78.5606C385.173 79.1936 386.615 79.4779 388.382 79.4135C389.223 79.3828 390.268 79.1762 391.518 78.7936C391.427 78.6285 391.339 78.5054 391.252 78.4243C391.245 78.2561 391.197 78.0894 391.107 77.9242C390.933 77.7621 390.623 77.3523 390.178 76.6947C389.814 75.9499 389.543 75.4544 389.365 75.2082C388.379 73.5596 387.615 72.2399 387.073 71.2489C386.531 70.2579 386.082 69.4741 385.724 68.8976C385.45 68.3179 385.223 67.863 385.042 67.5327C384.862 67.2023 384.725 66.9125 384.631 66.6632C384.27 66.0026 384.045 65.5897 383.955 65.4245C383.861 65.1752 383.724 64.8854 383.544 64.5551Z" fill="var(--fill-0, #00B289)"/>
<path id="Vector_5" d="M337.705 96.1601C337.757 97.5901 337.291 98.6599 336.306 99.3697C335.402 99.9923 334.659 100.398 334.076 100.588C332.911 100.968 331.238 101.281 329.057 101.529C326.96 101.774 324.862 101.977 322.762 102.138C320.749 102.38 318.944 102.53 317.345 102.589C315.75 102.731 314.911 102.804 314.826 102.807C311.882 102.914 309.309 102.798 307.107 102.457C304.985 102.029 303.244 101.629 301.883 101.258C300.693 100.964 299.841 100.7 299.327 100.466C298.81 100.148 298.074 99.5857 297.118 98.7783C295.645 97.6528 294.474 96.7269 293.605 96.0006C292.736 95.2742 291.995 94.5853 291.382 93.9339C290.852 93.2793 290.365 92.6233 289.92 91.9657C289.559 91.305 289.192 90.4761 288.819 89.479C288.259 87.9833 287.793 86.7789 287.423 85.8659C287.134 84.8657 286.892 83.9902 286.696 83.2393C286.497 82.4042 286.34 81.5677 286.225 80.7296C286.191 79.8043 286.108 78.6702 285.975 77.3274C285.965 77.0751 285.906 76.6139 285.798 75.9441C285.773 75.2711 285.705 74.5577 285.593 73.8037C285.478 72.9656 285.367 72.2116 285.258 71.5417C285.23 70.7847 285.212 70.28 285.203 70.0276C285.169 69.1023 285.177 68.1755 285.228 67.2471C285.275 66.2347 285.282 65.2658 285.248 64.3405C285.346 62.3996 285.358 60.4198 285.284 58.401C285.207 56.2981 285.342 54.2295 285.689 52.1954C285.892 50.8403 286.226 49.6068 286.691 48.4948C287.237 47.2957 287.747 46.2663 288.221 45.4067C288.692 44.463 289.127 43.6891 289.526 43.0849C289.925 42.4807 290.206 42.0915 290.368 41.9171C291.574 40.3569 292.958 39.043 294.52 37.9753C296.165 36.9045 297.902 36.0409 299.732 35.3845C301.558 34.6441 303.391 34.1139 305.233 33.794C307.071 33.39 308.831 33.1573 310.514 33.0959C315.813 32.9025 319.961 33.4671 322.957 34.7897C326.034 36.025 328.576 37.5748 330.581 39.4388C330.843 39.682 331.327 40.2539 332.034 41.1547C332.824 42.0523 333.627 43.2865 334.443 44.8571C335.255 46.3436 335.996 48.1696 336.664 50.3351C337.33 52.4166 337.713 54.8452 337.815 57.6211C337.858 58.7988 337.858 59.9779 337.817 61.1586C337.773 62.2552 337.772 63.3924 337.815 64.57L337.921 67.4721C337.949 68.2291 337.974 68.902 337.995 69.4909C338.013 69.9956 337.948 70.5034 337.798 71.0142C337.717 71.1014 337.516 71.3614 337.195 71.7943C336.958 72.2241 336.637 72.6569 336.231 73.0929C335.826 73.5288 335.337 73.9678 334.763 74.4099C334.187 74.7678 333.604 74.9576 333.015 74.979C332.763 74.9883 332.13 74.9692 331.118 74.9219C330.105 74.8747 329.431 74.8572 329.095 74.8694C328.842 74.8786 328.507 74.933 328.09 75.0324C327.753 75.0447 327.166 75.1083 326.328 75.2231C325.49 75.3379 324.441 75.4604 323.183 75.5905C322.005 75.6335 320.954 75.6719 320.028 75.7057C319.608 75.721 319.145 75.7379 318.64 75.7563C318.22 75.7717 317.756 75.7465 317.248 75.6808C317.08 75.6869 316.785 75.6977 316.365 75.713C315.941 75.6443 315.477 75.6191 314.972 75.6375C314.464 75.5718 313.958 75.5482 313.453 75.5666C313.03 75.4978 312.776 75.4649 312.692 75.468C310.252 75.557 308.83 75.8195 308.425 76.2555C308.019 76.6914 307.838 77.4982 307.881 78.6758C307.906 79.3488 307.93 80.0217 307.955 80.6946C308.061 81.2804 308.333 81.8179 308.772 82.3073C309.488 83.4604 310.315 84.1883 311.252 84.491C312.187 84.7096 313.247 84.9236 314.434 85.1329C315.113 85.2766 315.876 85.4172 316.724 85.5547C317.652 85.6051 318.2 85.6272 318.369 85.6211L318.621 85.6119C320.135 85.5566 322.023 85.3614 324.285 85.0261C326.544 84.6068 328.334 84.0361 329.655 83.314C330.565 82.8597 331.187 82.5843 331.52 82.4879C331.854 82.3915 332.357 82.331 333.03 82.3065C334.039 82.2696 334.804 82.4523 335.324 82.8545C335.925 83.1694 336.363 83.6167 336.636 84.1964C336.907 84.6919 337.055 85.2761 337.079 85.949C337.188 86.6189 337.253 87.2482 337.275 87.837C337.345 89.7717 337.396 91.1597 337.427 92.0008C337.457 92.842 337.524 93.5134 337.627 94.0151L337.705 96.1601ZM317.287 55.9697C317.188 53.2779 316.571 51.3632 315.434 50.2255C314.298 49.0877 313.141 48.5403 311.963 48.5833C311.627 48.5956 311.334 48.6484 311.085 48.7417C310.916 48.7479 310.583 48.8443 310.084 49.0309C309.67 49.2145 309.215 49.4417 308.719 49.7124C308.305 49.896 307.901 50.374 307.508 51.1464C307.515 51.3147 307.404 51.7399 307.176 52.422C307.032 53.1011 306.892 53.8643 306.754 54.7116C306.617 55.5589 306.477 56.3642 306.337 57.1273C306.196 57.8905 306.131 58.3983 306.14 58.6507C306.198 60.2489 306.487 61.2491 307.007 61.6513C307.524 61.9693 308.119 62.1161 308.792 62.0915C309.129 62.0792 309.802 62.0547 310.811 62.0178C311.901 61.8938 312.657 61.8241 313.078 61.8088C313.246 61.8026 313.584 61.8324 314.092 61.8981C314.596 61.8797 314.933 61.8674 315.101 61.8613C315.774 61.8367 316.313 61.6065 316.718 61.1705C317.208 60.7315 317.438 60.1335 317.411 59.3765L317.287 55.9697Z" fill="var(--fill-0, #00B289)"/>
<path id="Vector_6" d="M233.776 16.1865C234.197 16.1712 234.912 16.1451 235.921 16.1083C237.012 15.9842 238.146 15.9007 239.324 15.8578C240.582 15.7276 241.758 15.6426 242.852 15.6027C243.942 15.4786 244.698 15.409 245.118 15.3936C247.81 15.2954 250.51 15.4074 253.217 15.7298C255.921 15.968 258.476 16.7592 260.884 18.1032C261.23 18.3433 261.921 18.8234 262.958 19.5437C264.076 20.1767 265.333 21.1416 266.728 22.4384C268.12 23.651 269.522 25.1581 270.936 26.9595C272.349 28.761 273.603 30.821 274.699 33.1394C275.707 35.3768 276.511 37.7901 277.111 40.3793C277.795 42.9655 278.351 45.5142 278.78 48.0254C279.205 50.4526 279.5 52.7581 279.664 54.9421C279.825 57.0419 279.928 58.7228 279.974 59.9845C280.023 61.3304 280.008 63.2261 279.929 65.6717C279.85 68.1172 279.451 71.0377 278.733 74.4331C277.73 79.2707 276.129 83.8775 273.931 88.2535C271.879 92.0344 269.67 94.9788 267.304 97.0867C264.938 99.1945 262.554 100.798 260.151 101.896C257.746 102.91 255.37 103.587 253.024 103.925C250.759 104.176 248.659 104.337 246.724 104.408C246.472 104.417 246.009 104.434 245.336 104.458C244.744 104.396 244.07 104.378 243.313 104.406C242.637 104.346 241.962 104.329 241.29 104.353C240.614 104.294 240.149 104.268 239.897 104.278C239.561 104.29 238.931 104.355 238.009 104.473C237.087 104.591 236.122 104.71 235.116 104.831C234.107 104.868 233.141 104.945 232.219 105.063C231.296 105.181 230.667 105.246 230.331 105.258C229.405 105.292 228.48 105.326 227.555 105.36C226.626 105.309 225.778 105.13 225.008 104.821C224.236 104.428 223.583 103.862 223.051 103.124C222.6 102.298 222.348 101.17 222.296 99.7399C222.281 99.3193 222.265 98.8987 222.25 98.4781C222.316 97.9703 222.341 97.5062 222.325 97.0856C222.391 96.5778 222.373 96.0731 222.27 95.5715C222.249 94.9826 222.271 94.4344 222.336 93.9266C222.327 93.6742 222.312 93.2536 222.29 92.6648C222.353 92.0729 222.372 91.4405 222.348 90.7676C222.407 90.0916 222.426 89.4592 222.405 88.8703C222.464 88.1943 222.489 87.7301 222.48 87.4778C222.437 86.3001 222.352 85.124 222.225 83.9495C222.098 82.7749 222.013 81.5988 221.97 80.4211C221.852 79.4989 221.73 78.4505 221.602 77.2759C221.556 76.0142 221.468 74.754 221.338 73.4953C221.292 72.2335 221.251 71.0979 221.214 70.0885C221.174 68.995 221.145 68.1959 221.126 67.6912C221.114 67.3547 221.094 66.8079 221.067 66.0509C221.12 65.2066 221.13 64.3219 221.096 63.3966C221.059 62.3872 221.025 61.4619 220.995 60.6207C221.048 59.7765 221.069 59.1861 221.056 58.8496C221.041 58.4291 220.97 57.6315 220.843 56.4569C220.8 55.2793 220.712 54.019 220.578 52.6762C220.529 51.3304 220.441 50.0701 220.314 48.8956C220.268 47.6338 220.236 46.7506 220.217 46.2459C220.202 45.8253 220.174 45.0682 220.135 43.9747C220.176 42.794 220.173 41.5727 220.127 40.311C220.081 39.0492 220.038 37.8716 219.998 36.7781C220.039 35.5973 220.051 34.7546 220.032 34.2499C220.02 33.9135 219.953 33.2421 219.833 32.2357C219.796 31.2263 219.715 30.1764 219.591 29.0859C219.551 27.9924 219.471 26.9425 219.35 25.9361C219.313 24.9267 219.287 24.2117 219.272 23.7911C219.25 23.2023 219.224 22.4873 219.193 21.6461C219.247 20.8019 219.428 19.9951 219.737 19.2258C220.13 18.4534 220.653 17.8025 221.308 17.2733C222.047 16.7409 223.131 16.4487 224.561 16.3965C224.897 16.3842 225.486 16.3627 226.327 16.332C227.253 16.2983 228.18 16.3066 229.108 16.3569C230.117 16.3201 231.043 16.2863 231.884 16.2556C232.725 16.2249 233.356 16.2019 233.776 16.1865ZM246.415 37.0775C245.322 37.1174 244.49 37.4004 243.919 37.9266C243.346 38.3687 242.945 38.9308 242.717 39.6129C242.49 40.2951 242.346 40.9742 242.286 41.6502C242.311 42.3231 242.331 42.8699 242.346 43.2905C242.371 43.9634 242.395 44.6363 242.42 45.3093C242.525 45.895 242.59 46.5244 242.615 47.1973C242.742 48.3719 242.836 49.8004 242.898 51.4827C243.04 53.0779 243.142 54.7166 243.204 56.399C243.216 56.7354 243.237 57.3243 243.268 58.1654C243.296 58.9225 243.286 59.8073 243.239 60.8197C243.272 61.745 243.305 62.6282 243.335 63.4694C243.366 64.3106 243.387 64.8994 243.4 65.2359C243.409 65.4882 243.424 65.9088 243.446 66.4977C243.551 67.0834 243.616 67.7127 243.641 68.3857C243.75 69.0555 243.815 69.6849 243.836 70.2737C243.942 70.8595 243.999 71.2785 244.008 71.5309C244.015 71.6991 244.027 72.0356 244.045 72.5403C244.064 73.045 244.042 73.5933 243.979 74.1852C244 74.774 244.02 75.3208 244.039 75.8255C244.057 76.3302 244.071 76.7087 244.08 76.961C244.12 78.0546 244.151 78.8957 244.172 79.4846C244.278 80.0703 244.426 80.6545 244.615 81.2372C245.091 82.736 245.838 83.5931 246.857 83.8086C247.876 84.0242 248.511 84.1273 248.763 84.1181C248.848 84.115 249.14 84.0622 249.642 83.9597C250.228 83.8541 250.85 83.5787 251.507 83.1336C252.162 82.6043 252.808 81.8648 253.448 80.9149C254.084 79.8809 254.494 78.4341 254.679 76.5743C254.986 73.4466 255.233 70.9949 255.421 69.2192C255.609 67.4435 255.727 66.0495 255.774 65.037C255.906 64.0215 255.962 63.2613 255.944 62.7566C255.925 62.2519 255.904 61.6631 255.879 60.9902C255.827 59.5602 255.733 58.1317 255.596 56.7048C255.46 55.2779 255.282 53.8525 255.061 52.4286C254.934 51.254 254.712 49.7881 254.395 48.0309C254.076 46.1895 253.592 44.4804 252.945 42.9037C252.379 41.2398 251.57 39.8374 250.517 38.6966C249.465 37.5558 248.097 37.0161 246.415 37.0775Z" fill="var(--fill-0, #00B289)"/>
<path id="Vector_7" d="M105.737 71.3833C105.685 69.9533 105.634 68.5654 105.585 67.2195C105.62 65.8705 105.738 64.4765 105.938 63.0373C106.007 62.6136 106.068 61.9796 106.121 61.1354C106.259 60.2881 106.395 59.3987 106.529 58.4673C106.745 57.4487 106.921 56.5157 107.059 55.6684C107.196 54.8211 107.341 54.1841 107.494 53.7573C107.566 53.4178 107.711 52.7808 107.93 51.8463C108.233 50.9087 108.657 49.8404 109.203 48.6412C109.749 47.4421 110.421 46.2384 111.219 45.03C112.098 43.7345 113.15 42.559 114.375 41.5036C115.927 40.1835 117.49 39.1578 119.064 38.4265C120.635 37.6112 122.129 37.0091 123.546 36.6205C124.964 36.2318 126.262 36.016 127.439 35.973C128.698 35.8429 129.79 35.7609 130.715 35.7271C131.725 35.6903 132.904 35.6894 134.253 35.7244C135.602 35.7594 137.041 35.9596 138.571 36.3249C140.181 36.603 141.801 37.1335 143.43 37.9164C145.143 38.6962 146.782 39.7734 148.349 41.1482C148.785 41.5534 149.574 42.409 150.717 43.715C151.94 44.9338 153.006 46.4531 153.915 48.273C154.731 49.8436 155.378 51.4203 155.857 53.0032C156.332 54.502 156.687 56.1315 156.919 57.8919C157.236 59.6491 157.435 61.6213 157.514 63.8083C157.675 65.9082 157.805 68.304 157.903 70.9957C157.967 72.7622 157.951 74.6159 157.853 76.5567C157.753 78.4134 157.605 80.1455 157.411 81.7529C157.301 83.3573 157.14 84.7109 156.928 85.8136C156.799 86.9133 156.737 87.5051 156.74 87.5893C156.315 89.7947 155.599 92.0951 154.591 94.4902C153.668 96.8824 152.316 99.0795 150.536 101.082C148.756 103.084 146.501 104.767 143.771 106.13C141.038 107.409 137.695 108.12 133.742 108.265C130.209 108.393 126.914 108.135 123.858 107.488C120.806 106.926 118.018 105.553 115.496 103.371C114.801 102.807 113.972 101.995 113.006 100.935C112.038 99.7913 111.103 98.3936 110.2 96.7419C109.379 95.0031 108.587 92.9262 107.825 90.5114C107.063 88.0965 106.54 85.294 106.255 82.1036C106.236 81.5989 106.177 81.1378 106.078 80.7203C106.062 80.2997 106.042 79.753 106.018 79.08C105.99 78.323 105.955 77.3556 105.912 76.178C105.869 75.0003 105.811 73.4021 105.737 71.3833ZM136.425 64.0726C136.406 63.5679 136.296 62.8559 136.094 61.9368C135.976 61.0146 135.732 60.0969 135.362 59.1839C134.988 58.1868 134.453 57.364 133.756 56.7157C133.142 56.0642 132.331 55.7569 131.321 55.7937C130.48 55.8244 129.776 56.1449 129.209 56.7552C128.638 57.2814 128.155 57.8887 127.759 58.577C127.447 59.2622 127.219 59.9443 127.076 60.6234C126.932 61.3025 126.823 61.7697 126.748 62.0252C126.473 63.7198 126.318 65.2416 126.283 66.5905C126.329 67.8523 126.434 69.5751 126.598 71.7591C126.613 72.1797 126.603 73.0645 126.568 74.4134C126.617 75.7593 126.649 76.6425 126.665 77.0631C126.769 79.9231 127.196 82.3923 127.946 84.4707C128.692 86.4649 130.033 87.4268 131.968 87.3562C133.061 87.3162 134.054 86.8168 134.945 85.8577C135.834 84.8145 136.37 83.3631 136.555 81.5033C136.612 80.7431 136.67 80.0251 136.729 79.3491C136.789 78.6731 136.797 77.7462 136.754 76.5686C136.795 75.3879 136.781 73.8302 136.71 71.8955C136.639 69.9608 136.544 67.3531 136.425 64.0726Z" fill="var(--fill-0, #00B289)"/>
<path id="Vector_8" d="M58.3406 25.7339C58.3221 25.2292 58.3007 24.6404 58.2761 23.9674C58.3357 23.2914 58.4824 22.6965 58.7163 22.1826C58.9472 21.5845 59.3494 21.0645 59.9229 20.6224C60.4963 20.1803 61.3298 19.9393 62.4233 19.8994C62.6757 19.8902 63.0978 19.9169 63.6897 19.9796C64.2785 19.9581 64.911 19.9771 65.587 20.0367C66.344 20.0091 67.0605 20.025 67.7366 20.0846C68.4095 20.06 68.8721 20.0431 69.1245 20.0339C69.7974 20.0094 70.3863 19.9879 70.891 19.9695C71.4767 19.8639 72.064 19.8003 72.6528 19.7788C73.3227 19.6702 73.91 19.6066 74.4147 19.5882C75.0035 19.5667 75.5923 19.5452 76.1811 19.5237C76.6858 19.5053 77.2341 19.5274 77.826 19.59C78.4149 19.5686 78.9662 19.6748 79.4801 19.9087C79.991 20.0585 80.4238 20.3796 80.7787 20.8721C81.1336 21.3645 81.328 22.0734 81.3617 22.9987C81.3771 23.4192 81.3488 23.7993 81.277 24.1388C81.2862 24.3912 81.2985 24.7277 81.3138 25.1482C81.2543 25.8243 81.2008 26.6685 81.1535 27.681C81.1032 28.6093 81.0559 29.6218 81.0117 30.7184C81.0516 31.8119 81.0495 32.907 81.0052 34.0036C81.0421 35.013 81.0758 35.9383 81.1065 36.7795C81.1188 37.1159 81.1403 37.7047 81.171 38.5459C81.2828 39.2999 81.357 40.1816 81.3939 41.191C81.4276 42.1163 81.4599 42.9995 81.4906 43.8407C81.6054 44.6788 81.6689 45.2661 81.6812 45.6026C81.6904 45.8549 81.6652 46.3191 81.6057 46.9951C81.6302 47.6681 81.6579 48.4251 81.6886 49.2663C81.7162 50.0233 81.7018 50.7819 81.6453 51.5421C81.6698 52.215 81.6867 52.6776 81.6959 52.93C81.7051 53.1823 81.722 53.645 81.7466 54.3179C81.8522 54.9037 81.9188 55.5751 81.9464 56.3321C82.0582 57.0861 82.1263 57.7996 82.1509 58.4725C82.2596 59.1424 82.3185 59.6035 82.3277 59.8559C82.3369 60.1082 82.3087 60.4883 82.243 60.996C82.2583 61.4166 82.2829 62.0896 82.3166 63.0149C82.2694 64.0273 82.2687 65.1645 82.3148 66.4262C82.3578 67.6039 82.3992 68.7395 82.4391 69.833C82.4483 70.0853 82.4637 70.5059 82.4851 71.0947C82.5877 71.5964 82.6512 72.1837 82.6758 72.8566C82.7003 73.5295 82.7234 74.1604 82.7449 74.7492C82.8505 75.335 82.9079 75.754 82.9171 76.0064C82.9232 76.1746 82.9011 76.7229 82.8508 77.6513C82.8845 78.5766 82.906 79.1654 82.9152 79.4177C82.9766 81.1001 83.4119 82.6424 84.2212 84.0448C85.0304 85.4472 86.5332 86.2346 88.7294 86.4072C88.9818 86.398 89.3618 86.4262 89.8696 86.4919C90.3743 86.4735 90.879 86.4551 91.3837 86.4367C91.9725 86.4152 92.5193 86.3952 93.024 86.3768C93.6128 86.3553 94.0755 86.3384 94.4119 86.3262C94.7484 86.3139 95.4619 86.2457 96.5523 86.1217C97.6428 85.9977 98.3983 85.928 98.8189 85.9126C100.081 85.8666 101.056 86.0416 101.744 86.4376C102.429 86.7495 102.957 87.362 103.327 88.275C103.694 89.1039 103.906 90.2754 103.961 91.7895C104.097 93.2164 104.205 95.0234 104.285 97.2105C104.294 97.4628 104.269 97.927 104.209 98.603C104.231 99.1918 104.255 99.8648 104.283 100.622C104.311 101.379 104.295 102.095 104.235 102.771C104.26 103.444 104.277 103.907 104.286 104.159C104.323 105.169 104.142 105.976 103.742 106.58C103.34 107.1 102.89 107.453 102.391 107.64C102.145 107.817 101.855 107.954 101.522 108.051C101.27 108.06 100.807 108.077 100.134 108.101C99.7134 108.117 98.8286 108.107 97.4797 108.072C96.2149 108.034 95.3722 108.022 94.9516 108.038C94.6992 108.047 94.2786 108.062 93.6898 108.084C93.1851 108.102 92.6383 108.122 92.0495 108.144C91.4607 108.165 90.8719 108.187 90.2831 108.208C89.7784 108.226 89.3998 108.24 89.1475 108.249C88.5587 108.271 87.5072 108.309 85.9931 108.365C84.479 108.42 82.8807 108.478 81.1984 108.54C79.516 108.601 77.8757 108.661 76.2775 108.719C74.7634 108.774 73.7119 108.813 73.1231 108.834C72.8708 108.843 72.4097 108.902 71.7398 109.011C71.0668 109.036 70.3098 109.063 69.4686 109.094C68.7116 109.122 67.956 109.191 67.2021 109.303C66.5291 109.328 66.0665 109.344 65.8141 109.354C63.8794 109.424 62.5587 109.009 61.852 108.108C61.1422 107.124 60.7705 106.169 60.7367 105.243C60.7244 104.907 60.6983 104.192 60.6584 103.098C60.6996 101.918 60.714 101.159 60.7017 100.822C60.6434 99.2242 60.6271 97.6245 60.6529 96.0232C60.6787 94.4219 60.6625 92.8221 60.6041 91.2239C60.6011 91.1398 60.5344 90.4683 60.4043 89.2097C60.3582 87.9479 60.2655 86.5615 60.1262 85.0505C60.0678 83.4522 59.969 81.8976 59.8296 80.3865C59.7744 78.8724 59.7375 77.863 59.7191 77.3583C59.7099 77.106 59.6915 76.6013 59.6639 75.8442C59.7203 75.0841 59.7348 74.3255 59.7071 73.5684C59.7606 72.7242 59.8155 71.922 59.872 71.1619C59.9285 70.4018 59.9506 69.8535 59.9383 69.517C60.004 69.0092 60.0292 68.545 60.0139 68.1245C59.9954 67.6197 59.977 67.115 59.9586 66.6103C59.9494 66.358 59.8889 65.8548 59.7772 65.1008C59.7465 64.2597 59.7158 63.4185 59.6851 62.5773C59.6513 61.652 59.5786 60.8124 59.4668 60.0584C59.4392 59.3013 59.4192 58.7546 59.407 58.4181C59.3977 58.1658 59.3824 57.7452 59.3609 57.1563C59.3394 56.5675 59.3164 55.9366 59.2918 55.2637C59.3483 54.5036 59.3658 53.8291 59.3443 53.2403C59.3229 52.6515 59.3075 52.2309 59.2983 51.9785C59.2553 50.8009 59.1718 49.6668 59.0478 48.5764C59.0048 47.3987 58.9619 46.2211 58.9189 45.0434C58.9066 44.707 58.8851 44.1182 58.8544 43.277C58.9048 42.3486 58.9115 41.3797 58.8747 40.3703C58.8379 39.3609 58.8041 38.4356 58.7734 37.5945C58.8237 36.6661 58.8412 35.9916 58.8259 35.571C58.7645 33.8887 58.6626 32.2499 58.5201 30.6548C58.4618 29.0565 58.402 27.4163 58.3406 25.7339Z" fill="var(--fill-0, #00B289)"/>
<path id="Vector_9" d="M1.86399 48.1363C1.73507 44.6034 1.80047 41.7793 2.06019 39.6641C2.40404 37.5458 2.88634 35.7594 3.50709 34.3048C4.35257 32.084 5.5422 30.0612 7.07596 28.2364C8.60666 26.3275 10.4471 24.8285 12.5973 23.7392C15.4113 22.3731 18.1159 21.4742 20.7113 21.0426C23.3066 20.611 25.6979 20.3553 27.8849 20.2754C30.4925 20.1803 32.8494 20.1364 34.9554 20.1438C37.1424 20.064 38.9991 20.1647 40.5255 20.4459C42.136 20.724 43.3757 21.2263 44.2445 21.9526C45.1133 22.679 45.5723 23.7151 45.6214 25.061C45.6244 25.1451 45.5993 25.6093 45.5458 26.4535C45.5735 27.2106 45.6057 28.0938 45.6425 29.1032C45.6794 30.1126 45.6726 31.0815 45.6223 32.0099C45.656 32.9352 45.679 33.566 45.6913 33.9025C45.7036 34.239 45.7297 34.954 45.7696 36.0475C45.8936 37.138 45.9633 37.8935 45.9787 38.3141C45.9909 38.6505 45.9658 39.1147 45.9031 39.7066C45.8374 40.2144 45.6456 40.7268 45.3275 41.2437C45.0095 41.7607 44.5216 42.2418 43.864 42.6869C43.2875 43.0449 42.4525 43.2438 41.3589 43.2837L40.4757 43.316C39.6284 43.1784 38.7795 42.9988 37.9292 42.7772C37.1629 42.5524 36.3125 42.3308 35.378 42.1122C34.4435 41.8936 33.5977 41.7981 32.8407 41.8258C32.0806 41.7693 31.4481 41.7502 30.9434 41.7687C30.5229 41.784 30.0197 41.8445 29.4339 41.9501C28.8451 41.9716 28.2204 42.1628 27.5597 42.5239C26.9801 42.7977 26.4923 43.2788 26.0962 43.967C25.6971 44.5712 25.5176 45.4201 25.5575 46.5136C25.6188 48.1959 26.2209 49.6901 27.3635 50.9961C28.5872 52.2149 30.5894 53.9948 33.3702 56.336C34.0677 56.9844 34.8524 57.7138 35.7243 58.5243C36.6802 59.3317 37.5054 60.0175 38.1999 60.5818C38.6358 60.987 39.0281 61.3518 39.3769 61.6759C39.8067 61.9129 40.2396 62.2341 40.6755 62.6393C42.8521 64.5814 44.6456 66.4111 46.0559 68.1284C47.4663 69.8458 48.5807 71.5318 49.3991 73.1866C50.2145 74.7572 50.779 76.379 51.0928 78.0522C51.4065 79.7253 51.6002 81.5713 51.6739 83.5901C51.7814 86.5342 51.719 89.4424 51.4869 92.3147C51.3389 95.1839 50.4683 97.8689 48.875 100.37C47.9239 102.005 46.7953 103.394 45.4894 104.536C44.2675 105.676 43.0395 106.647 41.8054 107.45C40.5713 108.253 39.4151 108.885 38.3369 109.346C37.2587 109.806 36.3863 110.133 35.7195 110.326C34.8875 110.609 33.8437 110.857 32.5881 111.072C31.4166 111.283 30.2015 111.453 28.9428 111.584C27.6872 111.798 26.4285 111.928 25.1667 111.974C23.908 112.104 22.774 112.188 21.7646 112.225C20.4187 112.274 18.9015 112.245 17.213 112.138C15.6117 112.112 14.0494 112.001 12.5261 111.804C11.0028 111.607 9.60409 111.363 8.33005 111.072C7.05601 110.782 6.07331 110.397 5.38196 109.917C4.2608 109.199 3.60537 108.549 3.41565 107.967C3.22592 107.384 3.11878 106.756 3.09423 106.083C3.08502 105.831 3.0666 105.326 3.03897 104.569C3.09546 103.809 3.10836 103.008 3.07766 102.167C3.13108 101.323 3.14398 100.522 3.11635 99.7653C3.17284 99.0052 3.19495 98.4569 3.18267 98.1204C3.17653 97.9522 3.12219 97.6172 3.01966 97.1156C2.99817 96.5268 2.97668 95.938 2.95519 95.3491C2.93371 94.7603 2.8717 94.2151 2.76916 93.7135C2.74767 93.1246 2.73232 92.7041 2.72312 92.4517C2.71084 92.1152 2.69242 91.6105 2.66786 90.9376C2.72742 90.2616 2.87263 89.6246 3.1035 89.0265C3.41848 88.4254 3.86271 87.9038 4.43618 87.4618C5.00658 86.9356 5.88061 86.651 7.05825 86.608C8.15177 86.5681 9.03808 86.62 9.71715 86.7637C10.4803 86.9043 11.2528 87.2972 12.0344 87.9426C12.4672 88.2637 12.858 88.5863 13.2068 88.9105C13.5555 89.2347 13.9448 89.5153 14.3746 89.7523C14.9788 90.1514 15.8322 90.4572 16.935 90.6696C18.0346 90.798 19.2153 90.8391 20.4771 90.7931C22.2436 90.7286 23.9152 90.3728 25.4919 89.7257C27.0687 89.0785 27.8217 87.7876 27.7511 85.8529C27.7266 85.1799 27.621 84.5942 27.4343 84.0956C27.2446 83.5129 26.7994 82.8554 26.0989 82.1229C25.4824 81.3873 24.5654 80.4942 23.3479 79.4437C22.1273 78.309 20.5158 76.8517 18.5136 75.0717C18.3392 74.9096 17.9484 74.587 17.3412 74.1037C16.815 73.5333 16.2467 72.9645 15.6364 72.3971C15.0261 71.8298 14.4173 71.3045 13.8101 70.8213C13.2839 70.2509 12.8916 69.8862 12.6331 69.7272C10.9827 68.3555 9.58921 67.1008 8.45271 65.9631C7.40032 64.8223 6.33566 63.345 5.25872 61.5312C3.73357 58.9758 2.81105 56.7774 2.49116 54.936C2.16821 53.0105 1.95915 50.7439 1.86399 48.1363Z" fill="var(--fill-0, #00B289)"/>
</g>
</svg>
