<svg viewBox="0 0 451.431 189" fill="none" xmlns="http://www.w3.org/2000/svg">
<g id="Group 11">
<path id="Vector" d="M394.851 141.476C394.829 142.065 394.401 142.675 393.566 143.308C392.807 143.869 392.06 144.136 391.324 144.108C391.029 144.097 390.773 144.051 390.554 143.969C389.971 143.8 389.389 143.593 388.808 143.35C388.303 143.036 387.761 142.758 387.18 142.515C386.817 142.354 386.272 142.149 385.544 141.9C384.816 141.652 384.267 141.521 383.899 141.507C383.016 141.474 382.197 141.664 381.444 142.078C380.691 142.493 380.301 143.068 380.273 143.804C380.265 144.025 380.292 144.284 380.355 144.582C380.417 144.879 380.59 145.181 380.874 145.486C381.226 145.942 381.761 146.404 382.481 146.874C383.204 147.27 383.889 147.664 384.538 148.057C384.972 148.295 385.512 148.647 386.158 149.114C386.881 149.509 387.602 149.942 388.321 150.412C389.041 150.881 389.689 151.311 390.264 151.701C390.84 152.092 391.236 152.328 391.454 152.41C391.809 152.792 392.055 153.096 392.194 153.322C392.41 153.478 392.798 153.935 393.36 154.693C393.502 154.846 393.605 155.035 393.67 155.258C393.812 155.411 393.954 155.564 394.096 155.717C395.014 156.784 395.844 158.253 396.585 160.124C397.329 161.922 397.636 164.551 397.506 168.012C397.348 172.21 396.209 176.039 394.088 179.499C392.513 182.168 389.998 184.323 386.545 185.963C383.164 187.606 378.639 188.321 372.969 188.109C371.422 188.051 370.098 187.964 368.996 187.849C367.968 187.737 367.015 187.59 366.137 187.41C365.259 187.229 364.419 187.013 363.617 186.762C362.889 186.513 362.053 186.187 361.11 185.783C360.311 185.458 359.696 185.14 359.265 184.829C358.834 184.518 358.517 184.137 358.312 183.687C358.182 183.239 358.092 182.683 358.043 182.017C358.068 181.355 358.101 180.471 358.143 179.366C358.154 179.072 358.173 178.556 358.201 177.82C358.228 177.084 358.22 176.309 358.177 175.496C358.208 174.686 358.237 173.913 358.264 173.176C358.295 172.366 358.315 171.814 358.326 171.52C358.396 169.679 358.883 168.48 359.789 167.924C360.768 167.371 361.7 167.111 362.584 167.144C363.025 167.161 363.391 167.248 363.68 167.406C363.972 167.491 364.516 167.733 365.312 168.131C365.745 168.369 366.581 168.695 367.819 169.11C369.06 169.452 370.343 169.648 371.669 169.697C373.142 169.753 374.439 169.58 375.56 169.18C376.681 168.779 377.264 167.99 377.308 166.812C377.325 166.37 377.195 165.886 376.92 165.359C376.721 164.762 376.228 164.153 375.44 163.534C375.295 163.455 375.151 163.376 375.006 163.296C374.938 163.146 374.724 162.954 374.364 162.719C374.007 162.411 373.469 162.022 372.749 161.552C372.103 161.086 371.133 160.386 369.841 159.452C368.189 158.284 367.11 157.543 366.606 157.229C366.104 156.841 365.604 156.417 365.105 155.956C362.976 153.737 361.581 151.62 360.919 149.604C360.257 147.588 359.98 145.144 360.088 142.272C360.135 141.02 360.292 139.773 360.56 138.529C360.828 137.286 361.28 136.049 361.916 134.819C362.55 133.663 363.258 132.473 364.041 131.248C364.899 130.027 366.008 128.962 367.369 128.055C368.807 127.076 370.642 126.334 372.873 125.828C375.107 125.248 377.955 125.023 381.416 125.153C382.668 125.2 384.285 125.334 386.268 125.556C388.253 125.705 389.906 125.877 391.226 126.074C392.178 126.258 393.123 126.625 394.061 127.176C395.072 127.73 395.552 128.707 395.499 130.106C395.488 130.401 395.441 130.694 395.356 130.986C395.345 131.28 395.296 131.61 395.208 131.976C395.121 132.341 395.069 132.745 395.052 133.187C395.035 133.629 395.019 134.07 395.002 134.512C394.994 134.733 394.98 135.101 394.961 135.617C395.015 136.135 395.031 136.689 395.009 137.278C394.99 137.793 394.97 138.309 394.951 138.824C395.005 139.343 395.028 139.712 395.02 139.933L394.851 141.476Z" fill="var(--fill-0, #E54B25)"/>
<path id="Vector_2" d="M329.782 146.555C330.003 146.563 330.406 146.615 330.993 146.711C331.582 146.733 332.17 146.792 332.756 146.888C333.416 146.986 334.002 147.082 334.515 147.175C335.03 147.194 335.362 147.207 335.509 147.212C336.319 147.243 336.881 147.006 337.195 146.501C337.583 146 337.785 145.528 337.801 145.086C337.837 144.129 337.681 143.385 337.332 142.856C337.057 142.33 336.665 141.946 336.158 141.706C335.654 141.392 335.072 141.186 334.412 141.087C333.825 140.992 333.238 140.933 332.648 140.91C332.354 140.899 331.729 140.839 330.775 140.73C329.82 140.62 329.159 140.558 328.791 140.544C326.729 140.467 324.576 140.829 322.334 141.629C320.692 142.158 319.647 142.487 319.2 142.618C318.826 142.751 318.455 142.811 318.087 142.797C317.35 142.77 316.625 142.448 315.911 141.831C315.27 141.217 314.983 140.026 315.049 138.259C315.06 137.964 315.085 137.301 315.124 136.27C315.239 135.169 315.304 134.434 315.317 134.065C315.331 133.697 315.322 132.959 315.29 131.852C315.26 130.671 315.253 129.896 315.266 129.528C315.291 128.865 315.459 128.319 315.771 127.888C316.082 127.457 316.464 127.103 316.917 126.825C317.369 126.547 317.818 126.379 318.263 126.322C318.71 126.192 319.083 126.095 319.38 126.032C320.493 125.853 321.716 125.678 323.05 125.506C324.387 125.262 325.722 125.054 327.056 124.882C328.463 124.714 329.832 124.581 331.163 124.484C332.568 124.389 333.823 124.362 334.927 124.404C336.989 124.481 338.934 124.738 340.761 125.176C342.662 125.616 344.374 126.159 345.899 126.806C347.499 127.383 348.874 128.098 350.022 128.952C351.172 129.733 352.065 130.504 352.7 131.265C353.403 132.177 353.947 133.414 354.331 134.977C354.717 136.466 354.847 138.905 354.72 142.292C354.709 142.587 354.653 143.101 354.551 143.834C354.527 144.497 354.499 145.234 354.468 146.044C354.441 146.78 354.376 147.515 354.275 148.249C354.247 148.985 354.228 149.501 354.217 149.795C354.209 150.016 354.194 150.421 354.171 151.01C354.226 151.528 354.24 152.119 354.216 152.782C354.191 153.444 354.167 154.07 354.145 154.659C354.197 155.251 354.218 155.658 354.21 155.879C354.199 156.173 354.136 156.871 354.021 157.973C353.982 159.004 353.956 159.704 353.942 160.072C353.931 160.367 353.911 160.882 353.884 161.619C353.859 162.281 353.831 163.018 353.801 163.828C353.847 164.567 353.856 165.305 353.828 166.041C353.801 166.777 353.781 167.293 353.77 167.588C353.759 167.882 353.702 168.433 353.598 169.24C353.567 170.05 353.497 170.933 353.388 171.887C353.352 172.845 353.28 173.764 353.174 174.645C353.143 175.455 353.123 176.007 353.111 176.302C353.103 176.522 353.087 176.964 353.062 177.627C353.11 178.293 353.121 178.994 353.093 179.73C353.139 180.469 353.15 181.17 353.125 181.833C353.174 182.498 353.194 182.942 353.186 183.163C353.139 184.414 352.739 185.247 351.986 185.662C351.309 186.005 350.676 186.166 350.087 186.143C349.866 186.135 349.498 186.121 348.983 186.102C348.541 186.085 348.025 186.066 347.436 186.044C346.923 185.951 346.409 185.895 345.894 185.875C345.378 185.856 345.01 185.842 344.789 185.834C344.568 185.826 344.162 185.847 343.57 185.899C343.055 185.879 342.501 185.896 341.909 185.947C341.32 185.925 340.729 185.94 340.137 185.991C339.622 185.972 339.254 185.958 339.033 185.95C338.665 185.936 338.337 185.813 338.051 185.581C337.765 185.349 337.552 185.12 337.413 184.893C337.272 184.741 337.205 184.554 337.213 184.333C337.221 184.112 337.155 183.925 337.013 183.772C336.877 183.472 336.661 183.317 336.367 183.306C336.219 183.3 336.031 183.404 335.802 183.616C335.576 183.755 335.386 183.896 335.233 184.037C334.548 184.602 333.757 185.051 332.859 185.386C331.965 185.648 331.11 185.837 330.294 185.954C329.478 186.07 328.702 186.115 327.966 186.087C327.301 186.136 326.747 186.152 326.305 186.136C325.642 186.111 324.834 186.044 323.879 185.934C322.995 185.901 322.044 185.718 321.024 185.384C320.004 185.051 318.916 184.568 317.76 183.934C316.68 183.23 315.61 182.268 314.549 181.049C313.56 179.905 312.754 178.769 312.133 177.639C311.515 176.436 311.042 175.275 310.715 174.157C310.462 173.041 310.281 171.965 310.173 170.929C310.138 169.895 310.137 168.936 310.17 168.053C310.3 164.592 310.51 161.945 310.8 160.112C311.166 158.208 311.743 156.608 312.529 155.31C313.157 154.301 314.008 153.227 315.083 152.087C316.159 150.948 317.448 150 318.951 149.246C320.525 148.567 321.836 148.027 322.883 147.623C324.005 147.223 324.936 146.963 325.678 146.843C326.497 146.653 327.163 146.567 327.679 146.587C328.197 146.532 328.714 146.515 329.229 146.534L329.782 146.555ZM333.261 159.959C332.303 159.924 331.218 160.362 330.004 161.275C328.866 162.117 328.246 163.901 328.144 166.626C328.105 167.657 328.219 168.546 328.486 169.293C328.756 169.967 329.103 170.533 329.528 170.992C329.954 171.45 330.383 171.798 330.816 172.036C331.326 172.202 331.766 172.292 332.134 172.306C333.754 172.367 334.954 171.822 335.735 170.672C336.518 169.447 336.946 167.878 337.018 165.963C337.07 164.564 336.825 163.227 336.283 161.953C335.741 160.679 334.734 160.015 333.261 159.959Z" fill="var(--fill-0, #E54B25)"/>
<path id="Vector_3" d="M288.933 110.509C288.949 110.068 288.967 109.589 288.986 109.073C289.082 108.487 289.249 107.977 289.486 107.544C289.8 107.039 290.221 106.649 290.747 106.374C291.276 106.025 292.056 105.87 293.087 105.909C293.382 105.92 293.859 105.975 294.519 106.073C295.182 106.098 295.882 106.124 296.618 106.152C297.428 106.182 298.163 106.247 298.823 106.345C299.559 106.373 300.075 106.392 300.37 106.403C300.664 106.414 301.218 106.398 302.031 106.355C302.917 106.315 303.508 106.3 303.802 106.311C304.465 106.336 305.121 106.545 305.77 106.938C306.489 107.407 306.915 107.866 307.045 108.313C307.176 108.761 307.266 109.317 307.315 109.983L307.228 112.302L307.165 113.959C307.154 114.254 307.181 114.513 307.247 114.737C307.205 115.841 306.943 116.937 306.46 118.025C306.05 119.116 304.961 119.628 303.194 119.562L294.689 119.243C294.541 119.237 294.172 119.26 293.58 119.312C292.991 119.29 292.586 119.275 292.365 119.266C291.334 119.228 290.463 118.863 289.751 118.173C289.113 117.485 288.821 116.442 288.873 115.042C288.879 114.895 288.89 114.601 288.906 114.159C288.923 113.717 288.903 113.274 288.846 112.829C288.865 112.314 288.881 111.872 288.895 111.504C288.912 111.062 288.924 110.73 288.933 110.509ZM301.83 123.493C303.524 123.557 304.805 123.789 305.675 124.191C306.545 124.592 306.939 125.897 306.856 128.106C306.839 128.548 306.786 128.989 306.695 129.428C306.679 129.87 306.662 130.311 306.646 130.753C306.544 131.487 306.481 132.185 306.456 132.848C306.432 133.511 306.405 134.21 306.378 134.947L306.038 144.004C306.024 144.373 306 144.999 305.967 145.882C305.937 146.692 305.867 147.575 305.757 148.529C305.721 149.487 305.687 150.407 305.653 151.291C305.623 152.101 305.601 152.69 305.587 153.058C305.568 153.574 305.548 154.089 305.529 154.605C305.513 155.046 305.531 155.526 305.586 156.045C305.64 156.563 305.657 157.08 305.638 157.595C305.695 158.04 305.713 158.557 305.691 159.146C305.682 159.367 305.623 159.955 305.514 160.909C305.481 161.793 305.457 162.419 305.443 162.787L305.19 169.525C305.174 169.967 305.145 170.74 305.103 171.845C305.062 172.949 304.979 174.163 304.856 175.486C304.809 176.738 304.763 177.953 304.719 179.131C304.678 180.236 304.649 181.009 304.632 181.451C304.582 182.776 304.291 183.65 303.759 184.073C303.23 184.422 301.971 184.559 299.983 184.484C299.762 184.476 299.394 184.462 298.878 184.443C298.363 184.423 297.811 184.403 297.221 184.38C296.635 184.285 296.084 184.227 295.569 184.208C295.053 184.188 294.685 184.175 294.464 184.166C294.317 184.161 293.984 184.185 293.466 184.239C293.024 184.223 292.545 184.205 292.03 184.186C291.514 184.166 291.034 184.185 290.59 184.242C290.148 184.226 289.816 184.213 289.595 184.205C287.828 184.138 286.816 183.584 286.561 182.542C286.308 181.427 286.21 180.096 286.268 178.549C286.279 178.255 286.297 177.776 286.322 177.113C286.423 176.379 286.489 175.608 286.519 174.798C286.553 173.914 286.583 173.104 286.611 172.367C286.712 171.634 286.768 171.12 286.779 170.825C286.79 170.531 286.811 169.978 286.841 169.168C286.872 168.358 286.867 167.51 286.826 166.623C286.862 165.666 286.895 164.782 286.926 163.972C286.959 163.089 286.982 162.463 286.996 162.095C287.013 161.653 287.042 160.879 287.083 159.775C287.125 158.67 287.169 157.492 287.216 156.24C287.337 154.991 287.419 153.777 287.463 152.599C287.508 151.421 287.538 150.611 287.555 150.169C287.568 149.801 287.558 149.1 287.523 148.066C287.562 147.035 287.602 145.967 287.643 144.863C287.687 143.684 287.692 142.578 287.657 141.545C287.696 140.514 287.723 139.777 287.74 139.335C287.748 139.115 287.763 138.71 287.786 138.12C287.884 137.46 287.946 136.799 287.971 136.136C287.998 135.4 288.023 134.737 288.045 134.148C288.144 133.488 288.197 133.048 288.206 132.827C288.219 132.458 288.209 131.757 288.174 130.724C288.139 129.69 288.127 129.026 288.138 128.731C288.202 127.038 288.359 125.79 288.61 124.988C288.864 124.113 289.622 123.588 290.882 123.414C291.179 123.351 291.806 123.338 292.764 123.374C293.797 123.339 294.903 123.344 296.082 123.388C297.336 123.361 298.479 123.367 299.51 123.406C300.615 123.448 301.388 123.477 301.83 123.493Z" fill="var(--fill-0, #E54B25)"/>
<path id="Vector_4" d="M238.074 118.666C238.116 117.562 238.12 116.456 238.088 115.348C238.13 114.244 238.171 113.139 238.212 112.035C238.218 111.887 238.236 111.409 238.266 110.599C238.373 109.718 238.483 108.763 238.595 107.735C238.718 106.412 239.084 105.504 239.693 105.011C240.304 104.444 241.015 104.175 241.825 104.206C242.046 104.214 242.449 104.266 243.036 104.362C243.698 104.387 244.361 104.412 245.024 104.437C245.76 104.464 246.422 104.526 247.008 104.622C247.671 104.647 248.113 104.663 248.334 104.671C248.555 104.68 248.886 104.692 249.328 104.709C249.772 104.652 250.253 104.633 250.768 104.652C251.357 104.674 251.873 104.694 252.314 104.71C252.759 104.653 253.092 104.629 253.313 104.637C253.681 104.651 254.12 104.741 254.63 104.908C255.143 105.001 255.606 105.424 256.02 106.177C256.227 106.553 256.324 106.926 256.31 107.294C256.37 107.665 256.372 108.587 256.317 110.059C256.306 110.354 256.319 110.981 256.357 111.941C256.398 112.828 256.412 113.418 256.401 113.713C256.39 114.007 256.292 114.667 256.106 115.693C255.996 116.647 255.934 117.309 255.921 117.677C255.915 117.824 255.905 118.082 255.891 118.45C255.951 118.821 255.978 119.08 255.973 119.228C255.967 119.375 255.918 119.705 255.825 120.218C255.806 120.733 255.793 121.065 255.788 121.212C255.782 121.359 255.804 121.765 255.853 122.431C255.975 123.099 256.331 123.445 256.92 123.467C257.215 123.478 257.51 123.452 257.808 123.389C258.108 123.253 258.595 123.05 259.269 122.78C260.093 122.443 261.211 122.116 262.624 121.8C264.037 121.485 265.517 121.356 267.063 121.414C269.346 121.5 271.352 122.091 273.08 123.188C274.885 124.215 276.382 125.598 277.571 127.339C278.832 129.083 279.749 131.182 280.321 133.637C280.895 136.018 281.131 138.571 281.029 141.296C280.976 142.695 280.879 144.314 280.736 146.152C280.667 147.993 280.606 149.613 280.553 151.012C280.545 151.233 280.492 151.674 280.393 152.334C280.371 152.923 280.346 153.586 280.319 154.322C280.291 155.058 280.228 155.757 280.129 156.417C280.107 157.006 280.091 157.448 280.08 157.742C280.066 158.11 280.042 158.736 280.009 159.62C280.052 160.433 280.091 161.356 280.126 162.39C280.164 163.35 280.165 164.309 280.129 165.266C280.17 166.152 280.183 166.78 280.169 167.148C280.161 167.369 280.109 167.772 280.013 168.359C279.991 168.948 279.967 169.574 279.942 170.237C279.918 170.899 279.856 171.561 279.757 172.221C279.735 172.81 279.72 173.215 279.712 173.436C279.703 173.657 279.69 174.025 279.67 174.54C279.727 174.985 279.745 175.502 279.723 176.091C279.701 176.68 279.68 177.232 279.661 177.748C279.715 178.266 279.738 178.636 279.73 178.857C279.719 179.151 279.666 179.555 279.573 180.068C279.554 180.583 279.423 181.131 279.18 181.712C279.013 182.222 278.701 182.69 278.242 183.115C277.86 183.469 277.301 183.633 276.565 183.605C276.344 183.597 275.976 183.583 275.46 183.564C274.947 183.471 274.36 183.412 273.697 183.387C273.108 183.365 272.519 183.343 271.929 183.32C271.343 183.225 270.94 183.173 270.719 183.164C270.571 183.159 270.24 183.146 269.724 183.127C269.283 183.11 268.766 183.128 268.174 183.179C267.658 183.16 267.143 183.141 266.627 183.121C266.185 183.105 265.854 183.092 265.633 183.084C263.645 183.009 262.332 182.628 261.694 181.941C261.132 181.182 260.888 179.846 260.959 177.931C260.968 177.71 260.98 177.379 260.997 176.937C261.09 176.424 261.183 175.911 261.276 175.399C261.372 174.812 261.428 174.298 261.444 173.856C261.537 173.344 261.588 172.977 261.596 172.756C261.602 172.609 261.576 172.313 261.519 171.868C261.536 171.426 261.554 170.948 261.573 170.432C261.592 169.917 261.573 169.437 261.516 168.992C261.533 168.55 261.545 168.219 261.554 167.998C261.559 167.85 261.572 167.519 261.591 167.004C261.61 166.488 261.63 165.973 261.649 165.457C261.745 164.871 261.802 164.32 261.822 163.804C261.841 163.289 261.855 162.921 261.863 162.7C261.871 162.479 261.851 162.036 261.802 161.37C261.827 160.707 261.854 160.008 261.881 159.271C261.912 158.461 261.902 157.724 261.854 157.058C261.878 156.395 261.896 155.917 261.908 155.622C261.919 155.327 261.938 154.812 261.966 154.076C262.07 153.268 262.174 152.461 262.278 151.654C262.385 150.773 262.452 149.964 262.479 149.228C262.583 148.42 262.641 147.869 262.652 147.575C262.754 144.85 262.493 142.96 261.869 141.904C261.319 140.851 260.418 140.301 259.166 140.254C258.65 140.235 258.244 140.256 257.947 140.319C257.723 140.384 257.535 140.488 257.382 140.63C257.232 140.698 256.887 141.053 256.346 141.697C255.882 142.269 255.586 143.291 255.457 144.761C255.454 144.834 255.399 145.312 255.293 146.193C255.259 147.076 255.185 148.069 255.07 149.171C255.029 150.275 254.99 151.306 254.954 152.264C254.918 153.221 254.896 153.81 254.888 154.031C254.879 154.252 254.863 154.694 254.838 155.357C254.887 156.022 254.896 156.76 254.866 157.57C254.838 158.306 254.81 159.043 254.783 159.779C254.831 160.445 254.85 160.925 254.839 161.219C254.825 161.588 254.765 162.212 254.658 163.093C254.625 163.977 254.589 164.934 254.55 165.965C254.514 166.922 254.442 167.878 254.332 168.833C254.299 169.717 254.275 170.342 254.262 170.711L254.092 175.24C254.083 175.46 254.099 176.014 254.14 176.901C254.18 177.787 254.195 178.378 254.184 178.672C254.132 180.071 253.835 181.093 253.295 181.736C252.91 182.164 252.495 182.407 252.051 182.464C251.606 182.521 250.942 182.533 250.058 182.499C249.175 182.466 248.291 182.433 247.407 182.4C246.526 182.293 245.644 182.223 244.76 182.19C244.318 182.173 243.877 182.157 243.435 182.14C242.993 182.124 242.55 182.144 242.105 182.201C241.884 182.193 241.404 182.212 240.665 182.258C239.926 182.304 239.409 182.321 239.114 182.31C238.231 182.277 237.573 182.105 237.143 181.793C236.712 181.482 236.394 181.102 236.19 180.652C235.986 180.201 235.855 179.754 235.798 179.309C235.814 178.868 235.828 178.499 235.839 178.205C235.848 177.984 235.861 177.616 235.881 177.1C235.977 176.514 236.035 175.926 236.058 175.337C236.08 174.748 236.1 174.196 236.12 173.68C236.215 173.094 236.268 172.69 236.276 172.469C236.287 172.175 236.305 171.696 236.33 171.033C236.357 170.297 236.35 169.522 236.306 168.709C236.339 167.826 236.37 167.016 236.398 166.279C236.425 165.543 236.445 165.027 236.456 164.733C236.467 164.438 236.486 163.923 236.514 163.186C236.618 162.379 236.686 161.534 236.719 160.65C236.753 159.766 236.783 158.956 236.811 158.22C236.915 157.412 236.974 156.825 236.988 156.456C237.001 156.088 236.989 155.424 236.952 154.464C236.988 153.507 236.989 152.474 236.957 151.367C236.999 150.262 237.001 149.23 236.963 148.27C237.002 147.239 237.029 146.503 237.046 146.061C237.057 145.766 237.078 145.214 237.108 144.404C237.215 143.523 237.286 142.604 237.322 141.646C237.358 140.689 237.391 139.805 237.422 138.995C237.528 138.114 237.589 137.49 237.603 137.122L237.69 134.802C237.701 134.507 237.761 133.883 237.871 132.928C237.98 131.974 238.042 131.312 238.056 130.944C238.067 130.65 238.049 130.133 238.003 129.394C238.031 128.657 238.023 127.883 237.98 127.07C237.939 126.183 237.896 125.37 237.85 124.631C237.878 123.895 237.899 123.343 237.912 122.974L238.074 118.666Z" fill="var(--fill-0, #E54B25)"/>
<path id="Vector_5" d="M204.316 129.567C204.396 127.432 204.559 126.037 204.805 125.382C205.051 124.728 205.546 124.304 206.291 124.11C206.591 123.974 206.887 123.948 207.178 124.033C207.473 124.044 207.806 124.02 208.177 123.96C208.329 123.818 208.481 123.713 208.631 123.645C208.857 123.506 209.047 123.366 209.2 123.224C209.353 123.082 209.435 122.864 209.446 122.57C209.459 122.201 209.49 121.391 209.537 120.139C209.548 119.845 209.532 119.291 209.489 118.478C209.522 117.595 209.518 116.71 209.478 115.823C209.511 114.94 209.503 114.165 209.454 113.499C209.482 112.763 209.498 112.321 209.504 112.174C209.554 110.848 209.884 109.902 210.495 109.335C211.107 108.768 211.449 108.486 211.523 108.489C211.899 108.282 212.308 108.186 212.75 108.203C213.269 108.149 214.484 108.194 216.395 108.34L222.692 108.576C223.944 108.623 225.043 108.812 225.989 109.142C226.938 109.399 227.385 110.264 227.33 111.737C227.319 112.031 227.261 112.582 227.157 113.39C227.127 114.2 227.093 115.083 227.057 116.041C227.024 116.924 226.954 117.807 226.847 118.688C226.817 119.498 226.795 120.087 226.781 120.455C226.715 122.222 226.782 123.368 226.984 123.892C227.259 124.418 228.13 124.783 229.598 124.985C230.918 125.182 231.71 125.691 231.974 126.512C232.241 127.26 232.354 128.186 232.312 129.291L231.931 139.453C231.909 140.042 231.627 140.658 231.087 141.302C230.549 141.872 230.242 142.192 230.166 142.263C229.792 142.396 229.458 142.457 229.164 142.446C228.872 142.362 228.539 142.386 228.165 142.52C227.268 142.855 226.729 143.461 226.548 144.339C226.368 145.217 226.258 146.172 226.22 147.203C226.2 147.718 226.166 148.639 226.116 149.965C226.066 151.29 226.012 152.726 225.954 154.272C225.973 155.748 225.957 157.149 225.907 158.474C225.934 159.729 225.94 160.54 225.926 160.908C226.021 162.313 226.242 163.317 226.588 163.92C226.937 164.449 227.515 164.766 228.322 164.87C229.568 165.064 230.289 165.497 230.485 166.168C230.684 166.765 230.774 167.322 230.755 167.837C230.744 168.132 230.721 168.721 230.688 169.605C230.658 170.415 230.625 171.298 230.589 172.256C230.626 173.216 230.629 174.138 230.596 175.021C230.565 175.831 230.543 176.421 230.529 176.789C230.474 178.262 230.21 179.395 229.738 180.188C229.339 180.984 228.548 181.434 227.364 181.537C227.067 181.6 226.807 181.664 226.583 181.729C226.362 181.721 226.031 181.708 225.589 181.692C225.221 181.678 224.705 181.658 224.042 181.634C223.453 181.611 222.643 181.581 221.612 181.542C221.391 181.534 220.801 181.549 219.841 181.586C218.883 181.551 218.257 181.527 217.963 181.516C216.858 181.475 215.721 181.321 214.551 181.056C213.455 180.794 212.402 180.349 211.393 179.721C210.458 179.096 209.64 178.291 208.94 177.306C208.242 176.247 207.776 174.902 207.542 173.271C207.412 172.824 207.317 172.415 207.257 172.044C207.271 171.675 207.254 171.122 207.208 170.383C207.236 169.646 207.272 168.689 207.316 167.511C207.363 166.259 207.424 164.639 207.499 162.65C207.483 161.101 207.468 159.552 207.452 158.003C207.513 156.383 207.574 154.762 207.634 153.142C207.643 152.921 207.658 152.516 207.68 151.927C207.705 151.265 207.73 150.602 207.755 149.939C207.856 149.205 207.919 148.507 207.944 147.844C207.969 147.182 207.985 146.74 207.994 146.519C208.052 144.972 207.985 143.79 207.795 142.972C207.678 142.156 207.033 141.653 205.86 141.461C205.421 141.371 205.019 141.282 204.654 141.195C204.365 141.036 204.117 140.769 203.91 140.392C203.841 140.242 203.81 140.094 203.816 139.946C203.821 139.799 203.873 139.395 203.972 138.735L204.316 129.567Z" fill="var(--fill-0, #E54B25)"/>
<path id="Vector_6" d="M174.327 128.442C174.407 126.306 174.57 124.911 174.816 124.256C175.062 123.602 175.557 123.178 176.302 122.985C176.602 122.849 176.898 122.823 177.19 122.908C177.484 122.919 177.817 122.894 178.188 122.834C178.341 122.693 178.492 122.588 178.642 122.52C178.869 122.381 179.058 122.24 179.211 122.098C179.364 121.957 179.446 121.739 179.457 121.444C179.471 121.076 179.501 120.266 179.548 119.014C179.559 118.719 179.543 118.166 179.5 117.353C179.533 116.469 179.529 115.584 179.489 114.698C179.522 113.814 179.514 113.039 179.466 112.374C179.493 111.637 179.51 111.196 179.515 111.048C179.565 109.723 179.896 108.776 180.507 108.209C181.118 107.642 181.46 107.36 181.534 107.363C181.911 107.156 182.32 107.061 182.762 107.077C183.28 107.023 184.495 107.069 186.407 107.214L192.703 107.45C193.955 107.497 195.054 107.686 196 108.017C196.949 108.274 197.396 109.138 197.341 110.611C197.33 110.906 197.272 111.457 197.168 112.264C197.138 113.074 197.105 113.958 197.069 114.915C197.036 115.799 196.966 116.681 196.859 117.562C196.828 118.372 196.806 118.961 196.792 119.329C196.726 121.097 196.794 122.242 196.995 122.766C197.271 123.293 198.142 123.657 199.609 123.86C200.929 124.057 201.721 124.566 201.985 125.387C202.252 126.134 202.365 127.06 202.323 128.165L201.942 138.327C201.92 138.916 201.639 139.533 201.098 140.176C200.561 140.746 200.254 141.066 200.177 141.137C199.804 141.271 199.469 141.332 199.175 141.321C198.883 141.236 198.55 141.26 198.177 141.394C197.279 141.729 196.74 142.336 196.56 143.214C196.379 144.092 196.27 145.046 196.231 146.077C196.212 146.593 196.177 147.513 196.127 148.839C196.078 150.164 196.024 151.6 195.966 153.147C195.984 154.622 195.968 156.023 195.918 157.349C195.945 158.603 195.952 159.415 195.938 159.783C196.032 161.187 196.253 162.191 196.599 162.794C196.948 163.324 197.526 163.64 198.333 163.744C199.58 163.939 200.301 164.371 200.497 165.042C200.696 165.64 200.785 166.196 200.766 166.712C200.755 167.006 200.733 167.595 200.7 168.479C200.669 169.289 200.636 170.173 200.6 171.13C200.638 172.09 200.64 173.012 200.607 173.896C200.577 174.706 200.554 175.295 200.541 175.663C200.485 177.136 200.222 178.269 199.749 179.063C199.351 179.859 198.56 180.308 197.376 180.411C197.078 180.474 196.818 180.538 196.594 180.603C196.373 180.595 196.042 180.583 195.6 180.566C195.232 180.552 194.716 180.533 194.054 180.508C193.464 180.486 192.654 180.455 191.623 180.417C191.403 180.408 190.812 180.423 189.852 180.461C188.895 180.425 188.269 180.401 187.974 180.39C186.87 180.349 185.732 180.196 184.562 179.93C183.466 179.668 182.413 179.223 181.405 178.595C180.469 177.97 179.651 177.165 178.951 176.18C178.253 175.122 177.788 173.777 177.554 172.145C177.423 171.698 177.328 171.289 177.268 170.918C177.282 170.55 177.266 169.996 177.22 169.257C177.247 168.521 177.283 167.563 177.328 166.385C177.375 165.133 177.435 163.513 177.51 161.525C177.494 159.975 177.479 158.426 177.463 156.877C177.524 155.257 177.585 153.637 177.646 152.017C177.654 151.796 177.669 151.391 177.691 150.802C177.716 150.139 177.741 149.476 177.766 148.813C177.867 148.08 177.93 147.382 177.955 146.719C177.98 146.056 177.997 145.614 178.005 145.393C178.063 143.847 177.997 142.664 177.806 141.846C177.689 141.03 177.045 140.527 175.872 140.335C175.433 140.245 175.03 140.156 174.665 140.069C174.376 139.911 174.128 139.643 173.921 139.267C173.853 139.117 173.821 138.968 173.827 138.821C173.832 138.673 173.885 138.27 173.983 137.61L174.327 128.442Z" fill="var(--fill-0, #E54B25)"/>
<path id="Vector_7" d="M145.752 139.647C145.973 139.656 146.377 139.708 146.963 139.803C147.552 139.825 148.14 139.884 148.726 139.98C149.386 140.079 149.973 140.174 150.485 140.267C151.001 140.287 151.332 140.299 151.479 140.305C152.289 140.335 152.851 140.098 153.165 139.594C153.553 139.092 153.755 138.62 153.772 138.178C153.808 137.221 153.651 136.478 153.302 135.948C153.027 135.422 152.636 135.039 152.129 134.798C151.624 134.484 151.042 134.278 150.382 134.18C149.796 134.084 149.208 134.025 148.619 134.003C148.324 133.992 147.7 133.931 146.745 133.822C145.79 133.712 145.129 133.651 144.761 133.637C142.699 133.559 140.547 133.921 138.304 134.722C136.662 135.25 135.617 135.58 135.17 135.71C134.796 135.844 134.425 135.904 134.057 135.89C133.321 135.862 132.595 135.54 131.881 134.923C131.24 134.309 130.953 133.119 131.02 131.351C131.031 131.057 131.056 130.394 131.094 129.363C131.209 128.261 131.274 127.526 131.288 127.158C131.301 126.79 131.292 126.052 131.26 124.944C131.231 123.763 131.223 122.989 131.237 122.621C131.262 121.958 131.43 121.411 131.741 120.98C132.052 120.549 132.434 120.195 132.887 119.917C133.34 119.639 133.788 119.472 134.233 119.415C134.68 119.284 135.053 119.187 135.35 119.125C136.463 118.945 137.686 118.77 139.02 118.599C140.357 118.354 141.692 118.146 143.026 117.975C144.433 117.806 145.803 117.673 147.134 117.576C148.538 117.481 149.793 117.454 150.898 117.496C152.96 117.573 154.904 117.831 156.731 118.268C158.632 118.708 160.345 119.252 161.869 119.899C163.47 120.475 164.844 121.19 165.992 122.045C167.142 122.825 168.035 123.596 168.67 124.358C169.374 125.269 169.917 126.506 170.301 128.069C170.688 129.558 170.817 131.997 170.69 135.384C170.679 135.679 170.623 136.193 170.522 136.927C170.497 137.589 170.469 138.326 170.439 139.136C170.411 139.872 170.347 140.607 170.245 141.341C170.218 142.077 170.198 142.593 170.187 142.887C170.179 143.108 170.164 143.513 170.142 144.102C170.196 144.621 170.211 145.211 170.186 145.874C170.161 146.537 170.137 147.163 170.115 147.752C170.167 148.344 170.188 148.75 170.18 148.971C170.169 149.266 170.106 149.964 169.991 151.066C169.952 152.097 169.926 152.796 169.912 153.164C169.901 153.459 169.882 153.974 169.854 154.711C169.829 155.374 169.802 156.11 169.771 156.92C169.817 157.659 169.826 158.397 169.799 159.133C169.771 159.87 169.752 160.385 169.741 160.68C169.73 160.974 169.672 161.525 169.568 162.333C169.538 163.143 169.468 164.025 169.358 164.98C169.322 165.937 169.251 166.856 169.144 167.737C169.114 168.547 169.093 169.099 169.082 169.394C169.073 169.615 169.057 170.057 169.032 170.719C169.081 171.385 169.091 172.086 169.064 172.822C169.11 173.561 169.12 174.262 169.095 174.925C169.144 175.591 169.164 176.034 169.156 176.255C169.109 177.507 168.709 178.34 167.956 178.754C167.28 179.097 166.647 179.258 166.058 179.236C165.837 179.228 165.468 179.214 164.953 179.194C164.511 179.178 163.996 179.158 163.406 179.136C162.894 179.043 162.38 178.987 161.864 178.968C161.349 178.948 160.98 178.935 160.76 178.926C160.539 178.918 160.132 178.94 159.54 178.991C159.025 178.972 158.471 178.988 157.879 179.039C157.29 179.017 156.7 179.032 156.108 179.084C155.592 179.064 155.224 179.05 155.003 179.042C154.635 179.028 154.308 178.905 154.021 178.673C153.735 178.441 153.523 178.212 153.384 177.986C153.242 177.833 153.175 177.646 153.183 177.425C153.192 177.204 153.125 177.017 152.983 176.865C152.847 176.564 152.632 176.409 152.337 176.398C152.19 176.392 152.001 176.496 151.772 176.709C151.546 176.848 151.356 176.988 151.203 177.13C150.518 177.694 149.727 178.144 148.83 178.479C147.935 178.74 147.08 178.929 146.264 179.046C145.449 179.163 144.673 179.207 143.936 179.18C143.271 179.229 142.717 179.245 142.275 179.228C141.613 179.203 140.804 179.136 139.849 179.026C138.966 178.993 138.014 178.81 136.994 178.477C135.974 178.143 134.886 177.66 133.73 177.027C132.65 176.323 131.58 175.361 130.52 174.141C129.53 172.998 128.725 171.861 128.103 170.732C127.485 169.529 127.012 168.368 126.686 167.249C126.432 166.134 126.252 165.058 126.143 164.021C126.108 162.987 126.107 162.029 126.14 161.145C126.27 157.684 126.48 155.037 126.77 153.204C127.137 151.301 127.713 149.7 128.499 148.402C129.127 147.393 129.978 146.319 131.054 145.179C132.129 144.04 133.418 143.093 134.921 142.338C136.495 141.66 137.806 141.119 138.854 140.716C139.975 140.315 140.906 140.055 141.648 139.936C142.467 139.745 143.134 139.66 143.649 139.679C144.167 139.625 144.684 139.607 145.2 139.627L145.752 139.647ZM149.231 153.052C148.274 153.016 147.188 153.454 145.974 154.368C144.836 155.21 144.216 156.993 144.114 159.718C144.075 160.749 144.189 161.638 144.456 162.386C144.726 163.059 145.073 163.626 145.499 164.084C145.924 164.542 146.353 164.89 146.787 165.128C147.297 165.295 147.736 165.385 148.104 165.399C149.724 165.459 150.924 164.914 151.705 163.764C152.488 162.54 152.916 160.97 152.988 159.056C153.04 157.656 152.796 156.32 152.254 155.046C151.711 153.772 150.704 153.107 149.231 153.052Z" fill="var(--fill-0, #E54B25)"/>
<path id="Vector_8" d="M76.7786 163.385C76.7261 164.784 76.6833 165.926 76.6501 166.809C76.6169 167.693 76.6206 168.578 76.6611 169.465C76.6445 169.906 76.6279 170.348 76.6113 170.79C76.6684 171.235 76.6886 171.678 76.672 172.12C76.636 173.077 76.4174 173.991 76.016 174.861C75.6174 175.657 74.5344 176.022 72.767 175.955C72.6198 175.95 72.2884 175.937 71.7729 175.918C71.3311 175.901 70.8524 175.883 70.3369 175.864C69.8242 175.771 69.3101 175.715 68.7946 175.696C68.3528 175.679 68.0214 175.667 67.8005 175.658C66.1067 175.595 64.9653 175.552 64.3762 175.53C63.8607 175.51 63.4175 175.531 63.0465 175.59C62.1601 175.631 61.5696 175.646 61.275 175.635C61.0541 175.626 60.8331 175.618 60.6122 175.61C59.7285 175.577 58.8518 175.359 57.9819 174.958C57.112 174.557 56.7089 173.509 56.7725 171.815C56.7808 171.594 56.7946 171.226 56.8139 170.711C56.9097 170.124 56.9686 169.537 56.9907 168.947C57.0893 168.287 57.1496 167.663 57.1717 167.074C57.2674 166.487 57.3195 166.084 57.3278 165.863C57.4318 165.056 57.5031 164.136 57.5418 163.105C57.5833 162.001 57.6206 161.007 57.6538 160.123C57.6731 159.607 57.6709 158.686 57.647 157.357C57.6995 155.958 57.718 154.484 57.7024 152.935C57.7604 151.388 57.7775 149.951 57.7536 148.623C57.8062 147.223 57.8435 146.229 57.8656 145.64C57.8849 145.125 57.9209 144.167 57.9734 142.768C58.0996 141.372 58.1916 139.9 58.2497 138.354C58.3841 136.737 58.4776 135.228 58.5302 133.829C58.6591 132.359 58.7346 131.33 58.7567 130.74C58.7733 130.299 58.7683 129.45 58.7416 128.196C58.7886 126.944 58.8384 125.618 58.8909 124.219C58.9462 122.746 58.9605 121.383 58.9338 120.128C58.9836 118.802 59.0195 117.845 59.0416 117.256C59.0499 117.035 59.0651 116.63 59.0872 116.041C59.1857 115.381 59.2475 114.719 59.2723 114.057C59.3 113.32 59.3262 112.621 59.3511 111.958C59.4496 111.298 59.5044 110.821 59.5154 110.526C59.5569 109.421 59.5247 108.314 59.4189 107.204C59.3131 106.094 59.2809 104.986 59.3224 103.882C59.2598 103.585 59.2451 102.994 59.2783 102.11C59.3142 101.153 59.3363 100.564 59.3446 100.343C59.375 99.5329 59.5458 98.9125 59.8569 98.4817C60.1681 98.0509 60.5105 97.7688 60.8843 97.6354C61.3344 97.431 61.7804 97.3371 62.2222 97.3537C62.6668 97.2967 63.0732 97.2751 63.4414 97.2889C63.736 97.2999 64.2869 97.3575 65.0942 97.4615C65.9042 97.4919 66.7879 97.5251 67.7453 97.561C68.7026 97.597 69.5849 97.667 70.3922 97.771C71.2758 97.8042 71.9018 97.8277 72.27 97.8415C72.4909 97.8498 73.0815 97.8351 74.0415 97.7974C75.0016 97.7597 75.629 97.7463 75.9235 97.7574C77.1754 97.8044 78.0835 98.1703 78.6477 98.8552C79.2884 99.4692 79.8728 100.597 80.4012 102.24C80.7988 103.434 81.2686 104.669 81.8108 105.943C82.3529 107.217 83.1035 108.83 84.0626 110.784C84.4004 111.608 84.7778 112.359 85.1948 113.039C85.6117 113.718 86.026 114.471 86.4374 115.298C86.9197 116.201 87.3284 117.101 87.6634 117.998C88.0666 119.046 88.5392 120.207 89.0813 121.481C89.6999 122.684 90.2669 123.295 90.7823 123.314C91.2242 123.331 91.6826 122.906 92.1576 122.039C92.6326 121.172 92.9507 120.557 93.1118 120.194C93.2702 119.905 93.5459 119.436 93.9389 118.787C94.3348 118.064 94.732 117.305 95.1306 116.509C95.5292 115.713 95.9264 114.953 96.3223 114.231C96.7181 113.508 96.9952 113.002 97.1536 112.713C97.7078 111.702 98.1883 110.687 98.5952 109.67C99.0049 108.579 99.45 107.527 99.9305 106.512L102.068 102.61C102.467 101.814 102.862 101.092 103.256 100.443C103.725 99.7228 104.295 99.2648 104.966 99.0688C105.04 99.0715 105.261 99.0798 105.629 99.0937C106 99.0338 106.407 99.0122 106.848 99.0288C107.293 98.9717 107.699 98.9501 108.068 98.964C108.439 98.9041 108.661 98.8756 108.734 98.8784C108.955 98.8867 109.324 98.9005 109.839 98.9198C110.355 98.9392 110.906 98.9967 111.492 99.0925C112.081 99.1146 112.632 99.1721 113.145 99.2651C113.66 99.2845 114.028 99.2983 114.249 99.3066C114.323 99.3094 114.654 99.3218 115.243 99.3439C115.832 99.366 116.422 99.3881 117.011 99.4103C117.676 99.3615 118.267 99.3468 118.782 99.3661C119.301 99.3118 119.596 99.2861 119.67 99.2888C119.891 99.2971 120.075 99.304 120.222 99.3096C120.446 99.2442 120.668 99.2157 120.889 99.224C121.478 99.2461 122.022 99.4878 122.521 99.9489C123.094 100.413 123.361 101.16 123.322 102.191C123.308 102.56 123.247 103.221 123.137 104.175C123.104 105.059 123.044 105.684 122.956 106.049C122.74 107.885 122.566 109.574 122.434 111.118C122.302 112.662 122.234 113.507 122.228 113.654C122.217 113.949 122.198 114.464 122.17 115.201C122.145 115.864 122.118 116.6 122.087 117.41C122.13 118.223 122.138 118.997 122.111 119.734C122.083 120.47 122.064 120.986 122.053 121.28C122.028 121.943 121.944 123.194 121.801 125.032C121.735 126.799 121.663 128.714 121.585 130.776C121.511 132.764 121.402 134.677 121.259 136.516C121.19 138.357 121.142 139.645 121.114 140.382C121.098 140.824 121.069 141.597 121.027 142.701C121.059 143.809 121.052 144.988 121.005 146.24C120.958 147.492 120.912 148.707 120.868 149.886C120.9 150.993 120.908 151.767 120.892 152.209C120.875 152.651 120.808 153.46 120.69 154.635C120.646 155.814 120.561 157.101 120.434 158.497C120.385 159.823 120.299 161.11 120.179 162.359C120.132 163.611 120.099 164.495 120.079 165.01C120.068 165.305 120.049 165.82 120.021 166.557C120.067 167.296 120.112 168.072 120.155 168.885C120.198 169.698 120.205 170.509 120.174 171.319C120.22 172.058 120.238 172.575 120.227 172.87C120.171 174.342 120.017 175.517 119.763 176.392C119.509 177.267 118.719 177.68 117.393 177.63C117.025 177.617 116.694 177.604 116.399 177.593C116.104 177.582 115.811 177.534 115.52 177.449C114.491 177.337 113.462 177.262 112.431 177.223C111.403 177.111 110.373 177.035 109.342 176.996C108.753 176.974 108.127 176.951 107.464 176.926C106.875 176.904 106.285 176.918 105.693 176.97C105.322 177.03 104.952 177.053 104.584 177.039C104.289 177.028 103.958 177.015 103.59 177.002C102.927 176.977 102.413 176.921 102.047 176.833C101.685 176.672 101.323 176.474 100.964 176.239C100.391 175.775 100.003 175.318 99.7983 174.868C99.6676 174.421 99.6161 173.829 99.6437 173.093C99.6575 172.724 99.6686 172.43 99.6769 172.209C99.6879 171.914 99.7864 171.254 99.9724 170.229C100.142 169.645 100.238 169.059 100.26 168.47C100.285 167.807 100.308 167.181 100.33 166.592L100.542 160.958C100.558 160.517 100.538 160.073 100.481 159.629C100.497 159.187 100.515 158.708 100.535 158.193C100.54 158.046 100.55 157.788 100.564 157.42C100.654 156.981 100.744 156.541 100.835 156.102C100.928 155.59 100.981 155.149 100.995 154.781C101.085 154.342 101.134 154.012 101.143 153.791C101.151 153.57 101.129 153.164 101.078 152.572C101.103 151.909 101.091 151.245 101.042 150.579C101.069 149.843 101.059 149.142 101.01 148.476C101.035 147.814 101.053 147.335 101.064 147.04C101.072 146.82 101.092 146.304 101.122 145.494C101.229 144.613 101.288 144.025 101.299 143.731C101.304 143.583 101.277 143.324 101.217 142.953C101.234 142.512 101.245 142.217 101.251 142.07C101.275 141.407 101.141 141.07 100.846 141.059C100.552 141.048 100.209 141.33 99.8188 141.905C99.584 142.265 99.3861 142.627 99.225 142.989C99.0639 143.352 98.7362 144.225 98.2418 145.607C98.0807 145.97 97.8009 146.549 97.4023 147.345C97.0773 148.144 96.6759 149.014 96.1981 149.955C95.7968 150.825 95.3954 151.695 94.994 152.565C94.5954 153.361 94.3155 153.94 94.1544 154.303C93.5975 155.388 93.0475 156.289 92.5043 157.006C92.0349 157.726 91.3583 158.07 90.4746 158.036C89.4436 157.998 88.7468 157.898 88.3841 157.737C88.0242 157.502 87.6344 157.082 87.2147 156.476C87.0757 156.25 86.8345 155.798 86.4912 155.122C86.1506 154.371 85.7732 153.62 85.359 152.867C84.9476 152.04 84.5702 151.288 84.2269 150.612C83.8836 149.935 83.607 149.446 83.3971 149.143C83.19 148.766 82.9815 148.427 82.7717 148.124C82.5618 147.821 82.3901 147.483 82.2567 147.109C82.1177 146.882 81.8779 146.394 81.5374 145.644C81.2732 144.823 80.9354 143.999 80.524 143.172C80.1862 142.348 79.8088 141.597 79.3918 140.917C79.0485 140.241 78.7664 139.898 78.5455 139.89C78.3245 139.882 78.1689 140.097 78.0787 140.536C78.0649 140.904 78.0525 141.236 78.0414 141.53C78.0276 141.899 77.9673 142.523 77.8605 143.404C77.8273 144.288 77.7545 145.244 77.6422 146.272C77.6063 147.229 77.5335 148.185 77.424 149.14C77.3908 150.023 77.3673 150.649 77.3535 151.018C77.3258 151.754 77.2982 152.49 77.2705 153.227C77.3193 153.892 77.3285 154.63 77.2981 155.44C77.1995 156.1 77.1392 156.725 77.1171 157.314C77.0978 157.829 77.043 158.307 76.9528 158.746C76.9389 159.114 76.9293 159.372 76.9237 159.519L76.7786 163.385Z" fill="var(--fill-0, #E54B25)"/>
<path id="Vector_9" d="M439.277 40.0476C439.424 40.0531 439.573 40.0218 439.723 39.9537C439.949 39.8147 440.295 39.4589 440.759 38.8864C442.085 36.9451 443.349 35.702 444.549 35.1571C445.823 34.615 447.086 34.3674 448.338 34.4144C449.221 34.4476 449.947 34.7698 450.514 35.381C451.084 35.9186 451.353 36.5924 451.323 37.4025C451.315 37.6234 451.26 38.1007 451.159 38.8343C451.06 39.4943 451.007 39.9348 450.998 40.1557L450.878 43.359C450.842 44.3164 450.769 45.2723 450.66 46.2269C450.627 47.1106 450.593 47.9943 450.56 48.8779C450.552 49.0989 450.54 49.4302 450.523 49.8721C450.58 50.3167 450.597 50.8336 450.575 51.4227C450.556 51.9382 450.538 52.4168 450.521 52.8587C450.579 53.3033 450.603 53.636 450.595 53.857C450.584 54.1515 450.533 54.5184 450.443 54.9574C450.426 55.3993 450.336 55.8384 450.172 56.2747C450.008 56.711 449.7 57.0681 449.247 57.3461C448.868 57.6268 448.347 57.7548 447.684 57.7299C447.463 57.7216 446.949 57.6654 446.142 57.5614C445.337 57.3837 444.787 57.2893 444.493 57.2783C444.051 57.2617 443.533 57.316 442.938 57.4412C442.344 57.5663 441.742 57.8756 441.133 58.369C439.693 59.4211 438.841 60.4953 438.579 61.5916C438.317 62.6879 438.17 63.6411 438.14 64.4511L437.75 74.8344C437.742 75.0553 437.691 75.4222 437.598 75.9349C437.579 76.4504 437.557 77.0395 437.532 77.7023C437.51 78.2914 437.452 78.8423 437.359 79.355C437.34 79.8705 437.326 80.2387 437.318 80.4596C437.307 80.7542 437.252 81.2315 437.153 81.8915C437.128 82.5542 437.102 83.2538 437.074 83.9902C437.047 84.7266 437.021 85.4262 436.996 86.089C436.971 86.7518 436.953 87.2304 436.942 87.525C436.928 87.8932 436.914 88.2614 436.9 88.6296C436.889 88.9241 436.914 89.2569 436.974 89.6279C436.965 89.8488 436.983 90.3657 437.026 91.1785C437.069 91.9913 437.087 92.5082 437.078 92.7291C437.04 93.76 436.716 94.5222 436.108 95.0156C435.573 95.5117 434.643 95.7349 433.317 95.6851C433.096 95.6769 432.654 95.6603 431.992 95.6354C431.402 95.6133 430.741 95.5516 430.007 95.4503C429.271 95.4227 428.571 95.3964 427.909 95.3715C427.319 95.3494 426.914 95.3342 426.694 95.3259C426.031 95.301 425.368 95.2762 424.705 95.2513C424.116 95.2292 423.526 95.2439 422.934 95.2954C422.339 95.4206 421.858 95.4762 421.489 95.4624C420.532 95.4265 419.804 95.1779 419.305 94.7167C418.88 94.2583 418.6 93.8422 418.467 93.4685C418.399 93.3184 418.369 93.133 418.377 92.9121C418.388 92.6175 418.409 92.0652 418.439 91.2551C418.453 90.8869 418.516 90.1887 418.629 89.1605C418.817 88.0614 418.919 87.3278 418.933 86.9596C418.977 85.7814 418.991 84.4176 418.975 82.8684C418.96 81.3192 418.974 79.9555 419.018 78.7772C419.063 77.599 419.097 76.6785 419.122 76.0157C419.15 75.2793 419.17 74.727 419.184 74.3588C419.201 73.9169 419.212 73.6224 419.217 73.4751C419.299 73.2569 419.343 73.0742 419.349 72.9269C419.357 72.706 419.371 72.3378 419.39 71.8223C419.486 71.236 419.546 70.6114 419.571 69.9486C419.596 69.2859 419.618 68.6968 419.637 68.1813C419.733 67.5949 419.785 67.1913 419.793 66.9703C419.81 66.5285 419.801 65.7907 419.766 64.757C419.805 63.726 419.809 62.62 419.78 61.439C419.824 60.2608 419.829 59.1548 419.794 58.121C419.833 57.0901 419.86 56.3537 419.877 55.9118C419.91 55.0281 419.943 54.1445 419.976 53.2608C420.009 52.3771 420.079 51.4948 420.186 50.6139C420.304 49.4384 420.375 48.5193 420.4 47.8565C420.425 47.1937 420.445 46.6782 420.458 46.31C420.467 46.0891 420.483 45.6473 420.508 44.9845C420.533 44.3217 420.521 43.6576 420.472 42.9921C420.5 42.2557 420.526 41.5561 420.551 40.8933C420.576 40.2305 420.593 39.7887 420.601 39.5678C420.651 38.2422 420.682 37.3954 420.696 37.0272C420.786 36.5881 420.912 36.1872 421.073 35.8246C421.627 34.8129 422.202 34.2445 422.796 34.1194C423.465 33.997 423.946 33.9413 424.241 33.9523C424.756 33.9717 425.233 34.0265 425.673 34.1167C426.114 34.1333 426.555 34.1867 426.994 34.2769C427.58 34.3727 428.131 34.4302 428.647 34.4496C429.162 34.4689 429.715 34.4897 430.304 34.5118C431.114 34.5422 431.887 34.5712 432.623 34.5989C433.36 34.6265 434.134 34.6187 434.947 34.5755C435.244 34.5129 435.725 34.494 436.387 34.5189C438.376 34.5935 439.339 35.4409 439.278 37.061C439.273 37.2083 439.222 37.5751 439.127 38.1614C439.034 38.6742 438.984 39.0042 438.979 39.1514C438.973 39.2987 438.966 39.4828 438.958 39.7037C439.023 39.9274 439.13 40.042 439.277 40.0476Z" fill="var(--fill-0, #E54B25)"/>
<path id="Vector_10" d="M388.338 54.7279C388.559 54.7362 388.962 54.7882 389.549 54.884C390.138 54.9061 390.726 54.965 391.312 55.0608C391.972 55.1593 392.558 55.2551 393.071 55.3481C393.586 55.3674 393.918 55.3798 394.065 55.3854C394.875 55.4158 395.437 55.1788 395.751 54.6743C396.139 54.1727 396.341 53.7009 396.357 53.2591C396.393 52.3018 396.237 51.5584 395.888 51.0291C395.613 50.5026 395.221 50.1192 394.714 49.8789C394.21 49.565 393.628 49.3588 392.968 49.2603C392.381 49.1645 391.794 49.1056 391.204 49.0835C390.91 49.0724 390.285 49.0121 389.331 48.9025C388.376 48.793 387.715 48.7313 387.347 48.7174C385.285 48.64 383.132 49.0017 380.89 49.8025C379.248 50.3308 378.203 50.6603 377.756 50.791C377.382 50.9245 377.011 50.9843 376.643 50.9705C375.906 50.9428 375.181 50.6206 374.467 50.0038C373.826 49.3898 373.539 48.1992 373.605 46.4318C373.616 46.1372 373.641 45.4745 373.68 44.4435C373.795 43.3416 373.859 42.6066 373.873 42.2384C373.887 41.8702 373.878 41.1324 373.846 40.0251C373.816 38.844 373.809 38.0694 373.822 37.7012C373.847 37.0385 374.015 36.4917 374.326 36.0609C374.638 35.6301 375.02 35.2757 375.472 34.9978C375.925 34.7198 376.374 34.5523 376.819 34.4952C377.266 34.3645 377.638 34.2679 377.936 34.2053C379.049 34.0258 380.272 33.8505 381.606 33.6794C382.942 33.4345 384.278 33.2266 385.611 33.0554C387.019 32.887 388.388 32.754 389.719 32.6565C391.124 32.5617 392.379 32.5351 393.483 32.5765C395.545 32.6539 397.49 32.9113 399.317 33.3486C401.218 33.7887 402.93 34.3323 404.455 34.9795C406.055 35.5558 407.43 36.271 408.578 37.1253C409.728 37.9059 410.621 38.6769 411.256 39.4382C411.959 40.3495 412.503 41.5867 412.887 43.1497C413.273 44.6391 413.403 47.0776 413.276 50.465C413.265 50.7596 413.209 51.2737 413.107 52.0073C413.082 52.6701 413.055 53.4065 413.024 54.2165C412.997 54.9529 412.932 55.688 412.831 56.4216C412.803 57.158 412.784 57.6735 412.773 57.9681C412.765 58.189 412.749 58.594 412.727 59.1831C412.782 59.7014 412.796 60.2919 412.771 60.9547C412.747 61.6174 412.723 62.2434 412.701 62.8325C412.752 63.4244 412.774 63.8308 412.766 64.0517C412.755 64.3463 412.692 65.0445 412.577 66.1463C412.538 67.1773 412.512 67.8769 412.498 68.2451C412.487 68.5396 412.467 69.0551 412.44 69.7915C412.415 70.4543 412.387 71.1907 412.357 72.0007C412.403 72.7399 412.412 73.4777 412.384 74.2141C412.357 74.9505 412.337 75.466 412.326 75.7605C412.315 76.0551 412.258 76.606 412.154 77.4133C412.123 78.2233 412.053 79.1057 411.944 80.0602C411.908 81.0175 411.836 81.9367 411.73 82.8176C411.699 83.6276 411.678 84.1799 411.667 84.4745C411.659 84.6954 411.643 85.1373 411.618 85.8C411.666 86.4656 411.677 87.1665 411.649 87.9029C411.695 88.6421 411.706 89.3431 411.681 90.0058C411.73 90.6714 411.75 91.1146 411.742 91.3355C411.695 92.5874 411.295 93.4204 410.542 93.8346C409.865 94.178 409.232 94.3386 408.643 94.3165C408.422 94.3082 408.054 94.2944 407.539 94.275C407.097 94.2584 406.581 94.2391 405.992 94.217C405.479 94.124 404.965 94.0678 404.45 94.0485C403.934 94.0291 403.566 94.0153 403.345 94.007C403.124 93.9987 402.718 94.0203 402.126 94.0718C401.61 94.0525 401.057 94.0686 400.465 94.1201C399.876 94.098 399.285 94.1127 398.693 94.1642C398.178 94.1449 397.81 94.1311 397.589 94.1228C397.221 94.1089 396.893 93.986 396.607 93.7541C396.321 93.5221 396.108 93.2929 395.969 93.0664C395.827 92.9136 395.761 92.7267 395.769 92.5058C395.777 92.2849 395.711 92.098 395.569 91.9452C395.433 91.6451 395.217 91.4896 394.923 91.4785C394.775 91.473 394.587 91.5765 394.358 91.7892C394.131 91.9282 393.942 92.0685 393.789 92.2103C393.104 92.7745 392.313 93.2242 391.415 93.5592C390.521 93.8206 389.666 94.0097 388.85 94.1266C388.034 94.2435 387.258 94.2881 386.522 94.2604C385.856 94.3092 385.303 94.3253 384.861 94.3087C384.198 94.2838 383.39 94.2166 382.435 94.107C381.551 94.0739 380.599 93.8906 379.58 93.5574C378.56 93.2241 377.472 92.7408 376.315 92.1075C375.236 91.4032 374.166 90.4413 373.105 89.2216C372.116 88.0783 371.31 86.9419 370.689 85.8124C370.071 84.6093 369.598 83.4485 369.271 82.3301C369.018 81.2144 368.837 80.1383 368.729 79.1018C368.694 78.0681 368.693 77.1094 368.726 76.2257C368.856 72.7646 369.066 70.1177 369.356 68.2849C369.722 66.3813 370.299 64.7806 371.085 63.4827C371.713 62.4739 372.564 61.3997 373.639 60.2601C374.714 59.1206 376.004 58.1734 377.507 57.4186C379.081 56.7403 380.392 56.1995 381.439 55.7964C382.561 55.396 383.492 55.136 384.234 55.0164C385.052 54.8258 385.719 54.7403 386.235 54.7596C386.753 54.7053 387.27 54.6878 387.785 54.7072L388.338 54.7279ZM391.817 68.1325C390.859 68.0965 389.774 68.5351 388.559 69.4482C387.422 70.2905 386.802 72.0739 386.699 74.7986C386.661 75.8296 386.775 76.7188 387.042 77.4663C387.311 78.1401 387.659 78.7062 388.084 79.1646C388.509 79.6231 388.939 79.971 389.372 80.2085C389.882 80.3752 390.321 80.4654 390.69 80.4792C392.31 80.54 393.51 79.9951 394.291 78.8445C395.074 77.6203 395.502 76.0508 395.574 74.1362C395.626 72.737 395.381 71.4004 394.839 70.1264C394.297 68.8524 393.29 68.1878 391.817 68.1325Z" fill="var(--fill-0, #E54B25)"/>
<path id="Vector_11" d="M340.119 52.918C340.34 52.9263 340.743 52.9783 341.33 53.0741C341.919 53.0962 342.507 53.1552 343.093 53.2509C343.753 53.3494 344.339 53.4452 344.852 53.5382C345.368 53.5575 345.699 53.5699 345.846 53.5755C346.656 53.6059 347.218 53.3689 347.532 52.8644C347.92 52.3628 348.122 51.891 348.138 51.4492C348.174 50.4919 348.018 49.7485 347.669 49.2192C347.394 48.6927 347.003 48.3093 346.495 48.069C345.991 47.7551 345.409 47.5489 344.749 47.4504C344.162 47.3546 343.575 47.2957 342.986 47.2736C342.691 47.2625 342.066 47.2022 341.112 47.0926C340.157 46.9831 339.496 46.9214 339.128 46.9075C337.066 46.8301 334.914 47.1918 332.671 47.9926C331.029 48.5209 329.984 48.8504 329.537 48.9811C329.163 49.1146 328.792 49.1744 328.424 49.1606C327.688 49.1329 326.962 48.8107 326.248 48.194C325.607 47.58 325.32 46.3893 325.386 44.6219C325.398 44.3273 325.422 43.6646 325.461 42.6336C325.576 41.5318 325.641 40.7967 325.655 40.4285C325.668 40.0603 325.659 39.3225 325.627 38.2152C325.598 37.0342 325.59 36.2596 325.604 35.8913C325.628 35.2286 325.796 34.6818 326.108 34.251C326.419 33.8202 326.801 33.4658 327.254 33.1879C327.707 32.9099 328.155 32.7424 328.6 32.6853C329.047 32.5546 329.42 32.458 329.717 32.3954C330.83 32.2159 332.053 32.0406 333.387 31.8695C334.724 31.6247 336.059 31.4167 337.393 31.2455C338.8 31.0771 340.169 30.9441 341.5 30.8466C342.905 30.7518 344.16 30.7252 345.264 30.7667C347.326 30.8441 349.271 31.1014 351.098 31.5387C352.999 31.9788 354.712 32.5224 356.236 33.1696C357.837 33.7459 359.211 34.4612 360.359 35.3154C361.509 36.0961 362.402 36.867 363.037 37.6283C363.741 38.5396 364.284 39.7768 364.668 41.3398C365.054 42.8292 365.184 45.2677 365.057 48.6551C365.046 48.9497 364.99 49.4638 364.889 50.1974C364.864 50.8602 364.836 51.5966 364.806 52.4067C364.778 53.1431 364.713 53.8781 364.612 54.6117C364.585 55.3481 364.565 55.8636 364.554 56.1582C364.546 56.3791 364.531 56.7841 364.509 57.3732C364.563 57.8915 364.578 58.482 364.553 59.1448C364.528 59.8075 364.504 60.4335 364.482 61.0226C364.534 61.6145 364.555 62.0209 364.547 62.2418C364.536 62.5364 364.473 63.2346 364.358 64.3364C364.319 65.3674 364.293 66.067 364.279 66.4352C364.268 66.7297 364.249 67.2452 364.221 67.9816C364.196 68.6444 364.168 69.3808 364.138 70.1908C364.184 70.93 364.193 71.6678 364.166 72.4042C364.138 73.1406 364.119 73.6561 364.108 73.9506C364.096 74.2452 364.039 74.7961 363.935 75.6034C363.904 76.4135 363.834 77.2958 363.725 78.2503C363.689 79.2077 363.618 80.1268 363.511 81.0077C363.48 81.8177 363.46 82.3701 363.449 82.6646C363.44 82.8855 363.424 83.3274 363.399 83.9901C363.448 84.6557 363.458 85.3566 363.431 86.093C363.477 86.8322 363.487 87.5332 363.462 88.1959C363.511 88.8615 363.531 89.3047 363.523 89.5256C363.476 90.7775 363.076 91.6105 362.323 92.0248C361.646 92.3681 361.014 92.5287 360.424 92.5066C360.203 92.4983 359.835 92.4845 359.32 92.4651C358.878 92.4485 358.362 92.4292 357.773 92.4071C357.261 92.3141 356.747 92.2579 356.231 92.2386C355.716 92.2192 355.347 92.2054 355.126 92.1971C354.905 92.1888 354.499 92.2104 353.907 92.2619C353.392 92.2426 352.838 92.2587 352.246 92.3102C351.657 92.2881 351.066 92.3028 350.475 92.3543C349.959 92.335 349.591 92.3212 349.37 92.3129C349.002 92.2991 348.675 92.1762 348.388 91.9442C348.102 91.7122 347.889 91.483 347.75 91.2565C347.609 91.1037 347.542 90.9169 347.55 90.6959C347.559 90.475 347.492 90.2881 347.35 90.1353C347.214 89.8352 346.998 89.6797 346.704 89.6686C346.557 89.6631 346.368 89.7666 346.139 89.9793C345.913 90.1183 345.723 90.2586 345.57 90.4004C344.885 90.9646 344.094 91.4143 343.197 91.7493C342.302 92.0107 341.447 92.1998 340.631 92.3167C339.816 92.4336 339.04 92.4782 338.303 92.4505C337.638 92.4993 337.084 92.5154 336.642 92.4988C335.979 92.4739 335.171 92.4067 334.216 92.2971C333.332 92.264 332.381 92.0808 331.361 91.7475C330.341 91.4142 329.253 90.9309 328.097 90.2976C327.017 89.5934 325.947 88.6314 324.887 87.4117C323.897 86.2684 323.092 85.132 322.47 84.0025C321.852 82.7994 321.379 81.6386 321.052 80.5202C320.799 79.4045 320.618 78.3284 320.51 77.2919C320.475 76.2582 320.474 75.2995 320.507 74.4158C320.637 70.9547 320.847 68.3078 321.137 66.4751C321.504 64.5715 322.08 62.9707 322.866 61.6728C323.494 60.664 324.345 59.5898 325.421 58.4502C326.496 57.3107 327.785 56.3635 329.288 55.6088C330.862 54.9304 332.173 54.3896 333.221 53.9865C334.342 53.5861 335.273 53.3261 336.015 53.2065C336.834 53.0159 337.501 52.9304 338.016 52.9497C338.534 52.8954 339.051 52.878 339.567 52.8973L340.119 52.918ZM343.598 66.3226C342.641 66.2867 341.555 66.7252 340.341 67.6383C339.203 68.4806 338.583 70.264 338.481 72.9887C338.442 74.0197 338.556 74.9089 338.823 75.6564C339.093 76.3302 339.44 76.8963 339.865 77.3547C340.291 77.8132 340.72 78.1611 341.154 78.3986C341.664 78.5653 342.103 78.6555 342.471 78.6693C344.091 78.7301 345.291 78.1852 346.072 77.0346C346.855 75.8104 347.283 74.2409 347.355 72.3263C347.407 70.9271 347.163 69.5905 346.62 68.3165C346.078 67.0425 345.071 66.3779 343.598 66.3226Z" fill="var(--fill-0, #E54B25)"/>
<path id="Vector_12" d="M310.04 12.8521C310.188 12.8576 310.482 12.8687 310.924 12.8852C311.366 12.9018 311.808 12.9184 312.249 12.935C312.768 12.8807 313.248 12.8619 313.69 12.8784C314.131 12.895 314.463 12.9075 314.684 12.9158C315.567 12.9489 316.33 13.2725 316.97 13.8865C317.611 14.5005 317.912 15.323 317.873 16.354L317.828 17.569C317.636 18.7418 317.484 19.8422 317.372 20.8704C317.262 21.825 317.183 22.965 317.133 24.2906C317.119 24.6588 317.096 25.2847 317.062 26.1684C317.032 26.9784 316.999 27.8621 316.963 28.8195C317.001 29.7795 317.003 30.7014 316.97 31.5851C316.936 32.4688 316.913 33.0947 316.899 33.4629C316.888 33.7575 316.826 34.4189 316.714 35.4471C316.675 36.4781 316.649 37.1776 316.635 37.5459C316.613 38.135 316.576 39.1291 316.523 40.5283C316.471 41.9275 316.414 43.4371 316.353 45.0572C316.293 46.6773 316.234 48.2237 316.179 49.6965C316.127 51.0957 316.089 52.0899 316.067 52.679C316.051 53.1208 316.02 53.9309 315.976 55.1091C316.008 56.2165 315.999 57.4329 315.95 58.7585C315.976 60.0131 315.968 61.2296 315.923 62.4078C315.953 63.5888 315.958 64.4371 315.938 64.9526L315.706 71.1384C315.665 72.243 315.578 73.5671 315.446 75.1108C315.388 76.6573 315.339 77.9828 315.297 79.0874C315.286 79.382 315.267 79.8974 315.239 80.6338C315.288 81.2994 315.297 82.0372 315.267 82.8472C315.313 83.5864 315.322 84.3242 315.294 85.0606C315.343 85.7261 315.362 86.2061 315.351 86.5007C315.301 87.8262 315.115 88.8517 314.793 89.577C314.544 90.3051 313.974 90.7631 313.082 90.9508C312.932 91.0189 312.489 91.0392 311.752 91.0115C311.016 90.9839 310.5 90.9645 310.206 90.9535C309.985 90.9452 309.617 90.9314 309.101 90.912C308.589 90.819 308.038 90.7615 307.449 90.7394C306.859 90.7173 306.27 90.6951 305.681 90.673C305.168 90.58 304.802 90.5294 304.581 90.5211C304.213 90.5073 303.475 90.5165 302.367 90.5486C301.26 90.5808 300.522 90.59 300.154 90.5762C298.681 90.5209 297.701 90.1154 297.213 89.3596C296.802 88.533 296.607 87.8251 296.629 87.236C296.64 86.9414 296.662 86.3523 296.695 85.4686C296.805 84.5141 296.879 83.5213 296.918 82.4903C296.956 81.4594 296.994 80.4652 297.03 79.5079C297.139 78.5533 297.201 77.8919 297.215 77.5237C297.276 75.9036 297.298 74.319 297.283 72.7698C297.343 71.1497 297.404 69.5296 297.465 67.9095C297.476 67.6149 297.494 67.1363 297.519 66.4735C297.547 65.7371 297.576 64.9639 297.606 64.1538C297.713 63.2729 297.78 62.4642 297.808 61.7278C297.835 60.9914 297.855 60.4759 297.866 60.1814C297.88 59.8132 297.869 59.1122 297.834 58.0785C297.873 57.0475 297.876 55.9783 297.844 54.871C297.888 53.6927 297.893 52.5867 297.858 51.553C297.899 50.4484 297.928 49.6752 297.945 49.2333C297.956 48.9388 297.974 48.4601 297.999 47.7973C298.026 47.0609 298.055 46.2877 298.086 45.4777C298.193 44.5967 298.26 43.7881 298.288 43.0517C298.315 42.3153 298.335 41.7998 298.346 41.5052C298.357 41.2107 298.375 40.732 298.399 40.0692C298.427 39.3328 298.418 38.595 298.372 37.8559C298.402 37.0458 298.431 36.2726 298.459 35.5362C298.487 34.7998 298.506 34.2843 298.517 33.9897C298.531 33.6215 298.556 32.9588 298.592 32.0014C298.701 31.0469 298.775 30.0541 298.814 29.0231C298.929 27.9213 299.005 26.8917 299.041 25.9344C299.15 24.9798 299.213 24.2816 299.23 23.8398C299.246 23.3979 299.269 22.8088 299.296 22.0724C299.324 21.336 299.283 20.4496 299.175 19.4131C299.123 18.8212 299.1 18.4516 299.106 18.3043C299.114 18.0834 299.122 17.8625 299.131 17.6415C299.211 15.506 299.521 14.1165 300.061 13.4731C300.602 12.8296 301.866 12.5453 303.854 12.6199L310.04 12.8521Z" fill="var(--fill-0, #E54B25)"/>
<path id="Vector_13" d="M290.386 85.5636C290.339 86.8155 289.862 87.7194 288.956 88.2754C288.127 88.7604 287.452 89.0669 286.931 89.1949C285.889 89.4507 284.408 89.6164 282.487 89.6918C280.641 89.77 278.796 89.8113 276.952 89.8159C275.179 89.8968 273.593 89.911 272.194 89.8585C270.792 89.8796 270.054 89.8888 269.981 89.886C267.403 89.7893 265.164 89.5209 263.263 89.0808C261.439 88.5699 259.944 88.1082 258.78 87.6957C257.76 87.3625 257.033 87.0771 256.6 86.8396C256.169 86.5284 255.562 85.9895 254.78 85.2227C253.567 84.1447 252.604 83.2605 251.893 82.5701C251.181 81.8797 250.579 81.2303 250.085 80.6218C249.666 80.0161 249.283 79.4118 248.937 78.8088C248.664 78.2086 248.397 77.4612 248.136 76.5664C247.744 75.2243 247.416 74.1427 247.152 73.3216C246.964 72.4296 246.809 71.6495 246.686 70.9812C246.567 70.2393 246.484 69.4987 246.438 68.7595C246.468 67.9495 246.469 66.954 246.439 65.773C246.448 65.552 246.426 65.1456 246.375 64.5537C246.397 63.9646 246.383 63.3373 246.335 62.6718C246.289 61.9326 246.24 61.2671 246.188 60.6752C246.213 60.0124 246.23 59.5706 246.238 59.3496C246.268 58.5396 246.336 57.7309 246.44 56.9237C246.547 56.0427 246.615 55.1972 246.646 54.3872C246.856 52.699 246.995 50.9712 247.061 49.2038C247.13 47.3628 247.382 45.5655 247.817 43.812C248.082 42.642 248.453 41.5867 248.931 40.6459C249.485 39.6343 249.997 38.7686 250.467 38.0488C250.939 37.2553 251.369 36.6078 251.756 36.1061C252.144 35.6044 252.414 35.2827 252.567 35.141C253.721 33.8569 255.015 32.7993 256.447 31.9681C257.953 31.1397 259.526 30.4982 261.165 30.0435C262.807 29.5152 264.443 29.171 266.071 29.0109C267.702 28.7771 269.254 28.6879 270.727 28.7432C275.366 28.9173 278.951 29.6787 281.482 31.0273C284.088 32.3051 286.207 33.8226 287.837 35.5799C288.05 35.8091 288.435 36.3398 288.994 37.172C289.626 38.0069 290.248 39.1364 290.858 40.5604C291.471 41.9109 291.999 43.5531 292.443 45.4871C292.889 47.3474 293.067 49.4927 292.976 51.9228C292.937 52.9538 292.861 53.9834 292.749 55.0116C292.64 55.9661 292.565 56.9589 292.527 57.9899L292.431 60.5305C292.406 61.1932 292.384 61.7823 292.365 62.2978C292.348 62.7397 292.258 63.1788 292.094 63.6151C292.018 63.6859 291.826 63.9 291.517 64.2571C291.282 64.617 290.974 64.9742 290.592 65.3285C290.21 65.6829 289.754 66.0345 289.225 66.3834C288.698 66.6586 288.177 66.7865 287.662 66.7672C287.441 66.7589 286.89 66.7013 286.009 66.5945C285.128 66.4877 284.541 66.4288 284.246 66.4177C284.025 66.4094 283.729 66.4352 283.358 66.495C283.064 66.484 282.547 66.5014 281.808 66.5474C281.068 66.5934 280.145 66.6325 279.038 66.6647C278.007 66.626 277.086 66.5915 276.276 66.5611C275.908 66.5472 275.503 66.532 275.061 66.5154C274.693 66.5016 274.289 66.4496 273.85 66.3594C273.703 66.3538 273.445 66.3442 273.077 66.3303C272.712 66.2429 272.308 66.1909 271.866 66.1743C271.427 66.0841 270.987 66.0307 270.545 66.0141C270.179 65.9266 269.96 65.8815 269.886 65.8787C267.751 65.7986 266.492 65.9357 266.11 66.2901C265.728 66.6444 265.517 67.3371 265.479 68.3681C265.457 68.9572 265.434 69.5463 265.412 70.1355C265.467 70.6537 265.67 71.1407 266.021 71.5963C266.572 72.6494 267.246 73.3384 268.045 73.6634C268.847 73.9147 269.759 74.1702 270.782 74.4298C271.366 74.5992 272.023 74.7714 272.754 74.9463C273.561 75.0503 274.038 75.1051 274.185 75.1106L274.406 75.1189C275.732 75.1687 277.393 75.1204 279.39 74.9741C281.389 74.7542 282.989 74.3718 284.189 73.8269C285.013 73.4891 285.574 73.2889 285.871 73.2263C286.168 73.1637 286.611 73.1435 287.201 73.1656C288.084 73.1988 288.74 73.4078 289.168 73.7926C289.673 74.1065 290.026 74.5253 290.227 75.0491C290.431 75.4992 290.523 76.0189 290.5 76.608C290.552 77.1999 290.568 77.7536 290.549 78.269C290.485 79.9628 290.44 81.1778 290.412 81.9142C290.384 82.6506 290.399 83.2412 290.456 83.6858L290.386 85.5636ZM275.16 49.1524C275.248 46.7959 274.833 45.0842 273.915 44.0173C272.996 42.9504 272.021 42.3976 270.99 42.3589C270.696 42.3478 270.436 42.375 270.213 42.4403C270.066 42.4348 269.768 42.4974 269.321 42.6281C268.947 42.7615 268.535 42.9304 268.085 43.1348C267.711 43.2682 267.328 43.6594 266.935 44.3084C266.929 44.4556 266.805 44.8197 266.562 45.4005C266.393 45.9841 266.22 46.6414 266.045 47.3722C265.871 48.1031 265.697 48.7972 265.525 49.4544C265.353 50.1116 265.262 50.5507 265.254 50.7716C265.202 52.1708 265.389 53.0628 265.817 53.4476C266.248 53.7587 266.758 53.9254 267.347 53.9475C267.642 53.9585 268.231 53.9806 269.115 54.0138C270.075 53.9761 270.739 53.9642 271.107 53.978C271.254 53.9835 271.548 54.0314 271.987 54.1216C272.429 54.1382 272.723 54.1493 272.87 54.1548C273.459 54.1769 273.945 54.0108 274.327 53.6564C274.783 53.3048 275.023 52.7976 275.048 52.1348L275.16 49.1524Z" fill="var(--fill-0, #E54B25)"/>
<path id="Vector_14" d="M197.819 23.1305C197.861 22.0259 197.865 20.9199 197.833 19.8125C197.875 18.7079 197.916 17.6033 197.958 16.4987C197.963 16.3514 197.981 15.8727 198.012 15.0627C198.118 14.1818 198.228 13.2272 198.34 12.199C198.464 10.8762 198.83 9.96817 199.438 9.4748C200.049 8.90779 200.76 8.63949 201.57 8.66989C201.791 8.67819 202.195 8.73021 202.781 8.82596C203.444 8.85084 204.106 8.87572 204.769 8.90059C205.506 8.92824 206.167 8.98993 206.753 9.08568C207.416 9.11056 207.858 9.12715 208.079 9.13544C208.3 9.14373 208.631 9.15617 209.073 9.17275C209.518 9.1157 209.998 9.09685 210.513 9.1162C211.102 9.13831 211.618 9.15766 212.06 9.17424C212.504 9.11719 212.837 9.09281 213.058 9.1011C213.426 9.11492 213.865 9.20514 214.375 9.37177C214.888 9.46476 215.351 9.88775 215.766 10.6407C215.973 11.0172 216.069 11.3896 216.055 11.7578C216.115 12.1288 216.118 13.0506 216.062 14.5235C216.051 14.818 216.065 15.4453 216.102 16.4054C216.143 17.2919 216.157 17.8824 216.146 18.177C216.135 18.4715 216.037 19.1315 215.851 20.157C215.741 21.1115 215.68 21.7729 215.666 22.1411C215.66 22.2884 215.651 22.5461 215.637 22.9143C215.697 23.2853 215.724 23.5444 215.718 23.6917C215.713 23.839 215.663 24.169 215.57 24.6817C215.551 25.1972 215.539 25.5286 215.533 25.6758C215.528 25.8231 215.549 26.2295 215.598 26.8951C215.72 27.5634 216.076 27.9086 216.665 27.9307C216.96 27.9417 217.256 27.916 217.553 27.8534C217.853 27.7172 218.34 27.5142 219.014 27.2445C219.838 26.9067 220.956 26.58 222.369 26.2643C223.782 25.9486 225.262 25.8198 226.808 25.8778C229.091 25.9635 231.097 26.555 232.826 27.6523C234.631 28.6788 236.127 30.0623 237.316 31.8031C238.578 33.5466 239.494 35.6458 240.066 38.1008C240.64 40.4822 240.876 43.0352 240.774 45.7599C240.722 47.1591 240.624 48.7778 240.481 50.6161C240.412 52.4571 240.351 54.0772 240.299 55.4763C240.29 55.6973 240.237 56.1377 240.138 56.7977C240.116 57.3868 240.092 58.0496 240.064 58.786C240.036 59.5224 239.973 60.2206 239.875 60.8806C239.853 61.4697 239.836 61.9116 239.825 62.2061C239.811 62.5744 239.788 63.2003 239.754 64.084C239.798 64.8968 239.837 65.8201 239.872 66.8538C239.909 67.8139 239.91 68.7726 239.874 69.7299C239.915 70.6164 239.928 71.2437 239.914 71.6119C239.906 71.8328 239.854 72.2365 239.758 72.8228C239.736 73.4119 239.713 74.0379 239.688 74.7007C239.663 75.3634 239.601 76.0248 239.503 76.6848C239.481 77.2739 239.465 77.6789 239.457 77.8999C239.449 78.1208 239.435 78.489 239.416 79.0045C239.473 79.4491 239.49 79.9659 239.468 80.5551C239.446 81.1442 239.425 81.6965 239.406 82.212C239.46 82.7302 239.483 83.0998 239.475 83.3207C239.464 83.6153 239.412 84.0189 239.319 84.5317C239.299 85.0471 239.168 85.5953 238.925 86.1761C238.759 86.6861 238.446 87.1537 237.988 87.579C237.606 87.9333 237.046 88.0967 236.31 88.0691C236.089 88.0608 235.721 88.047 235.205 88.0276C234.693 87.9346 234.105 87.8757 233.442 87.8508C232.853 87.8287 232.264 87.8066 231.675 87.7845C231.088 87.6887 230.685 87.6367 230.464 87.6284C230.317 87.6229 229.985 87.6104 229.47 87.5911C229.028 87.5745 228.511 87.592 227.919 87.6435C227.404 87.6241 226.888 87.6048 226.373 87.5854C225.931 87.5689 225.599 87.5564 225.378 87.5481C223.39 87.4735 222.077 87.0924 221.439 86.4047C220.878 85.6462 220.633 84.3096 220.705 82.395C220.713 82.174 220.725 81.8427 220.742 81.4008C220.835 80.8881 220.928 80.3754 221.021 79.8626C221.117 79.2763 221.173 78.7622 221.19 78.3204C221.283 77.8076 221.333 77.4408 221.341 77.2199C221.347 77.0726 221.321 76.7767 221.264 76.3321C221.281 75.8902 221.299 75.4115 221.318 74.8961C221.337 74.3806 221.319 73.9005 221.262 73.4559C221.278 73.0141 221.291 72.6827 221.299 72.4618C221.304 72.3145 221.317 71.9831 221.336 71.4676C221.355 70.9522 221.375 70.4367 221.394 69.9212C221.49 69.3348 221.547 68.7839 221.567 68.2684C221.586 67.7529 221.6 67.3847 221.608 67.1638C221.617 66.9429 221.596 66.4997 221.548 65.8341C221.572 65.1714 221.599 64.4718 221.626 63.7354C221.657 62.9253 221.648 62.1876 221.599 61.522C221.624 60.8593 221.642 60.3806 221.653 60.086C221.664 59.7915 221.683 59.276 221.711 58.5396C221.815 57.7323 221.919 56.925 222.023 56.1177C222.13 55.2368 222.197 54.4281 222.225 53.6917C222.329 52.8845 222.386 52.3335 222.397 52.039C222.5 49.3143 222.239 47.424 221.615 46.3682C221.064 45.3151 220.163 44.765 218.911 44.718C218.396 44.6987 217.989 44.7203 217.692 44.7829C217.468 44.8483 217.28 44.9518 217.127 45.0936C216.977 45.1617 216.632 45.5174 216.092 46.1608C215.628 46.7334 215.331 47.7547 215.202 49.2247C215.199 49.2984 215.145 49.7756 215.038 50.6566C215.005 51.5403 214.931 52.533 214.815 53.6349C214.774 54.7395 214.735 55.7704 214.699 56.7278C214.663 57.6851 214.641 58.2742 214.633 58.4951C214.625 58.7161 214.608 59.1579 214.583 59.8207C214.632 60.4862 214.641 61.224 214.611 62.034C214.583 62.7704 214.556 63.5068 214.528 64.2433C214.577 64.9088 214.595 65.3888 214.584 65.6834C214.571 66.0516 214.51 66.6762 214.403 67.5571C214.37 68.4408 214.334 69.3981 214.296 70.429C214.26 71.3864 214.187 72.3423 214.077 73.2969C214.044 74.1806 214.021 74.8065 214.007 75.1747L213.837 79.7036C213.829 79.9245 213.845 80.4782 213.885 81.3647C213.926 82.2511 213.94 82.8416 213.929 83.1362C213.877 84.5354 213.58 85.5567 213.04 86.2001C212.655 86.6281 212.241 86.8706 211.796 86.9277C211.351 86.9847 210.687 86.9967 209.803 86.9635C208.92 86.9303 208.036 86.8972 207.152 86.864C206.271 86.7572 205.389 86.6872 204.505 86.654C204.064 86.6374 203.622 86.6209 203.18 86.6043C202.738 86.5877 202.295 86.6079 201.85 86.665C201.629 86.6567 201.149 86.6755 200.41 86.7215C199.671 86.7675 199.154 86.785 198.86 86.774C197.976 86.7408 197.319 86.5686 196.888 86.2575C196.457 85.9463 196.14 85.5657 195.935 85.1156C195.731 84.6654 195.6 84.218 195.543 83.7734C195.56 83.3316 195.573 82.9634 195.585 82.6688C195.593 82.4479 195.607 82.0797 195.626 81.5642C195.722 80.9779 195.781 80.3901 195.803 79.801C195.825 79.2119 195.846 78.6596 195.865 78.1441C195.961 77.5577 196.013 77.1541 196.021 76.9332C196.032 76.6386 196.05 76.1599 196.075 75.4972C196.103 74.7608 196.095 73.9862 196.052 73.1734C196.085 72.2897 196.115 71.4796 196.143 70.7432C196.17 70.0068 196.19 69.4913 196.201 69.1968C196.212 68.9022 196.231 68.3867 196.259 67.6503C196.363 66.843 196.432 65.9975 196.465 65.1139C196.498 64.2302 196.528 63.4201 196.556 62.6837C196.66 61.8764 196.719 61.2887 196.733 60.9205C196.747 60.5523 196.735 59.8881 196.697 58.9281C196.733 57.9707 196.735 56.9384 196.703 55.831C196.744 54.7264 196.746 53.694 196.708 52.734C196.747 51.703 196.775 50.9666 196.791 50.5247C196.802 50.2302 196.823 49.6779 196.853 48.8678C196.96 47.9869 197.031 47.0678 197.067 46.1105C197.103 45.1531 197.136 44.2694 197.167 43.4594C197.274 42.5785 197.334 41.9539 197.348 41.5857L197.435 39.266C197.446 38.9715 197.506 38.3469 197.616 37.3924C197.725 36.4378 197.787 35.7764 197.801 35.4082C197.812 35.1136 197.795 34.5968 197.749 33.8576C197.776 33.1212 197.768 32.3466 197.725 31.5338C197.685 30.6473 197.641 29.8345 197.595 29.0954C197.623 28.3589 197.644 27.8066 197.658 27.4384L197.819 23.1305Z" fill="var(--fill-0, #E54B25)"/>
<path id="Vector_15" d="M160.752 60.3442C160.76 60.1233 160.786 59.4237 160.83 58.2455C160.948 57.07 161.033 55.7827 161.086 54.3835C161.215 52.9134 161.303 51.5525 161.35 50.3006C161.473 48.9778 161.542 48.1323 161.556 47.7641C161.854 45.7105 162.377 43.5547 163.126 41.2967C163.951 38.9678 164.681 37.1885 165.317 35.9588C167.067 32.5585 169.679 29.7805 173.152 27.6248C176.702 25.3982 180.833 24.3733 185.546 24.5502C187.755 24.6332 189.479 24.8822 190.717 25.2974C191.958 25.639 192.542 26.7671 192.47 28.6817C192.462 28.9027 192.411 29.2695 192.318 29.7822C192.299 30.2977 192.277 30.8868 192.252 31.5496C192.23 32.1387 192.171 32.7264 192.075 33.3128C192.056 33.8283 192.042 34.1965 192.034 34.4174C192.028 34.5647 192.017 34.8592 192.001 35.3011C191.987 35.6693 191.97 36.1111 191.951 36.6266C192.008 37.0712 192.028 37.5145 192.011 37.9563C191.998 38.3245 191.987 38.6191 191.978 38.84L191.895 41.0492C191.829 42.8166 191.275 43.8282 190.233 44.084C189.191 44.3399 188.044 44.4444 186.792 44.3974C185.098 44.3338 183.831 44.6918 182.991 45.4715C182.224 46.2539 181.641 47.0432 181.243 47.8394C181.005 48.273 180.803 48.7447 180.636 49.2547C180.546 49.6937 180.412 50.3155 180.234 51.1201C180.133 51.8537 180.022 52.8451 179.902 54.0942C179.857 55.2725 179.799 56.8189 179.727 58.7336C179.672 60.2064 179.808 61.502 180.135 62.6204C180.535 63.7416 181.016 64.6815 181.577 65.44C182.142 66.1249 182.748 66.6638 183.397 67.0569C184.12 67.4528 184.811 67.6999 185.471 67.7985C185.984 67.8915 186.461 67.9462 186.903 67.9628C187.421 67.9085 187.898 67.9633 188.335 68.1272C188.918 68.2966 189.423 68.6105 189.848 69.0689C190.347 69.5301 190.581 70.1657 190.551 70.9758C190.54 71.2703 190.53 71.5281 190.522 71.749C190.513 71.9699 190.463 72.3367 190.37 72.8495C190.348 73.4386 190.292 73.9527 190.201 74.3918C190.188 74.76 190.17 75.2386 190.147 75.8278C190.128 76.3432 190.102 77.0428 190.069 77.9265C190.038 78.7366 189.998 79.8043 189.948 81.1299C189.943 81.2772 189.928 81.6822 189.903 82.3449C189.952 83.0105 189.972 83.4537 189.964 83.6746C189.93 84.5583 189.648 85.2114 189.116 85.6339C188.584 86.0564 188.204 86.3371 187.978 86.4761C187.751 86.6151 187.416 86.7131 186.971 86.7702C186.524 86.9009 185.637 86.9413 184.312 86.8916C182.986 86.8418 181.773 86.7594 180.671 86.6443C179.716 86.5347 178.762 86.4252 177.807 86.3156C176.924 86.2824 176.264 86.1839 175.827 86.02C172.323 85.0773 169.611 83.6481 167.692 81.7325C165.846 79.8196 164.251 77.1418 162.905 73.699C162.499 72.7251 162.127 71.8262 161.79 71.0024C161.528 70.1076 161.305 69.1774 161.12 68.2118C160.938 67.1726 160.796 66.0242 160.696 64.7668C160.67 63.5121 160.688 62.038 160.752 60.3442Z" fill="var(--fill-0, #E54B25)"/>
<path id="Vector_16" d="M110.531 51.4904C110.578 50.2385 110.624 49.0234 110.668 47.8451C110.786 46.6697 110.979 45.4601 111.246 44.2165C111.334 43.8511 111.428 43.3015 111.53 42.5679C111.705 41.837 111.881 41.0693 112.059 40.2648C112.313 39.3894 112.527 38.5863 112.702 37.8554C112.877 37.1245 113.045 36.5778 113.206 36.2151C113.291 35.9233 113.459 35.3765 113.71 34.5748C114.035 33.7758 114.475 32.8705 115.029 31.8588C115.583 30.8472 116.248 29.8398 117.023 28.8364C117.874 27.7622 118.869 26.804 120.007 25.9618C121.447 24.9097 122.878 24.1154 124.3 23.5788C125.724 22.9685 127.067 22.5396 128.33 22.292C129.593 22.0445 130.74 21.94 131.771 21.9787C132.878 21.9465 133.837 21.9457 134.647 21.9761C135.531 22.0092 136.56 22.0847 137.736 22.2026C138.911 22.3205 140.155 22.5884 141.467 23.0063C142.855 23.3534 144.235 23.9214 145.606 24.7104C147.051 25.502 148.413 26.5487 149.692 27.8503C150.046 28.2324 150.68 29.0305 151.593 30.2447C152.582 31.388 153.415 32.7835 154.09 34.4312C154.701 35.8553 155.164 37.2738 155.479 38.6868C155.798 40.0261 156.002 41.4718 156.091 43.0238C156.254 44.5785 156.299 46.3132 156.227 48.2279C156.232 50.0716 156.19 52.1718 156.102 54.5283C156.044 56.0747 155.909 57.6921 155.698 59.3803C155.49 60.9948 155.249 62.4975 154.976 63.8884C154.776 65.282 154.548 66.4534 154.291 67.4024C154.108 68.3542 154.015 68.8669 154.012 68.9406C153.498 70.8387 152.724 72.8007 151.689 74.8267C150.728 76.8555 149.406 78.6863 147.722 80.3192C146.038 81.9521 143.961 83.2753 141.489 84.2887C139.02 85.2284 136.055 85.6334 132.594 85.5034C129.501 85.3873 126.642 84.9482 124.016 84.1859C121.387 83.4973 119.042 82.1187 116.981 80.0503C116.411 79.5127 115.739 78.75 114.965 77.7623C114.194 76.7009 113.467 75.42 112.786 73.9195C112.182 72.3482 111.625 70.4837 111.116 68.326C110.607 66.1683 110.331 63.6875 110.289 60.8837C110.306 60.4418 110.284 60.0354 110.224 59.6645C110.238 59.2962 110.256 58.8176 110.278 58.2285C110.303 57.5657 110.335 56.7188 110.373 55.6879C110.412 54.6569 110.465 53.2577 110.531 51.4904ZM137.797 47.0936C137.814 46.6518 137.763 46.023 137.647 45.2075C137.603 44.3947 137.45 43.5777 137.186 42.7566C136.924 41.8619 136.51 41.1089 135.943 40.4976C135.45 39.8892 134.761 39.5683 133.877 39.5352C133.141 39.5075 132.505 39.7418 131.97 40.2379C131.438 40.6604 130.977 41.1593 130.587 41.7346C130.27 42.3127 130.027 42.8935 129.858 43.4771C129.688 44.0607 129.563 44.4616 129.481 44.6797C129.131 46.1415 128.897 47.4601 128.779 48.6356C128.738 49.7402 128.718 51.2512 128.72 53.1686C128.706 53.5368 128.64 54.3087 128.522 55.4842C128.478 56.6624 128.449 57.4356 128.435 57.8038C128.341 60.3076 128.554 62.4911 129.074 64.3542C129.597 66.1437 130.705 67.0702 132.399 67.1338C133.356 67.1697 134.255 66.7979 135.096 66.0182C135.939 65.1649 136.501 63.9324 136.783 62.3206C136.882 61.6606 136.979 61.0374 137.074 60.4511C137.17 59.8647 137.237 59.056 137.276 58.0251C137.388 56.9969 137.476 55.6359 137.54 53.9422C137.604 52.2484 137.689 49.9656 137.797 47.0936Z" fill="var(--fill-0, #E54B25)"/>
<path id="Vector_17" d="M59.9393 49.5913C59.9863 48.3394 60.0319 47.1244 60.0761 45.9461C60.194 44.7706 60.3869 43.5611 60.6548 42.3175C60.7422 41.9521 60.8366 41.4025 60.9379 40.6689C61.1128 39.938 61.2891 39.1703 61.4668 38.3658C61.7209 37.4904 61.9354 36.6873 62.1103 35.9564C62.2852 35.2255 62.4532 34.6787 62.6144 34.3161C62.699 34.0243 62.8671 33.4775 63.1184 32.6757C63.4434 31.8768 63.8829 30.9714 64.4371 29.9598C64.9913 28.9482 65.6559 27.9407 66.431 26.9374C67.2825 25.8632 68.2772 24.905 69.415 24.0628C70.8556 23.0107 72.2866 22.2163 73.7078 21.6797C75.1319 21.0695 76.4754 20.6406 77.7383 20.393C79.0013 20.1454 80.1482 20.041 81.1792 20.0797C82.2866 20.0475 83.2453 20.0466 84.0553 20.077C84.939 20.1102 85.9686 20.1857 87.1441 20.3036C88.3196 20.4215 89.5632 20.6894 90.8749 21.1073C92.263 21.4544 93.6428 22.0224 95.0143 22.8113C96.4595 23.603 97.8214 24.6497 99.0999 25.9513C99.4543 26.3334 100.088 27.1315 101.001 28.3456C101.991 29.4889 102.823 30.8845 103.499 32.5322C104.109 33.9562 104.572 35.3748 104.888 36.7878C105.206 38.1271 105.41 39.5728 105.499 41.1248C105.662 42.6795 105.708 44.4142 105.636 46.3288C105.64 48.1726 105.598 50.2728 105.51 52.6293C105.452 54.1757 105.317 55.793 105.106 57.4812C104.898 59.0958 104.658 60.5985 104.384 61.9894C104.184 63.383 103.956 64.5544 103.699 65.5034C103.516 66.4552 103.423 66.9679 103.42 67.0416C102.906 68.9396 102.132 70.9017 101.098 72.9277C100.136 74.9564 98.8141 76.7873 97.1304 78.4202C95.4468 80.0531 93.3691 81.3763 90.8975 82.3897C88.4287 83.3294 85.4637 83.7343 82.0026 83.6044C78.9097 83.4883 76.0502 83.0491 73.424 82.2869C70.7951 81.5982 68.4501 80.2197 66.3892 78.1512C65.8194 77.6136 65.1475 76.851 64.3733 75.8632C63.602 74.8019 62.8758 73.521 62.1946 72.0205C61.5899 70.4492 61.0331 68.5847 60.5241 66.427C60.0152 64.2693 59.7395 61.7885 59.6973 58.9846C59.7139 58.5428 59.6923 58.1364 59.6325 57.7654C59.6463 57.3972 59.6642 56.9186 59.6864 56.3294C59.7112 55.6667 59.743 54.8198 59.7817 53.7888C59.8204 52.7579 59.8729 51.3587 59.9393 49.5913ZM87.2053 45.1946C87.2219 44.7527 87.1718 44.124 87.0549 43.3085C87.0117 42.4956 86.858 41.6787 86.5938 40.8576C86.3324 39.9628 85.9182 39.2099 85.3512 38.5986C84.8578 37.9901 84.1693 37.6693 83.2856 37.6362C82.5492 37.6085 81.9136 37.8428 81.3788 38.3389C80.8467 38.7614 80.3855 39.2603 79.9952 39.8356C79.6785 40.4137 79.4355 40.9945 79.2661 41.5781C79.0967 42.1617 78.971 42.5626 78.8891 42.7807C78.5392 44.2425 78.3054 45.5611 78.1875 46.7366C78.1461 47.8412 78.1262 49.3522 78.128 51.2696C78.1142 51.6378 78.0483 52.4097 77.9305 53.5851C77.8862 54.7634 77.8572 55.5366 77.8434 55.9048C77.7494 58.4086 77.9624 60.592 78.4824 62.4552C79.0052 64.2447 80.1135 65.1712 81.8072 65.2348C82.7645 65.2707 83.6634 64.8988 84.5039 64.1192C85.3471 63.2659 85.9096 62.0334 86.1913 60.4216C86.2898 59.7616 86.387 59.1384 86.4827 58.552C86.5785 57.9657 86.6457 57.157 86.6844 56.1261C86.7967 55.0979 86.8847 53.7369 86.9483 52.0431C87.0118 50.3494 87.0975 48.0666 87.2053 45.1946Z" fill="var(--fill-0, #E54B25)"/>
<path id="Vector_18" d="M1.49253 40.4287C1.54781 38.9558 1.633 37.6685 1.74811 36.5667C1.93685 35.4676 2.12421 34.4053 2.31019 33.3799C2.40041 32.9408 2.49064 32.5017 2.58087 32.0627C2.67386 31.5499 2.76546 31.074 2.85569 30.635C3.03614 29.7568 3.17839 28.9141 3.28243 28.1068C3.38924 27.2259 3.53149 26.3832 3.70918 25.5786C3.97156 24.4823 4.38537 23.2811 4.95061 21.9749C5.51585 20.6687 6.11653 19.4007 6.75264 18.171C7.38876 16.9412 7.98252 15.8573 8.53394 14.9193C9.16176 13.9105 9.63125 13.1907 9.94239 12.7599C10.9467 11.5439 12.3248 10.1945 14.0765 8.71163C15.9047 7.15787 17.6836 5.93412 19.4133 5.04037C21.2194 4.07574 23.2749 3.34171 25.5799 2.83827C27.8848 2.33484 30.1106 1.97592 32.2573 1.76152C34.4775 1.54988 36.4359 1.43903 38.1324 1.42897C39.8289 1.4189 41.0085 1.4263 41.6713 1.45118C41.9659 1.46223 42.5168 1.51979 43.3241 1.62384C44.1341 1.65424 44.981 1.68603 45.8647 1.7192C46.7484 1.75237 47.5938 1.82098 48.4011 1.92502C49.2112 1.95543 49.8003 1.97754 50.1685 1.99136C51.1995 2.03006 52.0339 2.39323 52.6718 3.08087C53.3861 3.69764 53.7211 4.59514 53.6769 5.77339C53.6686 5.99432 53.6138 6.4716 53.5125 7.20524C53.4849 7.94164 53.4655 8.45713 53.4545 8.75169L53.1642 16.4839C53.1338 17.294 53.1062 18.0304 53.0813 18.6932C53.0564 19.3559 52.9634 19.8686 52.8023 20.2313C52.4774 21.0303 51.862 21.7078 50.9562 22.2637C50.1268 22.7488 49.3439 22.9775 48.6075 22.9499C48.0184 22.9278 47.4702 22.7966 46.963 22.5563C46.674 22.398 46.385 22.2396 46.0959 22.0813C45.8069 21.923 45.481 21.7632 45.1184 21.6021C44.5403 21.2855 43.9199 21.1147 43.2571 21.0898C42.5971 20.9913 41.9725 20.931 41.3834 20.9089C40.7943 20.8867 40.242 20.866 39.7265 20.8467C39.2874 20.7564 38.7733 20.7003 38.1842 20.6782C36.2696 20.6063 34.6057 20.7282 33.1927 21.0439C31.8562 21.2887 30.6981 21.6877 29.7187 22.2409C28.8129 22.7968 28.0516 23.432 27.4349 24.1463C26.8181 24.8605 26.2736 25.6144 25.8013 26.4079C25.4 27.2777 25.116 27.9677 24.9493 28.4776C24.7827 28.9876 24.5995 29.9394 24.3997 31.333C24.3095 31.7721 24.2192 32.2112 24.129 32.6502C24.0388 33.0893 23.9486 33.5284 23.8583 33.9675C23.5223 35.061 23.2599 36.1574 23.0712 37.2564C22.8824 38.3555 22.7563 39.7519 22.6927 41.4456C22.6844 41.6666 22.6706 42.0348 22.6512 42.5503C22.6319 43.0657 22.6112 43.618 22.589 44.2072C22.6406 44.7991 22.6567 45.3527 22.6373 45.8682C22.618 46.3837 22.6041 46.7519 22.5959 46.9728C22.5737 47.562 22.5516 48.1511 22.5295 48.7402C22.5838 49.2585 22.7785 49.9663 23.1135 50.8638C23.3777 51.6849 23.6432 52.4692 23.9101 53.2167C24.2507 53.9669 24.5899 54.754 24.9277 55.5778C25.1946 56.3253 25.4601 57.1096 25.7243 57.9307C26.0648 58.6809 26.5172 59.3984 27.0815 60.0833C27.6485 60.6946 28.3655 61.2377 29.2326 61.7127C30.1762 62.1168 31.3107 62.3438 32.6362 62.3935C32.9308 62.4046 33.299 62.4184 33.7408 62.435C34.1854 62.3779 34.6314 62.2841 35.0788 62.1534C35.5261 62.0227 35.9026 61.8156 36.2083 61.5321C36.5166 61.1749 36.6833 60.665 36.7082 60.0022C36.7192 59.7076 36.7031 59.154 36.6599 58.3411C36.6166 57.5283 36.5992 57.0115 36.6075 56.7905C36.6213 56.4223 36.6844 55.7241 36.7967 54.6959C36.909 53.6677 36.9721 52.9695 36.9859 52.6013C37.0412 51.1285 36.5999 50.1164 35.6619 49.565C34.7976 49.0163 34.1077 48.7323 33.5922 48.713C33.4449 48.7075 33.1107 48.7687 32.5897 48.8966C32.0715 48.9509 31.7387 48.9753 31.5914 48.9697C31.3705 48.9614 30.8633 48.7212 30.0699 48.2489C29.2764 47.7767 28.9004 46.9882 28.9419 45.8836C28.9474 45.7364 28.9723 45.0736 29.0165 43.8953C29.1371 42.6462 29.2237 41.3221 29.2762 39.9229C29.4052 38.4529 29.4917 37.1287 29.536 35.9505C29.6538 34.775 29.7141 34.1504 29.7169 34.0768C29.9056 32.9777 30.4543 32.1134 31.3629 31.4838C32.2714 30.8542 33.3885 30.5642 34.714 30.614C34.9349 30.6223 35.3017 30.6729 35.8145 30.7659C36.4036 30.788 36.9927 30.8101 37.5818 30.8323C38.2446 30.8571 38.8323 30.9161 39.3451 31.0091C39.9342 31.0312 40.3392 31.0464 40.5601 31.0547C40.9283 31.0685 41.407 31.0865 41.9961 31.1086C42.6589 31.1335 43.3216 31.1583 43.9844 31.1832C44.7236 31.1372 45.3877 31.1253 45.9769 31.1474C46.6396 31.1723 47.1183 31.1902 47.4128 31.2013C47.6365 31.1359 48.1548 31.0816 48.9676 31.0384C49.7804 30.9952 50.2973 30.9777 50.5182 30.986C51.3282 31.0164 52.0223 31.1899 52.6003 31.5066C53.9038 32.1455 54.6493 32.9109 54.8371 33.8029C55.0276 34.6212 55.15 35.2895 55.2043 35.8078C55.196 36.0287 55.1808 36.4337 55.1587 37.0228C55.1366 37.612 55.0763 38.2365 54.9778 38.8965C54.9529 39.5593 54.9294 40.1852 54.9073 40.7744C54.8852 41.3635 54.87 41.7685 54.8617 41.9894C54.8534 42.2104 54.8382 42.6154 54.8161 43.2045C54.7967 43.72 54.7746 44.3091 54.7497 44.9719C54.7248 45.6346 54.7013 46.2606 54.6792 46.8497C54.6599 47.3652 54.6461 47.7334 54.6378 47.9543C54.6295 48.1752 54.5747 48.6525 54.4734 49.3862C54.4485 50.0489 54.4209 50.7853 54.3905 51.5954C54.3628 52.3318 54.2998 53.03 54.2012 53.69C54.1764 54.3528 54.1584 54.8314 54.1473 55.126C54.1363 55.4205 54.1155 55.9728 54.0851 56.7829C54.1311 57.5221 54.1376 58.3335 54.1044 59.2172C54.0712 60.1009 54.0394 60.9477 54.009 61.7578C54.055 62.4969 54.0725 63.0138 54.0614 63.3084C54.0504 63.6029 54.0297 64.1552 53.9992 64.9653C53.9688 65.7753 53.8988 66.6576 53.7893 67.6122C53.7561 68.4959 53.7229 69.3796 53.6898 70.2632C53.6594 71.0733 53.6386 71.6256 53.6276 71.9202L53.5115 75.0131C53.47 76.1177 53.2882 77.0326 52.966 77.758C52.7174 78.4861 52.027 79.1976 50.8948 79.8926C50.0654 80.3777 48.9456 80.7412 47.5353 80.9833C46.1987 81.2281 44.7913 81.3965 43.3129 81.4885C41.9082 81.5832 40.5063 81.6044 39.1071 81.5518C37.7788 81.5757 36.7465 81.5738 36.0101 81.5462C36.0101 81.5462 35.6787 81.5338 35.0159 81.5089C34.3532 81.484 33.5813 81.4182 32.7004 81.3114C31.8904 81.2809 31.1171 81.2519 30.3807 81.2243C29.718 81.1994 29.313 81.1842 29.1657 81.1787C27.3274 81.0359 25.5329 80.7105 23.7821 80.2023C22.105 79.6969 20.432 79.081 18.7631 78.3546C17.2388 77.7075 15.9722 77.07 14.9633 76.4422C13.9545 75.8143 13.0575 75.1538 12.2723 74.4607C11.5608 73.7703 10.8888 73.0076 10.2565 72.1727C9.69775 71.3405 9.06954 70.3951 8.37183 69.3365C8.02021 68.8809 7.70542 68.4266 7.42744 67.9737C7.14946 67.5208 6.83605 67.0297 6.48719 66.5004C5.72137 65.2917 4.96385 63.8621 4.21461 62.2117C3.53902 60.5639 3.04614 58.9599 2.73599 57.3996C2.53994 56.7286 2.35634 55.7261 2.18517 54.3923C2.014 53.0585 1.84698 51.6142 1.68411 50.0595C1.59764 48.4339 1.51255 46.7714 1.42885 45.0722C1.41878 43.3757 1.44001 41.8278 1.49253 40.4287Z" fill="var(--fill-0, #E54B25)"/>
</g>
</svg>
