<svg viewBox="0 0 108.47 125.474" fill="none" xmlns="http://www.w3.org/2000/svg">
<path id="Vector" d="M54.2705 2.5C54.3636 2.50147 54.4552 2.52463 54.5371 2.56641L54.5469 2.57031L54.5557 2.5752C54.5052 2.55002 54.7153 2.66838 55.1211 3.34082C55.2961 3.63088 55.4674 3.95461 55.6494 4.31152C55.8145 4.63521 56.0231 5.05561 56.2061 5.39453L56.2109 5.40332L56.2158 5.41309C56.9198 6.69183 57.639 7.96202 58.3721 9.22363C60.0797 12.1844 62.3653 15.7587 64.374 18.7314L65.2158 19.9658C72.317 30.2914 80.4243 39.8902 89.4189 48.6221L89.4336 48.6367C94.6836 53.65 100.05 58.1544 105.806 62.501H105.807C105.927 62.5918 105.951 62.6543 105.957 62.6719C105.967 62.6997 105.98 62.7595 105.96 62.8594C105.921 63.0567 105.773 63.2976 105.52 63.4541L105.405 63.5156C105.04 63.683 104.658 63.9432 104.419 64.1094C104.127 64.3126 103.806 64.5518 103.502 64.7822C102.899 65.2392 102.275 65.7354 102.014 65.9395C98.0769 69.0125 94.2846 72.2657 90.6504 75.6895C77.3062 88.1392 65.7583 103.227 56.7109 118.976L56.71 118.978C55.8729 120.436 55.2194 121.689 54.4336 122.855C54.3747 122.884 54.3041 122.915 54.2236 122.945C54.1973 122.955 54.1702 122.962 54.1445 122.971C54.083 122.973 54.0425 122.972 54.0195 122.969C53.9842 122.964 53.9718 122.957 53.9688 122.956C53.9597 122.952 53.8657 122.904 53.6904 122.67C53.5002 122.416 53.3043 122.067 53.043 121.55C52.8717 121.211 52.6481 120.748 52.4023 120.291L52.1504 119.841C51.2208 118.254 50.1547 116.285 49.1162 114.58L49.1094 114.569L48.1064 112.957C45.7492 109.206 43.2778 105.528 40.6963 101.927L40.6924 101.92L39.3877 100.134C32.8127 91.2425 25.4574 82.9517 17.4092 75.3594L17.3975 75.3477L16.3027 74.334C13.7146 71.9499 10.8929 69.4475 8.14453 67.2627H8.14355C7.01789 66.3685 5.87934 65.4898 4.72852 64.6279L4.72461 64.625L3.73438 63.9199C3.43113 63.705 3.19158 63.5267 2.99219 63.3545C2.58651 63.0042 2.52853 62.8329 2.5166 62.7871L2.51563 62.7812L2.5 62.6807C2.49685 62.5963 2.51915 62.5133 2.56055 62.4385C2.5949 62.4058 2.6742 62.3308 2.82031 62.21C3.06853 62.0046 3.39212 61.761 3.75977 61.4951C4.37943 61.047 5.38519 60.3596 5.80469 60.043L5.81152 60.0371C7.33112 58.8812 8.8296 57.6974 10.3047 56.4854L10.3301 56.4639C24.0931 44.8424 36.0818 31.2752 45.915 16.1924L45.9189 16.1865C48.7883 11.758 51.4595 7.2669 53.96 2.61035C53.9832 2.59886 54.0195 2.58054 54.0752 2.56055C54.1284 2.54143 54.1924 2.52136 54.2705 2.5Z" stroke="var(--stroke-0, #384FA2)" stroke-width="5"/>
</svg>
