<svg viewBox="0 0 85.375 98.7581" fill="none" xmlns="http://www.w3.org/2000/svg">
<path id="Vector" d="M42.9297 2.9043C43.0574 3.11599 43.1854 3.35685 43.3271 3.63477C43.4519 3.87948 43.6227 4.22504 43.7705 4.49902L43.7803 4.5166C44.3364 5.5269 44.9043 6.53075 45.4834 7.52734C46.8352 9.87112 48.6406 12.6949 50.2266 15.042L50.8916 16.0166C56.5007 24.1726 62.905 31.7542 70.0098 38.6514L70.0166 38.6592L70.0244 38.666C74.1191 42.5761 78.3028 46.0925 82.7813 49.4834C82.7686 49.4919 82.7559 49.501 82.7412 49.5078C82.4046 49.662 82.0669 49.8936 81.8818 50.0225C81.6437 50.1883 81.3841 50.3812 81.1426 50.5645C80.6643 50.9272 80.165 51.3232 79.9648 51.4795C76.854 53.9078 73.8581 56.4792 70.9863 59.1846C60.4399 69.024 51.3191 80.9427 44.1748 93.3789L44.1738 93.3799C43.5736 94.4259 43.1151 95.2962 42.5967 96.1055C42.4969 95.9514 42.38 95.7393 42.2236 95.4297C42.0952 95.1753 41.9143 94.7994 41.7129 94.4248L41.5059 94.0557C40.7923 92.8377 39.9292 91.2465 39.1133 89.9072L39.1064 89.8955C37.0089 86.4925 34.7931 83.1634 32.4639 79.9141L32.46 79.9082L31.4287 78.4971C26.2349 71.4736 20.425 64.9242 14.0674 58.9268L14.0557 58.915C11.7897 56.8055 9.22971 54.5026 6.74121 52.5244H6.74023C5.85037 51.8176 4.95079 51.1227 4.04102 50.4414L4.03711 50.4385L3.24707 49.876C3.01189 49.7093 2.84025 49.5803 2.70313 49.4619C2.65464 49.42 2.61777 49.382 2.58691 49.3516C2.76577 49.2052 2.99899 49.0294 3.27051 48.833C3.55317 48.6286 3.84622 48.4244 4.12793 48.2275C4.39138 48.0434 4.67753 47.8437 4.88965 47.6836L4.89648 47.6777C6.09774 46.764 7.28216 45.8282 8.44824 44.8701L8.47363 44.8486C19.3458 35.6682 28.8161 24.95 36.584 13.0352H36.585L36.5879 13.0293C38.7848 9.63864 40.8344 6.19994 42.7578 2.64062C42.8076 2.71098 42.8654 2.79771 42.9297 2.9043Z" stroke="var(--stroke-0, #384FA2)" stroke-width="5"/>
</svg>
