<svg viewBox="0 0 162.154 135.381" fill="none" xmlns="http://www.w3.org/2000/svg">
<path id="Union" d="M49.2529 0.0744975C53.4916 -0.0793036 58.551 0.0457878 62.8311 0.089146L79.2295 0.157505L99.6982 0.226841C103.634 0.232984 109.295 0.0532046 113.305 0.509068C113.774 0.562796 116.216 1.68537 116.811 1.9368L123.604 4.80399L135.592 9.8577C136.437 10.2131 140.849 12.0235 141.301 12.3655C142.724 13.443 145.607 17.1003 146.895 18.5931L156.507 29.7434C158.335 31.8668 160.265 34.2038 162.154 36.2434C160.823 38.2448 157.188 42.4048 155.531 44.4134L142.663 60.0413L112.289 96.9192C106.69 103.71 100.846 110.621 95.3652 117.486C93.6148 119.461 91.7523 121.834 90.0625 123.889L80.5996 135.381C77.194 131.419 73.677 126.929 70.334 122.836L50.2295 98.219L0 36.7151C1.40642 34.8031 3.14129 32.7147 4.6377 30.8411L12.7334 20.7161L16.8486 15.553C17.6192 14.5856 18.4028 13.4387 19.3174 12.6067C20.0576 11.9349 47.8515 0.330252 49.2529 0.0744975ZM71.0898 103.119L77.4512 115.986C78.1963 117.492 80.0234 120.965 80.5264 122.369C84.2406 115.295 87.8872 107.534 91.4424 100.336L113.43 55.8684C108.8 55.9863 103.694 55.8751 99.0361 55.8401L81.5859 55.8069L59.2676 55.7757C55.519 55.7705 51.4487 55.852 47.7324 55.7473L71.0898 103.119ZM149.997 41.6995C142.811 45.3885 135.391 48.7403 128.098 52.2181C126.582 52.9407 121.41 55.1164 120.435 56.014C119.4 56.9663 114.618 66.8936 113.606 68.8411L93.5908 107.537C92.4113 109.836 90.6164 112.905 89.583 115.155L89.6826 115.287C90.9113 114.06 92.9319 111.477 94.1572 110.044C98.3215 105.164 102.415 100.224 106.435 95.2229L138.304 56.3294C141.542 52.3837 146.674 46.1151 150.068 41.9759C150.071 41.9062 150.072 41.8365 150.074 41.7669L149.997 41.6995ZM10.6133 41.0794C15.1216 46.3747 19.6192 52.012 24.0391 57.3997L48.9082 87.721L63.3701 105.336L68.1445 111.144C68.9005 112.066 70.0517 113.395 70.7256 114.348L71.0439 114.017L70.1348 112.273C64.3772 101.169 41.3647 56.0502 40.6748 55.4876C39.5777 54.5961 32.7368 51.6 30.9756 50.7581L17.8652 44.4895C15.6714 43.4409 12.8116 41.9787 10.6133 41.0794ZM52.9355 28.3694C52.5917 28.8573 51.7025 32.5577 51.4785 33.4134L48.5742 44.4095C48.128 46.0932 47.5038 48.792 46.9443 50.3421L108.22 50.3216C110.123 50.3201 112.055 50.2997 113.955 50.3235C112.97 46.318 112.013 42.3054 111.084 38.2864C110.372 35.2779 109.468 31.8221 108.927 28.8069C103.74 28.6028 97.6097 28.7252 92.3467 28.7054L67.957 28.4886L58.1406 28.4446C56.7853 28.4399 54.2132 28.5058 52.9355 28.3694ZM22.4902 17.7932C19.5242 21.5618 16.5389 25.3152 13.5342 29.053C12.699 30.0993 10.1052 33.2137 9.52734 34.1809C11.975 35.1369 14.8372 36.5654 17.21 37.7464C23.5114 40.8826 30.1827 43.6422 36.4336 46.8362C38.063 47.6015 39.7912 48.3799 41.3916 49.1888L45.0273 34.6741C45.5407 32.6271 46.337 28.967 46.9941 27.1223C41.1802 24.7024 34.9016 22.6271 29.0273 20.2932C26.9324 19.4609 24.5227 18.684 22.4902 17.7932ZM138.294 17.8567L122.628 23.9651C119.97 25.0038 116.855 26.1332 114.262 27.2561C114.93 29.2316 115.689 32.803 116.203 34.9085L119.662 49.0628C121.729 48.0134 123.864 47.1572 125.87 46.1536L143.644 37.9817C145.541 37.1102 150.772 34.8601 152.391 33.845C148.935 29.8864 145.51 25.902 142.115 21.8929C141.4 21.0569 139.538 18.8377 138.663 17.9202C138.613 17.8662 138.389 17.8424 138.294 17.8567ZM64.1689 5.82059C59.8772 5.8142 54.5695 5.6714 50.3574 5.85672C48.9247 6.14674 45.3099 7.8226 43.7939 8.43094C38.8959 10.3967 33.9217 12.7246 28.9814 14.5716C33.802 16.5346 39.0709 18.2216 43.9736 20.0882C46.1849 20.93 49.6206 22.1853 51.7783 22.8138C52.584 23.0478 57.5632 22.9686 58.6973 22.9671L71.6406 22.9475L95.959 22.927C100.117 22.9258 104.309 22.9425 108.47 22.9065C109.139 22.9007 109.853 22.645 110.482 22.4173L124.727 17.5032C127.04 16.7079 130.231 15.4949 132.514 14.9095C130.723 13.9988 128.581 13.1161 126.708 12.3606C121.723 10.3502 116.701 7.9084 111.648 6.14676C110.915 5.89099 105.501 5.99607 104.42 5.99344L91.3691 5.90458L64.1689 5.82059Z" fill="var(--fill-0, #384FA2)"/>
</svg>
