<svg viewBox="0 0 115.121 96.1143" fill="none" xmlns="http://www.w3.org/2000/svg">
<path id="Union" d="M34.9668 0.0527882C37.9759 -0.0564004 41.5679 0.0327465 44.6064 0.0635304L56.249 0.112359L70.7812 0.161187C73.5753 0.165534 77.5941 0.0377584 80.4404 0.361382C80.7732 0.399374 82.5073 1.19653 82.9297 1.37505L87.752 3.41021L96.2637 6.9981C96.8639 7.2506 99.9958 8.53664 100.316 8.77935C101.327 9.54454 103.374 12.1406 104.288 13.2002L111.112 21.1163C112.41 22.6236 113.78 24.2826 115.121 25.7305C114.176 27.1512 111.597 30.1051 110.42 31.5313L101.283 42.627L79.7197 68.8077C75.7446 73.6285 71.5954 78.5354 67.7041 83.4092C66.4614 84.8115 65.1391 86.4965 63.9395 87.9551L57.2217 96.1143C54.8039 93.3012 52.3069 90.1135 49.9336 87.2081L35.6602 69.7305L0 26.0665C0.998537 24.709 2.23056 23.2258 3.29297 21.8956L9.04004 14.7081L11.9619 11.042C12.509 10.3553 13.0655 9.54089 13.7148 8.95025C14.2475 8.47046 33.9698 0.235303 34.9668 0.0527882ZM50.4697 73.21L54.9863 82.3438C55.5154 83.4135 56.8128 85.879 57.1699 86.876C59.8068 81.8534 62.3959 76.3433 64.9199 71.2335L80.5293 39.6641C77.2425 39.7478 73.6174 39.6684 70.3105 39.6436L57.9219 39.6202L42.0771 39.5977C39.4159 39.594 36.526 39.6515 33.8877 39.5772L50.4697 73.21ZM106.49 29.6045C101.388 32.2235 96.1215 34.6033 90.9434 37.0723C89.8677 37.5852 86.1946 39.1304 85.502 39.7676C84.7667 40.4459 81.3739 47.4896 80.6553 48.8731L66.4443 76.3458C65.607 77.9779 64.3333 80.1567 63.5996 81.754L63.6699 81.8487C64.5422 80.9774 65.9767 79.1436 66.8467 78.126C69.8031 74.6613 72.7095 71.1538 75.5635 67.6036L98.1885 39.9913C100.488 37.19 104.131 32.7395 106.541 29.8008C106.543 29.7514 106.543 29.7019 106.545 29.6524L106.49 29.6045ZM7.53516 29.1641C10.7358 32.9235 13.9285 36.926 17.0664 40.751L34.7227 62.2774L44.9893 74.7842L48.3789 78.9073C48.9156 79.5623 49.7335 80.5054 50.2119 81.1817L50.4375 80.9463L48.8193 77.8262C43.5965 67.6953 29.3346 39.7675 28.877 39.3936C28.0981 38.7607 23.2416 36.6339 21.9912 36.0362L12.6836 31.586C11.1261 30.8415 9.09588 29.8026 7.53516 29.1641ZM37.582 20.1407C37.338 20.4866 36.7059 23.1142 36.5469 23.7217L34.4854 31.5284C34.1686 32.7237 33.7253 34.6398 33.3281 35.7403L76.8301 35.7256C78.1811 35.7246 79.5531 35.7107 80.9023 35.7276C80.2029 32.8838 79.5225 30.035 78.8633 27.1817C78.3579 25.0457 77.7159 22.5919 77.332 20.4512C73.6499 20.3063 69.2979 20.3931 65.5615 20.379L48.2461 20.2256L41.2764 20.1944C40.3142 20.1911 38.4891 20.2374 37.582 20.1407ZM15.9668 12.6329C13.8612 15.3082 11.7415 17.9725 9.6084 20.626C9.01542 21.3689 7.17376 23.5811 6.76367 24.2676C8.50141 24.9463 10.5342 25.9594 12.2188 26.7979C16.6923 29.0244 21.4285 30.9844 25.8662 33.252C27.0229 33.7952 28.2497 34.3478 29.3857 34.9219L31.9668 24.6172C32.3312 23.1641 32.8968 20.5656 33.3633 19.2559C29.2357 17.5379 24.7779 16.0642 20.6074 14.4073C19.1203 13.8164 17.4096 13.2652 15.9668 12.6329ZM98.1816 12.6778L87.0596 17.0137C85.1725 17.7511 82.961 18.5534 81.1201 19.3506C81.5947 20.7531 82.1329 23.2884 82.498 24.7833L84.9541 34.8321C86.4214 34.0871 87.9368 33.4792 89.3613 32.7667L101.979 26.9659C103.326 26.3472 107.04 24.7491 108.189 24.0284C105.736 21.218 103.305 18.3893 100.895 15.543C100.387 14.9495 99.0642 13.374 98.4434 12.7227C98.4074 12.6844 98.2492 12.6676 98.1816 12.6778ZM45.5566 4.13287C42.5096 4.12833 38.7414 4.02667 35.751 4.15826C34.7339 4.36414 32.1682 5.55346 31.0918 5.98541C27.6143 7.381 24.0826 9.03348 20.5752 10.3448C23.9976 11.7385 27.738 12.9365 31.2188 14.2618C32.7886 14.8595 35.2278 15.7502 36.7598 16.1963C37.3309 16.3626 40.8663 16.3068 41.6719 16.3057L50.8613 16.292L68.126 16.2774C71.0781 16.2765 74.0537 16.2883 77.0078 16.2627C77.4831 16.2586 77.9894 16.0768 78.4365 15.9151L88.5498 12.4258C90.1924 11.8612 92.4579 11.0006 94.0781 10.585C92.8067 9.93851 91.2857 9.31182 89.9561 8.77544C86.4171 7.34813 82.8515 5.61496 79.2646 4.36431C78.744 4.18272 74.9003 4.2568 74.1328 4.25494L64.8672 4.19244L45.5566 4.13287Z" fill="var(--fill-0, #384FA2)"/>
</svg>
