<svg viewBox="0 0 17.3333 28.6667" fill="none" xmlns="http://www.w3.org/2000/svg">
<path id="path801" fill-rule="evenodd" clip-rule="evenodd" d="M10 23.3333C11.4667 23.3333 12.6667 24.5333 12.6667 26C12.6667 27.4667 11.4667 28.6667 10 28.6667C8.53333 28.6667 7.33333 27.4667 7.33333 26C7.33333 24.5333 8.53333 23.3333 10 23.3333ZM5.06667 18.8L1.33333 0H4.13333L6.53333 10.6667L9.33333 8V0H12V10L9.2 12.6667L10 16.6667C11.7333 14.6667 14.4 13.3333 17.3333 13.3333V16C14.8 16 12.6667 17.3333 11.6 19.2L10.2667 21.3333C9.73333 22.1333 8.93333 22.6667 8 22.6667C7.6 22.6667 7.33333 22.5333 6.93333 22.5333L0 19.6V13.3333H2.66667V17.8667L5.06667 18.8Z" fill="var(--fill-0, #311F5C)"/>
</svg>
