<svg viewBox="0 0 360.862 69.3991" fill="none" xmlns="http://www.w3.org/2000/svg">
<g id="Group 1">
<path id="path63" d="M252.915 43.6071C252.66 44.0031 252.363 44.2871 252.024 44.4564C251.684 44.6271 251.316 44.7257 250.922 44.7524C250.524 44.7817 250.214 44.7951 249.988 44.7951C249.026 44.7951 248.362 44.5551 247.995 44.0751C247.626 43.5937 247.443 42.7884 247.443 41.6577C247.443 41.0337 247.499 40.4124 247.611 39.7897C247.724 39.1684 247.838 38.5471 247.951 37.9244C248.12 36.9631 248.248 36.0151 248.332 35.0817C248.419 34.1471 248.602 33.2017 248.886 32.2391C248.998 31.7884 249.124 31.2204 249.267 30.5417C249.407 29.8644 249.535 29.2697 249.65 28.7604C249.704 28.4204 249.818 27.9831 249.988 27.4457C250.158 26.9097 250.383 26.6391 250.666 26.6391C250.778 26.6391 250.948 26.7391 251.175 26.9364C251.4 27.1351 251.571 27.5724 251.684 28.2511C251.796 28.7604 251.868 29.2697 251.896 29.7791C251.924 30.2884 251.995 30.8271 252.11 31.3897C252.22 32.0697 252.334 32.7484 252.448 33.4271C252.56 34.1057 252.674 34.7831 252.787 35.4631C252.899 36.2551 252.986 37.0324 253.043 37.7964C253.098 38.5604 253.155 39.2524 253.212 39.8737C253.268 40.5537 253.296 41.2324 253.296 41.9111C253.296 42.6457 253.168 43.2137 252.915 43.6071ZM270.731 61.2111C270.588 60.5057 270.435 59.8111 270.264 59.1337C269.926 57.3244 269.6 55.5431 269.29 53.7884C268.978 52.0364 268.738 50.2537 268.567 48.4444C268.454 47.3711 268.368 46.5217 268.314 45.8991C268.255 45.2751 268.199 44.7257 268.143 44.2444C268.087 43.7644 268.03 43.3257 267.974 42.9297C267.918 42.5337 267.832 42.0524 267.719 41.4871C267.607 40.9217 267.422 39.9737 267.168 38.6444C266.914 37.3151 266.63 35.9017 266.32 34.4031C266.008 32.9044 265.724 31.5044 265.471 30.2044C265.218 28.9031 265.06 27.9964 265.004 27.4884C264.946 27.2057 264.878 26.6977 264.792 25.9617C264.708 25.2257 264.608 24.4484 264.496 23.6284C264.382 22.8084 264.283 22.0444 264.198 21.3364C264.114 20.6311 264.042 20.1351 263.987 19.8524C263.987 19.6271 263.93 19.2164 263.816 18.6231C263.703 18.0284 263.575 17.3791 263.435 16.6711C263.292 15.9657 263.151 15.3004 263.011 14.6777C262.868 14.0564 262.77 13.6044 262.714 13.3204C262.431 11.7377 261.994 10.6911 261.398 10.1804C260.804 9.67107 259.687 9.41774 258.048 9.41774C256.972 9.47374 255.912 9.51774 254.866 9.5444C253.819 9.57374 252.759 9.58707 251.684 9.58707C250.835 9.58707 249.988 9.57374 249.139 9.5444C248.291 9.51774 247.443 9.47374 246.594 9.41774C246.14 9.36174 245.674 9.31907 245.195 9.29107C244.714 9.26307 244.247 9.24707 243.794 9.24707C242.888 9.24707 242.154 9.30574 241.59 9.41774C241.022 9.53107 240.528 9.79907 240.104 10.2231C239.68 10.6471 239.311 11.2844 239 12.1324C238.69 12.9804 238.364 14.1404 238.026 15.6097C237.686 17.2524 237.432 18.9191 237.262 20.6164C237.092 22.3124 236.836 23.9817 236.498 25.6217C236.272 26.7537 236.031 27.8431 235.776 28.8884C235.523 29.9351 235.311 30.9964 235.14 32.0697C235.027 32.8617 234.928 33.6097 234.844 34.3177C234.759 35.0257 234.66 35.7737 234.547 36.5671C234.378 37.8111 234.164 39.0551 233.91 40.2991C233.656 41.5444 233.443 42.8164 233.275 44.1164C233.219 44.4564 233.132 45.0071 233.019 45.7711C232.906 46.5351 232.794 47.3564 232.68 48.2324C232.566 49.1084 232.454 49.9284 232.34 50.6911C232.226 51.4551 232.143 51.9791 232.087 52.2617C231.972 52.7711 231.875 53.2791 231.79 53.7884C231.706 54.2964 231.606 54.7791 231.494 55.2311C231.494 55.4004 231.379 56.0791 231.154 57.2657C230.927 58.4537 230.7 59.7564 230.475 61.1697C230.248 62.5831 230.036 63.8711 229.838 65.0297C229.639 66.1897 229.542 66.8257 229.542 66.9391C229.542 67.2217 229.639 67.6044 229.838 68.0831C230.036 68.5657 230.418 68.8897 230.984 69.0591C231.323 69.1737 231.663 69.2297 232 69.2297H234.08C234.559 69.2297 235.083 69.2164 235.651 69.1871C236.215 69.1591 236.738 69.1431 237.22 69.1431H238.195C238.364 69.1431 238.647 69.1591 239.044 69.1871C239.439 69.2164 239.848 69.2431 240.274 69.2711C240.698 69.3017 241.092 69.3297 241.462 69.3564C241.83 69.3857 242.098 69.3991 242.268 69.3991C243.002 69.3991 243.654 69.2017 244.219 68.8057C244.783 68.4097 245.095 67.5617 245.152 66.2604C245.152 66.0351 245.179 65.6111 245.236 64.9884C245.292 64.3644 245.35 63.7151 245.407 63.0364C245.462 62.3564 245.534 61.7351 245.619 61.1697C245.703 60.6057 245.802 60.2351 245.915 60.0671C246.14 59.7271 246.452 59.5017 246.848 59.3871C247.243 59.2737 247.894 59.2177 248.8 59.2177C252.194 59.2177 254.003 59.2737 254.23 59.3871C254.682 59.6137 254.979 59.9684 255.12 60.4471C255.262 60.9297 255.388 61.6511 255.502 62.6111C255.614 63.2351 255.7 63.8564 255.756 64.4777C255.814 65.1004 255.842 65.7231 255.842 66.3444C255.842 66.5724 255.855 66.8537 255.884 67.1937C255.912 67.5324 256.024 67.8711 256.223 68.2111C256.422 68.5511 256.704 68.8337 257.072 69.0591C257.44 69.2857 257.963 69.3991 258.642 69.3991C258.811 69.3991 259.108 69.3857 259.532 69.3564C259.956 69.3297 260.408 69.3017 260.89 69.2711C261.37 69.2431 261.808 69.2164 262.206 69.1871C262.6 69.1591 262.884 69.1431 263.054 69.1431C263.278 69.1431 263.674 69.1591 264.24 69.1871C264.806 69.2164 265.386 69.2431 265.98 69.2711C266.574 69.3017 267.139 69.3297 267.676 69.3564C268.215 69.3857 268.595 69.3991 268.823 69.3991C269.614 69.3991 270.251 69.0457 270.731 68.3377C271.212 67.6324 271.451 66.7977 271.451 65.8364C271.451 64.9884 271.367 64.1391 271.199 63.2911C271.027 62.6111 270.872 61.9191 270.731 61.2111Z" fill="var(--fill-0, #E44B67)"/>
<path id="path65" d="M176.433 38.0081C176.433 38.3481 176.39 38.8561 176.308 39.5361C176.222 40.2135 176.097 41.1468 175.929 42.3348C175.761 43.5228 175.537 45.1628 175.257 47.2561C175.089 48.5001 174.781 49.4481 174.333 50.0975C173.885 50.7495 173.438 51.2295 172.99 51.5388C172.542 51.8508 172.137 52.0361 171.773 52.0921C171.41 52.1495 171.2 52.1761 171.144 52.1761C170.976 52.1761 170.556 52.0921 169.885 51.9228C169.213 51.7521 168.738 51.1588 168.458 50.1415C168.345 49.7455 168.274 49.3495 168.245 48.9521C168.217 48.5575 168.204 47.9921 168.204 47.2561V46.4921C168.204 46.1521 168.217 45.7855 168.245 45.3895C168.274 44.9948 168.289 44.6268 168.289 44.2868V43.6068C168.289 43.4388 168.274 43.1548 168.245 42.7588C168.217 42.3655 168.189 41.9401 168.161 41.4868C168.132 41.0348 168.104 40.6095 168.077 40.2135C168.046 39.8188 168.034 39.5361 168.034 39.3655V38.1775C168.034 37.6148 168.046 37.0041 168.077 36.3548C168.104 35.7055 168.12 35.1108 168.12 34.5721V33.4268C168.12 32.2961 168.104 31.1775 168.077 30.0761C168.046 28.9721 168.005 28.0268 167.949 27.2348C167.949 26.7828 167.934 26.3428 167.906 25.9188C167.877 25.4948 167.865 25.0575 167.865 24.6028C167.865 24.3215 167.877 23.9535 167.905 23.5015C167.933 23.0481 168.032 22.5961 168.2 22.1441C168.366 21.6921 168.646 21.3095 169.038 20.9975C169.432 20.6881 169.99 20.5321 170.72 20.5321C171.838 20.5321 172.734 20.9281 173.406 21.7201C174.077 22.5121 174.596 23.4575 174.961 24.5615C175.324 25.6641 175.59 26.8228 175.758 28.0388C175.925 29.2561 176.038 30.2601 176.093 31.0521C176.206 32.0135 176.292 32.9748 176.349 33.9348C176.405 34.8975 176.433 35.8588 176.433 36.8201V38.0081ZM192.128 28.6335C191.902 26.9655 191.605 25.2548 191.238 23.5015C190.869 21.7481 190.374 20.1081 189.753 18.5801C189.074 16.9975 188.282 15.5828 187.378 14.3375C186.472 13.0948 185.568 12.0348 184.662 11.1561C183.757 10.2801 182.952 9.60148 182.244 9.12015C181.537 8.64148 181.07 8.31481 180.845 8.14548C179.261 7.18414 177.564 6.57482 175.754 6.32148C173.944 6.06548 172.134 5.93881 170.324 5.93881C170.041 5.93881 169.532 5.95348 168.797 5.98148C168.062 6.01081 167.284 6.03748 166.464 6.06548C165.645 6.09615 164.88 6.12415 164.174 6.15081C163.466 6.18015 162.972 6.19348 162.689 6.19348H161.416C160.85 6.19348 160.242 6.18015 159.593 6.15081C158.941 6.12415 158.321 6.10948 157.726 6.10948H156.496C155.533 6.10948 154.813 6.27882 154.333 6.61748C153.85 6.95748 153.485 7.38148 153.23 7.89081C152.974 8.39881 152.833 8.93748 152.805 9.50281C152.776 10.0668 152.762 10.5495 152.762 10.9441C152.762 11.2281 152.776 11.7081 152.805 12.3881C152.833 13.0655 152.861 13.7721 152.89 14.5081C152.918 15.2441 152.946 15.9508 152.974 16.6295C153.002 17.3068 153.017 17.7615 153.017 17.9868C153.017 18.3268 153.002 18.8761 152.974 19.6401C152.946 20.4041 152.933 21.2095 152.933 22.0575C152.933 22.9068 152.918 23.7135 152.89 24.4775C152.861 25.2388 152.848 25.7628 152.848 26.0468C152.848 26.3855 152.861 26.9655 152.89 27.7855C152.918 28.6068 152.946 29.4681 152.974 30.3721C153.002 31.2775 153.032 32.1255 153.06 32.9188C153.088 33.7095 153.102 34.2468 153.102 34.5308C153.102 34.7575 153.088 35.1535 153.06 35.7188C153.032 36.2841 153.017 36.8921 153.017 37.5415C153.017 38.1921 153.002 38.7868 152.974 39.3241C152.946 39.8615 152.933 40.2441 152.933 40.4695V42.0375C152.933 42.7455 152.946 43.5228 152.974 44.3708C153.002 45.2201 153.032 46.0548 153.06 46.8735C153.088 47.6948 153.13 48.4161 153.186 49.0375C153.186 49.8295 153.214 50.6215 153.272 51.4135C153.328 52.2055 153.357 52.9975 153.357 53.7881C153.357 53.9588 153.342 54.2561 153.314 54.6788C153.285 55.1041 153.257 55.5428 153.23 55.9935C153.2 56.4481 153.173 56.8721 153.145 57.2655C153.116 57.6641 153.102 57.9455 153.102 58.1148C153.045 58.4535 153.032 58.8095 153.06 59.1748C153.088 59.5441 153.073 59.8975 153.017 60.2348C153.017 60.5201 153.002 60.8175 152.974 61.1268C152.946 61.4388 152.933 61.7348 152.933 62.0188C152.933 62.9801 153.088 63.7295 153.4 64.2655C153.71 64.8041 154.121 65.2001 154.629 65.4535C155.138 65.7081 155.704 65.8495 156.326 65.8775C156.948 65.9081 157.57 65.9215 158.193 65.9215C158.418 65.9215 158.842 65.8935 159.465 65.8361C160.086 65.7801 160.738 65.7361 161.416 65.7081C162.096 65.6801 162.744 65.6375 163.368 65.5815C163.989 65.5255 164.414 65.4961 164.64 65.4961C164.81 65.4961 165.121 65.5108 165.573 65.5375C166.025 65.5681 166.493 65.5961 166.973 65.6241C167.454 65.6521 167.906 65.6801 168.332 65.7081C168.756 65.7361 169.052 65.7508 169.222 65.7508C170.522 65.7508 171.95 65.6801 173.506 65.5375C175.061 65.3988 176.658 65.0015 178.3 64.3521C179.94 63.7028 181.578 62.6961 183.22 61.3388C184.86 59.9815 186.414 58.0601 187.886 55.5695C189.469 52.6868 190.657 49.6308 191.45 46.4081C192.014 44.1468 192.353 42.1935 192.468 40.5535C192.58 38.9135 192.637 37.6401 192.637 36.7361C192.637 35.8868 192.608 34.7428 192.553 33.2988C192.496 31.8575 192.353 30.3028 192.128 28.6335Z" fill="var(--fill-0, #311F5C)"/>
<path id="path67" d="M22.1791 51.3883C22.1564 51.1643 22.1258 50.7269 22.0911 50.0763C22.0538 49.4269 22.0124 48.7336 21.9698 47.9989C21.9244 47.2656 21.8844 46.5883 21.8511 45.9656C21.8178 45.3429 21.7871 44.8923 21.7591 44.6096C21.7364 44.3856 21.6844 44.0069 21.6031 43.4736C21.5204 42.9429 21.4511 42.3683 21.3884 41.7496C21.3271 41.1283 21.2551 40.5549 21.1738 40.0216C21.0911 39.4909 21.0418 39.1389 21.0258 38.9709L20.2938 31.6269C20.2831 31.5149 20.2724 31.2869 20.2684 30.9456C20.2631 30.6056 20.2418 30.2523 20.2058 29.8869C20.1698 29.5216 20.1498 29.1829 20.1471 28.8696C20.1444 28.5576 20.1378 28.3456 20.1258 28.2323L20.0204 27.1776C19.9738 26.6989 19.9084 26.1949 19.8271 25.6616C19.7444 25.1309 19.6818 24.6256 19.6338 24.1456L19.4484 22.2883C19.4058 21.8669 19.3764 21.4309 19.3604 20.9749C19.3431 20.5243 19.3151 20.1016 19.2751 19.7056L19.1911 18.8603C19.1751 18.6936 19.1298 18.3856 19.0564 17.9376C18.9831 17.4896 18.9071 17.0136 18.8298 16.5109C18.7498 16.0069 18.6751 15.5323 18.6018 15.0829C18.5284 14.6376 18.4844 14.3296 18.4671 14.1589C18.4058 13.5403 18.3604 12.9483 18.3324 12.3829C18.3044 11.8176 18.2884 11.2229 18.2831 10.5976C18.2938 9.57228 18.2858 8.91895 18.2578 8.63761L18.1991 8.04828C18.1204 7.25895 17.8084 6.69361 17.2618 6.35095C16.7164 6.00695 16.1338 5.86561 15.5151 5.92695C15.3458 5.94428 15.0231 5.99095 14.5484 6.06695C14.0724 6.14295 13.5671 6.20695 13.0324 6.25895C12.4978 6.31228 12.0071 6.37762 11.5591 6.44962C11.1111 6.52428 10.8044 6.56828 10.6351 6.58561C10.4098 6.60828 10.0564 6.62961 9.57644 6.64695C9.09511 6.66695 8.57111 6.70428 8.00977 6.76028C7.44711 6.81628 6.92444 6.85495 6.44444 6.87495C5.96177 6.89495 5.63777 6.91228 5.46844 6.92828C4.22444 6.99895 3.40044 7.27762 2.99511 7.77362C2.58844 8.26828 2.4591 9.24694 2.60577 10.7096C2.63377 10.9936 2.6951 11.4683 2.7911 12.1416C2.88577 12.8136 2.99911 13.5149 3.12844 14.2389C3.25644 14.9656 3.3831 15.6629 3.50844 16.3323C3.62977 17.0016 3.70444 17.4509 3.72711 17.6749C3.77644 18.1816 3.84044 18.6869 3.92044 19.1909C3.9991 19.6936 4.06444 20.1989 4.1151 20.7056C4.12044 20.7629 4.13644 21.0749 4.16444 21.6389C4.19111 22.2043 4.2271 22.8403 4.26977 23.5456C4.3111 24.2549 4.34844 24.9163 4.38311 25.5389C4.41511 26.1629 4.44177 26.5563 4.45777 26.7243C4.48044 27.5203 4.52844 28.2829 4.60177 29.0136L5.40177 37.0323C5.50844 38.1029 5.62311 39.1296 5.74977 40.1109C5.87644 41.0923 5.97644 41.9496 6.04844 42.6803C6.12177 43.4123 6.20577 44.1149 6.30177 44.7869C6.39644 45.4603 6.4791 46.1323 6.54577 46.8083C6.60177 47.3723 6.63644 48.0083 6.65111 48.7163C6.66444 49.4256 6.47111 50.0563 6.07244 50.6083C5.62711 51.2776 5.14311 51.6949 4.61911 51.8603C4.09511 52.0269 3.74977 52.1176 3.58177 52.1349C3.46844 52.1456 3.18444 52.1456 2.72844 52.1349C2.27244 52.1243 1.98711 52.1229 1.87511 52.1336C1.08844 52.2123 0.565773 52.5349 0.311107 53.1003C0.0537734 53.6669 -0.0435616 54.2576 0.0177717 54.8763L0.111105 55.8056C0.200438 56.1376 0.271106 56.5563 0.321773 57.0643L0.641772 60.2709C0.692439 60.7776 0.729771 61.3003 0.755104 61.8363C0.779104 62.3763 0.816439 62.8843 0.864439 63.3616L0.960439 64.3323C1.06711 65.4029 1.40844 66.2483 1.98177 66.8736C2.55511 67.4989 3.40444 67.7536 4.53111 67.6416C4.75511 67.6189 5.20444 67.5469 5.87377 67.4229C6.54311 67.3003 6.96177 67.2296 7.1311 67.2123C7.52444 67.1736 7.89244 67.1496 8.23244 67.1456C8.57377 67.1389 8.94044 67.1176 9.33377 67.0789C11.9791 66.8149 13.7818 66.5069 14.7418 66.1563C15.7004 65.8043 16.4204 65.4643 16.8991 65.1296C17.4844 64.7323 18.2591 64.1003 19.2258 63.2363C20.1898 62.3723 20.9831 61.3416 21.6018 60.1429C21.8324 59.6096 22.0711 58.8589 22.3164 57.8976C22.5618 56.9349 22.6338 55.9469 22.5324 54.9349L22.1791 51.3883Z" fill="var(--fill-0, #00B289)"/>
<path id="path69" d="M313.618 3.6904C313.447 3.5784 313.079 3.52107 312.514 3.52107C312.287 3.52107 311.835 3.53574 311.157 3.5624C310.478 3.59307 310.026 3.6064 309.801 3.6064H307.255C306.745 3.6064 306.25 3.59307 305.77 3.5624C305.289 3.53574 304.963 3.52107 304.794 3.52107C304.511 3.52107 304.257 3.50774 304.031 3.4784C303.803 3.4504 303.577 3.43707 303.351 3.43707C302.334 3.43707 301.583 3.67707 301.103 4.15707C300.622 4.6384 300.325 4.9624 300.213 5.1344C300.043 5.47174 299.943 6.10774 299.917 7.0424C299.886 7.97574 299.873 8.63974 299.873 9.03574C299.873 9.43174 299.901 10.1104 299.958 11.0717C300.014 12.0331 300.057 13.0371 300.086 14.0824C300.113 15.1304 300.155 16.1197 300.213 17.0517C300.269 17.9851 300.298 18.6211 300.298 18.9611C300.298 19.1317 300.282 19.3851 300.257 19.7251C300.226 20.0651 300.213 20.4331 300.213 20.8291C300.213 21.2251 300.198 21.5904 300.17 21.9304C300.142 22.2704 300.129 22.4971 300.129 22.6104C300.129 22.7237 300.142 22.9371 300.17 23.2464C300.198 23.5571 300.241 23.8544 300.298 24.1357C300.298 24.4211 300.311 24.7184 300.341 25.0277C300.367 25.3384 300.381 25.6357 300.381 25.9184V26.7237C300.381 27.0917 300.367 27.4597 300.341 27.8277C300.311 28.1957 300.269 28.5211 300.213 28.8024C300.155 29.0877 300.07 29.2264 299.958 29.2264C299.674 29.2264 299.421 28.8024 299.195 27.9544C298.91 27.2197 298.559 26.1731 298.135 24.8157C297.71 23.4584 297.299 22.3264 296.903 21.4224C296.789 21.1397 296.663 20.8851 296.523 20.6584C296.379 20.4331 296.253 20.1797 296.141 19.8944C295.971 19.4437 295.814 19.0331 295.674 18.6637C295.533 18.2971 295.377 17.8877 295.206 17.4357C295.091 17.1517 294.953 16.8557 294.782 16.5437C294.614 16.2344 294.442 15.9371 294.274 15.6517C294.274 15.5971 294.19 15.3851 294.019 15.0157C293.85 14.6504 293.666 14.2411 293.469 13.7864C293.269 13.3344 293.086 12.9251 292.917 12.5571C292.746 12.1891 292.661 11.9771 292.661 11.9211C292.547 11.7491 292.478 11.5677 292.45 11.3691C292.422 11.1717 292.35 10.9864 292.238 10.8171C292.069 10.2517 291.826 9.64374 291.517 8.99307C291.205 8.34374 290.909 7.7064 290.625 7.08374C290.342 6.4624 290.075 5.92507 289.819 5.47174C289.565 5.02107 289.409 4.73707 289.353 4.62374C289.241 4.45441 289.029 4.2144 288.715 3.9024C288.405 3.59307 287.911 3.43707 287.231 3.43707C287.119 3.43707 286.835 3.4504 286.383 3.4784C285.93 3.50774 285.435 3.53574 284.898 3.5624C284.362 3.59307 283.838 3.62107 283.329 3.64907C282.821 3.67707 282.481 3.6904 282.313 3.6904H280.657C280.289 3.6904 279.935 3.67707 279.595 3.64907C279.257 3.62107 279.059 3.6064 279.002 3.6064C278.719 3.6064 278.435 3.57841 278.154 3.52107C277.87 3.46507 277.589 3.43707 277.306 3.43707C276.343 3.43707 275.706 3.73307 275.397 4.32641C275.086 4.92107 274.929 5.41707 274.929 5.81174C274.929 6.1504 274.943 6.7304 274.974 7.55174C275.001 8.37174 275.03 9.2344 275.057 10.1371C275.086 11.0437 275.114 11.8917 275.142 12.6824C275.17 13.4771 275.185 14.0131 275.185 14.2957V15.7384C275.185 16.4157 275.154 17.2104 275.101 18.1131C275.042 18.9611 275.017 19.8091 275.017 20.6584V25.5797C275.017 26.7677 275.042 27.7571 275.101 28.5491C275.101 28.6624 275.114 28.8877 275.142 29.2264C275.17 29.5664 275.185 29.9211 275.185 30.2864C275.185 30.6571 275.199 30.9957 275.227 31.3064C275.255 31.6171 275.269 31.8011 275.269 31.8571C275.269 32.4811 275.255 33.0744 275.227 33.6384C275.199 34.2037 275.154 34.7997 275.101 35.4197C275.042 36.3837 275.001 37.4131 274.974 38.5171C274.943 39.6197 274.929 40.6797 274.929 41.6984V42.5891C274.929 43.0131 274.943 43.4677 274.974 43.9477C275.001 44.4277 275.017 44.8811 275.017 45.3037V48.8264C275.071 48.9944 275.114 49.3757 275.142 49.9704C275.17 50.5637 275.185 50.9464 275.185 51.1157C275.185 51.2304 275.154 51.7237 275.101 52.6011C275.042 53.4784 274.974 54.4531 274.889 55.5264C274.805 56.6024 274.731 57.6344 274.677 58.6237C274.618 59.6144 274.591 60.3064 274.591 60.7037C274.591 60.8717 274.605 61.0997 274.634 61.3811C274.661 61.6637 274.746 61.9624 274.889 62.2731C275.03 62.5837 275.255 62.8531 275.566 63.0784C275.877 63.3051 276.314 63.4171 276.882 63.4171C277.39 63.4171 277.758 63.3891 277.985 63.3331C278.494 63.2757 279.002 63.2357 279.511 63.2051C280.021 63.1771 280.531 63.1624 281.038 63.1624C281.265 63.1624 281.689 63.1771 282.313 63.2051C282.933 63.2357 283.585 63.2477 284.262 63.2477C284.941 63.2477 285.563 63.2624 286.13 63.2904C286.695 63.3197 287.09 63.3331 287.317 63.3331C287.995 63.3331 288.59 63.1624 289.098 62.8251C289.607 62.4851 289.863 61.8624 289.863 60.9571C289.863 60.6744 289.833 60.1931 289.777 59.5157C289.721 58.8357 289.677 58.1144 289.65 57.3517C289.621 56.5877 289.578 55.8664 289.523 55.1891C289.466 54.5091 289.438 54.0291 289.438 53.7464C289.438 52.5024 289.479 51.2717 289.565 50.0544C289.65 48.8384 289.693 47.6091 289.693 46.3651C289.693 45.8571 289.677 45.2611 289.65 44.5837C289.621 43.9051 289.578 43.2397 289.523 42.5891C289.466 41.9397 289.409 41.3584 289.353 40.8504C289.297 40.3424 289.267 40.0024 289.267 39.8317C289.211 39.4371 289.153 39.0264 289.098 38.6024C289.041 38.1784 289.014 37.8251 289.014 37.5411C289.014 37.3731 289.041 37.2011 289.098 37.0331C289.153 36.8624 289.241 36.7771 289.353 36.7771C289.523 36.7771 289.721 37.0744 289.947 37.6691C290.173 38.2624 290.541 39.2944 291.049 40.7664C291.274 41.3891 291.474 41.9824 291.645 42.5477C291.813 43.1117 292.038 43.7077 292.322 44.3291C292.493 44.7824 292.69 45.2197 292.917 45.6437C293.142 46.0691 293.369 46.5064 293.594 46.9584C293.878 47.5811 294.146 48.1904 294.402 48.7824C294.654 49.3757 294.895 49.9864 295.122 50.6077C295.235 51.0597 295.363 51.4971 295.503 51.9211C295.645 52.3451 295.802 52.7837 295.971 53.2371C296.253 53.8597 296.563 54.5237 296.903 55.2304C297.243 55.9384 297.583 56.6304 297.923 57.3091C298.147 57.8184 298.373 58.3277 298.599 58.8357C298.825 59.3451 298.997 59.8557 299.109 60.3637C299.279 60.9291 299.534 61.5384 299.873 62.1877C300.213 62.8371 300.75 63.1624 301.485 63.1624C301.71 63.1624 302.091 63.1491 302.63 63.1211C303.167 63.0931 303.762 63.0784 304.411 63.0784C305.061 63.0784 305.655 63.0651 306.195 63.0357C306.731 63.0077 307.113 62.9931 307.339 62.9931C307.509 62.9931 307.791 63.0077 308.189 63.0357C308.582 63.0651 309.006 63.0784 309.461 63.0784C309.913 63.0784 310.337 63.0931 310.733 63.1211C311.127 63.1491 311.411 63.1624 311.582 63.1624C312.315 63.1624 312.782 63.1491 312.981 63.1211C313.179 63.0931 313.391 63.0237 313.618 62.9091C314.182 62.6251 314.507 62.2877 314.591 61.8891C314.678 61.4957 314.719 61.2397 314.719 61.1277C314.719 60.9024 314.678 60.4477 314.591 59.7691C314.507 59.0904 314.466 58.6384 314.466 58.4117C314.409 57.6771 314.367 56.9571 314.338 56.2491C314.31 55.5424 314.295 54.8211 314.295 54.0851C314.295 53.6904 314.323 53.0237 314.379 52.0917C314.437 51.1597 314.479 50.1691 314.507 49.1224C314.535 48.0771 314.579 47.1011 314.635 46.1944C314.693 45.2917 314.719 44.6677 314.719 44.3291C314.719 43.9344 314.705 43.2397 314.678 42.2504C314.647 41.2611 314.605 40.2144 314.55 39.1104C314.493 38.0091 314.451 36.9757 314.423 36.0144C314.393 35.0517 314.379 34.4037 314.379 34.0637C314.379 33.4411 314.393 32.8051 314.423 32.1544C314.451 31.5051 314.466 30.8691 314.466 30.2464C314.521 28.8317 314.565 27.4744 314.591 26.1731C314.621 24.8717 314.635 23.7704 314.635 22.8637C314.635 22.4691 314.621 21.7904 314.591 20.8291C314.565 19.8677 314.535 18.8637 314.507 17.8157C314.479 16.7704 314.451 15.7797 314.423 14.8464C314.393 13.9131 314.379 13.2771 314.379 12.9384C314.379 12.7691 314.393 12.3864 314.423 11.7931C314.451 11.1984 314.479 10.5771 314.507 9.92507C314.535 9.27574 314.565 8.66774 314.591 8.10374C314.621 7.53841 314.663 7.14107 314.719 6.9144C314.719 6.68907 314.733 6.4904 314.762 6.31974C314.791 6.1504 314.805 5.9824 314.805 5.81174C314.805 5.1904 314.647 4.70907 314.338 4.36907C314.027 4.02907 313.787 3.80374 313.618 3.6904Z" fill="var(--fill-0, #F4898A)"/>
<path id="path71" d="M225.894 56.1213C225.667 55.528 225.327 55.104 224.875 54.848C224.422 54.5947 223.773 54.468 222.923 54.468C222.642 54.468 222.133 54.496 221.397 54.552C220.661 54.608 220.181 54.636 219.955 54.636H217.962C217.593 54.636 217.241 54.6227 216.901 54.5947C216.561 54.5667 216.307 54.552 216.138 54.552C214.666 54.3827 213.677 53.8173 213.167 52.8547C212.658 51.8947 212.405 50.848 212.405 49.7173C212.405 49.5453 212.418 49.152 212.447 48.5293C212.475 47.9067 212.489 47.5387 212.489 47.4253C212.489 47.256 212.475 46.9733 212.447 46.576C212.418 46.1827 212.405 45.7587 212.405 45.304C212.405 44.852 212.39 44.4427 212.363 44.0747C212.333 43.7067 212.319 43.4387 212.319 43.268V40.9347C212.319 40.116 212.347 39.3653 212.405 38.688C212.405 38.0653 212.418 37.5987 212.447 37.288C212.475 36.9773 212.489 36.736 212.489 36.5667C212.489 36.396 212.475 36.0867 212.447 35.632C212.418 35.1813 212.39 34.7 212.363 34.1907C212.333 33.6813 212.306 33.2147 212.277 32.7907C212.249 32.3667 212.235 32.0693 212.235 31.9C212.235 31.7307 212.249 31.4053 212.277 30.9253C212.306 30.444 212.319 29.9347 212.319 29.3973C212.319 28.86 212.333 28.3667 212.363 27.912C212.39 27.46 212.405 27.148 212.405 26.98C212.405 26.7533 212.39 26.3573 212.363 25.7907C212.333 25.2267 212.319 24.6187 212.319 23.9667C212.319 23.3173 212.306 22.724 212.277 22.1853C212.249 21.6493 212.235 21.2667 212.235 21.04C212.235 20.476 212.249 19.8387 212.277 19.132C212.306 18.4253 212.333 17.704 212.363 16.968C212.39 16.2333 212.431 15.54 212.489 14.8893C212.545 14.24 212.602 13.688 212.658 13.236C212.658 12.9533 212.673 12.712 212.701 12.5133C212.73 12.316 212.743 12.076 212.743 11.792C212.743 11.172 212.63 10.6907 212.405 10.3507C212.178 10.0107 211.895 9.77067 211.557 9.63067C211.217 9.48933 210.849 9.404 210.454 9.37466C210.057 9.34666 209.69 9.332 209.35 9.332H208.205C207.837 9.332 207.426 9.36133 206.975 9.41867C206.579 9.41867 206.197 9.43066 205.829 9.45866C205.461 9.48933 205.051 9.50267 204.599 9.50267C204.429 9.50267 204.118 9.48933 203.666 9.45866C203.211 9.43066 202.746 9.404 202.266 9.37466C201.785 9.34666 201.346 9.31866 200.951 9.29066C200.554 9.26266 200.273 9.248 200.102 9.248C199.366 9.248 198.802 9.38933 198.406 9.672C198.009 9.95466 197.727 10.28 197.558 10.648C197.387 11.0147 197.289 11.4267 197.259 11.8773C197.231 12.3307 197.218 12.7253 197.218 13.0653C197.218 14.1973 197.231 15.3 197.259 16.3733C197.289 17.4493 197.303 18.552 197.303 19.6827C197.303 19.9667 197.289 20.404 197.259 20.9973C197.231 21.592 197.218 22.2293 197.218 22.9067C197.218 23.5853 197.203 24.2213 197.175 24.816C197.146 25.4093 197.134 25.82 197.134 26.0467C197.134 26.8387 197.146 27.616 197.175 28.3787C197.203 29.144 197.218 29.92 197.218 30.712V31.5613C197.218 31.956 197.203 32.396 197.175 32.8747C197.146 33.3573 197.134 33.796 197.134 34.1907V35.0387C197.134 35.2653 197.146 35.632 197.175 36.1427C197.203 36.6507 197.218 37.2027 197.218 37.796C197.218 38.3893 197.231 38.956 197.259 39.4933C197.289 40.032 197.303 40.384 197.303 40.5533V41.5293C197.303 41.8413 197.273 42.1653 197.218 42.5053C197.218 42.7307 197.19 43.0987 197.134 43.6067C197.077 44.116 197.034 44.64 197.006 45.1773C196.978 45.7147 196.949 46.2373 196.922 46.748C196.893 47.256 196.879 47.596 196.879 47.764C196.879 48.104 196.893 48.7827 196.922 49.8013C196.949 50.8187 196.978 51.8507 197.006 52.8987C197.034 53.9453 197.062 54.892 197.09 55.74C197.118 56.588 197.134 57.04 197.134 57.0973C197.134 58.1733 197.105 59.248 197.047 60.3213C196.991 61.396 196.963 62.4707 196.963 63.544C196.963 63.772 196.949 64.2653 196.922 65.0293C196.893 65.7933 196.879 66.288 196.879 66.5133C196.879 67.1373 197.105 67.7733 197.558 68.4227C198.009 69.0733 198.886 69.3987 200.187 69.3987C200.358 69.3987 200.682 69.3853 201.163 69.356C201.643 69.3293 202.151 69.3147 202.691 69.3147C203.227 69.3147 203.722 69.3013 204.175 69.2707C204.627 69.2427 204.938 69.2307 205.107 69.2307H219.786C220.067 69.2307 220.647 69.2587 221.525 69.3147C222.401 69.3707 222.979 69.3987 223.263 69.3987C223.715 69.3987 224.041 69.3853 224.241 69.356C224.437 69.3293 224.621 69.2587 224.791 69.144C225.131 69.0307 225.441 68.792 225.725 68.4227C226.006 68.0573 226.149 67.5333 226.149 66.8533C226.149 66.684 226.162 66.3733 226.191 65.9213C226.218 65.468 226.234 64.988 226.234 64.4773C226.234 63.9693 226.247 63.5027 226.275 63.0787C226.305 62.6547 226.317 62.356 226.317 62.188C226.317 60.7173 226.305 59.4867 226.275 58.4973C226.247 57.508 226.119 56.716 225.894 56.1213Z" fill="var(--fill-0, #384FA2)"/>
<path id="path73" d="M57.9571 50.1403C57.1944 49.7163 56.5278 49.5043 55.9638 49.5043C55.6798 49.5043 55.3984 49.5189 55.1158 49.5469C54.8318 49.5763 54.5491 49.6189 54.2664 49.6736C53.9824 49.7309 53.6731 49.7589 53.3331 49.7589H51.4251C51.1131 49.7589 50.8171 49.7309 50.5344 49.6736C50.1371 49.6189 49.7411 49.5603 49.3464 49.5043C48.9491 49.4483 48.5251 49.3909 48.0731 49.3349C47.5078 49.3349 46.9144 49.3216 46.2918 49.2923C45.6691 49.2643 45.1318 49.1949 44.6798 49.0803C43.6051 48.7989 42.9838 48.3029 42.8144 47.5949C42.6438 46.8896 42.5598 46.1109 42.5598 45.2616C42.5598 44.0749 42.5718 43.1416 42.6011 42.4616C42.6291 41.7843 42.7571 41.2483 42.9838 40.8509C43.4344 40.0589 44.0438 39.5923 44.8064 39.4509C45.5704 39.3096 46.2918 39.2389 46.9704 39.2389C47.1958 39.2389 47.6504 39.2536 48.3278 39.2803C49.0064 39.3096 49.7131 39.3536 50.4491 39.4083C51.1824 39.4656 51.8758 39.5069 52.5278 39.5349C53.1771 39.5656 53.6158 39.5789 53.8424 39.5789C54.4638 39.5789 55.0731 39.4923 55.6664 39.3216C56.2611 39.1523 56.7838 38.5829 57.2358 37.6149C57.4064 37.2736 57.4904 36.7616 57.4904 36.0789C57.4904 35.9083 57.4758 35.6536 57.4491 35.3096C57.4198 34.9696 57.4064 34.6136 57.4064 34.2429C57.4064 33.8736 57.3918 33.5189 57.3638 33.1763C57.3344 32.8363 57.3211 32.6083 57.3211 32.4936C57.3211 32.3243 57.3344 32.0696 57.3638 31.7256C57.3918 31.3856 57.4064 31.0283 57.4064 30.6589C57.4064 30.2896 57.4198 29.9349 57.4491 29.5923C57.4758 29.2509 57.4904 29.0243 57.4904 28.9096C57.4904 27.7149 57.2638 26.8456 56.8118 26.3069C56.3584 25.7656 55.4824 25.4936 54.1811 25.4936C53.9558 25.4936 53.4891 25.5083 52.7824 25.5376C52.0731 25.5669 51.6358 25.5803 51.4678 25.5803C51.2971 25.5803 51.0571 25.5669 50.7451 25.5376C50.4344 25.5083 50.0958 25.4936 49.7278 25.4936C49.3598 25.4936 49.0064 25.4803 48.6664 25.4523C48.3278 25.4243 48.1011 25.4096 47.9878 25.4096C47.7624 25.4096 47.3224 25.4389 46.6744 25.4936C46.0224 25.5523 45.6131 25.5803 45.4438 25.5803C44.7078 25.5803 44.1424 25.4149 43.7464 25.0816C43.3504 24.7483 43.0531 24.3469 42.8558 23.8749C42.6571 23.4029 42.5438 22.9456 42.5158 22.5016C42.4864 22.0589 42.4744 21.7256 42.4744 21.5043C42.4744 20.3389 42.4864 19.6029 42.5158 19.2989C42.5438 18.9936 42.6438 18.7029 42.8144 18.4256C43.0958 18.0376 43.5344 17.7056 44.1278 17.4283C44.7224 17.1496 45.8384 17.0096 47.4798 17.0096C47.6504 17.0096 47.9038 17.0256 48.2424 17.0536C48.5824 17.0829 48.9358 17.1096 49.3038 17.1376C49.6718 17.1683 50.0251 17.1963 50.3638 17.2229C50.7038 17.2523 50.9291 17.2656 51.0424 17.2656C51.2678 17.2656 51.7211 17.2376 52.4011 17.1803C53.0784 17.1243 53.5038 17.0963 53.6731 17.0963C53.7864 17.0963 54.0264 17.1096 54.3944 17.1376C54.7624 17.1683 55.0011 17.1523 55.1158 17.0963C56.5278 16.9816 57.3918 16.5416 57.7024 15.7723C58.0131 15.0029 58.1691 14.3056 58.1691 13.6816C58.1691 13.3976 58.1544 12.8843 58.1264 12.1443C58.0971 11.4043 58.0851 10.9496 58.0851 10.7789C58.0851 10.6083 58.0971 10.2963 58.1264 9.83893C58.1544 9.38427 58.1824 8.90027 58.2118 8.3896C58.2398 7.87627 58.2678 7.4056 58.2971 6.98027C58.3238 6.55227 58.3398 6.2536 58.3398 6.08294C58.3398 5.28694 58.1118 4.64693 57.6598 4.16293C57.2078 3.67893 56.5851 3.43627 55.7931 3.43627C55.5678 3.43627 55.1158 3.45094 54.4371 3.47894C53.7571 3.50827 53.3038 3.5216 53.0784 3.5216H51.2971C51.0131 3.5216 50.4624 3.55093 49.6438 3.60693C48.8224 3.66293 48.2984 3.69093 48.0731 3.69093C47.7904 3.69093 47.3104 3.6776 46.6318 3.64827C45.9531 3.6216 45.2318 3.60693 44.4678 3.60693C43.7051 3.60693 42.9838 3.5936 42.3038 3.56294C41.6251 3.53494 41.1731 3.5216 40.9464 3.5216H36.5358C36.3651 3.5216 36.0398 3.50827 35.5598 3.47894C35.0784 3.45094 34.5838 3.4096 34.0758 3.35094C33.5091 3.35094 32.9998 3.3376 32.5478 3.3096C32.0944 3.2816 31.7558 3.26694 31.5304 3.26694C30.4544 3.26694 29.6211 3.4096 29.0278 3.69093C28.4331 3.9736 28.0091 4.39894 27.7544 4.96427C27.4998 5.5296 27.3438 6.22293 27.2891 7.0416C27.2318 7.86293 27.2024 8.7816 27.2024 9.79893V11.1136C27.2024 11.7083 27.2158 12.3443 27.2451 13.0229C27.2731 13.7029 27.2891 14.3523 27.2891 14.9749V16.2483C27.2891 17.7189 27.2584 19.2176 27.2024 20.7429C27.1464 22.2709 27.1184 23.7709 27.1184 25.2403C27.1184 25.5803 27.1318 26.1309 27.1611 26.8936C27.1891 27.6576 27.2024 28.4776 27.2024 29.3549C27.2024 30.2336 27.2158 31.0523 27.2451 31.8149C27.2731 32.5803 27.2891 33.1029 27.2891 33.3856V34.8696C27.2891 35.5776 27.2731 36.3109 27.2451 37.0749C27.2158 37.8389 27.2024 38.5749 27.2024 39.2803V41.4883C27.2024 41.8563 27.2158 42.2363 27.2451 42.6323C27.2731 43.0296 27.2891 43.4096 27.2891 43.7776V44.5829C27.2891 44.7536 27.2731 45.0216 27.2451 45.3896C27.2158 45.7576 27.1891 46.1536 27.1611 46.5776C27.1318 47.0016 27.1038 47.3976 27.0758 47.7643C27.0464 48.1336 27.0331 48.4003 27.0331 48.5709V49.5883C27.0331 50.0976 27.0464 50.6363 27.0758 51.2003C27.1038 51.7683 27.1184 52.3043 27.1184 52.8136V56.3763C27.1184 57.3389 27.0611 58.2723 26.9491 59.1763C26.9491 59.3456 26.9331 59.5163 26.9064 59.6856C26.8771 59.8536 26.8638 60.0243 26.8638 60.1936C26.8638 61.1003 27.1891 61.8776 27.8398 62.5269C28.4878 63.1776 29.3238 63.5029 30.3424 63.5029C30.6238 63.5029 31.1611 63.4896 31.9544 63.4603C32.7451 63.4336 33.2824 63.4176 33.5664 63.4176H34.5838C35.0931 63.4176 35.6291 63.4056 36.1958 63.3749C36.7611 63.3469 37.2984 63.3336 37.8078 63.3336H38.8264C39.0518 63.3336 39.5331 63.3469 40.2678 63.3749C41.0024 63.4056 41.4838 63.4176 41.7104 63.4176C41.9918 63.4176 42.5158 63.4056 43.2798 63.3749C44.0438 63.3469 44.5384 63.3336 44.7651 63.3336C45.6691 63.3336 46.5598 63.3616 47.4371 63.4176C48.3131 63.4749 49.2038 63.5029 50.1091 63.5029C50.3918 63.5029 50.8864 63.4896 51.5944 63.4603C52.3011 63.4336 52.7664 63.4176 52.9944 63.4176C53.2198 63.4176 53.7144 63.4456 54.4798 63.5029C55.2424 63.5589 55.7358 63.5869 55.9638 63.5869C56.4731 63.5869 57.1091 63.3749 57.8731 62.9509C58.6358 62.5269 59.0171 61.6096 59.0171 60.1936V59.4296C59.0171 59.0923 59.0038 58.7243 58.9758 58.3283C58.9464 57.9323 58.9331 57.5643 58.9331 57.2243V55.4429C58.9331 54.9909 58.9598 54.5376 59.0171 54.0856C59.0731 53.8029 59.1024 53.5496 59.1024 53.3216V52.5576C59.1024 51.3696 58.7211 50.5643 57.9571 50.1403Z" fill="var(--fill-0, #12BDD6)"/>
<path id="path75" d="M344.509 37.9756L344.423 39.1609C344.399 39.4996 344.318 40.0036 344.187 40.6743C344.054 41.3449 343.862 42.2663 343.609 43.4396C343.355 44.6129 343.014 46.2316 342.585 48.2996C342.327 49.5289 341.951 50.4516 341.459 51.0676C340.965 51.6849 340.485 52.1316 340.015 52.4089C339.546 52.6876 339.127 52.8423 338.761 52.8716C338.395 52.9036 338.185 52.9143 338.127 52.9103C337.959 52.8983 337.547 52.7836 336.89 52.5663C336.233 52.3476 335.802 51.7223 335.594 50.6876C335.51 50.2836 335.469 49.8836 335.47 49.4876C335.47 49.0903 335.497 48.5263 335.55 47.7916L335.605 47.0303C335.63 46.6916 335.669 46.3263 335.726 45.9316C335.782 45.5409 335.823 45.1743 335.849 44.8369L335.897 44.1583C335.91 43.9903 335.915 43.7063 335.915 43.3089C335.915 42.9143 335.918 42.4889 335.923 42.0343C335.926 41.5809 335.929 41.1556 335.929 40.7583C335.927 40.3636 335.935 40.0796 335.947 39.9089L336.034 38.7249C336.074 38.1623 336.131 37.5556 336.207 36.9089C336.282 36.2636 336.338 35.6703 336.377 35.1343L336.459 33.9916C336.541 32.8649 336.609 31.7489 336.659 30.6463C336.709 29.5449 336.737 28.5969 336.737 27.8036C336.769 27.3529 336.786 26.9129 336.789 26.4876C336.791 26.0623 336.81 25.6263 336.842 25.1729C336.863 24.8916 336.902 24.5263 336.963 24.0769C337.022 23.6276 337.153 23.1836 337.353 22.7449C337.553 22.3049 337.859 21.9436 338.273 21.6609C338.686 21.3809 339.257 21.2649 339.982 21.3183C341.098 21.3983 341.965 21.8583 342.578 22.6969C343.189 23.5343 343.638 24.5156 343.922 25.6423C344.205 26.7676 344.387 27.9436 344.469 29.1689C344.547 30.3943 344.589 31.4036 344.586 32.1983C344.629 33.1649 344.645 34.1289 344.633 35.0916C344.617 36.0569 344.578 37.0169 344.509 37.9756ZM360.753 30.9396C360.647 29.2596 360.474 27.5316 360.233 25.7569C359.991 23.9809 359.618 22.3089 359.106 20.7409C358.545 19.1143 357.855 17.6449 357.043 16.3383C356.229 15.0343 355.403 13.9116 354.563 12.9703C353.725 12.0316 352.97 11.2969 352.299 10.7649C351.629 10.2369 351.186 9.87694 350.973 9.69294C349.462 8.6196 347.814 7.89027 346.027 7.50627C344.241 7.12094 342.445 6.86494 340.641 6.73427C340.357 6.71294 339.847 6.6916 339.113 6.6676C338.377 6.6436 337.598 6.61427 336.781 6.5836C335.961 6.55427 335.197 6.5276 334.49 6.5036C333.781 6.48093 333.287 6.45827 333.006 6.43827L331.737 6.3476C331.171 6.30627 330.566 6.24894 329.921 6.17294C329.273 6.09961 328.654 6.03961 328.061 5.99694L326.834 5.90894C325.874 5.83827 325.143 5.9556 324.639 6.2596C324.135 6.5636 323.738 6.96094 323.449 7.45027C323.157 7.93961 322.979 8.46627 322.91 9.0276C322.839 9.58894 322.791 10.0689 322.762 10.4623C322.742 10.7449 322.721 11.2249 322.702 11.9049C322.681 12.5836 322.657 13.2903 322.634 14.0263C322.609 14.7623 322.586 15.4689 322.565 16.1476C322.543 16.8263 322.527 17.2809 322.51 17.5049C322.485 17.8436 322.43 18.3916 322.349 19.1516C322.265 19.9116 322.194 20.7129 322.133 21.5596C322.071 22.4049 321.998 23.2089 321.917 23.9689C321.831 24.7276 321.779 25.2489 321.759 25.5316C321.735 25.8703 321.706 26.4489 321.678 27.2676C321.647 28.0889 321.613 28.9516 321.575 29.8556C321.538 30.7596 321.505 31.6089 321.477 32.3996C321.447 33.1929 321.425 33.7289 321.403 34.0116C321.387 34.2383 321.343 34.6316 321.274 35.1943C321.206 35.7543 321.149 36.3609 321.102 37.0076C321.055 37.6583 320.998 38.2503 320.93 38.7836C320.865 39.3169 320.823 39.6983 320.807 39.9223L320.695 41.4876C320.643 42.1943 320.601 42.9703 320.567 43.8183C320.535 44.6663 320.502 45.5009 320.473 46.3196C320.441 47.1423 320.431 47.8636 320.443 48.4876C320.386 49.2769 320.358 50.0689 320.357 50.8636C320.355 51.6569 320.327 52.4489 320.271 53.2383C320.259 53.4076 320.222 53.7023 320.163 54.1236C320.103 54.5449 320.046 54.9809 319.985 55.4276C319.923 55.8796 319.865 56.3009 319.81 56.6916C319.751 57.0863 319.717 57.3663 319.705 57.5343C319.625 57.8689 319.585 58.2223 319.586 58.5889C319.589 58.9596 319.547 59.3103 319.469 59.6436C319.447 59.9289 319.411 60.2236 319.362 60.5303C319.311 60.8383 319.275 61.1343 319.257 61.4169C319.187 62.3743 319.286 63.1329 319.558 63.6916C319.829 64.2503 320.21 64.6743 320.702 64.9649C321.19 65.2556 321.743 65.4369 322.363 65.5103C322.981 65.5849 323.598 65.6423 324.221 65.6876C324.445 65.7036 324.87 65.7063 325.495 65.6943C326.119 65.6836 326.771 65.6876 327.451 65.7076C328.13 65.7276 328.781 65.7316 329.407 65.7209C330.031 65.7089 330.455 65.7116 330.682 65.7276C330.853 65.7409 331.159 65.7783 331.609 65.8369C332.058 65.8983 332.523 65.9609 332.999 66.0236C333.478 66.0863 333.926 66.1463 334.347 66.2049C334.767 66.2636 335.065 66.2996 335.234 66.3103C336.531 66.4049 337.959 66.4383 339.523 66.4076C341.083 66.3809 342.705 66.0996 344.387 65.5689C346.071 65.0396 347.779 64.1543 349.513 62.9196C351.247 61.6836 352.935 59.8783 354.583 57.5009C356.369 54.7383 357.773 51.7769 358.795 48.6183C359.522 46.4036 360.001 44.4809 360.234 42.8529C360.465 41.2249 360.611 39.9596 360.677 39.0583C360.738 38.2116 360.793 37.0676 360.839 35.6236C360.887 34.1823 360.858 32.6209 360.753 30.9396Z" fill="var(--fill-0, #00B289)"/>
<path id="path77" d="M102.285 10.0544C102.115 9.68641 101.846 9.37575 101.479 9.11975C101.11 8.86641 100.589 8.73841 99.9099 8.73841H99.1033C98.6793 8.73841 98.2406 8.76908 97.7886 8.82375C97.3353 8.82375 96.8979 8.83841 96.4739 8.86641C96.0499 8.89441 95.7526 8.90775 95.5819 8.90775C95.3566 8.90775 94.9739 8.89441 94.4366 8.86641C93.8979 8.83841 93.3353 8.81041 92.7406 8.78108C92.1459 8.75308 91.5806 8.72508 91.0433 8.69575C90.5059 8.66908 90.1526 8.65441 89.9833 8.65441C89.5873 8.65441 89.2326 8.69574 88.9233 8.78108C88.6113 8.86641 88.2286 9.16375 87.7779 9.67175C87.6073 9.84241 87.4793 10.0117 87.3953 10.1811C87.3113 10.3517 87.2393 10.5917 87.1833 10.9024C87.1259 11.2144 87.0846 11.6517 87.0566 12.2171C87.0273 12.7837 87.0139 13.5477 87.0139 14.5091C87.0139 15.0731 87.0273 15.6251 87.0566 16.1624C87.0846 16.7011 87.0979 17.2784 87.0979 17.9024C87.0979 18.2397 87.0846 18.8224 87.0566 19.6397C87.0273 20.4611 86.9993 21.3237 86.9713 22.2291C86.9433 23.1331 86.9139 23.9811 86.8859 24.7744C86.8579 25.5664 86.8433 26.1024 86.8433 26.3864C86.8433 26.8384 86.8579 27.5877 86.8859 28.6331C86.9139 29.6797 86.9566 30.7971 87.0139 31.9851C87.0686 33.1731 87.1113 34.2757 87.1419 35.2944C87.1686 36.3117 87.1833 37.0197 87.1833 37.4157C87.1833 38.5464 87.1686 39.6357 87.1419 40.6811C87.1113 41.7277 87.0979 42.7891 87.0979 43.8624V44.6264C87.0979 44.9651 87.1113 45.3477 87.1419 45.7717C87.1686 46.1957 87.1833 46.5771 87.1833 46.9157V47.6811C87.1833 49.4917 87.0686 50.9184 86.8433 51.9637C86.6179 53.0104 86.0513 53.8184 85.1473 54.3837C84.8646 54.5517 84.4966 54.7077 84.0446 54.8491C83.5913 54.9917 83.1966 55.0611 82.8566 55.0611C81.9513 55.0611 81.2726 54.8211 80.8206 54.3397C80.3673 53.8597 80.0846 53.5064 79.9726 53.2797C79.6886 52.7704 79.5193 52.1064 79.4633 51.2864C79.4059 50.4664 79.3779 49.7451 79.3779 49.1224C79.3779 48.0491 79.3913 46.9877 79.4206 45.9411C79.4486 44.8944 79.4633 43.8624 79.4633 42.8437V41.7824C79.4633 41.3037 79.4486 40.7797 79.4206 40.2144C79.3913 39.6491 79.3779 39.1251 79.3779 38.6451V37.6691C79.3779 37.3291 79.3913 36.7917 79.4206 36.0557C79.4486 35.3224 79.4766 34.5304 79.5059 33.6824C79.5339 32.8331 79.5619 32.0411 79.5899 31.3051C79.6179 30.5717 79.6326 30.0624 79.6326 29.7797V26.3864C79.6326 26.1024 79.6459 25.5517 79.6739 24.7304C79.7033 23.9117 79.7179 23.3877 79.7179 23.1611V22.3571C79.7179 21.9877 79.7033 21.5917 79.6739 21.1677C79.6459 20.7437 79.6326 20.3477 79.6326 19.9797V19.1744C79.6326 17.7611 79.6606 16.4037 79.7179 15.1024C79.7739 13.8011 79.8313 12.8957 79.8873 12.3877C79.9433 12.1624 79.9726 11.8504 79.9726 11.4531C79.9726 10.6624 79.7873 10.1104 79.4206 9.79974C79.0513 9.48908 78.7846 9.27708 78.6139 9.16375C78.3886 9.05041 78.1179 8.96641 77.8099 8.90775C77.4979 8.85308 76.7486 8.82375 75.5606 8.82375H74.2033C73.9193 8.88108 73.6366 8.90775 73.3553 8.90775H72.7606C72.5339 8.90775 72.1673 8.89441 71.6579 8.86641C71.1486 8.83841 70.5979 8.81041 70.0033 8.78108C69.4099 8.75308 68.8579 8.72508 68.3486 8.69575C67.8406 8.66908 67.5006 8.65441 67.3313 8.65441C66.0873 8.65441 65.2806 9.02241 64.9139 9.75575C64.5446 10.4917 64.3619 11.9357 64.3619 14.0837C64.3619 14.4224 64.3739 14.9744 64.4033 15.7384C64.4313 16.5011 64.4473 17.3224 64.4473 18.1984C64.4473 19.0757 64.4606 19.9104 64.4886 20.7011C64.5166 21.4944 64.5313 22.0317 64.5313 22.3131C64.5313 22.5971 64.5166 23.1051 64.4886 23.8411C64.4606 24.5771 64.4313 25.3544 64.4033 26.1744C64.3739 26.9944 64.3473 27.7717 64.3193 28.5064C64.2899 29.2424 64.2766 29.7517 64.2766 30.0331C64.2766 30.5424 64.2899 31.4197 64.3193 32.6637C64.3473 33.9091 64.3899 35.2224 64.4473 36.6091C64.5019 37.9957 64.5446 39.3104 64.5739 40.5544C64.6019 41.7984 64.6166 42.6464 64.6166 43.0984C64.6166 43.4384 64.6019 44.0611 64.5739 44.9651C64.5446 45.8704 64.5166 46.8037 64.4886 47.7651C64.4606 48.7277 64.4313 49.6451 64.4033 50.5224C64.3739 51.3997 64.3619 52.0064 64.3619 52.3464C64.3619 52.7997 64.3739 53.3637 64.4033 54.0437C64.4313 54.7211 64.4886 55.4571 64.5739 56.2491C64.6593 57.0411 64.7859 57.8331 64.9553 58.6251C65.1246 59.4171 65.3219 60.1224 65.5499 60.7464C66.2286 62.3864 67.0473 63.6024 68.0086 64.3931C68.9713 65.1864 69.8193 65.8077 70.5553 66.2611C72.0819 67.1651 73.6793 67.9144 75.3486 68.5077C77.0166 69.1024 79.1513 69.3984 81.7539 69.3984C83.3366 69.3984 84.6806 69.3837 85.7833 69.3557C86.8859 69.3277 87.8753 69.2304 88.7526 69.0584C89.6299 68.8904 90.4779 68.6637 91.2979 68.3811C92.1179 68.0984 93.0073 67.7024 93.9713 67.1931C94.6486 66.8544 95.5393 66.3317 96.6433 65.6237C97.7459 64.9171 98.8339 63.7437 99.9099 62.1037C100.361 61.3691 100.801 60.4477 101.225 59.3464C101.649 58.2424 101.917 57.1277 102.031 55.9944C102.143 55.3717 102.186 54.7784 102.157 54.2131C102.129 53.6477 102.143 53.0544 102.201 52.4317C102.201 52.0371 102.214 51.6664 102.243 51.3277C102.27 50.9891 102.313 50.6211 102.369 50.2251C102.426 49.7731 102.454 49.3344 102.454 48.9104V47.5957C102.454 47.1997 102.439 46.4784 102.413 45.4317C102.383 44.3864 102.355 43.2984 102.327 42.1651C102.298 41.0344 102.27 39.9731 102.243 38.9837C102.214 37.9957 102.201 37.3291 102.201 36.9917C102.201 36.2557 102.214 35.5477 102.243 34.8704C102.27 34.1904 102.313 33.4851 102.369 32.7491C102.369 32.1264 102.397 31.4757 102.454 30.7971C102.51 30.1171 102.539 29.4397 102.539 28.7611C102.539 28.5917 102.525 28.3077 102.497 27.9131C102.469 27.5184 102.439 27.0931 102.413 26.6397C102.383 26.1877 102.355 25.7624 102.327 25.3664C102.298 24.9717 102.285 24.6891 102.285 24.5184C102.229 24.0664 102.201 23.6424 102.201 23.2464V21.9731C102.201 21.0117 102.229 19.7117 102.285 18.0717C102.341 16.4304 102.426 14.8771 102.539 13.4051C102.594 13.1237 102.625 12.8837 102.625 12.6837V11.9637C102.625 11.7931 102.61 11.5264 102.582 11.1571C102.553 10.7904 102.454 10.4224 102.285 10.0544Z" fill="var(--fill-0, #0092CA)"/>
<path id="path79" d="M145.468 22.7373C145.014 22.512 144.477 22.3973 143.856 22.3973C143.686 22.3973 143.289 22.428 142.668 22.4827C142.045 22.54 141.65 22.5973 141.48 22.6533H140.42C139.938 22.6533 139.429 22.668 138.893 22.6947C138.354 22.724 137.845 22.7373 137.365 22.7373H136.22C136.05 22.7373 135.753 22.724 135.329 22.6947C134.905 22.668 134.452 22.6533 133.972 22.6533C133.492 22.6533 133.038 22.64 132.614 22.6093C132.19 22.5813 131.893 22.568 131.724 22.568C130.705 22.568 129.857 22.8213 129.178 23.3307C128.5 23.8413 128.104 24.5187 127.99 25.3667C127.99 25.4253 127.976 25.9053 127.948 26.8107C127.918 27.7147 127.89 28.7187 127.864 29.8213C127.834 30.9253 127.806 31.9413 127.778 32.8747C127.749 33.8093 127.736 34.3333 127.736 34.4453C127.736 35.2933 128.046 35.8867 128.669 36.2267C129.292 36.5667 129.688 36.736 129.857 36.736C129.969 36.736 130.224 36.692 130.621 36.608C131.016 36.524 131.27 36.4813 131.384 36.4813C131.778 36.4813 132.33 36.68 133.038 37.0747C133.745 37.472 134.1 38.236 134.1 39.3653C134.1 39.6493 134.07 40.1853 134.014 40.9773C133.957 41.7693 133.929 42.3067 133.929 42.5907C133.929 42.7587 133.957 43.1547 134.014 43.7787C134.07 44.4013 134.1 44.8253 134.1 45.0507C134.1 45.56 133.985 45.94 133.76 46.196C133.533 46.4493 133.25 46.6347 132.912 46.748C132.572 46.86 132.232 46.932 131.893 46.96C131.553 46.988 131.27 47.0013 131.045 47.0013C130.026 47.0013 129.164 46.8467 128.458 46.536C127.749 46.224 127.17 45.828 126.717 45.348C126.265 44.8667 125.912 44.328 125.657 43.7347C125.404 43.1413 125.162 42.5613 124.937 41.9947C124.653 41.3747 124.384 40.78 124.13 40.2133C123.876 39.6493 123.634 39.056 123.41 38.432C123.125 37.7533 122.97 37.2027 122.942 36.7787C122.913 36.3547 122.9 35.9173 122.9 35.4627V34.6147C122.9 34.22 122.885 33.796 122.857 33.3427C122.829 32.8893 122.816 32.4653 122.816 32.0693V31.2213C122.816 29.92 122.87 28.8453 122.985 27.996C123.098 27.148 123.268 26.3 123.494 25.452C123.55 25.1133 123.606 24.7733 123.664 24.4333C123.72 24.0947 123.776 23.7547 123.833 23.416C123.946 22.3427 124.058 21.6067 124.173 21.2093C124.285 20.816 124.484 20.276 124.766 19.5987C125.106 18.976 125.501 18.3827 125.954 17.816C126.406 17.252 126.986 16.7413 127.693 16.2907C128.401 15.8373 129.276 15.4827 130.324 15.2293C131.37 14.9747 132.628 14.8467 134.1 14.8467C134.55 14.8467 134.961 14.8613 135.329 14.8893C135.696 14.92 136.106 14.932 136.56 14.932C137.012 14.932 137.493 14.9453 138.002 14.9747C138.51 15.004 138.99 15.132 139.444 15.3573C139.726 15.4693 139.981 15.5827 140.208 15.6947C140.433 15.8093 140.66 15.9227 140.886 16.0347C141.281 16.2053 141.705 16.2907 142.158 16.2907C142.724 16.2907 143.332 16.0773 143.984 15.6533C144.633 15.2293 145.072 14.708 145.298 14.084C145.41 13.8013 145.468 13.404 145.468 12.896V5.26133C145.468 5.036 145.481 4.63867 145.51 4.072C145.538 3.508 145.552 3.14 145.552 2.96933C145.552 2.06666 145.282 1.372 144.746 0.890666C144.209 0.410666 143.544 0.170664 142.753 0.170664C142.469 0.170664 142.017 0.157335 141.396 0.126668C140.773 0.0986683 140.124 0.0853322 139.444 0.0853322C138.765 0.0853322 138.114 0.0719969 137.493 0.0426636C136.869 0.0146636 136.445 0 136.22 0C135.712 0 134.805 0.0293322 133.505 0.0853322C132.204 0.142666 130.718 0.285333 129.05 0.510666C127.382 0.735999 125.67 1.07467 123.918 1.528C122.164 1.98133 120.61 2.60266 119.252 3.39333C117.95 4.12933 116.636 5.10533 115.308 6.32133C113.977 7.53733 112.945 8.62667 112.21 9.58667C111.984 9.92667 111.66 10.4787 111.234 11.24C110.81 12.0053 110.372 12.868 109.92 13.8293C109.466 14.792 109.042 15.7813 108.648 16.7987C108.25 17.816 107.968 18.7507 107.8 19.5987C107.685 20.2213 107.6 20.8587 107.545 21.508C107.488 22.1573 107.402 22.8213 107.29 23.5013C107.233 23.8413 107.176 24.1933 107.12 24.5613C107.062 24.9293 107.006 25.2827 106.95 25.6227C106.837 26.4147 106.738 27.2347 106.654 28.0827C106.569 28.932 106.526 29.92 106.526 31.052C106.526 32.1267 106.569 33.3147 106.654 34.6147C106.738 35.9173 106.852 37.1747 106.993 38.3893C107.134 39.6067 107.29 40.7227 107.46 41.7413C107.629 42.7587 107.8 43.5227 107.968 44.032C108.25 45.22 108.69 46.436 109.284 47.6813C109.877 48.9253 110.485 50 111.108 50.904C111.39 51.3013 111.645 51.6667 111.87 52.0067C112.096 52.3467 112.352 52.6867 112.634 53.024C113.2 53.8187 113.724 54.524 114.204 55.1453C114.685 55.768 115.222 56.3333 115.816 56.8427C116.41 57.352 117.102 57.8333 117.894 58.2853C118.686 58.7373 119.676 59.1893 120.864 59.6427C122.164 60.152 123.48 60.5747 124.809 60.9147C126.137 61.2547 127.51 61.452 128.924 61.508H129.9C130.436 61.508 131.03 61.5213 131.681 61.5507C132.33 61.58 133.166 61.5947 134.185 61.5947C134.748 61.5947 135.554 61.58 136.602 61.5507C137.648 61.5213 138.722 61.452 139.826 61.3387C140.929 61.2253 142.002 61.056 143.049 60.8307C144.096 60.6053 144.929 60.2933 145.552 59.8973C146.401 59.332 146.924 58.7653 147.122 58.2013C147.32 57.636 147.418 56.928 147.418 56.08V52.388C147.418 51.7387 147.432 51.0613 147.461 50.3533C147.489 49.6453 147.504 48.9813 147.504 48.3587V47.0853C147.504 46.86 147.489 46.4493 147.461 45.856C147.432 45.2627 147.418 44.6267 147.418 43.9467C147.418 43.268 147.404 42.6307 147.377 42.0387C147.348 41.4453 147.334 41.0347 147.334 40.8093C147.334 40.584 147.348 40.2133 147.377 39.7053C147.404 39.196 147.418 38.6453 147.418 38.0507C147.418 37.4573 147.432 36.892 147.461 36.3547C147.489 35.8187 147.504 35.4627 147.504 35.2933V29.78C147.504 29.3267 147.517 28.8453 147.546 28.336C147.574 27.828 147.589 27.348 147.589 26.8947V25.9613C147.532 25.5667 147.418 25.0427 147.249 24.3907C147.078 23.7413 146.486 23.1907 145.468 22.7373Z" fill="var(--fill-0, #384FA2)"/>
</g>
</svg>
