<svg viewBox="0 0 628.818 395.982" fill="none" xmlns="http://www.w3.org/2000/svg">
<g id="Group 6">
<path id="path1" d="M569.32 78.3028C566.864 78.1941 564.962 78.5622 563.613 79.415C562.261 80.2679 561.271 81.3847 560.635 82.7653C559.998 84.1471 559.567 85.5369 559.341 86.9311C559.115 88.3356 558.981 89.5294 558.937 90.5204C558.914 91.0165 558.824 92.0925 558.669 93.7439C558.509 95.3941 558.394 97.1282 558.313 98.9494C558.232 100.772 558.111 102.505 557.958 104.156C557.797 105.806 557.708 106.964 557.68 107.621C557.561 110.273 558.301 112.915 559.904 115.556C561.509 118.198 564.031 119.596 567.468 119.748C571.065 119.908 573.804 119.161 575.682 117.5C577.556 115.845 578.882 113.705 579.658 111.089C579.842 110.6 580.008 109.657 580.157 108.248C580.299 106.851 580.445 105.404 580.598 103.916C580.744 102.432 580.888 101.033 581.033 99.7117C581.174 98.3899 581.26 97.4 581.289 96.7374C581.495 92.1072 580.613 87.921 578.65 84.1879C576.684 80.4559 573.571 78.4919 569.32 78.3028ZM546.418 36.5021C547.575 36.5531 549.606 36.6006 552.506 36.6482C555.402 36.6912 558.549 36.749 561.946 36.8204C565.34 36.8849 568.532 36.9449 571.513 36.9914C574.495 37.0435 576.648 37.0956 577.973 37.1545C586.572 37.5373 593.688 38.8523 599.307 41.0904C604.926 43.3273 609.53 46.0648 613.117 49.2917C616.703 52.5186 619.482 56.1248 621.463 60.1072C623.438 64.0883 625.091 68.0174 626.41 71.8887C627.141 74.0758 627.68 76.8813 628.026 80.2871C628.371 83.7054 628.596 87.0308 628.7 90.2656C628.806 93.5038 628.838 96.4486 628.806 99.0989C628.769 101.755 628.739 103.411 628.71 104.069C628.46 109.695 627.717 115.175 626.485 120.504C625.254 125.839 623.02 131.335 619.785 136.997C619.251 137.804 617.96 139.691 615.925 142.668C613.886 145.644 611.15 148.466 607.716 151.126C606.338 152.232 605.35 153.1 604.74 153.732C604.129 154.369 603.806 155.181 603.762 156.172C603.717 157.17 604.18 158.805 605.159 161.084C606.134 163.369 607.229 165.777 608.444 168.32C609.657 170.859 610.836 173.238 611.98 175.439C613.127 177.65 613.842 179.253 614.13 180.259C614.573 181.441 614.979 182.576 615.346 183.672C615.707 184.768 616.036 185.815 616.324 186.822L619.036 192.914C620.541 196.297 621.753 198.965 622.661 200.906C623.568 202.852 624.245 204.422 624.69 205.597C625.134 206.778 625.423 207.704 625.56 208.368C625.695 209.044 625.753 209.624 625.731 210.12C625.665 211.608 625.032 212.822 623.833 213.767C622.632 214.708 621.13 215.138 619.315 215.057C618.819 215.035 617.956 214.959 616.723 214.817C615.49 214.681 614.215 214.581 612.896 214.524C611.579 214.465 610.3 214.37 609.067 214.228C607.833 214.092 606.97 214.011 606.478 213.989C605.653 213.953 604.54 213.903 603.139 213.841C601.734 213.778 600.254 213.756 598.682 213.767C597.112 213.783 595.581 213.795 594.095 213.811C592.606 213.832 591.534 213.821 590.873 213.792C590.05 213.755 589.263 213.764 588.519 213.811C587.771 213.865 586.986 213.867 586.163 213.831C583.853 213.727 582.22 213.325 581.26 212.619C580.3 211.912 579.437 210.88 578.674 209.517C578.521 209.181 578.223 208.466 577.776 207.367C577.327 206.266 576.884 205.129 576.443 203.948C575.998 202.773 575.595 201.631 575.231 200.535C574.868 199.445 574.613 198.644 574.471 198.141C573.575 195.947 572.554 193.79 571.414 191.665C570.269 189.54 569.253 187.303 568.367 184.936L566.372 179.625C565.188 176.592 563.987 173.763 562.783 171.138C561.58 168.514 560.317 167.173 558.999 167.115C557.186 167.034 556.121 167.733 555.806 169.208C555.492 170.69 555.319 171.844 555.282 172.669C555.26 173.164 555.263 174.033 555.29 175.283C555.317 176.525 555.299 177.891 555.232 179.378C555.166 180.871 555.144 182.28 555.169 183.604C555.193 184.934 555.192 185.847 555.172 186.342C555.156 186.677 555.128 187.334 555.084 188.326C555.039 189.317 554.952 190.35 554.821 191.424C554.689 192.499 554.606 193.489 554.565 194.394C554.524 195.304 554.492 196.011 554.471 196.507C554.44 197.17 554.45 198.785 554.504 201.358C554.554 203.93 554.563 205.627 554.524 206.456C554.407 209.102 553.542 210.766 551.928 211.438C550.313 212.112 549.094 212.431 548.264 212.393C547.762 212.372 547.306 212.313 546.895 212.209C546.481 212.109 546.025 212.046 545.529 212.024C544.37 211.81 542.458 211.6 539.802 211.395C537.144 211.197 535.149 211.065 533.821 211.006C533.319 210.983 532.237 210.979 530.568 210.985C528.901 210.998 527.109 211.042 525.189 211.119C523.266 211.201 521.473 211.245 519.809 211.252C518.143 211.264 516.978 211.25 516.308 211.221C513.813 211.109 511.894 210.198 510.558 208.481C509.215 206.763 508.597 204.748 508.7 202.425C508.75 201.272 508.871 200.445 509.06 199.957C509.669 193.688 510.141 188.649 510.479 184.851C510.809 181.053 511.028 178.077 511.123 175.926C511.174 174.773 511.229 172.571 511.292 169.346C511.348 166.113 511.378 162.674 511.378 159.03C511.373 155.384 511.403 151.902 511.47 148.589C511.531 145.276 511.595 142.962 511.655 141.631C511.706 140.478 511.842 138.286 512.071 135.062C512.295 131.842 512.529 128.412 512.778 124.773C513.02 121.139 513.253 117.709 513.483 114.485C513.708 111.26 513.851 108.994 513.91 107.667C513.948 106.843 513.969 105.391 513.981 103.318C513.986 101.244 514.045 99.0548 514.148 96.7363C514.252 94.4189 514.308 92.1865 514.323 90.0266C514.332 87.878 514.361 86.3829 514.399 85.5527C514.435 84.7282 514.542 83.1618 514.732 80.8489C514.915 78.535 515.068 76.0953 515.181 73.5299C515.296 70.969 515.439 68.5679 515.625 66.34C515.805 64.1064 515.921 62.497 515.965 61.506C515.986 61.0099 515.985 60.0539 515.968 58.6438C515.943 57.2382 515.969 55.7873 516.036 54.2945C516.103 52.8062 516.124 51.3599 516.107 49.9441C516.082 48.5396 516.087 47.5837 516.11 47.0876C516.299 42.787 517.677 39.738 520.244 37.9462C522.811 36.1589 526.078 35.3491 530.05 35.5246C530.548 35.5473 531.579 35.5937 533.153 35.6639C534.724 35.733 536.376 35.844 538.11 36.0083C539.845 36.1657 541.495 36.2824 543.069 36.3526C544.64 36.4228 545.755 36.4727 546.418 36.5021Z" fill="var(--fill-0, #F27156)"/>
<path id="path3" d="M378.226 266.398C378.226 259.439 378.598 253.892 379.346 249.749C380.09 245.612 381.124 242.137 382.449 239.316C384.272 235.01 386.756 231.078 389.904 227.517C393.046 223.956 396.774 221.183 401.082 219.193C406.711 216.711 412.095 215.136 417.229 214.472C422.362 213.814 427.083 213.479 431.39 213.479C436.521 213.479 441.204 213.522 445.428 213.604C449.649 213.69 453.291 214.062 456.358 214.721C459.419 215.384 461.78 216.464 463.438 217.952C465.091 219.441 465.923 221.517 465.923 224.161C465.923 224.329 465.88 225.197 465.796 226.773C465.712 228.348 465.671 230.123 465.671 232.113C465.671 234.099 465.632 236.008 465.548 237.826C465.464 239.65 465.423 240.891 465.423 241.555C465.423 242.218 465.464 243.626 465.548 245.778C465.632 247.931 465.671 249.421 465.671 250.245C465.671 250.909 465.589 251.783 465.423 252.857C465.257 253.937 464.841 254.966 464.183 255.964C463.519 256.957 462.568 257.826 461.327 258.57C460.082 259.314 458.383 259.687 456.233 259.687H454.493C452.837 259.357 451.221 258.942 449.649 258.446C448.074 257.949 446.377 257.453 444.556 256.957C442.732 256.461 441.08 256.169 439.588 256.089C438.099 256.002 436.855 255.964 435.863 255.964C435.031 255.964 434.036 256.002 432.882 256.089C431.719 256.169 430.521 256.504 429.278 257.081C428.038 257.664 426.999 258.57 426.173 259.811C425.343 261.057 424.93 262.756 424.93 264.904C424.93 268.221 426.05 271.156 428.286 273.725C430.521 276.292 434.287 279.977 439.588 284.779C440.912 286.105 442.445 287.6 444.183 289.251C445.924 290.908 447.453 292.316 448.78 293.474C449.605 294.306 450.393 295.008 451.141 295.584C451.885 296.167 452.671 296.868 453.501 297.699C457.639 301.67 461.034 305.399 463.687 308.878C466.333 312.356 468.407 315.707 469.897 318.939C471.388 322.165 472.381 325.439 472.876 328.752C473.373 332.065 473.625 335.705 473.625 339.682C473.625 345.481 473.333 351.194 472.752 356.822C472.169 362.455 470.226 367.67 466.916 372.472C464.927 375.624 462.648 378.272 460.082 380.425C457.515 382.577 454.989 384.4 452.506 385.89C450.022 387.378 447.702 388.538 445.551 389.369C443.396 390.201 441.656 390.777 440.334 391.105C438.676 391.603 436.644 392.012 434.247 392.347C431.843 392.675 429.402 392.968 426.917 393.216C424.433 393.465 421.95 393.631 419.465 393.712C416.981 393.798 414.747 393.836 412.758 393.836C410.107 393.836 407.17 393.712 403.937 393.465C400.71 393.216 397.604 392.844 394.625 392.347C391.641 391.851 388.909 391.273 386.424 390.609C383.94 389.951 382.035 389.121 380.711 388.123C378.558 386.634 377.314 385.312 376.986 384.152C376.65 382.991 376.489 381.752 376.489 380.425C376.489 379.928 376.527 378.934 376.613 377.44C376.693 375.952 376.775 374.382 376.861 372.721C376.942 371.069 377.023 369.494 377.11 368C377.191 366.512 377.234 365.437 377.234 364.773C377.234 364.445 377.191 363.738 377.11 362.658C377.023 361.585 376.986 360.469 376.986 359.308C376.986 358.149 376.942 357.032 376.861 355.952C376.775 354.88 376.737 354.092 376.737 353.595C376.737 352.931 376.775 351.939 376.861 350.613C376.942 349.291 377.271 348.044 377.854 346.884C378.434 345.73 379.302 344.694 380.463 343.782C381.619 342.871 383.359 342.412 385.68 342.412C387.829 342.412 389.612 342.579 391.02 342.915C392.425 343.243 393.876 344.073 395.369 345.395C396.194 346.059 396.94 346.722 397.604 347.38C398.262 348.044 399.011 348.627 399.841 349.124C400.997 349.954 402.654 350.574 404.81 350.984C406.959 351.4 409.279 351.604 411.763 351.604C415.243 351.604 418.553 351.028 421.702 349.868C424.846 348.708 426.421 346.225 426.421 342.412C426.421 341.09 426.254 339.893 425.925 338.814C425.59 337.734 424.806 336.451 423.565 334.961C422.322 333.473 420.541 331.605 418.223 329.373C415.901 327.134 412.84 324.199 409.031 320.552C408.699 320.222 407.995 319.521 406.919 318.442C405.84 317.364 404.724 316.247 403.566 315.086C402.406 313.933 401.286 312.81 400.213 311.731C399.134 310.657 398.349 309.956 397.853 309.622C394.705 306.806 392.096 304.243 390.028 301.923C387.954 299.603 385.928 296.621 383.94 292.979C381.124 287.847 379.471 283.413 378.973 279.685C378.475 275.957 378.226 271.529 378.226 266.398Z" fill="var(--fill-0, #E54225)"/>
<path id="path23" d="M13.7843 48.2467C13.4535 48.2739 12.8793 48.3645 12.0638 48.514C11.2427 48.6692 10.6684 48.7541 10.34 48.7813C8.359 48.9467 6.51621 48.2705 4.81161 46.7449C3.10474 45.2305 2.18618 43.6449 2.04914 41.9935C2.02082 41.6605 1.98684 40.7918 1.95626 39.3817C1.92115 37.9772 1.8917 37.1028 1.86452 36.7698C1.83733 36.4414 1.79543 35.4492 1.74106 33.791C1.68443 32.134 1.63799 31.0546 1.59722 30.5608C1.44658 28.7486 1.26309 27.0587 1.05243 25.4957C0.839491 23.9383 0.658271 22.2473 0.507632 20.4306C0.261852 17.4631 0.0998871 15.5218 0.0251338 14.6134C-0.0496195 13.7096 0.0421224 12.8306 0.303759 11.9755C1.23818 9.24022 2.68114 7.58205 4.62813 7.00441C6.57511 6.42564 8.86641 6.03035 11.5088 5.81062C12.4987 5.72794 14.3132 5.5773 16.9556 5.35758C19.5924 5.13898 22.4058 4.9487 25.3824 4.78221C28.3623 4.61684 31.2131 4.42316 33.936 4.19776C36.6588 3.97124 38.5978 3.8104 39.7531 3.71413C40.2481 3.67336 41.1157 3.602 42.3525 3.49893C43.5916 3.39586 44.8624 3.2475 46.1819 3.05608C47.4912 2.86693 48.8085 2.71403 50.1302 2.60416C51.4509 2.4943 52.3592 2.41955 52.8542 2.37764C53.348 2.33687 54.3006 2.30176 55.7107 2.26551C57.1185 2.2304 58.6079 2.14885 60.1778 2.0186C61.7453 1.88834 63.2325 1.80905 64.6448 1.7728C66.0527 1.74222 67.0075 1.70146 67.5025 1.65955L71.9593 1.29031C72.4543 1.2484 73.2766 1.18046 74.4353 1.08418C75.586 0.989043 76.7843 0.850852 78.0132 0.662836C79.2467 0.479351 80.4359 0.337779 81.5923 0.241506C82.7453 0.145233 83.5733 0.0772674 84.0682 0.0353603C85.8827 -0.115279 87.9044 0.215448 90.1346 1.02641C92.3602 1.83737 93.6593 3.47288 94.0319 5.93747C94.0727 6.43243 94.2132 7.66587 94.4635 9.6423C94.7081 11.6142 94.9664 13.7096 95.2348 15.934C95.4998 18.1528 95.7218 20.3003 95.8929 22.3594C96.065 24.4231 96.1839 25.8694 96.253 26.6917C96.3482 27.8481 96.3878 28.8414 96.3754 29.6762C96.3606 30.5109 96.1624 31.6039 95.7773 32.9619C95.3922 34.3256 94.7919 36.1242 93.9799 38.3464C93.1689 40.5788 92.017 43.7445 90.531 47.8571C89.9794 49.2355 89.5479 50.5595 89.2421 51.8292C88.9306 53.1012 88.5829 54.4184 88.1978 55.7809C87.5069 57.5003 86.8613 59.1732 86.2463 60.8041C85.6347 62.4363 84.9834 64.1092 84.2948 65.8228C82.6038 69.4551 80.9105 73.0875 79.2172 76.7187C77.5239 80.3465 75.9213 84.057 74.4069 87.8377C72.9878 90.7814 71.7634 94.0388 70.7316 97.61C69.9478 100.171 69.2841 102.219 68.7495 103.762C68.2115 105.302 67.7052 106.713 67.2306 107.997C66.7527 109.287 66.1671 110.705 65.4671 112.258C64.7626 113.816 63.9222 115.715 62.9459 117.951C62.52 118.82 62.0319 119.98 61.4927 121.439C60.948 122.897 60.4428 124.351 59.9852 125.802C59.5208 127.254 59.1006 128.659 58.7133 130.022C58.3293 131.386 58.164 132.395 58.2183 133.052C58.369 134.869 58.9058 135.863 59.838 136.035C60.7622 136.208 61.5573 136.265 62.2188 136.211C62.8768 136.157 64.1963 136.009 66.1705 135.759C68.1447 135.513 69.4608 135.362 70.1222 135.306C70.9456 135.238 72.5528 135.066 74.9381 134.782C77.3235 134.503 79.8356 134.213 82.4678 133.907C85.1012 133.608 87.6134 133.313 89.9987 133.033C92.384 132.754 94.075 132.571 95.0638 132.488C95.723 132.434 96.6347 132.401 97.7968 132.386C98.9577 132.37 100.097 132.568 101.213 132.974C102.324 133.379 103.297 134.045 104.121 134.974C104.945 135.902 105.44 137.359 105.604 139.338C105.631 139.671 105.69 140.37 105.78 141.446C105.868 142.521 105.921 143.675 105.943 144.919C105.962 146.162 106.019 147.327 106.107 148.397C106.196 149.472 106.261 150.252 106.303 150.746C106.344 151.241 106.416 152.112 106.518 153.348C106.621 154.584 106.771 155.904 106.971 157.3C107.168 158.697 107.323 160.054 107.433 161.37C107.543 162.699 107.619 163.602 107.66 164.096C107.81 165.914 107.81 167.408 107.659 168.585C107.507 169.76 107.36 170.52 107.225 170.861C107.072 171.043 106.342 171.769 105.038 173.041C103.731 174.314 102.415 175.001 101.095 175.111C100.929 175.125 100.35 175.129 99.3542 175.131C98.3541 175.127 97.1886 175.105 95.8543 175.049C94.3581 175.01 92.8608 175.009 91.3691 175.046C89.8763 175.09 88.3869 175.17 86.9032 175.293C86.4082 175.334 85.4999 175.453 84.1894 175.643C82.8745 175.838 81.4768 175.993 79.9908 176.116C78.5071 176.239 77.0607 176.402 75.6676 176.599C74.271 176.802 73.3253 176.919 72.8303 176.959C70.5186 177.152 68.2069 177.305 65.8896 177.411C63.5688 177.522 61.256 177.672 58.9477 177.863C58.4528 177.904 57.7075 177.966 56.7187 178.048C55.7299 178.131 54.6177 178.265 53.3877 178.449C52.1554 178.638 51.0454 178.768 50.0532 178.851C49.0644 178.932 48.3226 178.995 47.8253 179.036C47.3304 179.076 46.5024 179.145 45.3517 179.241C44.193 179.337 42.9109 179.406 41.503 179.435C40.0929 179.472 38.7258 179.542 37.4063 179.652C36.0834 179.762 35.1807 179.836 34.6835 179.877L27.7529 180.452C26.1004 180.59 24.1263 180.84 21.8304 181.193C19.5324 181.552 17.4766 181.804 15.6622 181.954C11.8645 182.27 9.18921 181.583 7.63751 179.876C6.08128 178.18 5.17065 175.68 4.89656 172.379C4.84106 171.723 4.74252 170.524 4.59754 168.788C4.45483 167.056 4.26002 165.242 4.02217 163.351C3.77979 161.465 3.59064 159.646 3.4468 157.915C3.30295 156.184 3.20328 154.985 3.14778 154.324C2.97109 152.184 3.08436 150.55 3.48984 149.434C3.89532 148.323 4.74026 146.467 6.01786 143.865C6.58077 142.659 7.31358 140.98 8.21628 138.821C9.11785 136.673 10.0126 134.438 10.9029 132.118C11.7875 129.804 12.6754 127.483 13.5657 125.169C14.4503 122.848 15.1717 121.008 15.7233 119.629C16.6713 117.055 17.4155 115.001 17.9535 113.463C18.4881 111.918 19.077 110.463 19.709 109.078C20.341 107.699 21.0002 106.145 21.6911 104.426C22.3764 102.707 23.2779 100.554 24.3947 97.9701C25.3835 95.8906 26.3326 93.8202 27.2433 91.7531C28.1516 89.6793 28.9263 87.542 29.5753 85.3221C30.1247 83.9505 30.5313 82.8394 30.7952 81.9842C31.0557 81.1348 31.3604 80.3136 31.7126 79.5366C32.0626 78.7608 32.4114 77.9464 32.7569 77.0845C33.0978 76.2282 33.629 75.1013 34.3471 73.7093C34.9077 72.5042 35.6417 70.82 36.5455 68.6657C37.4448 66.5182 38.2988 64.2813 39.1053 61.9741C39.9106 59.6659 40.6003 57.4482 41.1712 55.3222C41.742 53.1963 41.9799 51.5574 41.8836 50.4021C41.691 48.0904 40.7396 46.6746 39.0373 46.1502C38.8708 46.1638 38.0825 46.1921 36.6746 46.2216C35.2645 46.2578 34.3958 46.2873 34.0651 46.3133C33.7343 46.3416 32.9902 46.4039 31.8395 46.4991C30.6808 46.5954 29.4474 46.7403 28.1346 46.9306C26.8185 47.1266 25.5828 47.267 24.4321 47.3633C23.2734 47.4595 22.4511 47.5275 21.9562 47.5683L13.7843 48.2467Z" fill="var(--fill-0, #E54225)"/>
<path id="path27" d="M289.606 157.117V164.821C289.606 166.806 289.687 168.796 289.854 170.782C289.854 171.774 289.892 172.767 289.979 173.765C290.059 174.758 290.102 175.75 290.102 176.743C290.102 178.9 289.687 180.929 288.859 182.828C288.031 184.738 285.63 185.688 281.656 185.688H279.545C278.466 185.688 277.347 185.65 276.191 185.564C275.029 185.482 273.913 185.439 272.837 185.439H270.476H262.899C261.658 185.439 260.622 185.526 259.794 185.688C257.805 185.856 256.522 185.936 255.945 185.936H254.329C252.341 185.936 250.353 185.526 248.367 184.695C246.38 183.87 245.384 181.55 245.384 177.736C245.384 177.24 245.425 176.371 245.511 175.13C245.592 173.89 245.673 172.562 245.759 171.154C245.84 169.751 245.921 168.38 246.007 167.054C246.088 165.732 246.132 164.821 246.132 164.325C246.293 162.5 246.38 160.391 246.38 157.99V151.404C246.38 150.249 246.337 148.134 246.256 145.07C246.169 142.005 246.088 138.736 246.007 135.257C245.921 131.776 245.84 128.513 245.759 125.444C245.673 122.379 245.635 120.188 245.635 118.861C245.635 117.701 245.673 115.549 245.759 112.404C245.84 109.259 245.921 105.903 246.007 102.343C246.088 98.7817 246.169 95.3827 246.256 92.1559C246.337 88.9245 246.38 86.6491 246.38 85.3216C246.38 84.3283 246.337 82.43 246.256 79.6075C246.169 76.7975 246.132 73.7711 246.132 70.5397C246.132 67.3129 246.088 64.2491 246.007 61.3519C245.921 58.4546 245.883 56.34 245.883 55.0137C245.883 54.5165 245.921 53.5673 246.007 52.1595C246.088 50.7505 246.132 49.2622 246.132 47.6867C246.132 46.1169 246.169 44.5788 246.256 43.0905C246.337 41.6011 246.38 40.5229 246.38 39.8591C246.38 37.3776 246.212 34.8903 245.883 32.4087C245.549 29.9215 245.384 27.4399 245.384 24.9583C245.22 24.2946 245.136 22.9298 245.136 20.8582V17.0061C245.136 15.1872 245.468 13.7748 246.132 12.7815C246.79 11.7893 247.58 11.0882 248.492 10.6725C249.398 10.2568 250.353 10.0088 251.348 9.92725C252.341 9.84117 253.25 9.80379 254.08 9.80379C254.742 9.80379 255.982 9.84117 257.805 9.92725C259.627 10.0088 261.615 10.0518 263.77 10.0518C265.92 10.0518 267.95 10.0949 269.855 10.1764C271.757 10.2568 273.124 10.2999 273.956 10.2999C274.452 10.2999 275.777 10.2195 277.929 10.0518C280.079 9.8842 281.489 9.80379 282.152 9.80379C284.967 9.80379 287.079 10.5105 288.487 11.9127C289.892 13.3206 291.26 15.8509 292.586 19.4877C293.579 22.1426 294.737 24.8722 296.064 27.6879C297.389 30.5037 299.21 34.0646 301.528 38.3697C302.357 40.1933 303.269 41.8492 304.264 43.3386C305.257 44.8268 306.249 46.4895 307.245 48.3074C308.402 50.2929 309.394 52.2829 310.226 54.2684C311.218 56.5937 312.418 59.1127 313.826 61.8479C315.232 64.5776 316.519 65.9481 317.678 65.9481C318.671 65.9481 319.666 64.9502 320.659 62.9647C321.652 60.9804 322.313 59.5714 322.647 58.7411C322.977 58.082 323.553 56.9663 324.385 55.3852C325.213 53.8154 326.038 52.121 326.868 50.2929C327.696 48.475 328.522 46.7365 329.353 45.076C330.18 43.4247 330.758 42.2648 331.093 41.6011C332.25 39.2815 333.242 36.9234 334.074 34.5177C334.901 32.1222 335.814 29.7595 336.806 27.4399L341.278 18.4944C342.107 16.6766 342.974 14.9776 343.887 13.4021C344.797 11.8323 345.999 10.796 347.488 10.2999C347.652 10.2999 348.149 10.2568 348.98 10.1764C349.808 10.0949 350.719 10.0088 351.712 9.92725C352.705 9.84117 353.614 9.76074 354.445 9.68032C355.274 9.59311 355.769 9.55575 355.936 9.55575H358.421C359.578 9.55575 360.819 9.63729 362.145 9.80379C363.47 9.80379 364.712 9.84117 365.874 9.92725C367.028 10.0088 367.859 10.0518 368.358 10.0518H370.591C371.916 10.0518 373.283 10.0088 374.691 9.92725C376.097 9.84117 377.38 9.76074 378.543 9.68032C379.698 9.59311 380.361 9.55575 380.529 9.55575C381.028 9.55575 381.48 9.51269 381.896 9.42661C382.307 9.34506 382.765 9.30204 383.261 9.30204C384.585 9.30204 385.869 9.8038 387.113 10.796C388.354 11.7893 388.977 13.4452 388.977 15.7648C388.977 16.5961 388.934 18.0414 388.853 20.1141C388.766 22.1857 388.642 23.6309 388.478 24.4566C388.147 28.5997 387.898 32.4087 387.734 35.8882C387.566 39.3619 387.485 41.2727 387.485 41.6011V44.9514C387.485 46.5326 387.523 48.2258 387.609 50.0437C387.69 51.8729 387.734 53.6104 387.734 55.2606V58.7411C387.734 60.2294 387.69 63.0077 387.609 67.0648C387.523 71.1219 387.485 75.427 387.485 79.9802C387.485 84.539 387.442 88.8871 387.362 93.0257C387.275 97.1689 387.237 100.065 387.237 101.722C387.237 102.714 387.275 104.452 387.362 106.939C387.442 109.421 387.485 112.07 387.485 114.885C387.485 117.701 387.523 120.393 387.609 122.961C387.69 125.53 387.734 127.31 387.734 128.303C387.734 129.296 387.69 131.118 387.609 133.767C387.523 136.417 387.442 139.275 387.362 142.335C387.275 145.404 387.194 148.344 387.113 151.155C387.027 153.977 386.988 155.961 386.988 157.117C386.988 157.78 387.027 158.946 387.113 160.596C387.194 162.253 387.319 163.995 387.485 165.813C387.65 167.636 387.774 169.417 387.858 171.154C387.939 172.891 387.982 174.095 387.982 174.758C387.982 178.07 387.734 180.719 387.237 182.705C386.741 184.695 385.002 185.688 382.021 185.688H379.784C379.12 185.688 378.457 185.607 377.796 185.439C375.476 185.278 373.16 185.154 370.843 185.067C368.52 184.986 366.202 184.943 363.885 184.943H359.786C358.378 184.943 357.01 185.03 355.688 185.192C354.857 185.359 354.072 185.439 353.328 185.439H350.967C349.476 185.439 348.316 185.315 347.488 185.067C346.657 184.819 345.832 184.447 345.003 183.951C343.676 182.953 342.808 181.96 342.395 180.967C341.979 179.975 341.775 178.648 341.775 176.991V174.882C341.775 174.304 341.939 172.853 342.271 170.534C342.603 169.212 342.769 167.841 342.769 166.433V162.333V149.666C342.769 148.673 342.726 147.681 342.646 146.683C342.56 145.691 342.519 144.617 342.519 143.456C342.519 143.127 342.56 142.502 342.646 141.59C342.726 140.683 342.851 139.691 343.017 138.612C343.181 137.532 343.304 136.54 343.39 135.628C343.472 134.722 343.515 134.015 343.515 133.519C343.515 133.023 343.472 132.068 343.39 130.661C343.304 129.257 343.224 127.762 343.143 126.188C343.056 124.618 342.974 123.086 342.894 121.591C342.808 120.102 342.769 119.029 342.769 118.365C342.769 117.869 342.808 116.666 342.894 114.761C342.974 112.863 343.017 111.574 343.017 110.91C343.017 110.58 342.974 109.96 342.894 109.048C342.808 108.142 342.769 107.517 342.769 107.187C342.769 105.693 342.436 104.948 341.775 104.948C341.111 104.948 340.366 105.611 339.538 106.939C339.042 107.769 338.626 108.595 338.298 109.42C337.963 110.252 337.302 112.236 336.309 115.382C335.975 116.213 335.441 117.54 334.694 119.358C333.949 121.181 333.118 123.129 332.209 125.195C331.298 127.267 330.429 129.257 329.602 131.157C328.77 133.066 328.193 134.431 327.864 135.257C326.701 137.744 325.585 139.816 324.508 141.466C323.429 143.127 321.901 143.953 319.915 143.953C317.592 143.953 316.019 143.748 315.195 143.332C314.363 142.917 313.455 142.048 312.461 140.722C312.127 140.225 311.55 139.195 310.722 137.619C309.89 136.044 308.982 134.388 307.989 132.651C306.997 130.908 306.081 129.296 305.257 127.806C304.426 126.311 303.765 125.238 303.269 124.575C302.773 123.749 302.276 123.004 301.78 122.34C301.281 121.678 300.865 120.933 300.536 120.102C300.202 119.606 299.667 118.489 298.921 116.746C298.176 115.009 297.345 113.234 296.436 111.406C295.524 109.588 294.612 107.931 293.704 106.437C292.792 104.948 292.09 104.204 291.594 104.204C291.095 104.204 290.803 104.661 290.723 105.568C290.639 106.48 290.598 107.267 290.598 107.931C290.598 108.762 290.555 110.165 290.475 112.156C290.388 114.141 290.307 116.25 290.227 118.489C290.141 120.723 290.059 122.881 289.979 124.947C289.892 127.018 289.854 128.47 289.854 129.296C289.854 130.951 289.892 132.565 289.979 134.14C290.059 135.714 290.102 137.409 290.102 139.232C289.936 140.722 289.854 142.13 289.854 143.456C289.854 144.617 289.811 145.652 289.73 146.558C289.644 147.47 289.606 148.096 289.606 148.426V157.117Z" fill="var(--fill-0, #F27521)"/>
<path id="path29" d="M481.437 21.349C482.099 21.349 483.426 21.306 485.414 21.2244C487.402 21.144 488.723 21.101 489.387 21.101C491.707 21.101 493.525 21.8077 494.855 23.2257C496.177 24.6449 496.841 26.5172 496.841 28.8481C496.841 29.3487 496.799 30.2231 496.715 31.4747C496.632 32.7262 496.549 34.1024 496.468 35.602C496.383 37.0959 496.301 38.5151 496.22 39.8482C496.134 41.1801 496.094 42.0976 496.094 42.5937C496.094 43.1011 496.134 44.433 496.22 46.5975C496.301 48.7653 496.344 50.2649 496.344 51.0963C496.344 52.93 495.885 54.9699 494.979 57.2193C494.064 59.4743 491.539 60.7632 487.402 61.0928C487.067 61.2605 486.363 61.3035 485.289 61.2174C484.21 61.1359 483.506 61.0928 483.177 61.0928C482.682 61.0928 481.437 61.1789 479.452 61.3409C477.464 61.5085 476.136 61.5946 475.476 61.5946C475.141 61.5946 474.483 61.5515 473.487 61.4643C472.495 61.3839 471.459 61.3035 470.383 61.2174C469.304 61.1359 468.271 61.0555 467.278 60.9682C466.283 60.8878 465.538 60.8448 465.042 60.8448C460.235 60.8448 456.969 61.2548 455.229 62.0635C453.49 62.879 452.205 63.8553 451.379 64.9879C450.88 65.8023 450.59 66.6552 450.509 67.5454C450.425 68.4413 450.385 70.5933 450.385 74.0025C450.385 74.6549 450.425 75.6267 450.509 76.9269C450.59 78.2272 450.922 79.5648 451.504 80.9466C452.082 82.3273 452.95 83.503 454.113 84.4793C455.268 85.4511 456.925 85.9359 459.081 85.9359C459.577 85.9359 460.776 85.8554 462.682 85.6878C464.584 85.527 465.868 85.4398 466.532 85.4398C466.864 85.4398 467.527 85.4839 468.52 85.5643C469.515 85.6504 470.546 85.6878 471.624 85.6878C472.7 85.6878 473.693 85.7308 474.607 85.8124C475.515 85.8985 476.221 85.9359 476.717 85.9359C477.216 85.9359 478.497 85.8985 480.568 85.8124C482.639 85.7308 484.006 85.6878 484.67 85.6878C488.475 85.6878 491.041 86.4806 492.37 88.0675C493.692 89.6475 494.355 92.1891 494.355 95.69C494.355 96.0253 494.315 96.689 494.231 97.6857C494.149 98.6904 494.108 99.7312 494.108 100.809C494.108 101.895 494.064 102.935 493.983 103.939C493.899 104.937 493.86 105.687 493.86 106.183C493.86 106.518 493.899 107.187 493.983 108.184C494.064 109.183 494.108 110.224 494.108 111.309C494.108 112.393 494.149 113.434 494.231 114.433C494.315 115.435 494.355 116.185 494.355 116.681C494.355 118.683 494.108 120.183 493.611 121.181C492.283 124.014 490.755 125.681 489.014 126.177C487.277 126.679 485.494 126.927 483.674 126.927C483.01 126.927 481.726 126.889 479.824 126.802C477.918 126.722 475.89 126.597 473.736 126.431C471.584 126.269 469.515 126.144 467.527 126.058C465.538 125.976 464.212 125.933 463.551 125.933C461.565 125.933 459.454 126.144 457.217 126.554C454.981 126.97 453.197 128.335 451.876 130.654C451.212 131.814 450.84 133.389 450.757 135.375C450.673 137.36 450.633 140.096 450.633 143.575C450.633 146.057 450.88 148.333 451.379 150.405C451.876 152.476 453.697 153.923 456.844 154.753C458.166 155.088 459.739 155.293 461.565 155.374C463.384 155.46 465.124 155.497 466.783 155.497C468.105 155.665 469.347 155.832 470.508 155.994C471.665 156.161 472.825 156.329 473.984 156.491C474.812 156.658 475.681 156.739 476.593 156.739H479.201H482.185C483.177 156.739 484.086 156.658 484.917 156.491C485.743 156.329 486.57 156.204 487.402 156.118C488.227 156.037 489.055 155.994 489.885 155.994C491.539 155.994 493.487 156.615 495.723 157.855C497.96 159.102 499.076 161.459 499.076 164.939V167.172C499.076 167.836 498.993 168.58 498.827 169.412C498.661 170.738 498.579 172.06 498.579 173.381V176.613V178.598C498.579 179.597 498.618 180.675 498.704 181.83C498.784 182.991 498.827 184.064 498.827 185.062V187.296C498.827 191.439 497.711 194.125 495.476 195.371C493.239 196.613 491.375 197.233 489.885 197.233C489.223 197.233 487.774 197.146 485.537 196.984C483.301 196.822 481.849 196.736 481.189 196.736C480.525 196.736 479.161 196.779 477.092 196.861C475.017 196.947 473.57 196.984 472.743 196.984C470.092 196.984 467.484 196.904 464.918 196.736C462.348 196.575 459.739 196.488 457.094 196.488C456.43 196.488 454.981 196.531 452.744 196.613C450.509 196.699 448.977 196.736 448.148 196.736C447.484 196.736 446.077 196.699 443.927 196.613C441.771 196.531 440.364 196.488 439.702 196.488H436.722C435.231 196.488 433.654 196.531 432.003 196.613C430.345 196.699 428.772 196.736 427.282 196.736H424.301C423.469 196.736 421.897 196.779 419.58 196.861C417.26 196.947 415.687 196.984 414.859 196.984C411.879 196.984 409.435 196.035 407.53 194.125C405.626 192.226 404.675 189.949 404.675 187.296C404.675 186.8 404.714 186.302 404.798 185.806C404.881 185.31 404.921 184.814 404.921 184.317C405.253 181.669 405.421 178.933 405.421 176.118V168.662V165.684C405.421 164.195 405.378 162.619 405.296 160.963C405.21 159.306 405.169 157.732 405.169 156.242V153.259C405.169 152.763 405.21 151.98 405.296 150.901C405.378 149.828 405.458 148.669 405.544 147.422C405.626 146.181 405.707 145.026 405.794 143.948C405.874 142.868 405.917 142.081 405.917 141.584V139.227C405.917 138.148 405.874 137.031 405.794 135.871C405.707 134.717 405.669 133.594 405.669 132.515V130.158V126.058C405.669 123.992 405.707 121.833 405.794 119.601C405.874 117.362 405.917 115.214 405.917 113.143V108.795C405.917 107.963 405.874 106.432 405.794 104.198C405.707 101.959 405.669 99.5636 405.669 96.9903C405.669 94.4271 405.626 92.0215 405.544 89.7879C405.458 87.5544 405.421 85.9358 405.421 84.9437C405.421 80.6386 405.501 76.2474 405.669 71.7803C405.831 67.3076 405.917 62.922 405.917 58.6113V54.8826C405.917 53.0648 405.874 51.1552 405.794 49.1697C405.707 47.1853 405.669 45.3188 405.669 43.5813V39.7292C405.669 36.7516 405.751 34.0593 405.917 31.6582C406.079 29.257 406.538 27.2296 407.282 25.568C408.028 23.9167 409.27 22.6753 411.009 21.8451C412.748 21.0149 415.191 20.6037 418.339 20.6037C418.997 20.6037 419.992 20.6422 421.32 20.7283C422.645 20.8087 424.133 20.8529 425.792 20.8529C427.282 21.0149 428.729 21.144 430.137 21.2244C431.543 21.306 432.497 21.349 432.994 21.349H445.912C446.574 21.349 447.9 21.392 449.889 21.4724C451.876 21.5597 453.989 21.597 456.221 21.597C458.458 21.597 460.57 21.6401 462.559 21.7216C464.546 21.8077 465.952 21.8451 466.783 21.8451C467.441 21.8451 468.975 21.7647 471.376 21.597C473.776 21.4294 475.39 21.349 476.221 21.349H481.437Z" fill="var(--fill-0, #FDC010)"/>
<path id="path31" d="M62.8454 210.194H67.565C69.8824 210.194 72.3243 210.151 74.8942 210.071C77.4596 209.989 79.9016 209.946 82.2234 209.946H87.1923H89.6761C90.8337 209.946 92.1181 209.989 93.5259 210.071C94.9315 210.151 96.2578 210.194 97.5026 210.194H100.11H104.084C106.072 210.194 108.097 210.151 110.172 210.071C112.24 209.989 114.229 209.946 116.133 209.946H120.233C123.875 209.946 125.985 210.982 126.567 213.048C127.147 215.12 127.352 217.396 127.19 219.884V244.97C127.19 246.464 126.524 247.995 125.202 249.566C123.875 251.141 121.806 251.929 118.99 251.929C118.494 251.929 117.291 251.847 115.389 251.681C113.482 251.519 112.197 251.433 111.537 251.433C111.041 251.433 109.923 251.476 108.183 251.558C106.444 251.644 105.241 251.681 104.583 251.681H102.719C101.807 251.681 100.812 251.644 99.7384 251.558C98.659 251.476 97.626 251.433 96.6338 251.433H94.3969C93.7332 251.433 92.4896 251.644 90.6694 252.054C88.8459 252.468 87.6884 253.833 87.1923 256.154V262.363C87.1923 263.027 87.1492 264.348 87.0688 266.338C86.9816 268.324 86.9442 269.651 86.9442 270.309C86.9442 272.635 87.4403 274.285 88.4336 275.278C89.4281 276.276 90.0861 276.859 90.4214 277.02C91.2493 277.517 92.1611 277.808 93.1533 277.889C94.1489 277.975 96.7143 278.012 100.855 278.012C101.351 278.012 102.632 278.056 104.706 278.138C106.775 278.224 108.14 278.261 108.804 278.261C109.303 278.261 110.377 278.224 112.035 278.138C113.689 278.056 114.768 278.012 115.264 278.012C118.078 278.012 120.11 278.845 121.35 280.495C122.594 282.157 123.214 283.814 123.214 285.464C123.214 285.96 123.128 287.125 122.966 288.943C122.799 290.767 122.717 292.008 122.717 292.672V297.641V304.718C122.717 307.788 122.551 310.059 122.221 311.548C121.887 314.698 120.729 316.764 118.742 317.763C116.754 318.755 114.52 319.252 112.035 319.252C111.537 319.252 110.582 319.214 109.177 319.128C107.769 319.047 106.32 318.923 104.831 318.755C103.339 318.594 101.888 318.47 100.483 318.384C99.0747 318.302 98.1221 318.259 97.626 318.259C91.0013 318.259 87.6884 321.571 87.6884 328.197V341.111V343.599C87.6884 344.759 87.7269 345.999 87.813 347.321C87.8934 348.654 87.9364 349.894 87.9364 351.05V353.536C87.9364 353.871 87.8934 354.572 87.813 355.645C87.7269 356.725 87.6884 357.842 87.6884 359.001C87.6884 360.162 87.6453 361.234 87.5649 362.228C87.4788 363.225 87.4403 363.97 87.4403 364.467C87.4403 364.8 87.4788 365.503 87.5649 366.576C87.6453 367.655 87.7699 368.814 87.9364 370.055C88.1018 371.296 88.2252 372.456 88.309 373.535C88.3929 374.614 88.4336 375.397 88.4336 375.893C88.4336 378.38 88.061 380.241 87.3157 381.482C86.5716 382.722 85.7006 383.677 84.7084 384.341C83.7151 385.005 82.7195 385.376 81.7274 385.458C80.7318 385.544 79.9876 385.582 79.4916 385.582C78.9943 385.582 78.0407 385.544 76.6339 385.458C75.2238 385.376 73.7344 385.333 72.1623 385.333C70.5868 385.333 69.0952 385.296 67.6896 385.21C66.2817 385.129 65.3292 385.086 64.8331 385.086C64.337 385.086 63.4683 385.129 62.2247 385.21C60.9833 385.296 59.6547 385.333 58.2514 385.333C56.8402 385.333 55.5195 385.376 54.2759 385.458C53.0345 385.544 52.1636 385.582 51.6663 385.582C49.5121 385.582 47.8562 385.253 46.6986 384.589C45.5388 383.925 44.6667 383.138 44.0902 382.226C43.5069 381.319 43.1354 380.408 42.9734 379.497C42.8058 378.584 42.722 377.877 42.722 377.382V374.652C43.0538 371.836 43.2589 369.063 43.3449 366.328C43.4265 363.598 43.4695 360.825 43.4695 358.009C43.4695 356.681 43.4265 354.323 43.3449 350.925C43.2589 347.532 43.2215 343.933 43.2215 340.119C43.2215 336.31 43.1784 332.711 43.0969 329.312C43.0108 325.919 42.9734 323.476 42.9734 321.988V316.02C42.9734 314.034 43.0538 312.13 43.2215 310.307C43.2215 308.657 43.2589 306.622 43.3449 304.221C43.4265 301.821 43.5069 299.5 43.593 297.267C43.6745 295.029 43.7991 292.342 43.9656 289.192C43.9656 288.199 43.9226 286.419 43.8422 283.851C43.7561 281.282 43.6745 278.509 43.593 275.526C43.5069 272.548 43.4265 269.732 43.3449 267.084C43.2589 264.434 43.2215 262.53 43.2215 261.371C43.2215 260.539 43.2589 258.969 43.3449 256.65C43.4265 254.33 43.4695 251.891 43.4695 249.317C43.4695 246.755 43.5069 244.312 43.593 241.991C43.6745 239.672 43.7176 238.016 43.7176 237.023C43.7176 236.526 43.6745 235.615 43.593 234.287C43.5069 232.965 43.4695 231.558 43.4695 230.069C43.4695 228.574 43.4265 227.172 43.3449 225.845C43.2589 224.517 43.2215 223.605 43.2215 223.109C43.2215 222.284 43.3449 220.838 43.593 218.761C43.8422 216.695 44.7913 214.748 46.4495 212.924C47.7746 211.602 49.1825 210.815 50.6742 210.567C52.1636 210.319 54.8128 210.194 58.6241 210.194H62.8454Z" fill="var(--fill-0, #F27156)"/>
<path id="path33" d="M217.351 215.461C218.01 215.408 219.33 215.256 221.304 215.014C223.279 214.771 224.593 214.621 225.255 214.566C227.566 214.377 229.435 214.933 230.877 216.239C232.31 217.546 233.124 219.357 233.313 221.68C233.354 222.181 233.386 223.055 233.404 224.309C233.422 225.563 233.451 226.941 233.492 228.442C233.531 229.94 233.564 231.36 233.591 232.694C233.613 234.031 233.651 234.947 233.692 235.442C233.732 235.947 233.878 237.272 234.141 239.421C234.398 241.576 234.564 243.068 234.632 243.896C234.781 245.724 234.49 247.793 233.77 250.109C233.043 252.432 230.631 253.923 226.533 254.588C226.214 254.781 225.515 254.882 224.438 254.883C223.356 254.891 222.651 254.905 222.323 254.932C221.828 254.972 220.596 255.16 218.63 255.482C216.663 255.811 215.346 256.005 214.688 256.059C214.354 256.086 213.695 256.096 212.696 256.092C211.7 256.092 210.662 256.095 209.582 256.098C208.5 256.104 207.463 256.109 206.468 256.103C205.469 256.103 204.724 256.121 204.229 256.162C199.438 256.553 196.215 257.228 194.547 258.176C192.88 259.13 191.679 260.208 190.949 261.404C190.518 262.257 190.297 263.13 190.288 264.024C190.278 264.923 190.413 267.072 190.69 270.469C190.745 271.121 190.864 272.086 191.053 273.373C191.24 274.664 191.679 275.969 192.372 277.299C193.06 278.629 194.021 279.73 195.26 280.609C196.49 281.483 198.183 281.831 200.331 281.655C200.825 281.616 202.013 281.437 203.9 281.114C205.783 280.799 207.054 280.608 207.716 280.553C208.047 280.527 208.711 280.516 209.707 280.516C210.706 280.52 211.737 280.474 212.812 280.387C213.884 280.299 214.878 280.26 215.795 280.267C216.706 280.279 217.413 280.259 217.908 280.218C218.406 280.178 219.68 280.036 221.738 279.782C223.792 279.533 225.153 279.378 225.813 279.323C229.607 279.014 232.228 279.595 233.682 281.067C235.129 282.535 235.998 285.015 236.283 288.504C236.31 288.837 236.324 289.502 236.322 290.502C236.32 291.51 236.365 292.551 236.452 293.626C236.54 294.706 236.582 295.748 236.583 296.755C236.582 297.757 236.602 298.508 236.643 299.001C236.67 299.336 236.764 299.998 236.93 300.987C237.092 301.975 237.22 303.009 237.308 304.089C237.396 305.171 237.521 306.206 237.686 307.194C237.851 308.187 237.951 308.93 237.993 309.425C238.155 311.419 238.031 312.935 237.617 313.97C236.525 316.901 235.137 318.688 233.444 319.324C231.752 319.965 229.996 320.358 228.181 320.507C227.52 320.56 226.237 320.627 224.335 320.697C222.426 320.77 220.396 320.812 218.236 320.821C216.077 320.835 214.005 320.88 212.018 320.956C210.029 321.037 208.702 321.102 208.044 321.157C206.066 321.317 203.977 321.699 201.782 322.29C199.587 322.886 197.921 324.391 196.793 326.812C196.225 328.022 195.983 329.622 196.061 331.607C196.139 333.593 196.323 336.323 196.606 339.791C196.808 342.264 197.241 344.514 197.907 346.538C198.57 348.562 200.503 349.855 203.709 350.426C205.053 350.651 206.637 350.727 208.463 350.66C210.282 350.598 212.02 350.493 213.672 350.358C215.004 350.418 216.257 350.483 217.426 350.549C218.594 350.622 219.763 350.694 220.933 350.761C221.771 350.86 222.643 350.87 223.552 350.796C224.458 350.722 225.327 350.651 226.152 350.583C227.144 350.502 228.134 350.421 229.126 350.34C230.115 350.259 231.014 350.104 231.828 349.87C232.638 349.642 233.454 349.451 234.274 349.298C235.09 349.15 235.913 349.039 236.741 348.971C238.389 348.836 240.38 349.297 242.71 350.35C245.04 351.41 246.345 353.67 246.628 357.137C246.696 357.966 246.756 358.708 246.811 359.364C246.865 360.025 246.842 360.774 246.746 361.615C246.687 362.952 246.714 364.276 246.822 365.593C246.93 366.915 247.018 367.991 247.085 368.813C247.112 369.147 247.165 369.803 247.247 370.792C247.328 371.787 247.454 372.859 247.633 374.003C247.809 375.152 247.939 376.219 248.02 377.214C248.101 378.202 248.162 378.944 248.203 379.439C248.54 383.569 247.646 386.338 245.518 387.762C243.391 389.181 241.584 389.951 240.1 390.072C239.438 390.126 237.988 390.159 235.746 390.179C233.504 390.2 232.05 390.232 231.391 390.286C230.731 390.341 229.373 390.495 227.318 390.743C225.257 390.999 223.816 391.155 222.994 391.221C220.351 391.438 217.745 391.57 215.175 391.612C212.6 391.66 209.992 391.786 207.355 392.002C206.694 392.057 205.254 392.216 203.031 392.48C200.81 392.748 199.286 392.91 198.46 392.978C197.799 393.032 196.393 393.109 194.243 393.197C192.088 393.292 190.681 393.365 190.023 393.419C189.528 393.459 188.536 393.539 187.052 393.661C185.565 393.783 183.999 393.954 182.358 394.17C180.713 394.39 179.149 394.556 177.662 394.678C176.178 394.799 175.186 394.88 174.692 394.921C173.863 394.988 172.3 395.16 169.997 395.429C167.692 395.704 166.127 395.87 165.302 395.937C162.332 396.18 159.818 395.433 157.765 393.684C155.713 391.947 154.578 389.755 154.361 387.109C154.321 386.616 154.321 386.116 154.364 385.616C154.407 385.115 154.407 384.615 154.366 384.122C154.481 381.454 154.425 378.714 154.195 375.908C153.966 373.101 153.763 370.629 153.588 368.477C153.547 367.983 153.467 366.993 153.345 365.509C153.224 364.024 153.052 362.459 152.838 360.814C152.616 359.17 152.447 357.605 152.326 356.12C152.205 354.635 152.124 353.646 152.084 353.147C152.043 352.65 152.019 351.868 152.017 350.786C152.011 349.71 151.996 348.546 151.982 347.298C151.961 346.054 151.948 344.898 151.945 343.815C151.939 342.733 151.917 341.944 151.876 341.45C151.837 340.955 151.773 340.176 151.685 339.1C151.597 338.024 151.463 336.915 151.287 335.765C151.107 334.622 150.978 333.507 150.891 332.431C150.804 331.362 150.739 330.576 150.698 330.082C150.645 329.426 150.533 328.06 150.364 325.994C150.197 323.935 150.058 321.782 149.962 319.548C149.86 317.31 149.729 315.167 149.56 313.103C149.391 311.037 149.274 309.597 149.206 308.768C149.138 307.94 148.97 306.417 148.708 304.197C148.439 301.972 148.207 299.589 147.997 297.024C147.789 294.47 147.55 292.075 147.287 289.855C147.018 287.637 146.849 286.026 146.768 285.037C146.417 280.747 146.14 276.364 145.944 271.898C145.74 267.426 145.469 263.048 145.118 258.752C145.064 258.097 144.963 256.854 144.814 255.036C144.666 253.224 144.467 251.325 144.225 249.353C143.977 247.381 143.787 245.523 143.646 243.793C143.504 242.061 143.4 240.781 143.332 239.953C143.089 236.984 142.951 234.294 142.922 231.889C142.888 229.483 143.18 227.424 143.786 225.707C144.396 224.001 145.532 222.662 147.199 221.693C148.862 220.723 151.265 220.116 154.402 219.859C155.058 219.806 156.053 219.762 157.383 219.74C158.709 219.713 160.198 219.635 161.85 219.499C163.348 219.54 164.802 219.551 166.212 219.517C167.619 219.483 168.575 219.448 169.07 219.407L181.944 218.355C182.603 218.302 183.93 218.236 185.917 218.155C187.905 218.08 190.014 217.945 192.24 217.763C194.469 217.58 196.578 217.451 198.565 217.371C200.553 217.295 201.958 217.218 202.786 217.15C203.441 217.097 204.965 216.891 207.343 216.528C209.723 216.167 211.323 215.954 212.152 215.886L217.351 215.461Z" fill="var(--fill-0, #F27521)"/>
<path id="path35" d="M339.968 215.718C340.629 215.718 341.956 215.675 343.944 215.595C345.932 215.513 347.254 215.47 347.917 215.47C350.237 215.47 352.055 216.177 353.386 217.596C354.708 219.015 355.371 220.886 355.371 223.217C355.371 223.719 355.329 224.592 355.246 225.844C355.163 227.097 355.079 228.472 354.999 229.971C354.914 231.466 354.831 232.885 354.751 234.217C354.664 235.551 354.625 236.467 354.625 236.963C354.625 237.47 354.664 238.803 354.751 240.967C354.831 243.136 354.874 244.635 354.874 245.466C354.874 247.3 354.415 249.339 353.509 251.589C352.594 253.845 350.069 255.134 345.932 255.462C345.598 255.63 344.893 255.673 343.82 255.587C342.74 255.505 342.037 255.462 341.707 255.462C341.212 255.462 339.968 255.549 337.982 255.711C335.994 255.878 334.667 255.964 334.007 255.964C333.671 255.964 333.013 255.921 332.018 255.835C331.025 255.754 329.989 255.673 328.913 255.587C327.835 255.505 326.802 255.425 325.809 255.339C324.814 255.258 324.069 255.214 323.573 255.214C318.766 255.214 315.499 255.624 313.76 256.434C312.02 257.248 310.736 258.225 309.91 259.357C309.412 260.173 309.12 261.024 309.039 261.915C308.955 262.811 308.914 264.964 308.914 268.373C308.914 269.025 308.955 269.996 309.039 271.296C309.12 272.596 309.452 273.934 310.034 275.316C310.612 276.697 311.481 277.873 312.643 278.849C313.797 279.82 315.456 280.305 317.612 280.305C318.108 280.305 319.305 280.225 321.212 280.058C323.114 279.896 324.398 279.81 325.062 279.81C325.394 279.81 326.058 279.853 327.05 279.934C328.045 280.02 329.076 280.058 330.154 280.058C331.23 280.058 332.224 280.101 333.138 280.182C334.045 280.268 334.752 280.305 335.248 280.305C335.746 280.305 337.027 280.268 339.099 280.182C341.169 280.101 342.536 280.058 343.2 280.058C347.006 280.058 349.571 280.851 350.901 282.437C352.223 284.018 352.885 286.558 352.885 290.06C352.885 290.395 352.845 291.058 352.762 292.056C352.679 293.06 352.638 294.1 352.638 295.18C352.638 296.264 352.594 297.305 352.514 298.309C352.43 299.307 352.39 300.057 352.39 300.553C352.39 300.887 352.43 301.557 352.514 302.554C352.594 303.552 352.638 304.594 352.638 305.678C352.638 306.763 352.679 307.804 352.762 308.802C352.845 309.804 352.885 310.554 352.885 311.051C352.885 313.054 352.638 314.553 352.141 315.551C350.815 318.384 349.286 320.05 347.545 320.547C345.807 321.048 344.025 321.296 342.204 321.296C341.541 321.296 340.256 321.259 338.355 321.171C336.448 321.091 334.42 320.968 332.267 320.8C330.115 320.638 328.045 320.513 326.058 320.427C324.069 320.347 322.743 320.304 322.081 320.304C320.096 320.304 317.983 320.513 315.747 320.924C313.512 321.339 311.728 322.704 310.406 325.025C309.743 326.183 309.371 327.76 309.287 329.745C309.203 331.731 309.163 334.465 309.163 337.944C309.163 340.426 309.412 342.703 309.91 344.774C310.406 346.846 312.227 348.292 315.376 349.123C316.698 349.458 318.27 349.663 320.096 349.743C321.915 349.829 323.654 349.868 325.314 349.868C326.635 350.035 327.878 350.202 329.039 350.364C330.195 350.531 331.355 350.699 332.515 350.86C333.343 351.027 334.212 351.108 335.123 351.108H337.732H340.715C341.707 351.108 342.617 351.027 343.447 350.86C344.274 350.699 345.101 350.574 345.932 350.488C346.758 350.407 347.586 350.364 348.416 350.364C350.069 350.364 352.018 350.984 354.253 352.225C356.49 353.472 357.606 355.829 357.606 359.308V361.542C357.606 362.205 357.523 362.949 357.358 363.782C357.191 365.107 357.111 366.429 357.111 367.751V370.983V372.969C357.111 373.966 357.148 375.046 357.234 376.2C357.315 377.36 357.358 378.434 357.358 379.431V381.665C357.358 385.808 356.241 388.495 354.006 389.742C351.769 390.982 349.905 391.603 348.416 391.603C347.753 391.603 346.305 391.517 344.068 391.353C341.832 391.193 340.38 391.107 339.719 391.107C339.056 391.107 337.691 391.15 335.623 391.23C333.548 391.316 332.1 391.353 331.273 391.353C328.622 391.353 326.015 391.273 323.449 391.107C320.878 390.945 318.27 390.858 315.623 390.858C314.96 390.858 313.512 390.902 311.275 390.982C309.039 391.068 307.506 391.107 306.679 391.107C306.015 391.107 304.607 391.068 302.457 390.982C300.302 390.902 298.894 390.858 298.233 390.858H295.253C293.761 390.858 292.185 390.902 290.532 390.982C288.876 391.068 287.303 391.107 285.812 391.107H282.831C282 391.107 280.428 391.15 278.11 391.23C275.791 391.316 274.217 391.353 273.39 391.353C270.408 391.353 267.965 390.404 266.061 388.495C264.156 386.595 263.204 384.319 263.204 381.665C263.204 381.169 263.245 380.673 263.328 380.176C263.412 379.681 263.452 379.183 263.452 378.687C263.784 376.038 263.951 373.303 263.951 370.487V363.031V360.053C263.951 358.564 263.908 356.99 263.827 355.333C263.741 353.677 263.701 352.101 263.701 350.613V347.628C263.701 347.132 263.741 346.35 263.827 345.271C263.908 344.198 263.989 343.038 264.076 341.792C264.156 340.551 264.237 339.395 264.324 338.317C264.404 337.238 264.447 336.451 264.447 335.954V333.596C264.447 332.518 264.404 331.401 264.324 330.24C264.237 329.087 264.199 327.965 264.199 326.885V324.527V320.427C264.199 318.361 264.237 316.204 264.324 313.97C264.404 311.732 264.447 309.583 264.447 307.513V303.164C264.447 302.334 264.404 300.801 264.324 298.568C264.237 296.328 264.199 293.934 264.199 291.36C264.199 288.798 264.156 286.391 264.076 284.158C263.989 281.925 263.951 280.305 263.951 279.313C263.951 275.009 264.033 270.617 264.199 266.15C264.361 261.678 264.447 257.291 264.447 252.981V249.253C264.447 247.435 264.404 245.526 264.324 243.54C264.237 241.555 264.199 239.688 264.199 237.951V234.1C264.199 231.121 264.281 228.429 264.447 226.029C264.609 223.627 265.068 221.599 265.812 219.937C266.56 218.287 267.801 217.046 269.541 216.214C271.278 215.384 273.721 214.974 276.87 214.974C277.528 214.974 278.523 215.011 279.85 215.099C281.174 215.179 282.663 215.222 284.323 215.222C285.812 215.384 287.26 215.513 288.669 215.595C290.073 215.675 291.029 215.718 291.524 215.718H304.443C305.103 215.718 306.43 215.761 308.419 215.843C310.406 215.929 312.518 215.966 314.752 215.966C316.988 215.966 319.101 216.009 321.089 216.091C323.077 216.177 324.482 216.214 325.314 216.214C325.972 216.214 327.505 216.134 329.906 215.966C332.306 215.8 333.92 215.718 334.752 215.718H339.968Z" fill="var(--fill-0, #FDC010)"/>
<path id="path37" d="M555.496 295.27C555.431 296.26 555.276 297.996 555.039 300.467C554.792 302.943 554.575 305.628 554.387 308.518C554.199 311.41 553.978 314.136 553.737 316.688C553.484 319.251 553.327 321.019 553.261 322.014C553.207 322.845 553.152 324.37 553.094 326.605C553.023 328.844 552.915 331.199 552.753 333.68C552.592 336.157 552.482 338.519 552.423 340.753C552.354 342.992 552.292 344.605 552.227 345.594C552.184 346.257 552.113 347.372 552.01 348.944C551.908 350.515 551.755 352.203 551.561 354.017C551.357 355.832 551.204 357.519 551.102 359.092C550.999 360.663 550.928 361.777 550.885 362.434L550.482 368.636C550.45 369.132 550.479 370.004 550.561 371.253C550.642 372.501 550.684 373.839 550.68 375.244C550.664 376.654 550.664 377.979 550.67 379.229C550.664 380.471 550.653 381.341 550.619 381.836C550.491 383.823 550.055 385.373 549.323 386.482C548.59 387.598 547.751 388.375 546.814 388.812C545.867 389.248 544.855 389.518 543.769 389.608C542.681 389.706 541.728 389.725 540.909 389.672C540.081 389.619 539.326 389.569 538.671 389.527C538.013 389.484 537.275 389.355 536.456 389.134C534.971 389.037 533.445 388.9 531.877 388.712C530.312 388.529 528.914 388.395 527.676 388.315C526.438 388.234 525.48 388.172 524.823 388.129C524.155 388.086 524.155 388.086 524.823 388.129C522.842 388.001 520.396 387.886 517.504 387.779C514.602 387.677 512.737 387.593 511.918 387.54C510.433 387.444 509.318 387.29 508.586 387.076C507.854 386.865 507.332 386.582 507.019 386.227C506.707 385.877 506.1 385.087 505.183 383.865C504.268 382.647 503.896 380.715 504.068 378.067C504.122 377.243 504.293 375.762 504.605 373.62C504.906 371.487 505.174 369.175 505.422 366.704C505.669 364.228 505.938 361.927 506.25 359.79C506.551 357.651 506.739 356.085 506.803 355.095C506.846 354.432 506.889 353.105 506.932 351.119C506.985 349.127 507.036 347.017 507.095 344.782C507.164 342.543 507.215 340.433 507.257 338.441C507.3 336.453 507.359 335.046 507.414 334.223C507.467 333.394 507.643 331.832 507.966 329.528C508.279 327.224 508.565 324.793 508.808 322.236C509.06 319.685 509.348 317.254 509.66 314.95C509.972 312.645 510.166 310.998 510.229 310.007C510.272 309.346 510.309 308.105 510.353 306.28C510.384 304.46 510.384 302.465 510.362 300.306C510.34 298.148 510.343 296.116 510.38 294.208C510.427 292.304 510.473 290.94 510.527 290.109C510.763 286.476 511.112 282.926 511.585 279.475C512.058 276.018 512.413 272.554 512.638 269.087C512.832 266.11 512.608 263.733 511.978 261.947C511.347 260.164 510.524 258.867 509.495 258.055C508.467 257.236 507.377 256.712 506.236 256.469C505.094 256.234 504.022 256.076 503.033 256.013L496.338 255.578C494.023 255.427 492.167 254.648 490.765 253.227C489.362 251.811 488.738 249.943 488.887 247.628L489 245.895C489.304 243.758 489.544 241.367 489.715 238.718C489.886 236.075 490.048 233.598 490.199 231.283C490.219 230.95 490.268 230.207 490.344 229.05C490.417 227.898 490.452 226.694 490.452 225.446C490.449 224.201 490.484 223.047 490.554 221.971C490.625 220.898 490.676 220.107 490.707 219.613C490.835 217.632 491.371 215.757 492.319 213.991C493.26 212.231 495.718 211.477 499.68 211.734C500.343 211.777 501.376 211.844 502.781 211.936C504.186 212.026 505.715 212.212 507.351 212.482C508.998 212.588 510.525 212.731 511.93 212.903C513.325 213.08 514.355 213.185 515.024 213.228C516.014 213.292 517.793 213.369 520.361 213.45C522.928 213.536 525.701 213.635 528.677 213.742C531.666 213.855 534.471 213.956 537.125 214.042C539.768 214.133 541.677 214.213 542.84 214.288C543.496 214.331 544.774 214.458 546.665 214.662C548.565 214.871 550.544 215.038 552.611 215.171C554.678 215.306 556.656 215.478 558.557 215.682C560.447 215.892 561.811 216.019 562.64 216.072C563.135 216.104 563.957 216.12 565.125 216.109C566.282 216.104 567.523 216.141 568.847 216.226C570.172 216.313 571.413 216.355 572.581 216.345C573.738 216.339 574.57 216.349 575.065 216.382C575.722 216.424 576.831 216.664 578.382 217.095C579.921 217.53 581.203 218.937 582.204 221.327C582.656 222.189 582.919 223.158 583.022 224.24C583.113 225.328 583.067 227.357 582.875 230.329C582.843 230.824 582.786 231.697 582.705 232.934C582.624 234.172 582.493 235.532 582.311 237.018C582.128 238.498 582.006 239.858 581.927 241.096C581.846 242.34 581.79 243.206 581.758 243.701C581.714 244.364 581.653 245.809 581.594 248.048C581.535 250.283 581.484 251.734 581.441 252.395C581.323 254.215 580.74 256.043 579.711 257.885C578.673 259.726 576.512 260.537 573.207 260.322C573.033 260.311 572.581 260.282 571.84 260.233C571.095 260.184 570.27 260.094 569.37 259.949C568.46 259.808 567.645 259.712 566.901 259.663C566.159 259.616 565.62 259.581 565.287 259.559C563.306 259.43 561.704 259.786 560.493 260.615C559.271 261.455 558.367 262.558 557.781 263.927C557.194 265.299 556.806 266.772 556.63 268.334C556.442 269.9 556.31 271.259 556.234 272.416C556.18 273.246 556.128 274.734 556.073 276.888C556.009 279.04 555.948 281.318 555.879 283.719C555.799 286.12 555.735 288.441 555.676 290.675C555.606 292.914 555.55 294.445 555.496 295.27Z" fill="var(--fill-0, #FDC010)"/>
<path id="path25" d="M173.069 48.31C170.088 48.31 167.766 49.0542 166.112 50.5436C164.456 52.033 163.256 53.8554 162.511 56.0085C161.766 58.1605 161.308 60.3997 161.143 62.7137C160.976 65.0401 160.895 66.9383 160.895 68.4278C160.895 69.0915 160.936 70.2558 161.019 71.9072C161.1 73.5631 161.143 75.3051 161.143 77.1241C161.143 78.9476 161.184 80.7281 161.268 82.4644C161.351 84.2075 161.391 85.4103 161.391 86.0684C161.391 87.3958 161.351 89.7155 161.268 93.0227C161.184 96.3402 161.1 99.8581 161.019 103.58C160.936 107.309 160.852 110.874 160.772 114.262C160.687 117.661 160.647 120.105 160.647 121.594C160.647 123.746 160.687 126.153 160.772 128.797C160.852 131.45 161.268 133.932 162.014 136.252C162.758 138.571 163.916 140.514 165.491 142.089C167.065 143.664 169.343 144.446 172.325 144.446C174.97 144.446 177.045 143.95 178.534 142.958C180.025 141.965 181.183 140.724 182.011 139.229C182.839 137.741 183.379 136.171 183.627 134.509C183.875 132.858 183.999 131.369 183.999 130.043V128.051V124.82V121.594V119.355C183.999 118.697 184.039 117.413 184.123 115.509C184.206 113.604 184.33 111.575 184.495 109.417C184.66 107.271 184.783 105.243 184.87 103.332C184.951 101.434 184.994 100.063 184.994 99.2318C184.994 96.9178 184.951 94.6786 184.87 92.5266C184.783 90.3792 184.746 88.14 184.746 85.8204C184.746 85.1623 184.783 83.6253 184.87 81.2242C184.951 78.823 184.994 77.2101 184.994 76.3799C184.994 74.8905 184.908 72.4894 184.746 69.1776C184.578 65.8646 184.33 63.0489 183.999 60.7293C183.502 55.7605 182.138 52.4475 179.902 50.7916C177.665 49.1357 175.386 48.31 173.069 48.31ZM115.683 83.5823C115.683 73.1474 116.013 64.2891 116.676 57.0007C117.337 49.7179 118.578 43.4228 120.402 38.1243C122.222 32.8214 124.664 28.2682 127.73 24.4592C130.795 20.6502 134.811 17.0903 139.78 13.7774C141.433 12.6176 143.089 11.5382 144.749 10.546C146.402 9.55272 148.474 8.72704 150.958 8.06445C153.443 7.40074 156.506 6.9035 160.151 6.56938C163.792 6.23979 168.596 6.07329 174.56 6.07329C178.698 6.07329 182.343 6.28396 185.49 6.69397C188.633 7.10964 191.451 7.81641 193.936 8.80859C196.42 9.80077 198.819 11.0036 201.141 12.4126C203.458 13.8205 206.024 15.5137 208.842 17.5049C209.667 18.1686 211.078 19.2423 213.066 20.7306C215.052 22.22 216.457 23.4659 217.289 24.4592C222.09 29.9241 225.525 37.5852 227.598 47.4357C229.666 57.2929 230.705 68.5942 230.705 81.3476C230.705 84.1645 230.662 87.0232 230.578 89.9205C230.495 92.8177 230.454 95.6765 230.454 98.4876C230.454 104.454 230.414 109.212 230.33 112.773C230.246 116.339 230.122 119.398 229.958 121.966C229.791 124.534 229.543 127.021 229.213 129.416C228.879 131.822 228.383 134.758 227.721 138.237C226.891 142.548 226.146 146.232 225.485 149.292C224.822 152.361 224.078 155.091 223.252 157.491C222.421 159.892 221.426 162.006 220.269 163.825C219.109 165.649 217.784 167.471 216.295 169.29C212.319 174.097 208.718 177.366 205.49 179.103C202.258 180.841 198.819 182.297 195.18 183.452C192.528 184.277 189.752 184.978 186.855 185.561C183.955 186.144 180.187 186.435 175.553 186.435C162.797 186.435 152.201 184.358 143.756 180.22C135.307 176.083 129.179 170.617 125.37 163.825C124.539 162.336 123.713 160.513 122.885 158.361C122.054 156.207 121.273 154.098 120.525 152.027C119.781 149.955 119.198 148.093 118.789 146.437C118.372 144.781 118.082 143.621 117.917 142.958C117.585 141.469 117.296 139.522 117.049 137.12C116.8 134.72 116.589 132.319 116.428 129.912C116.261 127.518 116.136 125.359 116.056 123.455C115.97 121.556 115.931 120.435 115.931 120.105V116.626C115.931 114.97 115.97 113.146 116.056 111.161C116.136 109.169 116.179 107.309 116.179 105.571V101.967C116.179 101.309 116.136 100.106 116.056 98.3631C115.97 96.6267 115.931 94.8089 115.931 92.8981C115.931 90.9998 115.888 89.1763 115.808 87.4332C115.722 85.6958 115.683 84.4125 115.683 83.5823Z" fill="var(--fill-0, #F27156)"/>
</g>
</svg>
